# Blender 3.4.1
# www.blender.org
mtllib Untitled.019.mtl
o Untitled.019
v -3.600000 10.500001 -5.699998
v -3.600000 10.400001 -5.699998
v -3.600000 10.500001 -5.799998
v -3.600000 10.400001 -5.799998
v -3.600000 10.500001 -5.899998
v -3.600000 10.400001 -5.899998
v -3.500000 10.500001 -5.899998
v -3.500000 10.400001 -5.899998
v -3.500000 10.500001 -5.999998
v -3.500000 10.400001 -5.999998
v -3.400000 10.500001 -5.999998
v -3.400000 10.400001 -5.999998
v -3.400000 10.500001 -6.099998
v -3.400000 10.400001 -6.099998
v -3.200000 10.500001 -5.199998
v -3.200000 10.400001 -5.199998
v -3.200000 10.500001 -5.899998
v -3.200000 10.400001 -5.899998
v -2.900000 10.500001 -5.799998
v -2.900000 10.400001 -5.799998
v -2.900000 10.500001 -5.899998
v -2.900000 10.400001 -5.899998
v -2.800000 10.500001 -5.699998
v -2.800000 10.400001 -5.699998
v -2.800000 10.500001 -5.799998
v -2.800000 10.400001 -5.799998
v -3.500000 10.500001 -5.699998
v -3.500000 10.400001 -5.699998
v -3.500000 10.500001 -5.799998
v -3.500000 10.400001 -5.799998
v -3.400000 10.500001 -5.799998
v -3.400000 10.400001 -5.799998
v -3.400000 10.500001 -5.899998
v -3.400000 10.400001 -5.899998
v -3.100000 10.500001 -5.199998
v -3.100000 10.400001 -5.199998
v -3.100000 10.500001 -5.899998
v -3.100000 10.400001 -5.899998
v -2.900000 10.500001 -5.999998
v -2.900000 10.400001 -5.999998
v -2.900000 10.500001 -6.099998
v -2.900000 10.400001 -6.099998
v -2.800000 10.500001 -5.899998
v -2.800000 10.400001 -5.899998
v -2.800000 10.500001 -5.999998
v -2.800000 10.400001 -5.999998
v -2.700000 10.500001 -5.699998
v -2.700000 10.400001 -5.699998
v -2.700000 10.500001 -5.799998
v -2.700000 10.400001 -5.799998
v -2.700000 10.500001 -5.899998
v -2.700000 10.400001 -5.899998
v -3.600000 10.500001 -5.699998
v -3.600000 10.500001 -5.799998
v -3.600000 10.500001 -5.899998
v -3.500000 10.500001 -5.699998
v -3.500000 10.500001 -5.799998
v -3.500000 10.500001 -5.899998
v -3.500000 10.500001 -5.999998
v -3.400000 10.500001 -5.799998
v -3.400000 10.500001 -5.899998
v -3.400000 10.500001 -5.999998
v -3.400000 10.500001 -6.099998
v -3.200000 10.500001 -5.199998
v -3.200000 10.500001 -5.899998
v -3.100000 10.500001 -5.199998
v -3.100000 10.500001 -5.899998
v -2.900000 10.500001 -5.799998
v -2.900000 10.500001 -5.899998
v -2.900000 10.500001 -5.999998
v -2.900000 10.500001 -6.099998
v -2.800000 10.500001 -5.699998
v -2.800000 10.500001 -5.799998
v -2.800000 10.500001 -5.899998
v -2.800000 10.500001 -5.999998
v -2.700000 10.500001 -5.699998
v -2.700000 10.500001 -5.799998
v -2.700000 10.500001 -5.899998
v -3.600000 10.400001 -5.699998
v -3.600000 10.400001 -5.799998
v -3.600000 10.400001 -5.899998
v -3.500000 10.400001 -5.699998
v -3.500000 10.400001 -5.799998
v -3.500000 10.400001 -5.899998
v -3.500000 10.400001 -5.999998
v -3.400000 10.400001 -5.799998
v -3.400000 10.400001 -5.899998
v -3.400000 10.400001 -5.999998
v -3.400000 10.400001 -6.099998
v -3.200000 10.400001 -5.199998
v -3.200000 10.400001 -5.899998
v -3.100000 10.400001 -5.199998
v -3.100000 10.400001 -5.899998
v -2.900000 10.400001 -5.799998
v -2.900000 10.400001 -5.899998
v -2.900000 10.400001 -5.999998
v -2.900000 10.400001 -6.099998
v -2.800000 10.400001 -5.699998
v -2.800000 10.400001 -5.799998
v -2.800000 10.400001 -5.899998
v -2.800000 10.400001 -5.999998
v -2.700000 10.400001 -5.699998
v -2.700000 10.400001 -5.799998
v -2.700000 10.400001 -5.899998
v -3.200000 10.500001 -5.199998
v -3.100000 10.500001 -5.199998
v -3.200000 10.400001 -5.199998
v -3.100000 10.400001 -5.199998
v -3.600000 10.500001 -5.699998
v -3.500000 10.500001 -5.699998
v -2.800000 10.500001 -5.699998
v -2.700000 10.500001 -5.699998
v -3.600000 10.400001 -5.699998
v -3.500000 10.400001 -5.699998
v -2.800000 10.400001 -5.699998
v -2.700000 10.400001 -5.699998
v -3.500000 10.500001 -5.799998
v -3.400000 10.500001 -5.799998
v -2.900000 10.500001 -5.799998
v -2.800000 10.500001 -5.799998
v -3.500000 10.400001 -5.799998
v -3.400000 10.400001 -5.799998
v -2.900000 10.400001 -5.799998
v -2.800000 10.400001 -5.799998
v -3.400000 10.500001 -5.899998
v -3.200000 10.500001 -5.899998
v -3.100000 10.500001 -5.899998
v -2.900000 10.500001 -5.899998
v -3.400000 10.400001 -5.899998
v -3.200000 10.400001 -5.899998
v -3.100000 10.400001 -5.899998
v -2.900000 10.400001 -5.899998
v -3.600000 10.500001 -5.899998
v -3.500000 10.500001 -5.899998
v -2.800000 10.500001 -5.899998
v -2.700000 10.500001 -5.899998
v -3.600000 10.400001 -5.899998
v -3.500000 10.400001 -5.899998
v -2.800000 10.400001 -5.899998
v -2.700000 10.400001 -5.899998
v -3.500000 10.500001 -5.999998
v -3.400000 10.500001 -5.999998
v -2.900000 10.500001 -5.999998
v -2.800000 10.500001 -5.999998
v -3.500000 10.400001 -5.999998
v -3.400000 10.400001 -5.999998
v -2.900000 10.400001 -5.999998
v -2.800000 10.400001 -5.999998
v -3.400000 10.500001 -6.099998
v -2.900000 10.500001 -6.099998
v -3.400000 10.400001 -6.099998
v -2.900000 10.400001 -6.099998
vn -1.0000 -0.0000 -0.0000
vn 1.0000 -0.0000 -0.0000
vn -0.0000 1.0000 -0.0000
vn -0.0000 -1.0000 -0.0000
vn -0.0000 -0.0000 1.0000
vn -0.0000 -0.0000 -1.0000
vt 0.470703 0.500000
vt 0.470703 0.500000
vt 0.470703 0.500000
vt 0.482422 0.500000
vt 0.470703 0.500000
vt 0.482422 0.500000
vt 0.482422 0.500000
vt 0.482422 0.500000
vt 0.482422 0.500000
vt 0.482422 0.500000
vt 0.482422 0.500000
vt 0.482422 0.500000
vt 0.482422 0.500000
vt 0.482422 0.500000
vt 0.482422 0.500000
vt 0.482422 0.500000
vt 0.490234 0.500000
vt 0.490234 0.500000
vt 0.490234 0.500000
vt 0.490234 0.500000
vt 0.470703 0.500000
vt 0.470703 0.500000
vt 0.470703 0.500000
vt 0.470703 0.500000
vt 0.470703 0.500000
vt 0.470703 0.500000
vt 0.470703 0.500000
vt 0.470703 0.500000
vt 0.470703 0.500000
vt 0.470703 0.500000
vt 0.470703 0.500000
vt 0.470703 0.500000
vt 0.470703 0.500000
vt 0.470703 0.500000
vt 0.470703 0.500000
vt 0.470703 0.500000
vt 0.490234 0.500000
vt 0.490234 0.500000
vt 0.490234 0.500000
vt 0.490234 0.500000
vt 0.482422 0.500000
vt 0.482422 0.500000
vt 0.482422 0.500000
vt 0.482422 0.500000
vt 0.482422 0.500000
vt 0.482422 0.500000
vt 0.482422 0.500000
vt 0.482422 0.500000
vt 0.470703 0.500000
vt 0.470703 0.500000
vt 0.470703 0.500000
vt 0.482422 0.500000
vt 0.470703 0.500000
vt 0.482422 0.500000
vt 0.482422 0.500000
vt 0.482422 0.500000
vt 0.470703 0.500000
vt 0.482422 0.500000
vt 0.470703 0.500000
vt 0.482422 0.500000
vt 0.470703 0.500000
vt 0.482422 0.500000
vt 0.470703 0.500000
vt 0.482422 0.500000
vt 0.470703 0.500000
vt 0.482422 0.500000
vt 0.470703 0.500000
vt 0.482422 0.500000
vt 0.470703 0.500000
vt 0.482422 0.500000
vt 0.470703 0.500000
vt 0.482422 0.500000
vt 0.490234 0.500000
vt 0.470703 0.500000
vt 0.490234 0.500000
vt 0.490234 0.500000
vt 0.490234 0.500000
vt 0.470703 0.500000
vt 0.470703 0.500000
vt 0.482422 0.500000
vt 0.470703 0.500000
vt 0.470703 0.500000
vt 0.482422 0.500000
vt 0.482422 0.500000
vt 0.470703 0.500000
vt 0.482422 0.500000
vt 0.470703 0.500000
vt 0.470703 0.500000
vt 0.482422 0.500000
vt 0.482422 0.500000
vt 0.470703 0.500000
vt 0.470703 0.500000
vt 0.482422 0.500000
vt 0.482422 0.500000
vt 0.470703 0.500000
vt 0.482422 0.500000
vt 0.470703 0.500000
vt 0.482422 0.500000
vt 0.470703 0.500000
vt 0.482422 0.500000
vt 0.470703 0.500000
vt 0.482422 0.500000
vt 0.470703 0.500000
vt 0.482422 0.500000
vt 0.470703 0.500000
vt 0.482422 0.500000
vt 0.470703 0.500000
vt 0.482422 0.500000
vt 0.470703 0.500000
vt 0.482422 0.500000
vt 0.490234 0.500000
vt 0.470703 0.500000
vt 0.490234 0.500000
vt 0.490234 0.500000
vt 0.490234 0.500000
vt 0.470703 0.500000
vt 0.470703 0.500000
vt 0.482422 0.500000
vt 0.470703 0.500000
vt 0.470703 0.500000
vt 0.482422 0.500000
vt 0.482422 0.500000
vt 0.470703 0.500000
vt 0.482422 0.500000
vt 0.470703 0.500000
vt 0.470703 0.500000
vt 0.482422 0.500000
vt 0.482422 0.500000
vt 0.470703 0.500000
vt 0.470703 0.500000
vt 0.482422 0.500000
vt 0.482422 0.500000
vt 0.490234 0.500000
vt 0.490234 0.500000
vt 0.490234 0.500000
vt 0.490234 0.500000
vt 0.470703 0.500000
vt 0.470703 0.500000
vt 0.470703 0.500000
vt 0.470703 0.500000
vt 0.470703 0.500000
vt 0.470703 0.500000
vt 0.470703 0.500000
vt 0.470703 0.500000
vt 0.470703 0.500000
vt 0.470703 0.500000
vt 0.470703 0.500000
vt 0.470703 0.500000
vt 0.470703 0.500000
vt 0.470703 0.500000
vt 0.470703 0.500000
vt 0.470703 0.500000
vt 0.470703 0.500000
vt 0.470703 0.500000
vt 0.470703 0.500000
vt 0.470703 0.500000
vt 0.470703 0.500000
vt 0.470703 0.500000
vt 0.470703 0.500000
vt 0.470703 0.500000
vt 0.482422 0.500000
vt 0.482422 0.500000
vt 0.482422 0.500000
vt 0.482422 0.500000
vt 0.482422 0.500000
vt 0.482422 0.500000
vt 0.482422 0.500000
vt 0.482422 0.500000
vt 0.482422 0.500000
vt 0.482422 0.500000
vt 0.482422 0.500000
vt 0.482422 0.500000
vt 0.482422 0.500000
vt 0.482422 0.500000
vt 0.482422 0.500000
vt 0.482422 0.500000
vt 0.482422 0.500000
vt 0.482422 0.500000
vt 0.482422 0.500000
vt 0.482422 0.500000
s 0
usemtl palette.019
f 3/3/1 2/2/1 1/1/1
f 4/5/1 2/2/1 3/3/1
f 5/7/1 4/6/1 3/4/1
f 6/8/1 4/6/1 5/7/1
f 9/11/1 8/10/1 7/9/1
f 10/12/1 8/10/1 9/11/1
f 13/15/1 12/14/1 11/13/1
f 14/16/1 12/14/1 13/15/1
f 17/19/1 16/18/1 15/17/1
f 18/20/1 16/18/1 17/19/1
f 21/23/1 20/22/1 19/21/1
f 22/24/1 20/22/1 21/23/1
f 25/27/1 24/26/1 23/25/1
f 26/28/1 24/26/1 25/27/1
f 27/29/2 28/30/2 29/31/2
f 29/31/2 28/30/2 30/32/2
f 31/33/2 32/34/2 33/35/2
f 33/35/2 32/34/2 34/36/2
f 35/37/2 36/38/2 37/39/2
f 37/39/2 36/38/2 38/40/2
f 39/41/2 40/42/2 41/43/2
f 41/43/2 40/42/2 42/44/2
f 43/45/2 44/46/2 45/47/2
f 45/47/2 44/46/2 46/48/2
f 47/49/2 48/50/2 49/51/2
f 49/51/2 48/50/2 50/53/2
f 49/52/2 50/54/2 51/55/2
f 51/55/2 50/54/2 52/56/2
f 56/61/3 54/59/3 53/57/3
f 57/62/3 55/60/3 54/58/3
f 57/63/3 54/59/3 56/61/3
f 58/64/3 55/60/3 57/62/3
f 60/67/3 58/65/3 57/63/3
f 61/68/3 59/66/3 58/64/3
f 61/69/3 58/65/3 60/67/3
f 62/70/3 59/66/3 61/68/3
f 65/74/3 62/71/3 61/69/3
f 66/76/3 65/75/3 64/73/3
f 67/78/3 62/71/3 65/74/3
f 67/77/3 65/75/3 66/76/3
f 69/81/3 62/71/3 67/78/3
f 70/83/3 63/72/3 62/70/3
f 70/82/3 62/71/3 69/81/3
f 71/84/3 63/72/3 70/83/3
f 73/87/3 69/81/3 68/79/3
f 74/89/3 70/83/3 69/80/3
f 74/88/3 69/81/3 73/87/3
f 75/90/3 70/83/3 74/89/3
f 76/91/3 73/87/3 72/85/3
f 77/93/3 74/89/3 73/86/3
f 77/92/3 73/87/3 76/91/3
f 78/94/3 74/89/3 77/93/3
f 79/95/4 80/97/4 82/99/4
f 80/96/4 81/98/4 83/100/4
f 82/99/4 80/97/4 83/101/4
f 83/100/4 81/98/4 84/102/4
f 83/101/4 84/103/4 86/105/4
f 84/102/4 85/104/4 87/106/4
f 86/105/4 84/103/4 87/107/4
f 87/106/4 85/104/4 88/108/4
f 87/107/4 88/109/4 91/112/4
f 90/111/4 91/113/4 92/114/4
f 91/112/4 88/109/4 93/116/4
f 92/114/4 91/113/4 93/115/4
f 93/116/4 88/109/4 95/119/4
f 88/108/4 89/110/4 96/121/4
f 95/119/4 88/109/4 96/120/4
f 96/121/4 89/110/4 97/122/4
f 94/117/4 95/119/4 99/125/4
f 95/118/4 96/121/4 100/127/4
f 99/125/4 95/119/4 100/126/4
f 100/127/4 96/121/4 101/128/4
f 98/123/4 99/125/4 102/129/4
f 99/124/4 100/127/4 103/131/4
f 102/129/4 99/125/4 103/130/4
f 103/131/4 100/127/4 104/132/4
f 107/135/5 106/134/5 105/133/5
f 108/136/5 106/134/5 107/135/5
f 113/141/5 110/138/5 109/137/5
f 114/142/5 110/138/5 113/141/5
f 115/143/5 112/140/5 111/139/5
f 116/144/5 112/140/5 115/143/5
f 121/149/5 118/146/5 117/145/5
f 122/150/5 118/146/5 121/149/5
f 123/151/5 120/148/5 119/147/5
f 124/152/5 120/148/5 123/151/5
f 129/157/5 126/154/5 125/153/5
f 130/158/5 126/154/5 129/157/5
f 131/159/5 128/156/5 127/155/5
f 132/160/5 128/156/5 131/159/5
f 133/161/6 134/162/6 137/165/6
f 137/165/6 134/162/6 138/166/6
f 135/163/6 136/164/6 139/167/6
f 139/167/6 136/164/6 140/168/6
f 141/169/6 142/170/6 145/173/6
f 145/173/6 142/170/6 146/174/6
f 143/171/6 144/172/6 147/175/6
f 147/175/6 144/172/6 148/176/6
f 149/177/6 150/178/6 151/179/6
f 151/179/6 150/178/6 152/180/6
