# Blender 3.4.1
# www.blender.org
mtllib Untitled.032.mtl
o Untitled.032
v -1.800000 5.000000 -0.399999
v -1.800000 5.000000 -0.299999
v -1.800000 5.000000 -0.199999
v -1.800000 5.000000 0.000001
v -1.800000 5.000000 0.100001
v -1.800000 5.000000 0.300001
v -1.800000 5.000000 0.400001
v -1.800000 6.700000 -0.399999
v -1.800000 6.700000 -0.299999
v -1.800000 6.900000 -0.299999
v -1.800000 6.900000 -0.199999
v -1.800000 7.000000 -0.199999
v -1.800000 7.000000 -0.099999
v -1.800000 7.100000 -0.099999
v -1.800000 7.100000 0.000001
v -1.800000 7.200000 0.000001
v -1.800000 7.200000 0.100001
v -1.800000 7.200000 0.300001
v -1.800000 7.200000 0.400001
v -1.600000 5.000000 -0.399999
v -1.600000 5.000000 -0.299999
v -1.600000 5.000000 -0.199999
v -1.600000 5.000000 0.000001
v -1.600000 5.000000 0.100001
v -1.600000 5.000000 0.300001
v -1.600000 5.000000 0.400001
v -1.600000 5.800000 0.200001
v -1.600000 5.800000 0.300001
v -1.600000 5.800000 0.400001
v -1.600000 6.000000 0.200001
v -1.600000 6.000000 0.300001
v -1.600000 6.000000 0.400001
v -1.600000 6.700000 -0.399999
v -1.600000 6.700000 -0.299999
v -1.600000 6.900000 -0.299999
v -1.600000 6.900000 -0.199999
v -1.600000 7.000000 -0.199999
v -1.600000 7.000000 -0.099999
v -1.600000 7.100000 -0.099999
v -1.600000 7.100000 0.000001
v -1.600000 7.200000 0.000001
v -1.600000 7.200000 0.100001
v -1.600000 7.200000 0.300001
v -1.600000 7.200000 0.400001
v -1.500000 5.800000 0.200001
v -1.500000 5.800000 0.400001
v -1.500000 6.000000 0.200001
v -1.500000 6.000000 0.400001
v -1.800000 5.000000 -0.399999
v -1.800000 6.700000 -0.399999
v -1.600000 5.000000 -0.399999
v -1.600000 6.700000 -0.399999
v -1.800000 6.700000 -0.299999
v -1.800000 6.900000 -0.299999
v -1.600000 6.700000 -0.299999
v -1.600000 6.900000 -0.299999
v -1.800000 6.900000 -0.199999
v -1.800000 7.000000 -0.199999
v -1.600000 6.900000 -0.199999
v -1.600000 7.000000 -0.199999
v -1.800000 7.000000 -0.099999
v -1.800000 7.100000 -0.099999
v -1.600000 7.000000 -0.099999
v -1.600000 7.100000 -0.099999
v -1.800000 7.100000 0.000001
v -1.800000 7.200000 0.000001
v -1.600000 7.100000 0.000001
v -1.600000 7.200000 0.000001
v -1.600000 5.800000 0.200001
v -1.600000 6.000000 0.200001
v -1.500000 5.800000 0.200001
v -1.500000 6.000000 0.200001
v -1.800000 5.000000 0.400001
v -1.800000 7.200000 0.400001
v -1.600000 5.000000 0.400001
v -1.600000 5.800000 0.400001
v -1.600000 6.000000 0.400001
v -1.600000 7.200000 0.400001
v -1.500000 5.800000 0.400001
v -1.500000 6.000000 0.400001
v -1.800000 5.000000 -0.399999
v -1.600000 5.000000 -0.399999
v -1.800000 5.000000 -0.299999
v -1.600000 5.000000 -0.299999
v -1.800000 5.000000 -0.199999
v -1.600000 5.000000 -0.199999
v -1.800000 5.000000 0.000001
v -1.600000 5.000000 0.000001
v -1.800000 5.000000 0.100001
v -1.600000 5.000000 0.100001
v -1.800000 5.000000 0.300001
v -1.600000 5.000000 0.300001
v -1.800000 5.000000 0.400001
v -1.600000 5.000000 0.400001
v -1.600000 5.800000 0.200001
v -1.500000 5.800000 0.200001
v -1.600000 5.800000 0.300001
v -1.600000 5.800000 0.400001
v -1.500000 5.800000 0.400001
v -1.600000 6.000000 0.200001
v -1.500000 6.000000 0.200001
v -1.600000 6.000000 0.300001
v -1.600000 6.000000 0.400001
v -1.500000 6.000000 0.400001
v -1.800000 6.700000 -0.399999
v -1.600000 6.700000 -0.399999
v -1.800000 6.700000 -0.299999
v -1.600000 6.700000 -0.299999
v -1.800000 6.900000 -0.299999
v -1.600000 6.900000 -0.299999
v -1.800000 6.900000 -0.199999
v -1.600000 6.900000 -0.199999
v -1.800000 7.000000 -0.199999
v -1.600000 7.000000 -0.199999
v -1.800000 7.000000 -0.099999
v -1.600000 7.000000 -0.099999
v -1.800000 7.100000 -0.099999
v -1.600000 7.100000 -0.099999
v -1.800000 7.100000 0.000001
v -1.600000 7.100000 0.000001
v -1.800000 7.200000 0.000001
v -1.600000 7.200000 0.000001
v -1.800000 7.200000 0.100001
v -1.600000 7.200000 0.100001
v -1.800000 7.200000 0.300001
v -1.600000 7.200000 0.300001
v -1.800000 7.200000 0.400001
v -1.600000 7.200000 0.400001
vn -1.0000 -0.0000 -0.0000
vn 1.0000 -0.0000 -0.0000
vn -0.0000 -0.0000 -1.0000
vn -0.0000 -0.0000 1.0000
vn -0.0000 -1.0000 -0.0000
vn -0.0000 1.0000 -0.0000
vt 0.283203 0.500000
vt 0.291016 0.500000
vt 0.283203 0.500000
vt 0.283203 0.500000
vt 0.291016 0.500000
vt 0.291016 0.500000
vt 0.283203 0.500000
vt 0.283203 0.500000
vt 0.291016 0.500000
vt 0.291016 0.500000
vt 0.283203 0.500000
vt 0.291016 0.500000
vt 0.283203 0.500000
vt 0.283203 0.500000
vt 0.291016 0.500000
vt 0.291016 0.500000
vt 0.291016 0.500000
vt 0.283203 0.500000
vt 0.283203 0.500000
vt 0.283203 0.500000
vt 0.283203 0.500000
vt 0.283203 0.500000
vt 0.291016 0.500000
vt 0.291016 0.500000
vt 0.291016 0.500000
vt 0.283203 0.500000
vt 0.283203 0.500000
vt 0.291016 0.500000
vt 0.291016 0.500000
vt 0.283203 0.500000
vt 0.291016 0.500000
vt 0.283203 0.500000
vt 0.283203 0.500000
vt 0.291016 0.500000
vt 0.291016 0.500000
vt 0.283203 0.500000
vt 0.283203 0.500000
vt 0.291016 0.500000
vt 0.291016 0.500000
vt 0.283203 0.500000
vt 0.291016 0.500000
vt 0.283203 0.500000
vt 0.283203 0.500000
vt 0.291016 0.500000
vt 0.291016 0.500000
vt 0.283203 0.500000
vt 0.291016 0.500000
vt 0.283203 0.500000
vt 0.291016 0.500000
vt 0.283203 0.500000
vt 0.283203 0.500000
vt 0.291016 0.500000
vt 0.291016 0.500000
vt 0.291016 0.500000
vt 0.283203 0.500000
vt 0.283203 0.500000
vt 0.283203 0.500000
vt 0.283203 0.500000
vt 0.283203 0.500000
vt 0.291016 0.500000
vt 0.291016 0.500000
vt 0.291016 0.500000
vt 0.283203 0.500000
vt 0.283203 0.500000
vt 0.291016 0.500000
vt 0.291016 0.500000
vt 0.029297 0.500000
vt 0.029297 0.500000
vt 0.029297 0.500000
vt 0.029297 0.500000
vt 0.283203 0.500000
vt 0.283203 0.500000
vt 0.283203 0.500000
vt 0.283203 0.500000
vt 0.291016 0.500000
vt 0.291016 0.500000
vt 0.291016 0.500000
vt 0.291016 0.500000
vt 0.283203 0.500000
vt 0.283203 0.500000
vt 0.283203 0.500000
vt 0.283203 0.500000
vt 0.283203 0.500000
vt 0.283203 0.500000
vt 0.283203 0.500000
vt 0.283203 0.500000
vt 0.291016 0.500000
vt 0.291016 0.500000
vt 0.291016 0.500000
vt 0.291016 0.500000
vt 0.029297 0.500000
vt 0.029297 0.500000
vt 0.029297 0.500000
vt 0.029297 0.500000
vt 0.291016 0.500000
vt 0.291016 0.500000
vt 0.291016 0.500000
vt 0.291016 0.500000
vt 0.029297 0.500000
vt 0.291016 0.500000
vt 0.029297 0.500000
vt 0.291016 0.500000
vt 0.029297 0.500000
vt 0.029297 0.500000
vt 0.283203 0.500000
vt 0.283203 0.500000
vt 0.283203 0.500000
vt 0.291016 0.500000
vt 0.283203 0.500000
vt 0.291016 0.500000
vt 0.291016 0.500000
vt 0.283203 0.500000
vt 0.291016 0.500000
vt 0.283203 0.500000
vt 0.283203 0.500000
vt 0.291016 0.500000
vt 0.283203 0.500000
vt 0.291016 0.500000
vt 0.291016 0.500000
vt 0.283203 0.500000
vt 0.291016 0.500000
vt 0.283203 0.500000
vt 0.283203 0.500000
vt 0.291016 0.500000
vt 0.283203 0.500000
vt 0.291016 0.500000
vt 0.291016 0.500000
vt 0.291016 0.500000
vt 0.029297 0.500000
vt 0.029297 0.500000
vt 0.029297 0.500000
vt 0.029297 0.500000
vt 0.029297 0.500000
vt 0.029297 0.500000
vt 0.029297 0.500000
vt 0.029297 0.500000
vt 0.029297 0.500000
vt 0.029297 0.500000
vt 0.283203 0.500000
vt 0.283203 0.500000
vt 0.283203 0.500000
vt 0.283203 0.500000
vt 0.291016 0.500000
vt 0.291016 0.500000
vt 0.291016 0.500000
vt 0.291016 0.500000
vt 0.283203 0.500000
vt 0.283203 0.500000
vt 0.283203 0.500000
vt 0.283203 0.500000
vt 0.283203 0.500000
vt 0.283203 0.500000
vt 0.283203 0.500000
vt 0.283203 0.500000
vt 0.291016 0.500000
vt 0.291016 0.500000
vt 0.291016 0.500000
vt 0.283203 0.500000
vt 0.291016 0.500000
vt 0.283203 0.500000
vt 0.283203 0.500000
vt 0.291016 0.500000
vt 0.283203 0.500000
vt 0.291016 0.500000
vt 0.291016 0.500000
vt 0.291016 0.500000
s 0
usemtl palette.032
f 1/1/1 2/3/1 8/13/1
f 2/2/1 3/5/1 9/15/1
f 8/13/1 2/3/1 9/14/1
f 9/15/1 3/5/1 10/16/1
f 3/4/1 4/7/1 11/18/1
f 10/16/1 3/5/1 11/17/1
f 11/18/1 4/7/1 12/19/1
f 12/19/1 4/7/1 13/20/1
f 13/20/1 4/7/1 14/21/1
f 4/6/1 5/9/1 15/23/1
f 14/21/1 4/7/1 15/22/1
f 15/23/1 5/9/1 16/24/1
f 5/8/1 6/11/1 17/26/1
f 16/24/1 5/9/1 17/25/1
f 6/10/1 7/12/1 18/28/1
f 17/26/1 6/11/1 18/27/1
f 18/28/1 7/12/1 19/29/1
f 27/42/2 25/40/2 24/37/2
f 28/44/2 26/41/2 25/39/2
f 28/43/2 25/40/2 27/42/2
f 29/45/2 26/41/2 28/44/2
f 30/46/2 27/42/2 24/37/2
f 33/50/2 21/32/2 20/30/2
f 34/52/2 22/34/2 21/31/2
f 34/51/2 21/32/2 33/50/2
f 35/53/2 22/34/2 34/52/2
f 36/55/2 23/36/2 22/33/2
f 36/54/2 22/34/2 35/53/2
f 37/56/2 23/36/2 36/55/2
f 38/57/2 23/36/2 37/56/2
f 39/58/2 23/36/2 38/57/2
f 40/60/2 24/38/2 23/35/2
f 40/59/2 23/36/2 39/58/2
f 41/61/2 24/38/2 40/60/2
f 42/63/2 30/46/2 24/37/2
f 42/62/2 24/38/2 41/61/2
f 42/63/2 31/48/2 30/46/2
f 43/65/2 32/49/2 31/47/2
f 43/64/2 31/48/2 42/63/2
f 44/66/2 32/49/2 43/65/2
f 47/69/2 46/68/2 45/67/2
f 48/70/2 46/68/2 47/69/2
f 49/71/3 50/72/3 51/73/3
f 51/73/3 50/72/3 52/74/3
f 53/75/3 54/76/3 55/77/3
f 55/77/3 54/76/3 56/78/3
f 57/79/3 58/80/3 59/81/3
f 59/81/3 58/80/3 60/82/3
f 61/83/3 62/84/3 63/85/3
f 63/85/3 62/84/3 64/86/3
f 65/87/3 66/88/3 67/89/3
f 67/89/3 66/88/3 68/90/3
f 69/91/3 70/92/3 71/93/3
f 71/93/3 70/92/3 72/94/3
f 75/97/4 74/96/4 73/95/4
f 76/98/4 74/96/4 75/97/4
f 77/100/4 74/96/4 76/98/4
f 78/102/4 74/96/4 77/100/4
f 79/103/4 77/101/4 76/99/4
f 80/104/4 77/101/4 79/103/4
f 81/105/5 82/106/5 83/107/5
f 83/107/5 82/106/5 84/109/5
f 83/108/5 84/110/5 85/111/5
f 85/111/5 84/110/5 86/113/5
f 85/112/5 86/114/5 87/115/5
f 87/115/5 86/114/5 88/117/5
f 87/116/5 88/118/5 89/119/5
f 89/119/5 88/118/5 90/121/5
f 89/120/5 90/122/5 91/123/5
f 91/123/5 90/122/5 92/125/5
f 91/124/5 92/126/5 93/127/5
f 93/127/5 92/126/5 94/128/5
f 95/129/5 96/130/5 97/131/5
f 97/131/5 96/130/5 98/132/5
f 98/132/5 96/130/5 99/133/5
f 102/136/6 101/135/6 100/134/6
f 103/137/6 101/135/6 102/136/6
f 104/138/6 101/135/6 103/137/6
f 107/141/6 106/140/6 105/139/6
f 108/142/6 106/140/6 107/141/6
f 111/145/6 110/144/6 109/143/6
f 112/146/6 110/144/6 111/145/6
f 115/149/6 114/148/6 113/147/6
f 116/150/6 114/148/6 115/149/6
f 119/153/6 118/152/6 117/151/6
f 120/154/6 118/152/6 119/153/6
f 123/157/6 122/156/6 121/155/6
f 124/159/6 122/156/6 123/157/6
f 125/161/6 124/160/6 123/158/6
f 126/163/6 124/160/6 125/161/6
f 127/165/6 126/164/6 125/162/6
f 128/166/6 126/164/6 127/165/6
