# Blender 3.4.1
# www.blender.org
mtllib Untitled.007.mtl
o Untitled.007
v -5.600000 4.799999 5.600001
v -5.600000 4.799999 5.500001
v -5.600000 4.799999 5.000001
v -5.600000 4.799999 4.900001
v -5.600000 4.999999 5.700001
v -5.600000 4.999999 5.600001
v -5.600000 4.999999 5.500001
v -5.600000 4.999999 5.400001
v -5.600000 4.999999 5.300001
v -5.600000 4.999999 5.200001
v -5.600000 4.999999 5.100001
v -5.600000 4.999999 5.000001
v -5.600000 4.999999 4.900001
v -5.600000 4.999999 4.800001
v -5.600000 5.099999 5.700001
v -5.600000 5.099999 5.600001
v -5.600000 5.099999 5.500001
v -5.600000 5.099999 5.400001
v -5.600000 5.099999 5.300001
v -5.600000 5.099999 5.200001
v -5.600000 5.099999 5.100001
v -5.600000 5.099999 5.000001
v -5.600000 5.099999 4.900001
v -5.600000 5.099999 4.800001
v -4.600000 4.799999 5.600001
v -4.600000 4.799999 5.500001
v -4.600000 4.799999 5.000001
v -4.600000 4.799999 4.900001
v -4.600000 4.999999 5.600001
v -4.600000 4.999999 5.500001
v -4.600000 4.999999 5.000001
v -4.600000 4.999999 4.900001
v -5.500000 4.799999 5.600001
v -5.500000 4.799999 5.500001
v -5.500000 4.799999 5.000001
v -5.500000 4.799999 4.900001
v -5.500000 4.999999 5.600001
v -5.500000 4.999999 5.500001
v -5.500000 4.999999 5.000001
v -5.500000 4.999999 4.900001
v -4.500000 4.799999 5.600001
v -4.500000 4.799999 5.500001
v -4.500000 4.799999 5.000001
v -4.500000 4.799999 4.900001
v -4.500000 4.999999 5.700001
v -4.500000 4.999999 5.600001
v -4.500000 4.999999 5.500001
v -4.500000 4.999999 5.400001
v -4.500000 4.999999 5.300001
v -4.500000 4.999999 5.200001
v -4.500000 4.999999 5.100001
v -4.500000 4.999999 5.000001
v -4.500000 4.999999 4.900001
v -4.500000 4.999999 4.800001
v -4.500000 5.099999 5.700001
v -4.500000 5.099999 5.600001
v -4.500000 5.099999 5.500001
v -4.500000 5.099999 5.400001
v -4.500000 5.099999 5.300001
v -4.500000 5.099999 5.200001
v -4.500000 5.099999 5.100001
v -4.500000 5.099999 5.000001
v -4.500000 5.099999 4.900001
v -4.500000 5.099999 4.800001
v -5.600000 4.999999 5.700001
v -5.600000 5.099999 5.700001
v -4.500000 4.999999 5.700001
v -4.500000 5.099999 5.700001
v -5.600000 4.799999 5.600001
v -5.600000 4.999999 5.600001
v -5.500000 4.799999 5.600001
v -5.500000 4.999999 5.600001
v -4.600000 4.799999 5.600001
v -4.600000 4.999999 5.600001
v -4.500000 4.799999 5.600001
v -4.500000 4.999999 5.600001
v -5.600000 4.799999 5.000001
v -5.600000 4.999999 5.000001
v -5.500000 4.799999 5.000001
v -5.500000 4.999999 5.000001
v -4.600000 4.799999 5.000001
v -4.600000 4.999999 5.000001
v -4.500000 4.799999 5.000001
v -4.500000 4.999999 5.000001
v -5.600000 4.799999 5.500001
v -5.600000 4.999999 5.500001
v -5.500000 4.799999 5.500001
v -5.500000 4.999999 5.500001
v -4.600000 4.799999 5.500001
v -4.600000 4.999999 5.500001
v -4.500000 4.799999 5.500001
v -4.500000 4.999999 5.500001
v -5.600000 4.799999 4.900001
v -5.600000 4.999999 4.900001
v -5.500000 4.799999 4.900001
v -5.500000 4.999999 4.900001
v -4.600000 4.799999 4.900001
v -4.600000 4.999999 4.900001
v -4.500000 4.799999 4.900001
v -4.500000 4.999999 4.900001
v -5.600000 4.999999 4.800001
v -5.600000 5.099999 4.800001
v -4.500000 4.999999 4.800001
v -4.500000 5.099999 4.800001
v -5.600000 4.799999 5.600001
v -5.500000 4.799999 5.600001
v -4.600000 4.799999 5.600001
v -4.500000 4.799999 5.600001
v -5.600000 4.799999 5.500001
v -5.500000 4.799999 5.500001
v -4.600000 4.799999 5.500001
v -4.500000 4.799999 5.500001
v -5.600000 4.799999 5.000001
v -5.500000 4.799999 5.000001
v -4.600000 4.799999 5.000001
v -4.500000 4.799999 5.000001
v -5.600000 4.799999 4.900001
v -5.500000 4.799999 4.900001
v -4.600000 4.799999 4.900001
v -4.500000 4.799999 4.900001
v -5.600000 4.999999 5.700001
v -4.500000 4.999999 5.700001
v -5.600000 4.999999 5.600001
v -5.500000 4.999999 5.600001
v -4.600000 4.999999 5.600001
v -4.500000 4.999999 5.600001
v -5.600000 4.999999 5.500001
v -5.500000 4.999999 5.500001
v -4.600000 4.999999 5.500001
v -4.500000 4.999999 5.500001
v -5.600000 4.999999 5.400001
v -4.500000 4.999999 5.400001
v -5.600000 4.999999 5.300001
v -4.500000 4.999999 5.300001
v -5.600000 4.999999 5.200001
v -4.500000 4.999999 5.200001
v -5.600000 4.999999 5.100001
v -4.500000 4.999999 5.100001
v -5.600000 4.999999 5.000001
v -5.500000 4.999999 5.000001
v -4.600000 4.999999 5.000001
v -4.500000 4.999999 5.000001
v -5.600000 4.999999 4.900001
v -5.500000 4.999999 4.900001
v -4.600000 4.999999 4.900001
v -4.500000 4.999999 4.900001
v -5.600000 4.999999 4.800001
v -4.500000 4.999999 4.800001
v -5.600000 5.099999 5.700001
v -4.500000 5.099999 5.700001
v -5.600000 5.099999 5.600001
v -4.500000 5.099999 5.600001
v -5.600000 5.099999 5.500001
v -4.500000 5.099999 5.500001
v -5.600000 5.099999 5.400001
v -4.500000 5.099999 5.400001
v -5.600000 5.099999 5.300001
v -4.500000 5.099999 5.300001
v -5.600000 5.099999 5.200001
v -4.500000 5.099999 5.200001
v -5.600000 5.099999 5.100001
v -4.500000 5.099999 5.100001
v -5.600000 5.099999 5.000001
v -4.500000 5.099999 5.000001
v -5.600000 5.099999 4.900001
v -4.500000 5.099999 4.900001
v -5.600000 5.099999 4.800001
v -4.500000 5.099999 4.800001
vn -1.0000 -0.0000 -0.0000
vn 1.0000 -0.0000 -0.0000
vn -0.0000 -0.0000 1.0000
vn -0.0000 -0.0000 -1.0000
vn -0.0000 -1.0000 -0.0000
vn -0.0000 1.0000 -0.0000
vt 0.490234 0.500000
vt 0.490234 0.500000
vt 0.490234 0.500000
vt 0.490234 0.500000
vt 0.462891 0.500000
vt 0.490234 0.500000
vt 0.462891 0.500000
vt 0.462891 0.500000
vt 0.490234 0.500000
vt 0.490234 0.500000
vt 0.462891 0.500000
vt 0.462891 0.500000
vt 0.490234 0.500000
vt 0.490234 0.500000
vt 0.462891 0.500000
vt 0.462891 0.500000
vt 0.490234 0.500000
vt 0.490234 0.500000
vt 0.462891 0.500000
vt 0.462891 0.500000
vt 0.490234 0.500000
vt 0.462891 0.500000
vt 0.462891 0.500000
vt 0.462891 0.500000
vt 0.490234 0.500000
vt 0.490234 0.500000
vt 0.462891 0.500000
vt 0.462891 0.500000
vt 0.490234 0.500000
vt 0.490234 0.500000
vt 0.462891 0.500000
vt 0.462891 0.500000
vt 0.490234 0.500000
vt 0.490234 0.500000
vt 0.462891 0.500000
vt 0.462891 0.500000
vt 0.490234 0.500000
vt 0.490234 0.500000
vt 0.462891 0.500000
vt 0.462891 0.500000
vt 0.490234 0.500000
vt 0.490234 0.500000
vt 0.490234 0.500000
vt 0.490234 0.500000
vt 0.490234 0.500000
vt 0.490234 0.500000
vt 0.490234 0.500000
vt 0.490234 0.500000
vt 0.490234 0.500000
vt 0.490234 0.500000
vt 0.490234 0.500000
vt 0.490234 0.500000
vt 0.490234 0.500000
vt 0.490234 0.500000
vt 0.490234 0.500000
vt 0.490234 0.500000
vt 0.490234 0.500000
vt 0.490234 0.500000
vt 0.490234 0.500000
vt 0.490234 0.500000
vt 0.462891 0.500000
vt 0.490234 0.500000
vt 0.462891 0.500000
vt 0.462891 0.500000
vt 0.490234 0.500000
vt 0.490234 0.500000
vt 0.462891 0.500000
vt 0.462891 0.500000
vt 0.490234 0.500000
vt 0.490234 0.500000
vt 0.462891 0.500000
vt 0.462891 0.500000
vt 0.490234 0.500000
vt 0.490234 0.500000
vt 0.462891 0.500000
vt 0.462891 0.500000
vt 0.490234 0.500000
vt 0.462891 0.500000
vt 0.462891 0.500000
vt 0.462891 0.500000
vt 0.490234 0.500000
vt 0.490234 0.500000
vt 0.462891 0.500000
vt 0.462891 0.500000
vt 0.490234 0.500000
vt 0.490234 0.500000
vt 0.462891 0.500000
vt 0.462891 0.500000
vt 0.490234 0.500000
vt 0.490234 0.500000
vt 0.462891 0.500000
vt 0.462891 0.500000
vt 0.490234 0.500000
vt 0.490234 0.500000
vt 0.462891 0.500000
vt 0.462891 0.500000
vt 0.462891 0.500000
vt 0.462891 0.500000
vt 0.462891 0.500000
vt 0.462891 0.500000
vt 0.490234 0.500000
vt 0.490234 0.500000
vt 0.490234 0.500000
vt 0.490234 0.500000
vt 0.490234 0.500000
vt 0.490234 0.500000
vt 0.490234 0.500000
vt 0.490234 0.500000
vt 0.490234 0.500000
vt 0.490234 0.500000
vt 0.490234 0.500000
vt 0.490234 0.500000
vt 0.490234 0.500000
vt 0.490234 0.500000
vt 0.490234 0.500000
vt 0.490234 0.500000
vt 0.490234 0.500000
vt 0.490234 0.500000
vt 0.490234 0.500000
vt 0.490234 0.500000
vt 0.490234 0.500000
vt 0.490234 0.500000
vt 0.490234 0.500000
vt 0.490234 0.500000
vt 0.490234 0.500000
vt 0.490234 0.500000
vt 0.490234 0.500000
vt 0.490234 0.500000
vt 0.490234 0.500000
vt 0.490234 0.500000
vt 0.490234 0.500000
vt 0.490234 0.500000
vt 0.462891 0.500000
vt 0.462891 0.500000
vt 0.462891 0.500000
vt 0.462891 0.500000
vt 0.490234 0.500000
vt 0.490234 0.500000
vt 0.490234 0.500000
vt 0.490234 0.500000
vt 0.490234 0.500000
vt 0.490234 0.500000
vt 0.490234 0.500000
vt 0.490234 0.500000
vt 0.490234 0.500000
vt 0.490234 0.500000
vt 0.490234 0.500000
vt 0.490234 0.500000
vt 0.490234 0.500000
vt 0.490234 0.500000
vt 0.490234 0.500000
vt 0.490234 0.500000
vt 0.462891 0.500000
vt 0.462891 0.500000
vt 0.462891 0.500000
vt 0.462891 0.500000
vt 0.490234 0.500000
vt 0.462891 0.500000
vt 0.490234 0.500000
vt 0.462891 0.500000
vt 0.462891 0.500000
vt 0.490234 0.500000
vt 0.462891 0.500000
vt 0.490234 0.500000
vt 0.462891 0.500000
vt 0.462891 0.500000
vt 0.462891 0.500000
vt 0.490234 0.500000
vt 0.462891 0.500000
vt 0.490234 0.500000
vt 0.490234 0.500000
vt 0.462891 0.500000
vt 0.490234 0.500000
vt 0.462891 0.500000
vt 0.462891 0.500000
vt 0.490234 0.500000
vt 0.462891 0.500000
vt 0.490234 0.500000
vt 0.490234 0.500000
vt 0.462891 0.500000
vt 0.490234 0.500000
vt 0.462891 0.500000
vt 0.462891 0.500000
vt 0.462891 0.500000
vt 0.490234 0.500000
vt 0.462891 0.500000
vt 0.490234 0.500000
vt 0.462891 0.500000
vt 0.462891 0.500000
vt 0.490234 0.500000
vt 0.462891 0.500000
vt 0.490234 0.500000
vt 0.462891 0.500000
vt 0.462891 0.500000
vt 0.462891 0.500000
vt 0.462891 0.500000
vt 0.462891 0.500000
vt 0.462891 0.500000
vt 0.462891 0.500000
vt 0.490234 0.500000
vt 0.462891 0.500000
vt 0.490234 0.500000
vt 0.490234 0.500000
vt 0.462891 0.500000
vt 0.490234 0.500000
vt 0.462891 0.500000
vt 0.462891 0.500000
vt 0.490234 0.500000
vt 0.462891 0.500000
vt 0.490234 0.500000
vt 0.490234 0.500000
vt 0.462891 0.500000
vt 0.490234 0.500000
vt 0.462891 0.500000
vt 0.462891 0.500000
vt 0.490234 0.500000
vt 0.462891 0.500000
vt 0.490234 0.500000
vt 0.490234 0.500000
vt 0.462891 0.500000
vt 0.490234 0.500000
vt 0.462891 0.500000
vt 0.462891 0.500000
vt 0.490234 0.500000
vt 0.462891 0.500000
vt 0.490234 0.500000
vt 0.490234 0.500000
vt 0.462891 0.500000
vt 0.490234 0.500000
vt 0.462891 0.500000
vt 0.462891 0.500000
vt 0.462891 0.500000
s 0
usemtl palette.007
f 6/6/1 2/2/1 1/1/1
f 7/9/1 2/2/1 6/6/1
f 12/18/1 4/4/1 3/3/1
f 13/21/1 4/4/1 12/18/1
f 15/23/1 6/7/1 5/5/1
f 16/25/1 7/9/1 6/6/1
f 16/24/1 6/7/1 15/23/1
f 17/27/1 8/11/1 7/8/1
f 17/26/1 7/9/1 16/25/1
f 18/29/1 9/13/1 8/10/1
f 18/28/1 8/11/1 17/27/1
f 19/31/1 10/15/1 9/12/1
f 19/30/1 9/13/1 18/29/1
f 20/33/1 11/17/1 10/14/1
f 20/32/1 10/15/1 19/31/1
f 21/35/1 12/19/1 11/16/1
f 21/34/1 11/17/1 20/33/1
f 22/37/1 13/21/1 12/18/1
f 22/36/1 12/19/1 21/35/1
f 23/39/1 14/22/1 13/20/1
f 23/38/1 13/21/1 22/37/1
f 24/40/1 14/22/1 23/39/1
f 29/45/1 26/42/1 25/41/1
f 30/46/1 26/42/1 29/45/1
f 31/47/1 28/44/1 27/43/1
f 32/48/1 28/44/1 31/47/1
f 33/49/2 34/50/2 37/53/2
f 37/53/2 34/50/2 38/54/2
f 35/51/2 36/52/2 39/55/2
f 39/55/2 36/52/2 40/56/2
f 41/57/2 42/58/2 46/62/2
f 46/62/2 42/58/2 47/65/2
f 43/59/2 44/60/2 52/74/2
f 52/74/2 44/60/2 53/77/2
f 45/61/2 46/63/2 55/79/2
f 46/62/2 47/65/2 56/81/2
f 55/79/2 46/63/2 56/80/2
f 47/64/2 48/67/2 57/83/2
f 56/81/2 47/65/2 57/82/2
f 48/66/2 49/69/2 58/85/2
f 57/83/2 48/67/2 58/84/2
f 49/68/2 50/71/2 59/87/2
f 58/85/2 49/69/2 59/86/2
f 50/70/2 51/73/2 60/89/2
f 59/87/2 50/71/2 60/88/2
f 51/72/2 52/75/2 61/91/2
f 60/89/2 51/73/2 61/90/2
f 52/74/2 53/77/2 62/93/2
f 61/91/2 52/75/2 62/92/2
f 53/76/2 54/78/2 63/95/2
f 62/93/2 53/77/2 63/94/2
f 63/95/2 54/78/2 64/96/2
f 67/99/3 66/98/3 65/97/3
f 68/100/3 66/98/3 67/99/3
f 71/103/3 70/102/3 69/101/3
f 72/104/3 70/102/3 71/103/3
f 75/107/3 74/106/3 73/105/3
f 76/108/3 74/106/3 75/107/3
f 79/111/3 78/110/3 77/109/3
f 80/112/3 78/110/3 79/111/3
f 83/115/3 82/114/3 81/113/3
f 84/116/3 82/114/3 83/115/3
f 85/117/4 86/118/4 87/119/4
f 87/119/4 86/118/4 88/120/4
f 89/121/4 90/122/4 91/123/4
f 91/123/4 90/122/4 92/124/4
f 93/125/4 94/126/4 95/127/4
f 95/127/4 94/126/4 96/128/4
f 97/129/4 98/130/4 99/131/4
f 99/131/4 98/130/4 100/132/4
f 101/133/4 102/134/4 103/135/4
f 103/135/4 102/134/4 104/136/4
f 109/141/5 106/138/5 105/137/5
f 110/142/5 106/138/5 109/141/5
f 111/143/5 108/140/5 107/139/5
f 112/144/5 108/140/5 111/143/5
f 117/149/5 114/146/5 113/145/5
f 118/150/5 114/146/5 117/149/5
f 119/151/5 116/148/5 115/147/5
f 120/152/5 116/148/5 119/151/5
f 123/155/5 122/154/5 121/153/5
f 124/156/5 122/154/5 123/155/5
f 125/158/5 122/154/5 124/156/5
f 126/160/5 122/154/5 125/158/5
f 128/162/5 125/159/5 124/157/5
f 129/164/5 125/159/5 128/162/5
f 131/167/5 128/163/5 127/161/5
f 131/167/5 130/166/5 129/165/5
f 131/167/5 129/165/5 128/163/5
f 132/169/5 130/166/5 131/167/5
f 133/171/5 132/170/5 131/168/5
f 134/173/5 132/170/5 133/171/5
f 135/175/5 134/174/5 133/172/5
f 136/177/5 134/174/5 135/175/5
f 137/179/5 136/178/5 135/176/5
f 138/181/5 136/178/5 137/179/5
f 139/183/5 138/182/5 137/180/5
f 140/184/5 138/182/5 139/183/5
f 141/186/5 138/182/5 140/184/5
f 142/188/5 138/182/5 141/186/5
f 144/190/5 141/187/5 140/185/5
f 145/192/5 141/187/5 144/190/5
f 147/195/5 144/191/5 143/189/5
f 147/195/5 146/194/5 145/193/5
f 147/195/5 145/193/5 144/191/5
f 148/196/5 146/194/5 147/195/5
f 149/197/6 150/198/6 151/199/6
f 151/199/6 150/198/6 152/201/6
f 151/200/6 152/202/6 153/203/6
f 153/203/6 152/202/6 154/205/6
f 153/204/6 154/206/6 155/207/6
f 155/207/6 154/206/6 156/209/6
f 155/208/6 156/210/6 157/211/6
f 157/211/6 156/210/6 158/213/6
f 157/212/6 158/214/6 159/215/6
f 159/215/6 158/214/6 160/217/6
f 159/216/6 160/218/6 161/219/6
f 161/219/6 160/218/6 162/221/6
f 161/220/6 162/222/6 163/223/6
f 163/223/6 162/222/6 164/225/6
f 163/224/6 164/226/6 165/227/6
f 165/227/6 164/226/6 166/229/6
f 165/228/6 166/230/6 167/231/6
f 167/231/6 166/230/6 168/232/6
