# Blender 3.4.1
# www.blender.org
mtllib Untitled.003.mtl
o Untitled.003
v -0.900000 0.500003 -16.100000
v -1.300000 0.700003 -16.600000
v -1.400000 0.700003 -16.600000
v -1.300000 0.600003 -16.700001
v -1.400000 0.600003 -16.700001
v -1.300000 0.400003 -16.799999
v -1.300000 0.300003 -16.900000
v -1.500000 0.400003 -16.900000
v -1.400000 0.500003 -16.900000
v -1.700000 0.700003 -16.900000
v -0.800000 0.400003 -17.100000
v -0.900000 0.500003 -17.100000
v -0.700000 0.600003 -17.100000
v -1.500000 0.600003 -17.100000
v -1.500000 0.400003 -17.200001
v -1.000000 0.600003 -17.200001
v -0.800000 0.600003 -17.400000
v -0.900000 0.600003 -16.200001
v -0.900000 0.500003 -16.299999
v -1.400000 0.600003 -16.600000
v -1.400000 0.700003 -16.700001
v -1.300000 0.500003 -16.799999
v -1.300000 0.600003 -16.799999
v -1.400000 0.600003 -16.799999
v -1.300000 0.300003 -17.000000
v -1.400000 0.300003 -17.000000
v -1.500000 0.400003 -17.000000
v -1.500000 0.600003 -17.000000
v -1.700000 0.600003 -17.000000
v -1.800000 0.600003 -17.000000
v -1.700000 0.700003 -17.000000
v -1.400000 0.400003 -17.100000
v -1.500000 0.400003 -17.100000
v -1.400000 0.500003 -17.200001
v -1.500000 0.500003 -17.200001
v -0.800000 0.600003 -17.200001
v -1.400000 0.600003 -17.200001
v -0.900000 0.400003 -17.299999
v -1.400000 0.400003 -17.299999
v -1.500000 0.500003 -17.299999
v -0.900000 0.600003 -17.400000
v -1.000000 0.600003 -17.400000
v -0.900000 0.700003 -17.400000
v -1.000000 0.700003 -17.400000
v -0.900000 0.500003 -17.500000
v -0.700000 0.500003 -17.200001
v -0.700000 0.600003 -17.200001
v -0.800000 0.600003 -16.200001
v -0.800000 0.300003 -16.299999
v -0.800000 0.500003 -16.299999
v -0.800000 0.300003 -16.400000
v -0.800000 0.500003 -17.100000
v -0.800000 0.400003 -17.200001
v -0.800000 0.500003 -17.400000
v -0.800000 0.500003 -17.500000
v -0.900000 0.500003 -17.200001
v -0.900000 0.600003 -17.299999
v -0.900000 0.700003 -17.299999
v -1.300000 0.600003 -16.600000
v -1.300000 0.400003 -16.900000
v -1.300000 0.500003 -16.900000
v -1.300000 0.400003 -17.000000
v -1.400000 0.500003 -17.100000
v -1.400000 0.500003 -17.299999
v -1.500000 0.500003 -17.000000
v -1.600000 0.600003 -17.000000
v -1.600000 0.700003 -17.000000
v -1.700000 0.500003 -16.900000
v -1.700000 0.600003 -16.900000
v -1.700000 0.500003 -17.000000
v -0.900000 0.600003 -16.100000
v -0.900000 0.400003 -16.299999
v -0.900000 0.600003 -17.500000
v -1.000000 0.400003 -16.299999
v -1.000000 0.300003 -16.400000
v -1.000000 0.300003 -17.100000
v -1.000000 0.300003 -17.200001
v -1.000000 0.400003 -17.200001
v -1.000000 0.400003 -17.299999
v -1.000000 0.600003 -17.299999
v -1.500000 0.500003 -16.900000
v -1.500000 0.300003 -17.000000
v -1.500000 0.500003 -17.100000
v -1.500000 0.600003 -17.200001
v -1.500000 0.400003 -17.299999
v -1.600000 0.500003 -16.900000
v -1.600000 0.500003 -17.000000
v -1.800000 0.500003 -17.000000
v -0.900000 0.300003 -17.100000
v -0.900000 0.300003 -17.200001
v -1.000000 0.300003 -16.299999
v -1.400000 0.300003 -16.900000
v -1.500000 0.300003 -16.900000
v -0.800000 0.400003 -16.200001
v -0.900000 0.400003 -16.200001
v -0.900000 0.400003 -17.200001
v -1.400000 0.400003 -16.799999
v -1.400000 0.400003 -17.200001
v -0.700000 0.500003 -17.100000
v -0.800000 0.500003 -16.100000
v -0.800000 0.500003 -17.200001
v -0.900000 0.500003 -17.400000
v -1.300000 0.500003 -16.500000
v -1.300000 0.500003 -16.600000
v -1.300000 0.500003 -16.700001
v -1.400000 0.500003 -16.500000
v -1.400000 0.500003 -16.600000
v -1.400000 0.500003 -16.700001
v -1.400000 0.500003 -16.799999
v -1.800000 0.500003 -16.900000
v -0.800000 0.400003 -16.299999
v -0.800000 0.400003 -16.400000
v -0.900000 0.400003 -17.100000
v -1.000000 0.400003 -16.400000
v -1.000000 0.400003 -17.100000
v -1.400000 0.400003 -16.900000
v -1.400000 0.400003 -17.000000
v -0.800000 0.500003 -16.200001
v -0.900000 0.500003 -16.200001
v -0.800000 0.600003 -16.100000
v -0.800000 0.600003 -17.100000
v -0.800000 0.600003 -17.500000
v -0.900000 0.600003 -17.200001
v -1.300000 0.600003 -16.500000
v -1.400000 0.600003 -16.500000
v -1.400000 0.600003 -17.100000
v -1.500000 0.600003 -16.900000
v -1.600000 0.600003 -16.900000
v -1.800000 0.600003 -16.900000
v -1.000000 0.700003 -17.299999
v -1.300000 0.700003 -16.700001
v -1.600000 0.700003 -16.900000
vn -0.0000 -0.0000 1.0000
vn -0.0000 -0.0000 -1.0000
vn 1.0000 -0.0000 -0.0000
vn -1.0000 -0.0000 -0.0000
vn -0.0000 -1.0000 -0.0000
vn -0.0000 1.0000 -0.0000
vt 0.974609 0.500000
vt 0.974609 0.500000
vt 0.974609 0.500000
vt 0.974609 0.500000
vt 0.974609 0.500000
vt 0.970703 0.500000
vt 0.970703 0.500000
vt 0.970703 0.500000
vt 0.974609 0.500000
vt 0.970703 0.500000
vt 0.974609 0.500000
vt 0.970703 0.500000
vt 0.970703 0.500000
vt 0.970703 0.500000
vt 0.974609 0.500000
vt 0.970703 0.500000
vt 0.974609 0.500000
vt 0.974609 0.500000
vt 0.974609 0.500000
vt 0.974609 0.500000
vt 0.974609 0.500000
vt 0.970703 0.500000
vt 0.974609 0.500000
vt 0.974609 0.500000
vt 0.970703 0.500000
vt 0.974609 0.500000
vt 0.974609 0.500000
vt 0.970703 0.500000
vt 0.970703 0.500000
vt 0.974609 0.500000
vt 0.974609 0.500000
vt 0.970703 0.500000
vt 0.974609 0.500000
vt 0.974609 0.500000
vt 0.974609 0.500000
vt 0.974609 0.500000
vt 0.970703 0.500000
vt 0.970703 0.500000
vt 0.974609 0.500000
vt 0.970703 0.500000
vt 0.974609 0.500000
vt 0.970703 0.500000
vt 0.970703 0.500000
vt 0.974609 0.500000
vt 0.974609 0.500000
vt 0.970703 0.500000
vt 0.970703 0.500000
vt 0.974609 0.500000
vt 0.974609 0.500000
vt 0.974609 0.500000
vt 0.974609 0.500000
vt 0.974609 0.500000
vt 0.970703 0.500000
vt 0.970703 0.500000
vt 0.974609 0.500000
vt 0.970703 0.500000
vt 0.974609 0.500000
vt 0.970703 0.500000
vt 0.970703 0.500000
vt 0.970703 0.500000
vt 0.974609 0.500000
vt 0.974609 0.500000
vt 0.974609 0.500000
vt 0.970703 0.500000
vt 0.974609 0.500000
vt 0.974609 0.500000
vt 0.974609 0.500000
vt 0.970703 0.500000
vt 0.970703 0.500000
vt 0.970703 0.500000
vt 0.970703 0.500000
vt 0.974609 0.500000
vt 0.970703 0.500000
vt 0.970703 0.500000
vt 0.974609 0.500000
vt 0.970703 0.500000
vt 0.974609 0.500000
vt 0.974609 0.500000
vt 0.974609 0.500000
vt 0.974609 0.500000
vt 0.974609 0.500000
vt 0.974609 0.500000
vt 0.974609 0.500000
vt 0.970703 0.500000
vt 0.974609 0.500000
vt 0.970703 0.500000
vt 0.970703 0.500000
vt 0.970703 0.500000
vt 0.970703 0.500000
vt 0.974609 0.500000
vt 0.970703 0.500000
vt 0.974609 0.500000
vt 0.974609 0.500000
vt 0.974609 0.500000
vt 0.970703 0.500000
vt 0.974609 0.500000
vt 0.974609 0.500000
vt 0.970703 0.500000
vt 0.974609 0.500000
vt 0.970703 0.500000
vt 0.974609 0.500000
vt 0.974609 0.500000
vt 0.974609 0.500000
vt 0.970703 0.500000
vt 0.970703 0.500000
vt 0.970703 0.500000
vt 0.970703 0.500000
vt 0.974609 0.500000
vt 0.974609 0.500000
vt 0.974609 0.500000
vt 0.974609 0.500000
vt 0.974609 0.500000
vt 0.970703 0.500000
vt 0.970703 0.500000
vt 0.970703 0.500000
vt 0.970703 0.500000
vt 0.974609 0.500000
vt 0.970703 0.500000
vt 0.974609 0.500000
vt 0.970703 0.500000
vt 0.970703 0.500000
vt 0.974609 0.500000
vt 0.970703 0.500000
vt 0.970703 0.500000
vt 0.974609 0.500000
vt 0.974609 0.500000
vt 0.970703 0.500000
vt 0.974609 0.500000
vt 0.974609 0.500000
vt 0.970703 0.500000
vt 0.970703 0.500000
vt 0.970703 0.500000
vt 0.970703 0.500000
vt 0.970703 0.500000
vt 0.974609 0.500000
vt 0.970703 0.500000
vt 0.974609 0.500000
vt 0.970703 0.500000
vt 0.974609 0.500000
vt 0.974609 0.500000
vt 0.974609 0.500000
vt 0.970703 0.500000
vt 0.974609 0.500000
vt 0.974609 0.500000
vt 0.970703 0.500000
vt 0.970703 0.500000
vt 0.974609 0.500000
vt 0.974609 0.500000
vt 0.974609 0.500000
vt 0.974609 0.500000
vt 0.974609 0.500000
vt 0.974609 0.500000
vt 0.974609 0.500000
s 0
usemtl palette.003
f 120/141/1 1/1/1 100/117/1
f 71/82/1 1/1/1 120/141/1
f 118/139/1 95/111/1 94/110/1
f 119/140/1 95/111/1 118/139/1
f 111/130/1 91/106/1 49/56/1
f 72/84/1 91/106/1 111/130/1
f 74/86/1 91/106/1 72/84/1
f 124/145/1 106/123/1 103/120/1
f 125/146/1 106/123/1 124/145/1
f 2/2/1 20/21/1 59/67/1
f 3/3/1 20/21/1 2/2/1
f 4/4/1 108/125/1 105/122/1
f 5/5/1 108/125/1 4/4/1
f 22/25/1 97/114/1 6/6/1
f 109/127/1 97/114/1 22/25/1
f 60/69/1 92/107/1 7/7/1
f 116/135/1 93/109/1 92/108/1
f 116/136/1 92/107/1 60/69/1
f 8/9/1 93/109/1 116/135/1
f 9/10/1 8/8/1 116/136/1
f 81/95/1 8/8/1 9/10/1
f 127/148/1 86/101/1 81/94/1
f 128/149/1 86/101/1 127/148/1
f 69/80/1 110/128/1 68/79/1
f 129/150/1 110/128/1 69/80/1
f 132/153/1 69/80/1 128/149/1
f 10/11/1 69/80/1 132/153/1
f 113/132/1 76/88/1 89/104/1
f 115/134/1 76/88/1 113/132/1
f 52/59/1 113/132/1 11/12/1
f 12/13/1 113/132/1 52/59/1
f 13/14/1 52/59/1 99/116/1
f 121/142/1 52/59/1 13/14/1
f 126/147/1 83/97/1 63/72/1
f 14/15/1 83/97/1 126/147/1
f 56/63/1 78/90/1 96/112/1
f 34/40/1 15/16/1 98/115/1
f 35/42/1 15/16/1 34/40/1
f 123/144/1 78/90/1 56/63/1
f 16/17/1 78/90/1 123/144/1
f 58/66/1 80/93/1 57/65/1
f 130/151/1 80/93/1 58/66/1
f 17/18/1 102/119/1 54/61/1
f 41/48/1 102/119/1 17/18/1
f 118/139/2 119/140/2 48/55/2
f 48/55/2 119/140/2 18/19/2
f 111/129/2 72/83/2 50/57/2
f 50/57/2 72/83/2 19/20/2
f 51/58/2 75/87/2 112/131/2
f 112/131/2 75/87/2 114/133/2
f 104/121/2 107/124/2 59/68/2
f 59/68/2 107/124/2 20/22/2
f 4/4/2 5/5/2 131/152/2
f 131/152/2 5/5/2 21/23/2
f 22/24/2 109/126/2 23/26/2
f 23/26/2 109/126/2 24/27/2
f 60/69/2 116/136/2 61/70/2
f 61/70/2 116/136/2 9/10/2
f 25/28/2 26/29/2 62/71/2
f 26/30/2 82/96/2 117/137/2
f 62/71/2 26/29/2 117/138/2
f 117/137/2 82/96/2 27/31/2
f 65/75/2 87/102/2 28/33/2
f 28/33/2 87/102/2 66/77/2
f 70/81/2 88/103/2 29/34/2
f 29/34/2 88/103/2 30/35/2
f 66/77/2 29/34/2 67/78/2
f 67/78/2 29/34/2 31/36/2
f 32/37/2 33/38/2 63/73/2
f 63/73/2 33/38/2 83/98/2
f 90/105/2 77/89/2 96/113/2
f 96/113/2 77/89/2 78/91/2
f 53/60/2 96/113/2 101/118/2
f 101/118/2 96/113/2 56/64/2
f 46/53/2 101/118/2 47/54/2
f 47/54/2 101/118/2 36/43/2
f 34/39/2 35/41/2 37/44/2
f 37/44/2 35/41/2 84/99/2
f 39/46/2 85/100/2 64/74/2
f 64/74/2 85/100/2 40/47/2
f 38/45/2 79/92/2 57/65/2
f 57/65/2 79/92/2 80/93/2
f 41/48/2 42/49/2 43/50/2
f 43/50/2 42/49/2 44/51/2
f 55/62/2 45/52/2 122/143/2
f 122/143/2 45/52/2 73/85/2
f 46/53/3 13/14/3 99/116/3
f 47/54/3 13/14/3 46/53/3
f 118/139/3 120/141/3 100/117/3
f 48/55/3 120/141/3 118/139/3
f 111/129/3 118/139/3 94/110/3
f 50/57/3 118/139/3 111/129/3
f 51/58/3 111/130/3 49/56/3
f 112/131/3 111/130/3 51/58/3
f 53/60/3 52/59/3 11/12/3
f 101/118/3 52/59/3 53/60/3
f 55/62/3 17/18/3 54/61/3
f 122/143/3 17/18/3 55/62/3
f 90/105/3 113/132/3 89/104/3
f 96/113/3 113/132/3 90/105/3
f 38/45/3 123/144/3 56/63/3
f 38/45/3 56/63/3 96/112/3
f 57/65/3 123/144/3 38/45/3
f 41/48/3 58/66/3 57/65/3
f 43/50/3 58/66/3 41/48/3
f 104/121/3 124/145/3 103/120/3
f 59/68/3 124/145/3 104/121/3
f 4/4/3 2/2/3 59/67/3
f 131/152/3 2/2/3 4/4/3
f 22/24/3 4/4/3 105/122/3
f 23/26/3 4/4/3 22/24/3
f 60/69/3 22/25/3 6/6/3
f 61/70/3 22/25/3 60/69/3
f 25/28/3 60/69/3 7/7/3
f 62/71/3 60/69/3 25/28/3
f 117/138/3 9/10/3 116/136/3
f 32/37/3 9/10/3 117/138/3
f 63/73/3 9/10/3 32/37/3
f 34/39/3 126/147/3 63/72/3
f 37/44/3 126/147/3 34/39/3
f 39/46/3 34/40/3 98/115/3
f 64/74/3 34/40/3 39/46/3
f 65/75/3 127/148/3 81/94/3
f 28/33/3 127/148/3 65/75/3
f 66/77/3 132/153/3 128/149/3
f 67/78/3 132/153/3 66/77/3
f 70/81/3 69/80/3 68/79/3
f 29/34/3 69/80/3 70/81/3
f 52/59/4 121/142/4 101/118/4
f 101/118/4 121/142/4 36/43/4
f 1/1/4 71/82/4 119/140/4
f 119/140/4 71/82/4 18/19/4
f 95/111/4 119/140/4 72/83/4
f 72/83/4 119/140/4 19/20/4
f 113/132/4 12/13/4 96/113/4
f 96/113/4 12/13/4 56/64/4
f 102/119/4 41/48/4 45/52/4
f 45/52/4 41/48/4 73/85/4
f 91/106/4 74/86/4 75/87/4
f 75/87/4 74/86/4 114/133/4
f 76/88/4 115/134/4 77/89/4
f 77/89/4 115/134/4 78/91/4
f 78/90/4 16/17/4 79/92/4
f 79/92/4 16/17/4 80/93/4
f 80/93/4 130/151/4 42/49/4
f 42/49/4 130/151/4 44/51/4
f 106/123/4 125/146/4 107/124/4
f 107/124/4 125/146/4 20/22/4
f 20/21/4 3/3/4 5/5/4
f 5/5/4 3/3/4 21/23/4
f 108/125/4 5/5/4 109/126/4
f 109/126/4 5/5/4 24/27/4
f 97/114/4 109/127/4 116/136/4
f 116/136/4 109/127/4 9/10/4
f 93/109/4 8/9/4 82/96/4
f 8/8/4 81/95/4 27/32/4
f 82/96/4 8/9/4 27/31/4
f 27/32/4 81/95/4 65/76/4
f 27/32/4 65/76/4 33/38/4
f 33/38/4 65/76/4 83/98/4
f 83/97/4 14/15/4 35/41/4
f 35/41/4 14/15/4 84/99/4
f 15/16/4 35/42/4 85/100/4
f 85/100/4 35/42/4 40/47/4
f 86/101/4 128/149/4 87/102/4
f 87/102/4 128/149/4 66/77/4
f 69/80/4 10/11/4 29/34/4
f 29/34/4 10/11/4 31/36/4
f 110/128/4 129/150/4 88/103/4
f 88/103/4 129/150/4 30/35/4
f 91/106/5 51/58/5 49/56/5
f 75/87/5 51/58/5 91/106/5
f 76/88/5 90/105/5 89/104/5
f 77/89/5 90/105/5 76/88/5
f 92/107/5 25/28/5 7/7/5
f 26/29/5 25/28/5 92/107/5
f 93/109/5 26/30/5 92/108/5
f 82/96/5 26/30/5 93/109/5
f 95/111/5 111/129/5 94/110/5
f 72/83/5 111/129/5 95/111/5
f 113/132/5 53/60/5 11/12/5
f 96/113/5 53/60/5 113/132/5
f 78/90/5 38/45/5 96/112/5
f 79/92/5 38/45/5 78/90/5
f 97/114/5 60/69/5 6/6/5
f 116/136/5 60/69/5 97/114/5
f 27/32/5 32/37/5 117/138/5
f 33/38/5 32/37/5 27/32/5
f 15/16/5 39/46/5 98/115/5
f 85/100/5 39/46/5 15/16/5
f 52/59/5 46/53/5 99/116/5
f 101/118/5 46/53/5 52/59/5
f 1/1/5 118/139/5 100/117/5
f 119/140/5 118/139/5 1/1/5
f 102/119/5 55/62/5 54/61/5
f 45/52/5 55/62/5 102/119/5
f 106/123/5 104/121/5 103/120/5
f 107/124/5 104/121/5 106/123/5
f 108/125/5 22/24/5 105/122/5
f 109/126/5 22/24/5 108/125/5
f 83/97/5 34/39/5 63/72/5
f 35/41/5 34/39/5 83/97/5
f 86/101/5 65/75/5 81/94/5
f 87/102/5 65/75/5 86/101/5
f 110/128/5 70/81/5 68/79/5
f 88/103/5 70/81/5 110/128/5
f 80/93/5 41/48/5 57/65/5
f 42/49/5 41/48/5 80/93/5
f 20/21/5 4/4/5 59/67/5
f 5/5/5 4/4/5 20/21/5
f 69/80/5 66/77/5 128/149/5
f 29/34/5 66/77/5 69/80/5
f 111/130/6 112/131/6 72/84/6
f 72/84/6 112/131/6 74/86/6
f 74/86/6 112/131/6 114/133/6
f 113/132/6 96/113/6 115/134/6
f 115/134/6 96/113/6 78/91/6
f 60/69/6 62/71/6 116/136/6
f 116/136/6 62/71/6 117/138/6
f 118/139/6 50/57/6 119/140/6
f 119/140/6 50/57/6 19/20/6
f 52/59/6 101/118/6 12/13/6
f 12/13/6 101/118/6 56/64/6
f 22/25/6 61/70/6 109/127/6
f 109/127/6 61/70/6 9/10/6
f 9/10/6 63/73/6 81/95/6
f 81/95/6 63/73/6 65/76/6
f 65/76/6 63/73/6 83/98/6
f 34/40/6 64/74/6 35/42/6
f 35/42/6 64/74/6 40/47/6
f 13/14/6 47/54/6 121/142/6
f 121/142/6 47/54/6 36/43/6
f 120/141/6 48/55/6 71/82/6
f 71/82/6 48/55/6 18/19/6
f 17/18/6 122/143/6 41/48/6
f 41/48/6 122/143/6 73/85/6
f 123/144/6 57/65/6 16/17/6
f 16/17/6 57/65/6 80/93/6
f 124/145/6 59/68/6 125/146/6
f 125/146/6 59/68/6 20/22/6
f 4/4/6 23/26/6 5/5/6
f 5/5/6 23/26/6 24/27/6
f 126/147/6 37/44/6 14/15/6
f 14/15/6 37/44/6 84/99/6
f 127/148/6 28/33/6 128/149/6
f 128/149/6 28/33/6 66/77/6
f 69/80/6 29/34/6 129/150/6
f 129/150/6 29/34/6 30/35/6
f 58/66/6 43/50/6 130/151/6
f 130/151/6 43/50/6 44/51/6
f 2/2/6 131/152/6 3/3/6
f 3/3/6 131/152/6 21/23/6
f 132/153/6 67/78/6 10/11/6
f 10/11/6 67/78/6 31/36/6
