# Blender 3.4.1
# www.blender.org
mtllib Untitled.006.mtl
o Untitled.006
v 0.800000 0.700002 -14.000000
v 0.800000 0.700002 -14.100000
v 0.800000 0.800002 -14.100000
v 0.900000 0.400002 -13.900000
v 0.900000 0.400002 -14.000000
v 0.900000 0.500002 -13.900000
v 0.900000 0.500002 -14.000000
v 0.900000 0.700002 -14.000000
v 0.900000 0.800002 -13.900000
v 0.900000 0.800002 -14.000000
v 1.100000 0.600002 -14.000000
v 1.100000 0.600002 -14.100000
v 1.000000 0.300002 -14.000000
v 1.100000 0.400002 -14.000000
v 1.100000 0.500002 -14.000000
v 1.100000 0.800002 -14.100000
v 1.300000 0.600002 -14.000000
v 1.100000 0.700002 -14.000000
v 1.100000 0.800002 -14.000000
v 1.300000 0.500002 -14.000000
v 0.900000 0.300002 -14.100000
v 0.900000 0.400002 -14.100000
v 1.000000 0.800002 -14.100000
v 1.100000 0.700002 -14.100000
v 1.300000 0.600002 -14.100000
v 0.900000 0.700002 -14.200000
v 0.900000 0.800002 -14.200000
v 1.000000 0.400002 -14.200000
v 1.000000 0.500002 -14.200000
v 1.000000 0.800002 -14.200000
v 0.900000 0.300002 -14.000000
v 1.000000 0.300002 -14.100000
v 1.000000 0.400002 -13.900000
v 1.000000 0.400002 -14.000000
v 1.000000 0.400002 -14.100000
v 1.100000 0.400002 -14.100000
v 0.900000 0.400002 -14.200000
v 1.100000 0.500002 -14.100000
v 1.300000 0.500002 -14.100000
v 0.900000 0.500002 -14.200000
v 0.900000 0.500002 -14.300000
v 1.000000 0.500002 -14.300000
v 0.900000 0.700002 -13.900000
v 1.000000 0.700002 -13.900000
v 1.000000 0.700002 -14.000000
v 0.900000 0.700002 -14.100000
v 1.000000 0.700002 -14.100000
v 1.000000 0.700002 -14.200000
v 1.000000 0.500002 -13.900000
v 1.000000 0.500002 -14.000000
v 0.900000 0.500002 -14.100000
v 1.000000 0.500002 -14.100000
v 0.900000 0.600002 -14.200000
v 1.000000 0.600002 -14.200000
v 0.900000 0.600002 -14.300000
v 1.000000 0.600002 -14.300000
v 1.000000 0.800002 -13.900000
v 0.800000 0.800002 -14.000000
v 1.000000 0.800002 -14.000000
v 0.900000 0.800002 -14.100000
vn -1.0000 -0.0000 -0.0000
vn 1.0000 -0.0000 -0.0000
vn -0.0000 -0.0000 1.0000
vn -0.0000 -0.0000 -1.0000
vn -0.0000 -1.0000 -0.0000
vn -0.0000 1.0000 -0.0000
vt 0.939453 0.500000
vt 0.939453 0.500000
vt 0.939453 0.500000
vt 0.974609 0.500000
vt 0.857422 0.500000
vt 0.974609 0.500000
vt 0.974609 0.500000
vt 0.974609 0.500000
vt 0.974609 0.500000
vt 0.939453 0.500000
vt 0.939453 0.500000
vt 0.978516 0.500000
vt 0.939453 0.500000
vt 0.857422 0.500000
vt 0.857422 0.500000
vt 0.857422 0.500000
vt 0.857422 0.500000
vt 0.857422 0.500000
vt 0.939453 0.500000
vt 0.857422 0.500000
vt 0.939453 0.500000
vt 0.939453 0.500000
vt 0.857422 0.500000
vt 0.857422 0.500000
vt 0.857422 0.500000
vt 0.974609 0.500000
vt 0.978516 0.500000
vt 0.939453 0.500000
vt 0.939453 0.500000
vt 0.857422 0.500000
vt 0.939453 0.500000
vt 0.939453 0.500000
vt 0.974609 0.500000
vt 0.974609 0.500000
vt 0.939453 0.500000
vt 0.857422 0.500000
vt 0.857422 0.500000
vt 0.974609 0.500000
vt 0.974609 0.500000
vt 0.857422 0.500000
vt 0.857422 0.500000
vt 0.974609 0.500000
vt 0.857422 0.500000
vt 0.974609 0.500000
vt 0.857422 0.500000
vt 0.857422 0.500000
vt 0.974609 0.500000
vt 0.974609 0.500000
vt 0.974609 0.500000
vt 0.939453 0.500000
vt 0.939453 0.500000
vt 0.974609 0.500000
vt 0.939453 0.500000
vt 0.974609 0.500000
vt 0.939453 0.500000
vt 0.974609 0.500000
vt 0.939453 0.500000
vt 0.939453 0.500000
vt 0.974609 0.500000
vt 0.974609 0.500000
vt 0.857422 0.500000
vt 0.974609 0.500000
vt 0.857422 0.500000
vt 0.974609 0.500000
vt 0.974609 0.500000
vt 0.974609 0.500000
vt 0.974609 0.500000
vt 0.974609 0.500000
vt 0.939453 0.500000
vt 0.939453 0.500000
vt 0.939453 0.500000
vt 0.978516 0.500000
vt 0.978516 0.500000
vt 0.939453 0.500000
s 0
usemtl palette.006
f 58/70/1 2/2/1 1/1/1
f 3/3/1 2/2/1 58/70/1
f 5/5/1 21/24/1 31/36/1
f 22/25/1 21/24/1 5/5/1
f 6/7/1 5/6/1 4/4/1
f 6/7/1 37/44/1 22/26/1
f 6/7/1 22/26/1 5/6/1
f 7/8/1 37/44/1 6/7/1
f 51/62/1 37/44/1 7/8/1
f 40/47/1 37/44/1 51/62/1
f 53/65/1 41/48/1 40/47/1
f 55/67/1 41/48/1 53/65/1
f 8/9/1 51/62/1 7/8/1
f 46/54/1 51/62/1 8/9/1
f 9/11/1 8/10/1 43/50/1
f 10/13/1 8/10/1 9/11/1
f 60/74/1 26/31/1 46/55/1
f 27/32/1 26/31/1 60/74/1
f 11/14/1 38/45/1 15/18/1
f 12/15/1 38/45/1 11/14/1
f 13/16/2 32/37/2 34/40/2
f 34/40/2 32/37/2 35/41/2
f 33/38/2 34/39/2 49/59/2
f 49/59/2 34/39/2 50/60/2
f 35/42/2 28/33/2 52/64/2
f 52/64/2 28/33/2 29/34/2
f 29/34/2 42/49/2 54/66/2
f 54/66/2 42/49/2 56/68/2
f 50/60/2 52/64/2 45/52/2
f 45/52/2 52/64/2 47/56/2
f 44/51/2 45/53/2 57/69/2
f 57/69/2 45/53/2 59/71/2
f 47/57/2 48/58/2 23/28/2
f 23/28/2 48/58/2 30/35/2
f 14/17/2 36/43/2 15/18/2
f 15/18/2 36/43/2 38/45/2
f 18/21/2 24/29/2 19/22/2
f 19/22/2 24/29/2 16/19/2
f 20/23/2 39/46/2 17/20/2
f 17/20/2 39/46/2 25/30/2
f 33/38/3 6/7/3 4/4/3
f 49/59/3 6/7/3 33/38/3
f 44/51/3 9/11/3 43/50/3
f 57/69/3 9/11/3 44/51/3
f 8/10/3 58/70/3 1/1/3
f 10/13/3 58/70/3 8/10/3
f 13/16/3 5/5/3 31/36/3
f 34/40/3 5/5/3 13/16/3
f 50/60/3 8/9/3 7/8/3
f 45/52/3 8/9/3 50/60/3
f 14/17/3 50/61/3 34/40/3
f 15/18/3 50/61/3 14/17/3
f 18/21/3 59/71/3 45/53/3
f 19/22/3 59/71/3 18/21/3
f 20/23/3 11/14/3 15/18/3
f 17/20/3 11/14/3 20/23/3
f 29/34/3 53/65/3 40/47/3
f 54/66/3 53/65/3 29/34/3
f 2/2/4 3/3/4 46/55/4
f 46/55/4 3/3/4 60/74/4
f 21/24/4 22/25/4 32/37/4
f 32/37/4 22/25/4 35/41/4
f 51/62/4 46/54/4 52/64/4
f 52/64/4 46/54/4 47/56/4
f 35/41/4 52/63/4 36/43/4
f 36/43/4 52/63/4 38/45/4
f 47/57/4 23/28/4 24/29/4
f 24/29/4 23/28/4 16/19/4
f 38/45/4 12/15/4 39/46/4
f 39/46/4 12/15/4 25/30/4
f 37/44/4 40/47/4 28/33/4
f 28/33/4 40/47/4 29/34/4
f 26/31/4 27/32/4 48/58/4
f 48/58/4 27/32/4 30/35/4
f 41/48/4 55/67/4 42/49/4
f 42/49/4 55/67/4 56/68/4
f 21/24/5 13/16/5 31/36/5
f 32/37/5 13/16/5 21/24/5
f 5/6/5 33/38/5 4/4/5
f 34/39/5 33/38/5 5/6/5
f 35/41/5 14/17/5 34/40/5
f 36/43/5 14/17/5 35/41/5
f 37/44/5 35/42/5 22/26/5
f 28/33/5 35/42/5 37/44/5
f 38/45/5 20/23/5 15/18/5
f 39/46/5 20/23/5 38/45/5
f 41/48/5 29/34/5 40/47/5
f 42/49/5 29/34/5 41/48/5
f 8/10/5 44/51/5 43/50/5
f 45/53/5 44/51/5 8/10/5
f 2/2/5 8/10/5 1/1/5
f 46/55/5 8/10/5 2/2/5
f 47/57/5 18/21/5 45/53/5
f 24/29/5 18/21/5 47/57/5
f 26/31/5 47/57/5 46/55/5
f 48/58/5 47/57/5 26/31/5
f 6/7/6 49/59/6 7/8/6
f 7/8/6 49/59/6 50/60/6
f 50/61/6 15/18/6 52/63/6
f 52/63/6 15/18/6 38/45/6
f 51/62/6 52/64/6 40/47/6
f 40/47/6 52/64/6 29/34/6
f 11/14/6 17/20/6 12/15/6
f 12/15/6 17/20/6 25/30/6
f 53/65/6 54/66/6 55/67/6
f 55/67/6 54/66/6 56/68/6
f 9/11/6 57/69/6 10/13/6
f 10/13/6 57/69/6 59/71/6
f 58/70/6 10/13/6 3/3/6
f 10/12/6 59/72/6 60/73/6
f 3/3/6 10/13/6 60/74/6
f 59/71/6 19/22/6 23/28/6
f 60/73/6 59/72/6 23/27/6
f 23/28/6 19/22/6 16/19/6
f 60/74/6 23/28/6 27/32/6
f 27/32/6 23/28/6 30/35/6
