# Blender 3.4.1
# www.blender.org
mtllib Untitled.015.mtl
o Untitled.015
v -5.800000 0.500003 -18.400000
v -5.900000 0.500003 -18.400000
v -5.800000 0.500003 -18.500000
v -5.900000 0.500003 -18.500000
v -5.800000 0.500003 -18.600000
v -5.600000 0.600003 -18.600000
v -5.700000 0.600003 -18.600000
v -5.700000 0.800003 -18.600000
v -5.800000 0.600003 -18.500000
v -5.900000 0.300003 -18.700001
v -5.800000 0.400003 -18.700001
v -5.900000 0.400003 -18.700001
v -5.700000 0.600003 -18.700001
v -5.800000 0.700003 -18.700001
v -5.700000 0.800003 -18.700001
v -5.600000 0.500003 -18.700001
v -5.600000 0.600003 -18.700001
v -5.700000 0.700003 -18.600000
v -5.700000 0.400003 -18.700001
v -5.800000 0.700003 -18.500000
v -5.800000 0.700003 -18.799999
v -5.800000 0.600003 -18.900000
v -5.700000 0.500003 -18.700001
v -5.900000 0.400003 -18.500000
v -5.900000 0.700003 -18.500000
v -5.900000 0.500003 -18.600000
v -5.900000 0.700003 -18.600000
v -5.900000 0.500003 -18.700001
v -5.900000 0.400003 -18.799999
v -5.900000 0.500003 -18.799999
v -6.000000 0.700003 -18.700001
v -5.800000 0.300003 -18.600000
v -5.800000 0.300003 -18.700001
v -5.900000 0.300003 -18.600000
v -5.700000 0.400003 -18.600000
v -5.800000 0.400003 -18.500000
v -5.800000 0.400003 -18.600000
v -5.800000 0.400003 -18.799999
v -5.900000 0.400003 -18.600000
v -5.600000 0.500003 -18.600000
v -5.700000 0.500003 -18.600000
v -5.800000 0.500003 -18.900000
v -5.900000 0.500003 -18.900000
v -5.700000 0.700003 -18.700001
v -5.800000 0.700003 -18.600000
v -5.900000 0.700003 -18.700001
v -5.900000 0.700003 -18.799999
v -6.000000 0.700003 -18.600000
v -5.800000 0.500003 -18.700001
v -5.800000 0.500003 -18.799999
v -5.800000 0.600003 -18.400000
v -5.800000 0.600003 -18.799999
v -5.900000 0.600003 -18.400000
v -5.900000 0.600003 -18.500000
v -5.900000 0.600003 -18.799999
v -5.900000 0.600003 -18.900000
v -5.800000 0.800003 -18.500000
v -5.800000 0.800003 -18.600000
v -5.800000 0.800003 -18.700001
v -5.800000 0.800003 -18.799999
v -5.900000 0.800003 -18.500000
v -5.900000 0.800003 -18.600000
v -5.900000 0.800003 -18.700001
v -5.900000 0.800003 -18.799999
v -6.000000 0.800003 -18.600000
v -6.000000 0.800003 -18.700001
vn -0.0000 -0.0000 1.0000
vn -0.0000 -0.0000 -1.0000
vn 1.0000 -0.0000 -0.0000
vn -1.0000 -0.0000 -0.0000
vn -0.0000 -1.0000 -0.0000
vn -0.0000 1.0000 -0.0000
vt 0.970703 0.500000
vt 0.970703 0.500000
vt 0.970703 0.500000
vt 0.970703 0.500000
vt 0.970703 0.500000
vt 0.970703 0.500000
vt 0.970703 0.500000
vt 0.990234 0.500000
vt 0.970703 0.500000
vt 0.970703 0.500000
vt 0.970703 0.500000
vt 0.970703 0.500000
vt 0.970703 0.500000
vt 0.970703 0.500000
vt 0.990234 0.500000
vt 0.943359 0.500000
vt 0.990234 0.500000
vt 0.970703 0.500000
vt 0.970703 0.500000
vt 0.990234 0.500000
vt 0.970703 0.500000
vt 0.990234 0.500000
vt 0.943359 0.500000
vt 0.970703 0.500000
vt 0.970703 0.500000
vt 0.970703 0.500000
vt 0.990234 0.500000
vt 0.970703 0.500000
vt 0.970703 0.500000
vt 0.990234 0.500000
vt 0.943359 0.500000
vt 0.970703 0.500000
vt 0.970703 0.500000
vt 0.970703 0.500000
vt 0.943359 0.500000
vt 0.970703 0.500000
vt 0.970703 0.500000
vt 0.970703 0.500000
vt 0.970703 0.500000
vt 0.970703 0.500000
vt 0.970703 0.500000
vt 0.970703 0.500000
vt 0.970703 0.500000
vt 0.970703 0.500000
vt 0.970703 0.500000
vt 0.970703 0.500000
vt 0.970703 0.500000
vt 0.990234 0.500000
vt 0.970703 0.500000
vt 0.990234 0.500000
vt 0.970703 0.500000
vt 0.943359 0.500000
vt 0.943359 0.500000
vt 0.943359 0.500000
vt 0.970703 0.500000
vt 0.970703 0.500000
vt 0.970703 0.500000
vt 0.970703 0.500000
vt 0.970703 0.500000
vt 0.970703 0.500000
vt 0.970703 0.500000
vt 0.970703 0.500000
vt 0.990234 0.500000
vt 0.939453 0.500000
vt 0.990234 0.500000
vt 0.990234 0.500000
vt 0.943359 0.500000
vt 0.939453 0.500000
vt 0.943359 0.500000
vt 0.990234 0.500000
vt 0.990234 0.500000
vt 0.939453 0.500000
vt 0.943359 0.500000
vt 0.939453 0.500000
vt 0.943359 0.500000
vt 0.943359 0.500000
vt 0.943359 0.500000
vt 0.943359 0.500000
s 0
usemtl palette.015
f 51/57/1 2/2/1 1/1/1
f 53/59/1 2/2/1 51/57/1
f 3/3/1 24/26/1 36/40/1
f 4/4/1 24/26/1 3/3/1
f 57/63/1 25/27/1 20/22/1
f 61/70/1 25/27/1 57/63/1
f 37/41/1 34/38/1 32/36/1
f 39/43/1 34/38/1 37/41/1
f 41/45/1 37/41/1 35/39/1
f 5/5/1 37/41/1 41/45/1
f 6/6/1 41/45/1 40/44/1
f 7/7/1 41/45/1 6/6/1
f 45/49/1 26/28/1 5/5/1
f 27/29/1 26/28/1 45/49/1
f 8/8/1 45/50/1 18/20/1
f 58/65/1 45/50/1 8/8/1
f 62/73/1 48/54/1 27/31/1
f 65/77/1 48/54/1 62/73/1
f 52/58/1 30/34/1 50/56/1
f 55/61/1 30/34/1 52/58/1
f 3/3/2 4/4/2 9/9/2
f 9/9/2 4/4/2 54/60/2
f 33/37/2 10/10/2 11/11/2
f 11/11/2 10/10/2 12/12/2
f 19/21/2 11/11/2 23/25/2
f 23/25/2 11/11/2 49/55/2
f 16/18/2 23/25/2 17/19/2
f 17/19/2 23/25/2 13/13/2
f 49/55/2 28/32/2 14/14/2
f 14/14/2 28/32/2 46/51/2
f 44/48/2 14/15/2 15/17/2
f 15/17/2 14/15/2 59/66/2
f 46/52/2 31/35/2 63/75/2
f 63/75/2 31/35/2 66/78/2
f 38/42/2 29/33/2 50/56/2
f 50/56/2 29/33/2 30/34/2
f 21/23/2 47/53/2 60/69/2
f 60/69/2 47/53/2 64/76/2
f 42/46/2 43/47/2 22/24/2
f 22/24/2 43/47/2 56/62/2
f 16/18/3 6/6/3 40/44/3
f 17/19/3 6/6/3 16/18/3
f 19/21/3 41/45/3 35/39/3
f 23/25/3 41/45/3 19/21/3
f 44/48/3 8/8/3 18/20/3
f 15/17/3 8/8/3 44/48/3
f 3/3/3 51/57/3 1/1/3
f 9/9/3 51/57/3 3/3/3
f 37/41/3 3/3/3 36/40/3
f 5/5/3 3/3/3 37/41/3
f 45/50/3 57/63/3 20/22/3
f 58/65/3 57/63/3 45/50/3
f 33/37/3 37/41/3 32/36/3
f 11/11/3 37/41/3 33/37/3
f 49/55/3 45/49/3 5/5/3
f 14/14/3 45/49/3 49/55/3
f 38/42/3 49/55/3 11/11/3
f 50/56/3 49/55/3 38/42/3
f 21/23/3 59/67/3 14/16/3
f 60/69/3 59/67/3 21/23/3
f 42/46/3 52/58/3 50/56/3
f 22/24/3 52/58/3 42/46/3
f 41/45/4 7/7/4 23/25/4
f 23/25/4 7/7/4 13/13/4
f 2/2/4 53/59/4 4/4/4
f 4/4/4 53/59/4 54/60/4
f 24/26/4 4/4/4 39/43/4
f 39/43/4 4/4/4 26/28/4
f 25/27/4 61/70/4 27/30/4
f 27/30/4 61/70/4 62/71/4
f 39/43/4 26/28/4 10/10/4
f 34/38/4 39/43/4 10/10/4
f 26/28/4 27/29/4 10/10/4
f 10/10/4 27/29/4 12/12/4
f 12/12/4 27/29/4 28/32/4
f 28/32/4 27/29/4 46/51/4
f 12/12/4 28/32/4 29/33/4
f 29/33/4 28/32/4 30/34/4
f 46/52/4 63/75/4 47/53/4
f 47/53/4 63/75/4 64/76/4
f 30/34/4 55/61/4 43/47/4
f 43/47/4 55/61/4 56/62/4
f 48/54/4 65/77/4 31/35/4
f 31/35/4 65/77/4 66/78/4
f 34/38/5 33/37/5 32/36/5
f 10/10/5 33/37/5 34/38/5
f 37/41/5 19/21/5 35/39/5
f 11/11/5 19/21/5 37/41/5
f 24/26/5 37/41/5 36/40/5
f 39/43/5 37/41/5 24/26/5
f 12/12/5 38/42/5 11/11/5
f 29/33/5 38/42/5 12/12/5
f 41/45/5 16/18/5 40/44/5
f 23/25/5 16/18/5 41/45/5
f 2/2/5 3/3/5 1/1/5
f 4/4/5 3/3/5 2/2/5
f 30/34/5 42/46/5 50/56/5
f 43/47/5 42/46/5 30/34/5
f 45/50/5 44/48/5 18/20/5
f 14/15/5 44/48/5 45/50/5
f 25/27/5 45/50/5 20/22/5
f 27/30/5 45/50/5 25/27/5
f 46/52/5 21/23/5 14/16/5
f 47/53/5 21/23/5 46/52/5
f 48/54/5 46/52/5 27/31/5
f 31/35/5 46/52/5 48/54/5
f 41/45/6 23/25/6 5/5/6
f 5/5/6 23/25/6 49/55/6
f 3/3/6 5/5/6 4/4/6
f 4/4/6 5/5/6 26/28/6
f 49/55/6 50/56/6 28/32/6
f 28/32/6 50/56/6 30/34/6
f 6/6/6 17/19/6 7/7/6
f 7/7/6 17/19/6 13/13/6
f 51/57/6 9/9/6 53/59/6
f 53/59/6 9/9/6 54/60/6
f 52/58/6 22/24/6 55/61/6
f 55/61/6 22/24/6 56/62/6
f 8/8/6 15/17/6 58/65/6
f 58/65/6 15/17/6 59/66/6
f 57/63/6 58/65/6 61/70/6
f 58/64/6 59/68/6 62/72/6
f 61/70/6 58/65/6 62/71/6
f 59/67/6 60/69/6 63/75/6
f 62/72/6 59/68/6 63/74/6
f 63/75/6 60/69/6 64/76/6
f 62/73/6 63/75/6 65/77/6
f 65/77/6 63/75/6 66/78/6
