# Blender 3.4.1
# www.blender.org
mtllib Untitled.012.mtl
o Untitled.012
v 5.100000 0.700002 -14.600000
v 5.200000 0.800002 -14.700000
v 4.900000 0.900002 -14.700000
v 5.200000 1.100002 -14.700000
v 5.400000 1.200002 -14.700000
v 4.900000 1.200002 -14.700000
v 5.200000 0.900002 -14.900000
v 5.200000 1.100002 -14.600000
v 5.200000 0.600002 -14.800000
v 5.100000 0.600002 -14.800000
v 5.200000 0.700002 -14.800000
v 5.100000 0.700002 -14.800000
v 5.200000 0.800002 -14.800000
v 5.400000 1.100002 -14.800000
v 5.200000 1.100002 -14.800000
v 5.000000 1.200002 -14.800000
v 5.200000 0.800002 -14.900000
v 5.100000 1.000002 -14.900000
v 5.200000 1.100002 -14.900000
v 5.200000 1.100003 -15.000000
v 5.100000 1.200003 -15.000000
v 5.400000 1.200002 -14.800000
v 5.300000 1.100002 -14.700000
v 5.200000 1.200002 -14.500000
v 5.200000 1.200002 -14.600000
v 5.200000 0.700002 -14.700000
v 5.200000 0.700002 -14.900000
v 5.200000 0.900002 -15.000000
v 5.000000 0.900002 -14.700000
v 5.000000 1.100002 -14.700000
v 5.300000 1.200002 -14.800000
v 5.100000 1.100002 -14.500000
v 5.100000 1.200002 -14.500000
v 5.100000 0.800002 -14.600000
v 5.100000 1.000002 -14.600000
v 5.100000 1.100002 -14.600000
v 5.100000 0.800002 -14.700000
v 5.100000 1.000002 -14.700000
v 5.100000 1.100002 -14.700000
v 5.100000 0.800002 -14.800000
v 5.100000 1.000002 -14.800000
v 5.100000 1.100002 -14.800000
v 5.100000 0.700002 -14.900000
v 5.100000 0.900002 -14.900000
v 5.100000 1.200002 -14.900000
v 5.100000 0.900002 -15.000000
v 5.100000 1.100003 -15.000000
v 5.000000 0.700002 -14.700000
v 5.000000 0.700002 -14.800000
v 5.000000 0.800002 -14.800000
v 5.000000 1.100002 -14.800000
v 4.900000 1.100002 -14.700000
v 4.900000 0.900002 -14.800000
v 4.900000 1.100002 -14.800000
v 5.200000 0.600002 -14.700000
v 5.100000 0.600002 -14.700000
v 5.200000 0.700002 -14.600000
v 5.100000 0.700002 -14.700000
v 5.200000 0.800002 -15.000000
v 5.100000 0.800002 -14.900000
v 5.100000 0.800002 -15.000000
v 5.000000 0.800002 -14.700000
v 4.900000 0.800002 -14.700000
v 4.900000 0.800002 -14.800000
v 5.300000 1.000002 -14.700000
v 5.300000 1.000002 -14.800000
v 5.200000 1.000002 -14.600000
v 5.200000 1.000002 -14.700000
v 5.200000 1.000002 -14.800000
v 5.200000 1.000002 -14.900000
v 5.000000 1.000002 -14.700000
v 5.000000 1.000002 -14.800000
v 5.400000 1.100002 -14.700000
v 5.300000 1.100002 -14.800000
v 5.200000 1.100002 -14.500000
v 5.200000 0.800002 -14.600000
v 5.000000 0.900002 -14.800000
v 5.100000 1.100002 -14.900000
v 5.300000 1.200002 -14.700000
v 5.200000 1.200002 -14.900000
v 5.200000 1.200003 -15.000000
v 5.100000 1.200002 -14.600000
v 5.000000 1.200002 -14.700000
v 4.900000 1.200002 -14.800000
vn -0.0000 -0.0000 1.0000
vn -0.0000 -0.0000 -1.0000
vn 1.0000 -0.0000 -0.0000
vn -1.0000 -0.0000 -0.0000
vn -0.0000 -1.0000 -0.0000
vn -0.0000 1.0000 -0.0000
vt 0.974609 0.500000
vt 0.974609 0.500000
vt 0.970703 0.500000
vt 0.986328 0.500000
vt 0.990234 0.500000
vt 0.990234 0.500000
vt 0.990234 0.500000
vt 0.974609 0.500000
vt 0.990234 0.500000
vt 0.974609 0.500000
vt 0.974609 0.500000
vt 0.974609 0.500000
vt 0.974609 0.500000
vt 0.970703 0.500000
vt 0.974609 0.500000
vt 0.990234 0.500000
vt 0.990234 0.500000
vt 0.986328 0.500000
vt 0.990234 0.500000
vt 0.974609 0.500000
vt 0.990234 0.500000
vt 0.990234 0.500000
vt 0.990234 0.500000
vt 0.990234 0.500000
vt 0.990234 0.500000
vt 0.990234 0.500000
vt 0.990234 0.500000
vt 0.990234 0.500000
vt 0.974609 0.500000
vt 0.974609 0.500000
vt 0.974609 0.500000
vt 0.970703 0.500000
vt 0.990234 0.500000
vt 0.990234 0.500000
vt 0.990234 0.500000
vt 0.990234 0.500000
vt 0.974609 0.500000
vt 0.990234 0.500000
vt 0.990234 0.500000
vt 0.974609 0.500000
vt 0.970703 0.500000
vt 0.974609 0.500000
vt 0.990234 0.500000
vt 0.986328 0.500000
vt 0.990234 0.500000
vt 0.974609 0.500000
vt 0.970703 0.500000
vt 0.974609 0.500000
vt 0.990234 0.500000
vt 0.986328 0.500000
vt 0.990234 0.500000
vt 0.974609 0.500000
vt 0.974609 0.500000
vt 0.990234 0.500000
vt 0.974609 0.500000
vt 0.990234 0.500000
vt 0.970703 0.500000
vt 0.970703 0.500000
vt 0.970703 0.500000
vt 0.990234 0.500000
vt 0.990234 0.500000
vt 0.970703 0.500000
vt 0.990234 0.500000
vt 0.974609 0.500000
vt 0.974609 0.500000
vt 0.974609 0.500000
vt 0.974609 0.500000
vt 0.970703 0.500000
vt 0.974609 0.500000
vt 0.974609 0.500000
vt 0.974609 0.500000
vt 0.970703 0.500000
vt 0.970703 0.500000
vt 0.970703 0.500000
vt 0.990234 0.500000
vt 0.990234 0.500000
vt 0.990234 0.500000
vt 0.974609 0.500000
vt 0.990234 0.500000
vt 0.974609 0.500000
vt 0.990234 0.500000
vt 0.990234 0.500000
vt 0.990234 0.500000
vt 0.990234 0.500000
vt 0.990234 0.500000
vt 0.990234 0.500000
vt 0.990234 0.500000
vt 0.974609 0.500000
vt 0.970703 0.500000
vt 0.990234 0.500000
vt 0.990234 0.500000
vt 0.990234 0.500000
vt 0.990234 0.500000
vt 0.990234 0.500000
vt 0.990234 0.500000
vt 0.990234 0.500000
s 0
usemtl palette.012
f 24/27/1 32/35/1 75/87/1
f 33/36/1 32/35/1 24/27/1
f 76/88/1 1/1/1 57/66/1
f 34/37/1 1/1/1 76/88/1
f 8/9/1 35/38/1 67/77/1
f 36/39/1 35/38/1 8/9/1
f 26/29/1 56/65/1 55/64/1
f 58/67/1 56/65/1 26/29/1
f 37/41/1 48/57/1 58/68/1
f 62/72/1 48/57/1 37/41/1
f 29/32/1 63/73/1 62/72/1
f 3/3/1 63/73/1 29/32/1
f 68/78/1 37/40/1 2/2/1
f 38/42/1 37/40/1 68/78/1
f 23/26/1 68/79/1 65/75/1
f 4/5/1 68/79/1 23/26/1
f 39/45/1 71/83/1 38/43/1
f 30/33/1 71/83/1 39/45/1
f 5/6/1 23/26/1 73/85/1
f 79/91/1 23/26/1 5/6/1
f 83/95/1 52/61/1 30/33/1
f 6/7/1 52/61/1 83/95/1
f 7/8/1 60/70/1 17/20/1
f 44/53/1 60/70/1 7/8/1
f 80/92/1 78/90/1 19/22/1
f 45/54/1 78/90/1 80/92/1
f 8/9/2 36/39/2 25/28/2
f 25/28/2 36/39/2 82/94/2
f 9/10/2 10/11/2 11/12/2
f 11/12/2 10/11/2 12/13/2
f 12/14/2 49/58/2 40/47/2
f 40/47/2 49/58/2 50/59/2
f 50/59/2 64/74/2 77/89/2
f 77/89/2 64/74/2 53/62/2
f 13/15/2 40/46/2 69/80/2
f 69/80/2 40/46/2 41/48/2
f 66/76/2 69/81/2 74/86/2
f 74/86/2 69/81/2 15/17/2
f 41/49/2 72/84/2 42/51/2
f 42/51/2 72/84/2 51/60/2
f 14/16/2 74/86/2 22/25/2
f 22/25/2 74/86/2 31/34/2
f 51/60/2 54/63/2 16/19/2
f 16/19/2 54/63/2 84/96/2
f 27/30/2 43/52/2 17/20/2
f 17/20/2 43/52/2 60/70/2
f 70/82/2 18/21/2 19/22/2
f 19/22/2 18/21/2 78/90/2
f 59/69/2 61/71/2 28/31/2
f 28/31/2 61/71/2 46/55/2
f 20/23/2 47/56/2 81/93/2
f 81/93/2 47/56/2 21/24/2
f 14/16/3 5/6/3 73/85/3
f 22/25/3 5/6/3 14/16/3
f 66/76/3 23/26/3 65/75/3
f 74/86/3 23/26/3 66/76/3
f 8/9/3 24/27/3 75/87/3
f 25/28/3 24/27/3 8/9/3
f 26/29/3 76/88/3 57/66/3
f 2/2/3 76/88/3 26/29/3
f 68/79/3 8/9/3 67/77/3
f 4/5/3 8/9/3 68/79/3
f 9/10/3 2/2/3 26/29/3
f 9/10/3 26/29/3 55/64/3
f 9/10/3 68/78/3 2/2/3
f 11/12/3 68/78/3 9/10/3
f 13/15/3 68/78/3 11/12/3
f 69/80/3 68/78/3 13/15/3
f 27/30/3 13/15/3 11/12/3
f 17/20/3 13/15/3 27/30/3
f 70/82/3 15/17/3 69/81/3
f 19/22/3 15/17/3 70/82/3
f 59/69/3 7/8/3 17/20/3
f 28/31/3 7/8/3 59/69/3
f 20/23/3 80/92/3 19/22/3
f 81/93/3 80/92/3 20/23/3
f 50/59/3 29/32/3 62/72/3
f 77/89/3 29/32/3 50/59/3
f 51/60/3 83/95/3 30/33/3
f 16/19/3 83/95/3 51/60/3
f 23/26/4 79/91/4 74/86/4
f 74/86/4 79/91/4 31/34/4
f 32/35/4 33/36/4 36/39/4
f 36/39/4 33/36/4 82/94/4
f 1/1/4 34/37/4 58/67/4
f 58/67/4 34/37/4 37/40/4
f 35/38/4 36/39/4 38/43/4
f 38/43/4 36/39/4 39/45/4
f 56/65/4 58/67/4 10/11/4
f 10/11/4 58/67/4 12/13/4
f 37/40/4 38/42/4 40/46/4
f 40/46/4 38/42/4 41/48/4
f 12/13/4 40/46/4 43/52/4
f 43/52/4 40/46/4 60/70/4
f 41/49/4 42/51/4 18/21/4
f 18/21/4 42/51/4 78/90/4
f 60/70/4 44/53/4 61/71/4
f 61/71/4 44/53/4 46/55/4
f 78/90/4 45/54/4 47/56/4
f 47/56/4 45/54/4 21/24/4
f 48/57/4 62/72/4 49/58/4
f 49/58/4 62/72/4 50/59/4
f 71/83/4 30/33/4 72/84/4
f 72/84/4 30/33/4 51/60/4
f 63/73/4 3/3/4 64/74/4
f 64/74/4 3/3/4 53/62/4
f 52/61/4 6/7/4 54/63/4
f 54/63/4 6/7/4 84/96/4
f 56/65/5 9/10/5 55/64/5
f 10/11/5 9/10/5 56/65/5
f 1/1/5 26/29/5 57/66/5
f 58/67/5 26/29/5 1/1/5
f 12/13/5 27/30/5 11/12/5
f 43/52/5 27/30/5 12/13/5
f 48/57/5 12/14/5 58/68/5
f 49/58/5 12/14/5 48/57/5
f 60/70/5 59/69/5 17/20/5
f 61/71/5 59/69/5 60/70/5
f 63/73/5 50/59/5 62/72/5
f 64/74/5 50/59/5 63/73/5
f 68/79/5 66/76/5 65/75/5
f 69/81/5 66/76/5 68/79/5
f 35/38/5 68/79/5 67/77/5
f 38/43/5 68/79/5 35/38/5
f 41/49/5 70/82/5 69/81/5
f 18/21/5 70/82/5 41/49/5
f 71/83/5 41/49/5 38/43/5
f 72/84/5 41/49/5 71/83/5
f 23/26/5 14/16/5 73/85/5
f 74/86/5 14/16/5 23/26/5
f 32/35/5 8/9/5 75/87/5
f 36/39/5 8/9/5 32/35/5
f 78/90/5 20/23/5 19/22/5
f 47/56/5 20/23/5 78/90/5
f 52/61/5 51/60/5 30/33/5
f 54/63/5 51/60/5 52/61/5
f 76/88/6 2/2/6 34/37/6
f 34/37/6 2/2/6 37/40/6
f 13/15/6 17/20/6 40/46/6
f 40/46/6 17/20/6 60/70/6
f 37/41/6 40/47/6 62/72/6
f 62/72/6 40/47/6 50/59/6
f 7/8/6 28/31/6 44/53/6
f 44/53/6 28/31/6 46/55/6
f 29/32/6 77/89/6 3/3/6
f 3/3/6 77/89/6 53/62/6
f 23/26/6 74/86/6 4/5/6
f 4/5/6 74/86/6 15/17/6
f 8/9/6 4/5/6 36/39/6
f 4/4/6 15/18/6 39/44/6
f 36/39/6 4/5/6 39/45/6
f 15/17/6 19/22/6 42/51/6
f 39/44/6 15/18/6 42/50/6
f 42/51/6 19/22/6 78/90/6
f 39/45/6 42/51/6 30/33/6
f 30/33/6 42/51/6 51/60/6
f 5/6/6 22/25/6 79/91/6
f 79/91/6 22/25/6 31/34/6
f 24/27/6 25/28/6 33/36/6
f 33/36/6 25/28/6 82/94/6
f 80/92/6 81/93/6 45/54/6
f 45/54/6 81/93/6 21/24/6
f 83/95/6 16/19/6 6/7/6
f 6/7/6 16/19/6 84/96/6
