# Blender 3.4.1
# www.blender.org
mtllib Untitled.002.mtl
o Untitled.002
v 2.300000 0.399999 4.200000
v 2.500000 0.099999 4.700000
v 2.800000 0.099999 4.700000
v 2.800000 0.099999 4.500000
v 2.800000 0.099999 4.400000
v 2.800000 0.199999 4.500000
v 2.800000 0.199999 4.400000
v 2.800000 0.299999 4.600000
v 2.800000 0.299999 4.500000
v 2.800000 0.299999 4.300000
v 2.800000 0.299999 4.200000
v 2.800000 0.399999 4.200000
v 2.300000 0.099999 4.500000
v 2.300000 0.099999 4.200000
v 2.400000 0.199999 4.200000
v 2.400000 0.299999 4.200000
v 2.500000 0.199999 4.200000
v 2.500000 0.299999 4.200000
v 2.600000 0.099999 4.200000
v 2.600000 0.199999 4.200000
v 2.700000 0.099999 4.200000
v 2.700000 0.199999 4.200000
v 2.700000 0.299999 4.200000
v 2.800000 0.099999 4.200000
v 2.400000 0.099999 4.600000
v 2.500000 0.099999 4.600000
v 2.400000 0.099999 4.500000
v 2.700000 0.099999 4.500000
v 2.700000 0.099999 4.400000
v 2.400000 0.099999 4.300000
v 2.500000 0.099999 4.300000
v 2.600000 0.099999 4.300000
v 2.700000 0.099999 4.300000
v 2.400000 0.099999 4.200000
v 2.500000 0.099999 4.200000
v 2.500000 0.399999 4.700000
v 2.800000 0.399999 4.700000
v 2.400000 0.399999 4.600000
v 2.500000 0.399999 4.600000
v 2.700000 0.399999 4.600000
v 2.800000 0.399999 4.600000
v 2.300000 0.399999 4.500000
v 2.400000 0.399999 4.500000
v 2.500000 0.399999 4.500000
v 2.600000 0.399999 4.500000
v 2.700000 0.399999 4.500000
v 2.800000 0.399999 4.500000
v 2.400000 0.399999 4.400000
v 2.500000 0.399999 4.400000
v 2.600000 0.399999 4.400000
v 2.700000 0.399999 4.400000
v 2.400000 0.399999 4.300000
v 2.500000 0.399999 4.300000
v 2.700000 0.399999 4.300000
v 2.800000 0.399999 4.300000
v 2.400000 0.399999 4.200000
v 2.500000 0.399999 4.200000
v 2.700000 0.399999 4.200000
vn -1.0000 -0.0000 -0.0000
vn 1.0000 -0.0000 -0.0000
vn -0.0000 -0.0000 1.0000
vn -0.0000 -0.0000 -1.0000
vn -0.0000 -1.0000 -0.0000
vn -0.0000 1.0000 -0.0000
vt 0.439453 0.500000
vt 0.439453 0.500000
vt 0.439453 0.500000
vt 0.439453 0.500000
vt 0.443359 0.500000
vt 0.443359 0.500000
vt 0.439453 0.500000
vt 0.443359 0.500000
vt 0.439453 0.500000
vt 0.443359 0.500000
vt 0.439453 0.500000
vt 0.443359 0.500000
vt 0.439453 0.500000
vt 0.439453 0.500000
vt 0.443359 0.500000
vt 0.443359 0.500000
vt 0.439453 0.500000
vt 0.439453 0.500000
vt 0.443359 0.500000
vt 0.443359 0.500000
vt 0.439453 0.500000
vt 0.439453 0.500000
vt 0.439453 0.500000
vt 0.443359 0.500000
vt 0.443359 0.500000
vt 0.439453 0.500000
vt 0.443359 0.500000
vt 0.439453 0.500000
vt 0.443359 0.500000
vt 0.439453 0.500000
vt 0.439453 0.500000
vt 0.443359 0.500000
vt 0.439453 0.500000
vt 0.443359 0.500000
vt 0.443359 0.500000
vt 0.439453 0.500000
vt 0.443359 0.500000
vt 0.439453 0.500000
vt 0.443359 0.500000
vt 0.439453 0.500000
vt 0.439453 0.500000
vt 0.439453 0.500000
vt 0.439453 0.500000
vt 0.439453 0.500000
vt 0.439453 0.500000
vt 0.443359 0.500000
vt 0.443359 0.500000
vt 0.439453 0.500000
vt 0.443359 0.500000
vt 0.439453 0.500000
vt 0.439453 0.500000
vt 0.443359 0.500000
vt 0.443359 0.500000
vt 0.439453 0.500000
vt 0.439453 0.500000
vt 0.443359 0.500000
vt 0.439453 0.500000
vt 0.443359 0.500000
vt 0.443359 0.500000
vt 0.439453 0.500000
vt 0.439453 0.500000
vt 0.439453 0.500000
vt 0.439453 0.500000
vt 0.439453 0.500000
vt 0.443359 0.500000
vt 0.439453 0.500000
vt 0.439453 0.500000
vt 0.443359 0.500000
vt 0.439453 0.500000
vt 0.439453 0.500000
vt 0.443359 0.500000
vt 0.439453 0.500000
vt 0.443359 0.500000
vt 0.443359 0.500000
vt 0.439453 0.500000
vt 0.439453 0.500000
vt 0.443359 0.500000
vt 0.443359 0.500000
vt 0.439453 0.500000
vt 0.443359 0.500000
vt 0.439453 0.500000
vt 0.443359 0.500000
vt 0.439453 0.500000
vt 0.443359 0.500000
vt 0.439453 0.500000
vt 0.443359 0.500000
vt 0.439453 0.500000
vt 0.443359 0.500000
vt 0.439453 0.500000
vt 0.439453 0.500000
vt 0.443359 0.500000
vt 0.443359 0.500000
vt 0.439453 0.500000
vt 0.439453 0.500000
vt 0.443359 0.500000
vt 0.439453 0.500000
vt 0.443359 0.500000
vt 0.443359 0.500000
vt 0.439453 0.500000
vt 0.439453 0.500000
vt 0.443359 0.500000
s 0
usemtl palette.002
f 42/69/1 14/22/1 13/21/1
f 1/1/1 14/22/1 42/69/1
f 38/63/1 27/44/1 25/42/1
f 43/70/1 27/44/1 38/63/1
f 36/61/1 26/43/1 2/2/1
f 39/64/1 26/43/1 36/61/1
f 3/3/2 4/4/2 6/9/2
f 4/5/2 5/6/2 6/8/2
f 5/7/2 24/41/2 7/11/2
f 6/8/2 5/6/2 7/10/2
f 3/3/2 6/9/2 8/13/2
f 6/9/2 7/11/2 8/13/2
f 8/13/2 7/11/2 9/14/2
f 7/11/2 24/41/2 10/17/2
f 9/14/2 7/11/2 10/17/2
f 10/17/2 24/41/2 11/18/2
f 3/3/2 8/13/2 37/62/2
f 8/12/2 9/15/2 41/68/2
f 37/62/2 8/13/2 41/67/2
f 9/14/2 10/17/2 47/79/2
f 41/68/2 9/15/2 47/78/2
f 10/16/2 11/19/2 55/95/2
f 47/79/2 10/17/2 55/94/2
f 55/95/2 11/19/2 12/20/2
f 3/3/3 36/61/3 2/2/3
f 37/62/3 36/61/3 3/3/3
f 26/43/3 38/63/3 25/42/3
f 39/64/3 38/63/3 26/43/3
f 27/44/3 42/69/3 13/21/3
f 43/70/3 42/69/3 27/44/3
f 14/22/4 1/1/4 34/57/4
f 34/57/4 1/1/4 15/23/4
f 15/23/4 1/1/4 16/26/4
f 16/26/4 1/1/4 56/96/4
f 34/58/4 15/24/4 35/59/4
f 15/23/4 16/26/4 17/28/4
f 35/59/4 15/24/4 17/27/4
f 16/25/4 56/97/4 18/29/4
f 17/28/4 16/26/4 18/30/4
f 18/29/4 56/97/4 57/98/4
f 35/60/4 17/28/4 19/31/4
f 17/28/4 18/30/4 19/31/4
f 18/30/4 57/99/4 19/31/4
f 19/31/4 57/99/4 20/33/4
f 19/32/4 20/34/4 21/35/4
f 20/33/4 57/99/4 22/38/4
f 21/35/4 20/34/4 22/37/4
f 22/38/4 57/99/4 23/40/4
f 23/40/4 57/99/4 58/100/4
f 21/36/4 22/38/4 24/41/4
f 22/38/4 23/40/4 24/41/4
f 23/39/4 58/101/4 11/19/4
f 24/41/4 23/40/4 11/18/4
f 11/19/4 58/101/4 12/20/4
f 26/43/5 3/3/5 2/2/5
f 27/44/5 26/43/5 25/42/5
f 28/45/5 3/3/5 26/43/5
f 28/45/5 26/43/5 27/44/5
f 4/4/5 3/3/5 28/45/5
f 29/48/5 27/44/5 13/21/5
f 29/48/5 28/45/5 27/44/5
f 29/47/5 4/5/5 28/46/5
f 5/6/5 4/5/5 29/47/5
f 30/50/5 29/48/5 13/21/5
f 30/50/5 5/7/5 29/48/5
f 31/51/5 5/7/5 30/50/5
f 32/54/5 5/7/5 31/51/5
f 33/55/5 5/7/5 32/54/5
f 14/22/5 30/50/5 13/21/5
f 34/58/5 31/52/5 30/49/5
f 34/57/5 30/50/5 14/22/5
f 35/60/5 32/54/5 31/51/5
f 35/59/5 31/52/5 34/58/5
f 19/32/5 33/56/5 32/53/5
f 19/31/5 32/54/5 35/60/5
f 21/36/5 5/7/5 33/55/5
f 21/35/5 33/56/5 19/32/5
f 24/41/5 5/7/5 21/36/5
f 36/61/6 37/62/6 39/64/6
f 39/64/6 37/62/6 40/66/6
f 40/66/6 37/62/6 41/67/6
f 38/63/6 39/64/6 43/70/6
f 39/64/6 40/66/6 43/70/6
f 43/70/6 40/66/6 44/72/6
f 44/72/6 40/66/6 45/75/6
f 40/65/6 41/68/6 46/77/6
f 45/75/6 40/66/6 46/76/6
f 46/77/6 41/68/6 47/78/6
f 42/69/6 43/70/6 48/81/6
f 43/71/6 44/73/6 48/80/6
f 44/72/6 45/75/6 49/83/6
f 48/80/6 44/73/6 49/82/6
f 45/74/6 46/77/6 50/84/6
f 49/83/6 45/75/6 50/85/6
f 46/76/6 47/79/6 51/87/6
f 50/84/6 46/77/6 51/86/6
f 42/69/6 48/81/6 52/89/6
f 49/83/6 50/85/6 52/89/6
f 50/85/6 51/87/6 52/89/6
f 48/81/6 49/83/6 52/89/6
f 52/89/6 51/87/6 53/90/6
f 51/87/6 47/79/6 54/93/6
f 53/90/6 51/87/6 54/93/6
f 54/93/6 47/79/6 55/94/6
f 42/69/6 52/89/6 1/1/6
f 52/88/6 53/91/6 56/97/6
f 1/1/6 52/89/6 56/96/6
f 53/90/6 54/93/6 57/99/6
f 56/97/6 53/91/6 57/98/6
f 54/92/6 55/95/6 58/101/6
f 57/99/6 54/93/6 58/100/6
f 58/101/6 55/95/6 12/20/6
