# Blender 3.4.1
# www.blender.org
mtllib Untitled.020.mtl
o Untitled.020
v -6.000000 2.700000 1.600001
v -6.000000 2.700000 0.900000
v -6.000000 2.900000 1.800000
v -6.000000 2.900000 0.700000
v -6.000000 3.300000 0.700001
v -6.000000 3.400000 2.000000
v -6.000000 3.600000 0.500001
v -6.000000 3.700000 0.700001
v -6.000000 3.700000 0.600001
v -6.000000 3.800000 1.800001
v -6.000000 4.000000 0.900001
v -6.000000 4.000000 0.700001
v -6.000000 4.099999 1.600001
v -5.800000 2.600000 1.500000
v -5.800000 2.700000 1.500000
v -5.800000 2.700000 0.900000
v -5.800000 2.900000 0.900000
v -5.800000 3.100000 1.900000
v -5.800000 3.400000 2.000000
v -5.800000 3.700000 0.700001
v -5.800000 3.700000 0.600001
v -5.800000 4.000000 1.600001
v -5.800000 4.000000 0.900001
v -5.800000 4.000000 0.700001
v -5.800000 4.300000 1.500001
v -6.000000 3.600000 2.000000
v -5.800000 3.600000 2.000000
v -6.000000 3.100000 1.900000
v -6.000000 3.600000 1.900001
v -6.000000 3.800000 1.900001
v -5.800000 3.600000 1.900001
v -5.800000 3.800000 1.900001
v -6.000000 3.100000 1.800000
v -6.000000 4.000000 1.800001
v -5.800000 2.900000 1.800000
v -5.800000 3.100000 1.800000
v -5.800000 3.800000 1.800001
v -5.800000 4.000000 1.800001
v -5.800000 2.900000 1.600001
v -5.800000 4.099999 1.600001
v -6.000000 4.099999 1.500001
v -6.000000 2.600000 1.100001
v -6.000000 4.100000 1.100001
v -6.000000 4.300000 1.100001
v -5.800000 2.700000 1.100001
v -5.800000 4.300000 1.100001
v -6.000000 2.900000 0.900000
v -5.800000 4.100000 0.900001
v -5.800000 2.900000 0.700000
v -5.800000 3.300000 0.700001
v -6.000000 3.600000 0.600001
v -5.800000 3.300000 0.600001
v -6.000000 3.400000 0.500001
v -6.000000 2.600000 1.500000
v -5.800000 2.600000 1.100001
v -5.800000 2.700000 1.600001
v -6.000000 2.700000 1.500000
v -6.000000 2.700000 1.100001
v -6.000000 2.900000 1.600001
v -6.000000 3.300000 0.600001
v -6.000000 3.400000 1.900001
v -5.800000 3.400000 1.900001
v -6.000000 3.400000 0.600001
v -5.800000 3.400000 0.600001
v -5.800000 3.400000 0.500001
v -5.800000 3.600000 0.600001
v -5.800000 3.600000 0.500001
v -6.000000 4.000000 1.600001
v -5.800000 4.099999 1.500001
v -5.800000 4.100000 1.100001
v -6.000000 4.100000 0.900001
v -6.000000 4.300000 1.500001
vn -1.0000 -0.0000 -0.0000
vn -1.0000 -0.0001 -0.0000
vn -1.0000 0.0001 -0.0000
vn 1.0000 -0.0000 -0.0000
vn 1.0000 -0.0001 -0.0000
vn 1.0000 0.0001 -0.0000
vn -0.0000 -0.0000 1.0000
vn -0.0000 -0.0000 -1.0000
vn -0.0000 -1.0000 -0.0000
vn -0.0000 1.0000 -0.0000
vt 0.197266 0.500000
vt 0.197266 0.500000
vt 0.197266 0.500000
vt 0.197266 0.500000
vt 0.197266 0.500000
vt 0.197266 0.500000
vt 0.197266 0.500000
vt 0.197266 0.500000
vt 0.197266 0.500000
vt 0.197266 0.500000
vt 0.197266 0.500000
vt 0.197266 0.500000
vt 0.197266 0.500000
vt 0.197266 0.500000
vt 0.197266 0.500000
vt 0.197266 0.500000
vt 0.197266 0.500000
vt 0.197266 0.500000
vt 0.197266 0.500000
vt 0.197266 0.500000
vt 0.197266 0.500000
vt 0.197266 0.500000
vt 0.197266 0.500000
vt 0.197266 0.500000
vt 0.197266 0.500000
vt 0.197266 0.500000
vt 0.197266 0.500000
vt 0.197266 0.500000
vt 0.197266 0.500000
vt 0.197266 0.500000
vt 0.197266 0.500000
vt 0.197266 0.500000
vt 0.197266 0.500000
vt 0.197266 0.500000
vt 0.197266 0.500000
vt 0.197266 0.500000
vt 0.197266 0.500000
vt 0.197266 0.500000
vt 0.197266 0.500000
vt 0.197266 0.500000
vt 0.197266 0.500000
vt 0.197266 0.500000
vt 0.197266 0.500000
vt 0.197266 0.500000
vt 0.197266 0.500000
vt 0.197266 0.500000
vt 0.197266 0.500000
vt 0.197266 0.500000
vt 0.197266 0.500000
vt 0.197266 0.500000
vt 0.197266 0.500000
vt 0.197266 0.500000
vt 0.197266 0.500000
vt 0.197266 0.500000
vt 0.197266 0.500000
vt 0.197266 0.500000
vt 0.197266 0.500000
vt 0.197266 0.500000
vt 0.197266 0.500000
vt 0.197266 0.500000
vt 0.197266 0.500000
vt 0.197266 0.500000
vt 0.197266 0.500000
vt 0.197266 0.500000
vt 0.197266 0.500000
vt 0.197266 0.500000
vt 0.197266 0.500000
vt 0.197266 0.500000
vt 0.197266 0.500000
vt 0.197266 0.500000
vt 0.197266 0.500000
vt 0.197266 0.500000
s 0
usemtl palette.020
f 57/57/1 42/42/1 54/54/1
f 58/58/1 42/42/1 57/57/1
f 59/59/1 57/57/1 1/1/1
f 59/59/1 2/2/1 58/58/1
f 59/59/1 58/58/1 57/57/1
f 47/47/1 2/2/1 59/59/1
f 33/33/1 59/59/1 3/3/1
f 33/33/1 4/4/1 47/47/1
f 33/33/1 47/47/1 59/59/1
f 5/5/1 4/4/1 33/33/1
f 5/5/2 33/33/2 28/28/2
f 61/61/1 5/5/1 28/28/1
f 61/61/3 60/60/3 5/5/3
f 63/63/1 60/60/1 61/61/1
f 26/26/1 61/61/1 6/6/1
f 26/26/1 53/53/1 63/63/1
f 26/26/1 63/63/1 61/61/1
f 29/29/1 53/53/1 26/26/1
f 51/51/1 53/53/1 29/29/1
f 7/7/1 53/53/1 51/51/1
f 8/8/1 51/51/1 29/29/1
f 9/9/1 51/51/1 8/8/1
f 30/30/1 8/8/1 29/29/1
f 10/10/3 8/8/3 30/30/3
f 34/34/1 8/8/1 10/10/1
f 68/68/1 8/8/1 34/34/1
f 11/11/1 8/8/1 68/68/1
f 12/12/1 8/8/1 11/11/1
f 13/13/1 11/11/1 68/68/1
f 41/41/1 11/11/1 13/13/1
f 43/43/1 11/11/1 41/41/1
f 71/71/1 11/11/1 43/43/1
f 72/72/1 43/43/1 41/41/1
f 44/44/1 43/43/1 72/72/1
f 14/14/4 55/55/4 15/15/4
f 15/15/4 55/55/4 45/45/4
f 56/56/4 15/15/4 39/39/4
f 45/45/4 16/16/4 39/39/4
f 15/15/4 45/45/4 39/39/4
f 39/39/4 16/16/4 17/17/4
f 35/35/4 39/39/4 36/36/4
f 17/17/4 49/49/4 36/36/4
f 39/39/4 17/17/4 36/36/4
f 36/36/4 49/49/4 50/50/4
f 18/18/4 36/36/4 50/50/4
f 18/18/4 50/50/4 62/62/4
f 50/50/5 52/52/5 62/62/5
f 62/62/4 52/52/4 64/64/4
f 19/19/4 62/62/4 27/27/4
f 64/64/6 65/65/6 27/27/6
f 62/62/4 64/64/4 27/27/4
f 27/27/5 65/65/5 31/31/5
f 31/31/4 65/65/4 66/66/4
f 66/66/4 65/65/4 67/67/4
f 31/31/4 66/66/4 20/20/4
f 20/20/4 66/66/4 21/21/4
f 31/31/4 20/20/4 32/32/4
f 32/32/5 20/20/5 37/37/5
f 37/37/4 20/20/4 38/38/4
f 38/38/4 20/20/4 22/22/4
f 22/22/4 20/20/4 23/23/4
f 23/23/4 20/20/4 24/24/4
f 22/22/4 23/23/4 40/40/4
f 40/40/4 23/23/4 69/69/4
f 69/69/4 23/23/4 70/70/4
f 70/70/4 23/23/4 48/48/4
f 69/69/4 70/70/4 25/25/4
f 25/25/4 70/70/4 46/46/4
f 19/19/7 26/26/7 6/6/7
f 27/27/7 26/26/7 19/19/7
f 18/18/7 61/61/7 28/28/7
f 62/62/7 61/61/7 18/18/7
f 31/31/7 30/30/7 29/29/7
f 32/32/7 30/30/7 31/31/7
f 35/35/7 33/33/7 3/3/7
f 36/36/7 33/33/7 35/35/7
f 37/37/7 34/34/7 10/10/7
f 38/38/7 34/34/7 37/37/7
f 56/56/7 59/59/7 1/1/7
f 39/39/7 59/59/7 56/56/7
f 22/22/7 13/13/7 68/68/7
f 40/40/7 13/13/7 22/22/7
f 14/14/7 57/57/7 54/54/7
f 15/15/7 57/57/7 14/14/7
f 69/69/7 72/72/7 41/41/7
f 25/25/7 72/72/7 69/69/7
f 42/42/8 58/58/8 55/55/8
f 55/55/8 58/58/8 45/45/8
f 43/43/8 44/44/8 70/70/8
f 70/70/8 44/44/8 46/46/8
f 2/2/8 47/47/8 16/16/8
f 16/16/8 47/47/8 17/17/8
f 11/11/8 71/71/8 23/23/8
f 23/23/8 71/71/8 48/48/8
f 4/4/8 5/5/8 49/49/8
f 49/49/8 5/5/8 50/50/8
f 8/8/8 12/12/8 20/20/8
f 20/20/8 12/12/8 24/24/8
f 60/60/8 63/63/8 52/52/8
f 52/52/8 63/63/8 64/64/8
f 51/51/8 9/9/8 66/66/8
f 66/66/8 9/9/8 21/21/8
f 53/53/8 7/7/8 65/65/8
f 65/65/8 7/7/8 67/67/8
f 42/42/9 14/14/9 54/54/9
f 55/55/9 14/14/9 42/42/9
f 57/57/9 56/56/9 1/1/9
f 15/15/9 56/56/9 57/57/9
f 2/2/9 45/45/9 58/58/9
f 16/16/9 45/45/9 2/2/9
f 59/59/9 35/35/9 3/3/9
f 39/39/9 35/35/9 59/59/9
f 4/4/9 17/17/9 47/47/9
f 49/49/9 17/17/9 4/4/9
f 33/33/9 18/18/9 28/28/9
f 36/36/9 18/18/9 33/33/9
f 60/60/9 50/50/9 5/5/9
f 52/52/9 50/50/9 60/60/9
f 61/61/9 19/19/9 6/6/9
f 62/62/9 19/19/9 61/61/9
f 53/53/9 64/64/9 63/63/9
f 65/65/9 64/64/9 53/53/9
f 26/26/10 27/27/10 29/29/10
f 29/29/10 27/27/10 31/31/10
f 51/51/10 66/66/10 7/7/10
f 7/7/10 66/66/10 67/67/10
f 8/8/10 20/20/10 9/9/10
f 9/9/10 20/20/10 21/21/10
f 30/30/10 32/32/10 10/10/10
f 10/10/10 32/32/10 37/37/10
f 34/34/10 38/38/10 68/68/10
f 68/68/10 38/38/10 22/22/10
f 11/11/10 23/23/10 12/12/10
f 12/12/10 23/23/10 24/24/10
f 13/13/10 40/40/10 41/41/10
f 41/41/10 40/40/10 69/69/10
f 43/43/10 70/70/10 71/71/10
f 71/71/10 70/70/10 48/48/10
f 72/72/10 25/25/10 44/44/10
f 44/44/10 25/25/10 46/46/10
