# Blender 3.4.1
# www.blender.org
mtllib Untitled.018.mtl
o Untitled.018
v 5.300000 1.500000 0.000000
v 5.300000 1.700000 2.000000
v 5.300000 1.800000 0.000000
v 5.300000 2.400000 2.000000
v 5.300000 2.400000 0.000000
v 5.300000 3.000000 0.000000
v 5.300000 3.600000 0.000001
v 6.000000 1.500000 2.200000
v 6.000000 1.500000 2.000000
v 6.000000 1.500000 0.000000
v 6.000000 1.500000 -0.200000
v 6.000000 1.700000 2.200000
v 6.000000 1.700000 2.000000
v 6.000000 1.800000 2.000000
v 6.000000 2.300000 2.000000
v 6.000000 2.300000 -0.200000
v 6.000000 2.900000 2.200001
v 6.000000 2.900000 2.000000
v 6.000000 3.000000 2.200001
v 6.000000 3.599999 2.200001
v 6.000000 4.099999 2.200001
v 5.500000 1.500000 2.000000
v 5.500000 1.700000 2.200000
v 5.500000 1.700000 2.000000
v 5.500000 1.800000 2.000000
v 5.500000 2.400000 2.200001
v 5.500000 2.400000 2.000000
v 5.500000 2.400000 -0.200000
v 5.500000 2.900000 2.200001
v 5.500000 2.900000 2.000000
v 5.500000 2.900000 0.000000
v 5.500000 3.000000 2.000000
v 5.500000 3.000000 -0.200000
v 5.500000 3.500000 2.000000
v 5.500000 3.500000 0.000001
v 5.500000 3.500000 -0.199999
v 5.500000 3.600000 0.000001
v 5.500000 3.600000 -0.199999
v 5.500000 4.099999 2.200001
v 5.500000 4.099999 2.000001
v 5.500000 4.100000 0.000001
v 6.200000 1.500000 0.000000
v 6.200000 1.800000 0.000000
v 6.200000 2.300000 2.000000
v 6.200000 4.199999 2.200001
v 6.200000 4.200000 -0.199999
v 5.300000 4.199999 2.200001
v 5.500000 1.500000 2.200000
v 5.500000 1.800000 2.200000
v 5.500000 3.000000 2.200001
v 5.500000 3.500000 2.200001
v 6.000000 1.800000 2.200000
v 6.000000 2.400000 2.200001
v 6.200000 1.500000 2.200000
v 5.300000 1.700000 0.000000
v 5.300000 3.500000 0.000001
v 5.500000 1.800000 0.000000
v 5.500000 2.400000 0.000000
v 5.500000 3.000000 0.000000
v 6.000000 2.900000 0.000000
v 6.000000 3.500000 0.000001
v 6.000000 3.600000 0.000001
v 6.200000 2.400000 0.000000
v 6.200000 2.900000 0.000000
v 6.200000 3.000000 0.000000
v 6.200000 3.500000 0.000001
v 6.200000 4.100000 0.000001
v 5.300000 1.800000 2.000000
v 5.500000 2.300000 2.000000
v 5.500000 3.600000 2.000000
v 6.000000 3.000000 2.000000
v 6.000000 3.500000 2.000000
v 6.000000 4.099999 2.000001
v 6.200000 2.400000 2.000000
v 6.200000 2.900000 2.000000
v 5.300000 1.500000 -0.200000
v 5.300000 4.200000 -0.199999
v 5.500000 2.300000 -0.200000
v 5.500000 2.900000 -0.200000
v 6.000000 1.700000 -0.200000
v 6.000000 1.800000 -0.200000
v 6.000000 3.600000 -0.199999
v 6.000000 4.100000 -0.199999
v 5.300000 1.500000 2.200000
v 5.300000 1.500000 2.000000
v 6.200000 1.500000 2.000000
v 5.500000 1.500000 0.000000
v 5.500000 1.500000 -0.200000
v 6.200000 1.500000 -0.200000
v 6.200000 1.700000 2.000000
v 5.500000 1.700000 0.000000
v 6.000000 1.700000 0.000000
v 6.200000 1.700000 0.000000
v 5.500000 1.700000 -0.200000
v 5.500000 2.299999 2.200001
v 6.000000 2.299999 2.200001
v 5.300000 2.300000 2.000000
v 5.300000 2.300000 0.000000
v 5.500000 2.300000 0.000000
v 6.000000 2.300000 0.000000
v 6.200000 2.300000 0.000000
v 5.300000 2.900000 2.000000
v 5.300000 2.900000 0.000000
v 6.000000 2.900000 -0.200000
v 6.000000 3.500000 2.200001
v 5.300000 3.500000 2.000000
v 6.200000 3.500000 2.000000
v 6.000000 3.500000 -0.199999
v 5.300000 4.099999 2.000001
v 6.200000 4.099999 2.000001
v 5.300000 4.100000 0.000001
v 6.000000 4.100000 0.000001
v 5.500000 4.100000 -0.199999
v 6.200000 1.800000 2.000000
v 6.000000 1.800000 0.000000
v 5.500000 1.800000 -0.200000
v 6.000000 2.400000 2.000000
v 6.000000 2.400000 0.000000
v 6.000000 2.400000 -0.200000
v 5.300000 3.000000 2.000000
v 6.200000 3.000000 2.000000
v 6.000000 3.000000 0.000000
v 6.000000 3.000000 -0.200000
v 5.500000 3.599999 2.200001
v 5.300000 3.600000 2.000000
v 6.000000 3.600000 2.000000
v 6.200000 3.600000 2.000000
v 6.200000 3.600000 0.000001
vn -1.0000 -0.0000 -0.0000
vn 1.0000 -0.0000 -0.0000
vn -0.0000 -0.0000 1.0000
vn -0.0000 -0.0000 -1.0000
vn -0.0000 -1.0000 -0.0000
vn -0.0000 1.0000 -0.0000
vt 0.189453 0.500000
vt 0.189453 0.500000
vt 0.189453 0.500000
vt 0.189453 0.500000
vt 0.189453 0.500000
vt 0.189453 0.500000
vt 0.189453 0.500000
vt 0.189453 0.500000
vt 0.189453 0.500000
vt 0.189453 0.500000
vt 0.189453 0.500000
vt 0.189453 0.500000
vt 0.189453 0.500000
vt 0.189453 0.500000
vt 0.189453 0.500000
vt 0.189453 0.500000
vt 0.189453 0.500000
vt 0.189453 0.500000
vt 0.189453 0.500000
vt 0.189453 0.500000
vt 0.189453 0.500000
vt 0.189453 0.500000
vt 0.189453 0.500000
vt 0.189453 0.500000
vt 0.189453 0.500000
vt 0.189453 0.500000
vt 0.189453 0.500000
vt 0.189453 0.500000
vt 0.189453 0.500000
vt 0.189453 0.500000
vt 0.189453 0.500000
vt 0.189453 0.500000
vt 0.189453 0.500000
vt 0.189453 0.500000
vt 0.189453 0.500000
vt 0.189453 0.500000
vt 0.189453 0.500000
vt 0.189453 0.500000
vt 0.189453 0.500000
vt 0.189453 0.500000
vt 0.189453 0.500000
vt 0.189453 0.500000
vt 0.189453 0.500000
vt 0.189453 0.500000
vt 0.189453 0.500000
vt 0.189453 0.500000
vt 0.189453 0.500000
vt 0.189453 0.500000
vt 0.189453 0.500000
vt 0.189453 0.500000
vt 0.189453 0.500000
vt 0.189453 0.500000
vt 0.189453 0.500000
vt 0.189453 0.500000
vt 0.189453 0.500000
vt 0.189453 0.500000
vt 0.189453 0.500000
vt 0.189453 0.500000
vt 0.189453 0.500000
vt 0.189453 0.500000
vt 0.189453 0.500000
vt 0.189453 0.500000
vt 0.189453 0.500000
vt 0.189453 0.500000
vt 0.189453 0.500000
vt 0.189453 0.500000
vt 0.189453 0.500000
vt 0.189453 0.500000
vt 0.189453 0.500000
vt 0.189453 0.500000
vt 0.189453 0.500000
vt 0.189453 0.500000
vt 0.189453 0.500000
vt 0.189453 0.500000
vt 0.189453 0.500000
vt 0.189453 0.500000
vt 0.189453 0.500000
vt 0.189453 0.500000
vt 0.189453 0.500000
vt 0.189453 0.500000
vt 0.189453 0.500000
vt 0.189453 0.500000
vt 0.189453 0.500000
vt 0.189453 0.500000
vt 0.189453 0.500000
vt 0.189453 0.500000
vt 0.189453 0.500000
vt 0.189453 0.500000
vt 0.189453 0.500000
vt 0.189453 0.500000
vt 0.189453 0.500000
vt 0.189453 0.500000
vt 0.189453 0.500000
vt 0.189453 0.500000
vt 0.189453 0.500000
vt 0.189453 0.500000
vt 0.189453 0.500000
vt 0.189453 0.500000
vt 0.189453 0.500000
vt 0.189453 0.500000
vt 0.189453 0.500000
vt 0.189453 0.500000
vt 0.189453 0.500000
vt 0.189453 0.500000
vt 0.189453 0.500000
vt 0.189453 0.500000
vt 0.189453 0.500000
vt 0.189453 0.500000
vt 0.189453 0.500000
vt 0.189453 0.500000
vt 0.189453 0.500000
vt 0.189453 0.500000
vt 0.189453 0.500000
vt 0.189453 0.500000
vt 0.189453 0.500000
vt 0.189453 0.500000
vt 0.189453 0.500000
vt 0.189453 0.500000
vt 0.189453 0.500000
vt 0.189453 0.500000
vt 0.189453 0.500000
vt 0.189453 0.500000
vt 0.189453 0.500000
vt 0.189453 0.500000
vt 0.189453 0.500000
vt 0.189453 0.500000
vt 0.189453 0.500000
vt 0.189453 0.500000
s 0
usemtl palette.018
f 2/2/1 85/85/1 84/84/1
f 55/55/1 76/76/1 1/1/1
f 68/68/1 2/2/1 84/84/1
f 68/68/1 55/55/1 2/2/1
f 3/3/1 76/76/1 55/55/1
f 3/3/1 55/55/1 68/68/1
f 97/97/1 68/68/1 84/84/1
f 98/98/1 76/76/1 3/3/1
f 4/4/1 97/97/1 84/84/1
f 4/4/1 98/98/1 97/97/1
f 5/5/1 76/76/1 98/98/1
f 5/5/1 98/98/1 4/4/1
f 102/102/1 4/4/1 84/84/1
f 103/103/1 76/76/1 5/5/1
f 120/120/1 102/102/1 84/84/1
f 120/120/1 103/103/1 102/102/1
f 6/6/1 76/76/1 103/103/1
f 6/6/1 103/103/1 120/120/1
f 106/106/1 120/120/1 84/84/1
f 56/56/1 76/76/1 6/6/1
f 125/125/1 106/106/1 84/84/1
f 125/125/1 56/56/1 106/106/1
f 7/7/1 76/76/1 56/56/1
f 7/7/1 56/56/1 125/125/1
f 109/109/1 125/125/1 84/84/1
f 111/111/1 76/76/1 7/7/1
f 47/47/1 109/109/1 84/84/1
f 47/47/1 111/111/1 109/109/1
f 77/77/1 76/76/1 111/111/1
f 77/77/1 111/111/1 47/47/1
f 12/12/1 9/9/1 8/8/1
f 13/13/1 9/9/1 12/12/1
f 92/92/1 11/11/1 10/10/1
f 80/80/1 11/11/1 92/92/1
f 96/96/1 14/14/1 52/52/1
f 15/15/1 14/14/1 96/96/1
f 100/100/1 81/81/1 115/115/1
f 16/16/1 81/81/1 100/100/1
f 17/17/1 117/117/1 53/53/1
f 18/18/1 117/117/1 17/17/1
f 60/60/1 119/119/1 118/118/1
f 104/104/1 119/119/1 60/60/1
f 105/105/1 71/71/1 19/19/1
f 72/72/1 71/71/1 105/105/1
f 61/61/1 123/123/1 122/122/1
f 108/108/1 123/123/1 61/61/1
f 21/21/1 126/126/1 20/20/1
f 73/73/1 126/126/1 21/21/1
f 112/112/1 82/82/1 62/62/1
f 83/83/1 82/82/1 112/112/1
f 48/48/2 22/22/2 23/23/2
f 23/23/2 22/22/2 24/24/2
f 87/87/2 88/88/2 91/91/2
f 91/91/2 88/88/2 94/94/2
f 49/49/2 25/25/2 95/95/2
f 95/95/2 25/25/2 69/69/2
f 57/57/2 116/116/2 99/99/2
f 99/99/2 116/116/2 78/78/2
f 26/26/2 27/27/2 29/29/2
f 29/29/2 27/27/2 30/30/2
f 58/58/2 28/28/2 31/31/2
f 31/31/2 28/28/2 79/79/2
f 50/50/2 32/32/2 51/51/2
f 51/51/2 32/32/2 34/34/2
f 59/59/2 33/33/2 35/35/2
f 35/35/2 33/33/2 36/36/2
f 124/124/2 70/70/2 39/39/2
f 39/39/2 70/70/2 40/40/2
f 37/37/2 38/38/2 41/41/2
f 41/41/2 38/38/2 113/113/2
f 54/54/2 86/86/2 90/90/2
f 42/42/2 89/89/2 93/93/2
f 54/54/2 90/90/2 114/114/2
f 90/90/2 93/93/2 114/114/2
f 93/93/2 89/89/2 43/43/2
f 114/114/2 93/93/2 43/43/2
f 54/54/2 114/114/2 44/44/2
f 43/43/2 89/89/2 101/101/2
f 54/54/2 44/44/2 74/74/2
f 44/44/2 101/101/2 74/74/2
f 101/101/2 89/89/2 63/63/2
f 74/74/2 101/101/2 63/63/2
f 54/54/2 74/74/2 75/75/2
f 63/63/2 89/89/2 64/64/2
f 54/54/2 75/75/2 121/121/2
f 75/75/2 64/64/2 121/121/2
f 64/64/2 89/89/2 65/65/2
f 121/121/2 64/64/2 65/65/2
f 54/54/2 121/121/2 107/107/2
f 65/65/2 89/89/2 66/66/2
f 54/54/2 107/107/2 127/127/2
f 107/107/2 66/66/2 127/127/2
f 66/66/2 89/89/2 128/128/2
f 127/127/2 66/66/2 128/128/2
f 54/54/2 127/127/2 110/110/2
f 128/128/2 89/89/2 67/67/2
f 54/54/2 110/110/2 45/45/2
f 110/110/2 67/67/2 45/45/2
f 67/67/2 89/89/2 46/46/2
f 45/45/2 67/67/2 46/46/2
f 48/48/3 47/47/3 84/84/3
f 23/23/3 47/47/3 48/48/3
f 49/49/3 47/47/3 23/23/3
f 95/95/3 47/47/3 49/49/3
f 26/26/3 47/47/3 95/95/3
f 29/29/3 47/47/3 26/26/3
f 50/50/3 47/47/3 29/29/3
f 51/51/3 47/47/3 50/50/3
f 124/124/3 47/47/3 51/51/3
f 39/39/3 47/47/3 124/124/3
f 12/12/3 49/49/3 23/23/3
f 52/52/3 49/49/3 12/12/3
f 96/96/3 26/26/3 95/95/3
f 53/53/3 26/26/3 96/96/3
f 17/17/3 50/50/3 29/29/3
f 19/19/3 50/50/3 17/17/3
f 105/105/3 124/124/3 51/51/3
f 20/20/3 124/124/3 105/105/3
f 21/21/3 47/47/3 39/39/3
f 54/54/3 20/20/3 105/105/3
f 54/54/3 21/21/3 20/20/3
f 54/54/3 53/53/3 96/96/3
f 54/54/3 19/19/3 17/17/3
f 54/54/3 105/105/3 19/19/3
f 54/54/3 52/52/3 12/12/3
f 54/54/3 17/17/3 53/53/3
f 54/54/3 12/12/3 8/8/3
f 54/54/3 96/96/3 52/52/3
f 45/45/3 47/47/3 21/21/3
f 45/45/3 21/21/3 54/54/3
f 87/87/3 55/55/3 1/1/3
f 91/91/3 55/55/3 87/87/3
f 57/57/3 98/98/3 3/3/3
f 99/99/3 98/98/3 57/57/3
f 58/58/3 103/103/3 5/5/3
f 31/31/3 103/103/3 58/58/3
f 59/59/3 56/56/3 6/6/3
f 35/35/3 56/56/3 59/59/3
f 37/37/3 111/111/3 7/7/3
f 41/41/3 111/111/3 37/37/3
f 42/42/3 92/92/3 10/10/3
f 93/93/3 92/92/3 42/42/3
f 43/43/3 100/100/3 115/115/3
f 101/101/3 100/100/3 43/43/3
f 63/63/3 60/60/3 118/118/3
f 64/64/3 60/60/3 63/63/3
f 65/65/3 61/61/3 122/122/3
f 66/66/3 61/61/3 65/65/3
f 128/128/3 112/112/3 62/62/3
f 67/67/3 112/112/3 128/128/3
f 85/85/4 2/2/4 22/22/4
f 22/22/4 2/2/4 24/24/4
f 68/68/4 97/97/4 25/25/4
f 25/25/4 97/97/4 69/69/4
f 4/4/4 102/102/4 27/27/4
f 27/27/4 102/102/4 30/30/4
f 120/120/4 106/106/4 32/32/4
f 32/32/4 106/106/4 34/34/4
f 125/125/4 109/109/4 70/70/4
f 70/70/4 109/109/4 40/40/4
f 9/9/4 13/13/4 86/86/4
f 86/86/4 13/13/4 90/90/4
f 14/14/4 15/15/4 114/114/4
f 114/114/4 15/15/4 44/44/4
f 117/117/4 18/18/4 74/74/4
f 74/74/4 18/18/4 75/75/4
f 71/71/4 72/72/4 121/121/4
f 121/121/4 72/72/4 107/107/4
f 126/126/4 73/73/4 127/127/4
f 127/127/4 73/73/4 110/110/4
f 76/76/4 77/77/4 88/88/4
f 88/88/4 77/77/4 94/94/4
f 94/94/4 77/77/4 116/116/4
f 116/116/4 77/77/4 78/78/4
f 78/78/4 77/77/4 28/28/4
f 28/28/4 77/77/4 79/79/4
f 79/79/4 77/77/4 33/33/4
f 33/33/4 77/77/4 36/36/4
f 36/36/4 77/77/4 38/38/4
f 38/38/4 77/77/4 113/113/4
f 94/94/4 116/116/4 80/80/4
f 80/80/4 116/116/4 81/81/4
f 78/78/4 28/28/4 16/16/4
f 16/16/4 28/28/4 119/119/4
f 79/79/4 33/33/4 104/104/4
f 104/104/4 33/33/4 123/123/4
f 36/36/4 38/38/4 108/108/4
f 108/108/4 38/38/4 82/82/4
f 113/113/4 77/77/4 83/83/4
f 108/108/4 82/82/4 89/89/4
f 82/82/4 83/83/4 89/89/4
f 16/16/4 119/119/4 89/89/4
f 104/104/4 123/123/4 89/89/4
f 123/123/4 108/108/4 89/89/4
f 80/80/4 81/81/4 89/89/4
f 119/119/4 104/104/4 89/89/4
f 11/11/4 80/80/4 89/89/4
f 81/81/4 16/16/4 89/89/4
f 83/83/4 77/77/4 46/46/4
f 89/89/4 83/83/4 46/46/4
f 85/85/5 48/48/5 84/84/5
f 22/22/5 48/48/5 85/85/5
f 9/9/5 54/54/5 8/8/5
f 86/86/5 54/54/5 9/9/5
f 76/76/5 87/87/5 1/1/5
f 88/88/5 87/87/5 76/76/5
f 11/11/5 42/42/5 10/10/5
f 89/89/5 42/42/5 11/11/5
f 24/24/5 12/12/5 23/23/5
f 13/13/5 12/12/5 24/24/5
f 55/55/5 24/24/5 2/2/5
f 55/55/5 90/90/5 13/13/5
f 55/55/5 13/13/5 24/24/5
f 91/91/5 90/90/5 55/55/5
f 92/92/5 90/90/5 91/91/5
f 93/93/5 90/90/5 92/92/5
f 94/94/5 92/92/5 91/91/5
f 80/80/5 92/92/5 94/94/5
f 69/69/5 96/96/5 95/95/5
f 15/15/5 96/96/5 69/69/5
f 98/98/5 69/69/5 97/97/5
f 98/98/5 44/44/5 15/15/5
f 98/98/5 15/15/5 69/69/5
f 99/99/5 44/44/5 98/98/5
f 100/100/5 44/44/5 99/99/5
f 101/101/5 44/44/5 100/100/5
f 78/78/5 100/100/5 99/99/5
f 16/16/5 100/100/5 78/78/5
f 30/30/5 17/17/5 29/29/5
f 18/18/5 17/17/5 30/30/5
f 103/103/5 30/30/5 102/102/5
f 103/103/5 75/75/5 18/18/5
f 103/103/5 18/18/5 30/30/5
f 31/31/5 75/75/5 103/103/5
f 60/60/5 75/75/5 31/31/5
f 64/64/5 75/75/5 60/60/5
f 79/79/5 60/60/5 31/31/5
f 104/104/5 60/60/5 79/79/5
f 34/34/5 105/105/5 51/51/5
f 72/72/5 105/105/5 34/34/5
f 56/56/5 34/34/5 106/106/5
f 56/56/5 107/107/5 72/72/5
f 56/56/5 72/72/5 34/34/5
f 35/35/5 107/107/5 56/56/5
f 61/61/5 107/107/5 35/35/5
f 66/66/5 107/107/5 61/61/5
f 36/36/5 61/61/5 35/35/5
f 108/108/5 61/61/5 36/36/5
f 40/40/5 21/21/5 39/39/5
f 73/73/5 21/21/5 40/40/5
f 111/111/5 40/40/5 109/109/5
f 111/111/5 110/110/5 73/73/5
f 111/111/5 73/73/5 40/40/5
f 41/41/5 110/110/5 111/111/5
f 112/112/5 110/110/5 41/41/5
f 67/67/5 110/110/5 112/112/5
f 113/113/5 112/112/5 41/41/5
f 83/83/5 112/112/5 113/113/5
f 49/49/6 52/52/6 25/25/6
f 25/25/6 52/52/6 14/14/6
f 68/68/6 25/25/6 3/3/6
f 14/14/6 114/114/6 3/3/6
f 25/25/6 14/14/6 3/3/6
f 3/3/6 114/114/6 57/57/6
f 57/57/6 114/114/6 115/115/6
f 115/115/6 114/114/6 43/43/6
f 57/57/6 115/115/6 116/116/6
f 116/116/6 115/115/6 81/81/6
f 26/26/6 53/53/6 27/27/6
f 27/27/6 53/53/6 117/117/6
f 4/4/6 27/27/6 5/5/6
f 117/117/6 74/74/6 5/5/6
f 27/27/6 117/117/6 5/5/6
f 5/5/6 74/74/6 58/58/6
f 58/58/6 74/74/6 118/118/6
f 118/118/6 74/74/6 63/63/6
f 58/58/6 118/118/6 28/28/6
f 28/28/6 118/118/6 119/119/6
f 50/50/6 19/19/6 32/32/6
f 32/32/6 19/19/6 71/71/6
f 120/120/6 32/32/6 6/6/6
f 71/71/6 121/121/6 6/6/6
f 32/32/6 71/71/6 6/6/6
f 6/6/6 121/121/6 59/59/6
f 59/59/6 121/121/6 122/122/6
f 122/122/6 121/121/6 65/65/6
f 59/59/6 122/122/6 33/33/6
f 33/33/6 122/122/6 123/123/6
f 124/124/6 20/20/6 70/70/6
f 70/70/6 20/20/6 126/126/6
f 125/125/6 70/70/6 7/7/6
f 126/126/6 127/127/6 7/7/6
f 70/70/6 126/126/6 7/7/6
f 7/7/6 127/127/6 37/37/6
f 37/37/6 127/127/6 62/62/6
f 62/62/6 127/127/6 128/128/6
f 37/37/6 62/62/6 38/38/6
f 38/38/6 62/62/6 82/82/6
f 47/47/6 45/45/6 77/77/6
f 77/77/6 45/45/6 46/46/6
