# Blender 3.4.1
# www.blender.org
mtllib Untitled.004.mtl
o Untitled.004
v -2.600000 3.100000 0.400001
v -2.500000 3.100000 0.300001
v -2.600000 3.100000 0.300001
v -3.000000 3.100000 0.300001
v -3.100000 3.100000 0.300001
v -3.200000 3.100000 0.300001
v -3.000000 3.100000 0.200001
v -3.200000 3.100000 0.200001
v -3.100000 3.100000 0.100001
v -2.500000 3.100000 -0.199999
v -2.600000 3.100000 -0.199999
v -3.200000 3.100000 -0.300000
v -3.300000 3.100000 -0.300000
v -3.100000 3.100000 -0.399999
v -2.600000 3.100000 -0.499999
v -2.600000 3.000000 0.200000
v -2.700000 3.000000 0.200000
v -3.100000 3.000000 0.200000
v -2.500000 3.000000 0.100000
v -2.600000 3.000000 0.100000
v -2.700000 3.000000 0.100000
v -3.000000 3.000000 0.100000
v -2.700000 3.000000 -0.200000
v -2.700000 3.000000 -0.300000
v -2.600000 2.800000 0.400000
v -3.100000 2.800000 0.300000
v -3.200000 2.800000 0.200000
v -2.400000 2.800000 -0.300000
v -2.500000 2.800000 -0.300000
v -3.100000 2.800000 -0.400000
v -3.100000 2.800000 -0.500000
v -2.700000 2.700000 0.300000
v -3.000000 2.700000 0.300000
v -2.600000 2.700000 0.200000
v -2.700000 2.700000 0.200000
v -2.500000 2.700000 0.100000
v -2.600000 2.700000 0.100000
v -3.200000 2.700000 -0.200000
v -2.600000 2.700000 -0.300000
v -3.000000 2.700000 -0.300000
v -2.500000 2.700000 -0.400000
v -2.700000 2.700000 -0.400000
v -3.000000 2.700000 -0.400000
v -3.200000 2.700000 -0.400000
v -3.000000 1.500000 0.300000
v -3.100000 1.500000 0.100000
v -2.600000 1.500000 -0.200000
v -3.100000 1.500000 -0.200000
v -3.200000 1.500000 -0.200000
v -2.700000 1.500000 -0.300000
v -2.700000 1.500000 -0.400000
v -2.400000 3.100000 0.200001
v -2.500000 3.100000 0.200001
v -2.500000 3.100000 -0.399999
v -2.500000 2.700000 0.300000
v -2.500000 2.700000 -0.200000
v -2.500000 1.500000 0.100000
v -2.500000 1.500000 -0.200000
v -2.600000 3.100000 -0.399999
v -2.600000 2.800000 -0.400000
v -2.600000 1.500000 0.200000
v -2.600000 1.500000 0.100000
v -2.600000 1.500000 -0.300000
v -2.700000 2.700000 -0.300000
v -3.000000 3.100000 -0.300000
v -3.100000 3.100000 -0.199999
v -3.100000 3.000000 -0.200000
v -3.200000 3.100000 -0.199999
v -3.200000 3.000000 -0.200000
v -2.500000 3.100000 0.100001
v -2.500000 3.000000 -0.200000
v -2.600000 3.000000 -0.300000
v -2.700000 3.100000 0.300001
v -2.700000 3.100000 0.200001
v -2.700000 3.100000 -0.399999
v -2.700000 3.000000 0.300000
v -2.700000 1.500000 -0.200000
v -3.000000 1.500000 -0.300000
v -3.100000 3.100000 0.400001
v -3.100000 3.100000 -0.499999
v -3.200000 3.100000 -0.399999
v -3.200000 2.700000 0.300000
v -3.200000 2.700000 0.100000
v -3.300000 2.800000 0.200000
v -3.300000 2.800000 -0.300000
v -3.100000 2.800000 0.400000
v -2.600000 2.800000 0.300000
v -2.700000 1.500000 0.300000
v -2.400000 2.800000 0.200000
v -2.500000 2.800000 0.200000
v -2.700000 1.500000 0.200000
v -3.000000 2.700000 0.200000
v -3.000000 1.500000 0.200000
v -3.100000 2.700000 0.200000
v -3.100000 1.500000 0.200000
v -3.300000 3.100000 0.200001
v -3.100000 2.700000 0.100000
v -3.200000 1.500000 0.100000
v -2.600000 3.000000 -0.200000
v -3.000000 3.000000 -0.200000
v -3.000000 1.500000 -0.200000
v -2.600000 3.100000 -0.300000
v -2.700000 3.100000 -0.300000
v -3.000000 3.000000 -0.300000
v -3.100000 3.100000 -0.300000
v -3.100000 3.000000 -0.300000
v -2.700000 3.000000 -0.400000
v -3.000000 3.100000 -0.399999
v -3.000000 3.000000 -0.400000
v -3.000000 3.000000 0.300000
v -2.600000 3.100000 0.200001
v -3.000000 3.000000 0.200000
v -3.100000 3.100000 0.200001
v -2.600000 3.100000 0.100001
v -2.700000 1.500000 0.100000
v -3.000000 1.500000 0.100000
v -3.100000 3.000000 0.100000
v -3.200000 3.100000 0.100001
v -3.200000 3.000000 0.100000
v -2.600000 2.700000 -0.200000
v -3.100000 2.700000 -0.200000
v -2.400000 3.100000 -0.300000
v -2.500000 3.100000 -0.300000
v -3.100000 2.700000 -0.300000
v -3.100000 1.500000 -0.300000
v -3.200000 2.800000 -0.300000
v -3.000000 1.500000 -0.400000
v -2.600000 2.800000 -0.500000
vn -0.0000 1.0000 -0.0000
vn -0.0000 -1.0000 -0.0000
vn 1.0000 -0.0000 -0.0000
vn -1.0000 -0.0000 -0.0000
vn -0.0000 -0.0000 1.0000
vn -0.0000 -0.0000 -1.0000
vt 0.017578 0.500000
vt 0.017578 0.500000
vt 0.017578 0.500000
vt 0.017578 0.500000
vt 0.017578 0.500000
vt 0.017578 0.500000
vt 0.017578 0.500000
vt 0.017578 0.500000
vt 0.017578 0.500000
vt 0.017578 0.500000
vt 0.017578 0.500000
vt 0.017578 0.500000
vt 0.017578 0.500000
vt 0.017578 0.500000
vt 0.017578 0.500000
vt 0.017578 0.500000
vt 0.017578 0.500000
vt 0.017578 0.500000
vt 0.017578 0.500000
vt 0.017578 0.500000
vt 0.017578 0.500000
vt 0.017578 0.500000
vt 0.017578 0.500000
vt 0.017578 0.500000
vt 0.017578 0.500000
vt 0.017578 0.500000
vt 0.017578 0.500000
vt 0.017578 0.500000
vt 0.017578 0.500000
vt 0.017578 0.500000
vt 0.017578 0.500000
vt 0.017578 0.500000
vt 0.017578 0.500000
vt 0.017578 0.500000
vt 0.017578 0.500000
vt 0.017578 0.500000
vt 0.017578 0.500000
vt 0.017578 0.500000
vt 0.017578 0.500000
vt 0.017578 0.500000
vt 0.017578 0.500000
vt 0.017578 0.500000
vt 0.017578 0.500000
vt 0.017578 0.500000
vt 0.017578 0.500000
vt 0.017578 0.500000
vt 0.017578 0.500000
vt 0.017578 0.500000
vt 0.017578 0.500000
vt 0.017578 0.500000
vt 0.017578 0.500000
vt 0.017578 0.500000
vt 0.017578 0.500000
vt 0.017578 0.500000
vt 0.017578 0.500000
vt 0.017578 0.500000
vt 0.017578 0.500000
vt 0.017578 0.500000
vt 0.017578 0.500000
vt 0.017578 0.500000
vt 0.017578 0.500000
vt 0.017578 0.500000
vt 0.017578 0.500000
vt 0.017578 0.500000
vt 0.017578 0.500000
vt 0.017578 0.500000
vt 0.017578 0.500000
vt 0.017578 0.500000
vt 0.017578 0.500000
vt 0.017578 0.500000
vt 0.017578 0.500000
vt 0.017578 0.500000
vt 0.017578 0.500000
vt 0.017578 0.500000
vt 0.017578 0.500000
vt 0.017578 0.500000
vt 0.017578 0.500000
vt 0.017578 0.500000
vt 0.017578 0.500000
vt 0.017578 0.500000
vt 0.017578 0.500000
vt 0.017578 0.500000
vt 0.017578 0.500000
vt 0.017578 0.500000
vt 0.017578 0.500000
vt 0.017578 0.500000
vt 0.017578 0.500000
vt 0.017578 0.500000
vt 0.017578 0.500000
vt 0.017578 0.500000
vt 0.017578 0.500000
vt 0.017578 0.500000
vt 0.017578 0.500000
vt 0.017578 0.500000
vt 0.017578 0.500000
vt 0.017578 0.500000
vt 0.017578 0.500000
vt 0.017578 0.500000
vt 0.017578 0.500000
vt 0.017578 0.500000
vt 0.017578 0.500000
vt 0.017578 0.500000
vt 0.017578 0.500000
vt 0.017578 0.500000
vt 0.017578 0.500000
vt 0.017578 0.500000
vt 0.017578 0.500000
vt 0.017578 0.500000
vt 0.017578 0.500000
vt 0.017578 0.500000
vt 0.017578 0.500000
vt 0.017578 0.500000
vt 0.017578 0.500000
vt 0.017578 0.500000
vt 0.017578 0.500000
vt 0.017578 0.500000
vt 0.017578 0.500000
vt 0.017578 0.500000
vt 0.017578 0.500000
vt 0.017578 0.500000
vt 0.017578 0.500000
vt 0.017578 0.500000
vt 0.017578 0.500000
vt 0.017578 0.500000
vt 0.017578 0.500000
vt 0.017578 0.500000
vt 0.017578 0.500000
vt 0.017578 0.500000
s 0
usemtl palette.004
f 3/3/1 79/79/1 1/1/1
f 73/73/1 79/79/1 3/3/1
f 4/4/1 79/79/1 73/73/1
f 5/5/1 79/79/1 4/4/1
f 53/53/1 3/3/1 2/2/1
f 53/53/1 73/73/1 3/3/1
f 111/111/1 73/73/1 53/53/1
f 74/74/1 73/73/1 111/111/1
f 7/7/1 5/5/1 4/4/1
f 7/7/1 6/6/1 5/5/1
f 113/113/1 6/6/1 7/7/1
f 8/8/1 6/6/1 113/113/1
f 70/70/1 111/111/1 53/53/1
f 70/70/1 53/53/1 52/52/1
f 114/114/1 111/111/1 70/70/1
f 9/9/1 96/96/1 8/8/1
f 9/9/1 8/8/1 113/113/1
f 118/118/1 96/96/1 9/9/1
f 10/10/1 70/70/1 52/52/1
f 68/68/1 96/96/1 118/118/1
f 122/122/1 11/11/1 10/10/1
f 122/122/1 10/10/1 52/52/1
f 123/123/1 11/11/1 122/122/1
f 102/102/1 11/11/1 123/123/1
f 105/105/1 68/68/1 66/66/1
f 12/12/1 96/96/1 68/68/1
f 12/12/1 68/68/1 105/105/1
f 13/13/1 96/96/1 12/12/1
f 54/54/1 103/103/1 102/102/1
f 54/54/1 102/102/1 123/123/1
f 59/59/1 103/103/1 54/54/1
f 75/75/1 103/103/1 59/59/1
f 108/108/1 105/105/1 65/65/1
f 108/108/1 12/12/1 105/105/1
f 14/14/1 12/12/1 108/108/1
f 81/81/1 12/12/1 14/14/1
f 15/15/1 75/75/1 59/59/1
f 15/15/1 14/14/1 108/108/1
f 15/15/1 108/108/1 75/75/1
f 80/80/1 14/14/1 15/15/1
f 17/17/1 110/110/1 76/76/1
f 112/112/1 110/110/1 17/17/1
f 20/20/1 17/17/1 16/16/1
f 21/21/1 17/17/1 20/20/1
f 22/22/1 18/18/1 112/112/1
f 117/117/1 18/18/1 22/22/1
f 71/71/1 20/20/1 19/19/1
f 99/99/1 20/20/1 71/71/1
f 67/67/1 119/119/1 117/117/1
f 69/69/1 119/119/1 67/67/1
f 72/72/1 23/23/1 99/99/1
f 24/24/1 23/23/1 72/72/1
f 104/104/1 67/67/1 100/100/1
f 106/106/1 67/67/1 104/104/1
f 107/107/1 104/104/1 24/24/1
f 109/109/1 104/104/1 107/107/1
f 25/25/2 86/86/2 87/87/2
f 87/87/2 86/86/2 26/26/2
f 89/89/2 90/90/2 28/28/2
f 28/28/2 90/90/2 29/29/2
f 27/27/2 84/84/2 126/126/2
f 126/126/2 84/84/2 85/85/2
f 60/60/2 30/30/2 128/128/2
f 128/128/2 30/30/2 31/31/2
f 55/55/2 32/32/2 34/34/2
f 34/34/2 32/32/2 35/35/2
f 33/33/2 82/82/2 92/92/2
f 92/92/2 82/82/2 94/94/2
f 55/55/2 34/34/2 36/36/2
f 36/36/2 34/34/2 37/37/2
f 94/94/2 82/82/2 97/97/2
f 97/97/2 82/82/2 83/83/2
f 56/56/2 120/120/2 39/39/2
f 121/121/2 38/38/2 124/124/2
f 39/39/2 64/64/2 41/41/2
f 56/56/2 39/39/2 41/41/2
f 41/41/2 64/64/2 42/42/2
f 40/40/2 124/124/2 43/43/2
f 124/124/2 38/38/2 44/44/2
f 43/43/2 124/124/2 44/44/2
f 88/88/2 45/45/2 91/91/2
f 91/91/2 45/45/2 93/93/2
f 61/61/2 91/91/2 62/62/2
f 62/62/2 91/91/2 115/115/2
f 93/93/2 95/95/2 116/116/2
f 116/116/2 95/95/2 46/46/2
f 57/57/2 62/62/2 58/58/2
f 58/58/2 62/62/2 47/47/2
f 46/46/2 98/98/2 48/48/2
f 48/48/2 98/98/2 49/49/2
f 47/47/2 77/77/2 63/63/2
f 63/63/2 77/77/2 50/50/2
f 101/101/2 48/48/2 78/78/2
f 78/78/2 48/48/2 125/125/2
f 50/50/2 78/78/2 51/51/2
f 51/51/2 78/78/2 127/127/2
f 89/89/3 122/122/3 52/52/3
f 28/28/3 122/122/3 89/89/3
f 90/90/3 53/53/3 2/2/3
f 29/29/3 54/54/3 123/123/3
f 55/55/3 90/90/3 2/2/3
f 55/55/3 29/29/3 90/90/3
f 36/36/3 29/29/3 55/55/3
f 56/56/3 29/29/3 36/36/3
f 41/41/3 54/54/3 29/29/3
f 41/41/3 29/29/3 56/56/3
f 57/57/3 56/56/3 36/36/3
f 58/58/3 56/56/3 57/57/3
f 25/25/3 3/3/3 1/1/3
f 87/87/3 3/3/3 25/25/3
f 60/60/3 15/15/3 59/59/3
f 128/128/3 15/15/3 60/60/3
f 61/61/3 37/37/3 34/34/3
f 62/62/3 37/37/3 61/61/3
f 47/47/3 39/39/3 120/120/3
f 63/63/3 39/39/3 47/47/3
f 88/88/3 35/35/3 32/32/3
f 91/91/3 35/35/3 88/88/3
f 50/50/3 42/42/3 64/64/3
f 51/51/3 42/42/3 50/50/3
f 110/110/3 7/7/3 4/4/3
f 112/112/3 7/7/3 110/110/3
f 104/104/3 108/108/3 65/65/3
f 109/109/3 108/108/3 104/104/3
f 93/93/3 22/22/3 112/112/3
f 116/116/3 22/22/3 93/93/3
f 101/101/3 104/104/3 100/100/3
f 78/78/3 104/104/3 101/101/3
f 18/18/3 9/9/3 113/113/3
f 117/117/3 9/9/3 18/18/3
f 67/67/3 105/105/3 66/66/3
f 106/106/3 105/105/3 67/67/3
f 46/46/3 67/67/3 117/117/3
f 48/48/3 67/67/3 46/46/3
f 119/119/3 68/68/3 118/118/3
f 69/69/3 68/68/3 119/119/3
f 70/70/4 10/10/4 19/19/4
f 19/19/4 10/10/4 71/71/4
f 111/111/4 114/114/4 16/16/4
f 16/16/4 114/114/4 20/20/4
f 11/11/4 102/102/4 99/99/4
f 99/99/4 102/102/4 72/72/4
f 20/20/4 99/99/4 62/62/4
f 62/62/4 99/99/4 47/47/4
f 73/73/4 74/74/4 76/76/4
f 76/76/4 74/74/4 17/17/4
f 103/103/4 75/75/4 24/24/4
f 24/24/4 75/75/4 107/107/4
f 17/17/4 21/21/4 91/91/4
f 91/91/4 21/21/4 115/115/4
f 23/23/4 24/24/4 77/77/4
f 77/77/4 24/24/4 50/50/4
f 33/33/4 92/92/4 45/45/4
f 45/45/4 92/92/4 93/93/4
f 40/40/4 43/43/4 78/78/4
f 78/78/4 43/43/4 127/127/4
f 79/79/4 5/5/4 86/86/4
f 86/86/4 5/5/4 26/26/4
f 14/14/4 80/80/4 30/30/4
f 30/30/4 80/80/4 31/31/4
f 94/94/4 97/97/4 95/95/4
f 95/95/4 97/97/4 46/46/4
f 121/121/4 124/124/4 48/48/4
f 48/48/4 124/124/4 125/125/4
f 6/6/4 8/8/4 27/27/4
f 12/12/4 81/81/4 126/126/4
f 6/6/4 27/27/4 82/82/4
f 27/27/4 126/126/4 82/82/4
f 82/82/4 126/126/4 83/83/4
f 83/83/4 126/126/4 38/38/4
f 126/126/4 81/81/4 44/44/4
f 38/38/4 126/126/4 44/44/4
f 83/83/4 38/38/4 98/98/4
f 98/98/4 38/38/4 49/49/4
f 96/96/4 13/13/4 84/84/4
f 84/84/4 13/13/4 85/85/4
f 79/79/5 25/25/5 1/1/5
f 86/86/5 25/25/5 79/79/5
f 3/3/5 55/55/5 2/2/5
f 87/87/5 55/55/5 3/3/5
f 32/32/5 55/55/5 87/87/5
f 33/33/5 32/32/5 87/87/5
f 33/33/5 88/88/5 32/32/5
f 45/45/5 88/88/5 33/33/5
f 26/26/5 33/33/5 87/87/5
f 6/6/5 26/26/5 5/5/5
f 82/82/5 33/33/5 26/26/5
f 82/82/5 26/26/5 6/6/5
f 53/53/5 89/89/5 52/52/5
f 90/90/5 89/89/5 53/53/5
f 35/35/5 61/61/5 34/34/5
f 91/91/5 61/61/5 35/35/5
f 94/94/5 93/93/5 92/92/5
f 95/95/5 93/93/5 94/94/5
f 96/96/5 27/27/5 8/8/5
f 84/84/5 27/27/5 96/96/5
f 37/37/5 57/57/5 36/36/5
f 62/62/5 57/57/5 37/37/5
f 83/83/5 46/46/5 97/97/5
f 98/98/5 46/46/5 83/83/5
f 11/11/5 71/71/5 10/10/5
f 99/99/5 71/71/5 11/11/5
f 23/23/5 47/47/5 99/99/5
f 77/77/5 47/47/5 23/23/5
f 67/67/5 101/101/5 100/100/5
f 48/48/5 101/101/5 67/67/5
f 68/68/5 67/67/5 66/66/5
f 69/69/5 67/67/5 68/68/5
f 103/103/5 72/72/5 102/102/5
f 24/24/5 72/72/5 103/103/5
f 104/104/5 50/50/5 24/24/5
f 78/78/5 50/50/5 104/104/5
f 105/105/5 104/104/5 65/65/5
f 106/106/5 104/104/5 105/105/5
f 108/108/5 107/107/5 75/75/5
f 109/109/5 107/107/5 108/108/5
f 73/73/6 76/76/6 4/4/6
f 4/4/6 76/76/6 110/110/6
f 111/111/6 16/16/6 74/74/6
f 74/74/6 16/16/6 17/17/6
f 17/17/6 91/91/6 112/112/6
f 112/112/6 91/91/6 93/93/6
f 7/7/6 112/112/6 113/113/6
f 113/113/6 112/112/6 18/18/6
f 70/70/6 19/19/6 114/114/6
f 114/114/6 19/19/6 20/20/6
f 20/20/6 62/62/6 21/21/6
f 21/21/6 62/62/6 115/115/6
f 22/22/6 116/116/6 117/117/6
f 117/117/6 116/116/6 46/46/6
f 9/9/6 117/117/6 118/118/6
f 118/118/6 117/117/6 119/119/6
f 56/56/6 58/58/6 120/120/6
f 120/120/6 58/58/6 47/47/6
f 121/121/6 48/48/6 38/38/6
f 38/38/6 48/48/6 49/49/6
f 122/122/6 28/28/6 123/123/6
f 123/123/6 28/28/6 29/29/6
f 39/39/6 63/63/6 64/64/6
f 64/64/6 63/63/6 50/50/6
f 40/40/6 78/78/6 124/124/6
f 124/124/6 78/78/6 125/125/6
f 12/12/6 126/126/6 13/13/6
f 13/13/6 126/126/6 85/85/6
f 54/54/6 41/41/6 59/59/6
f 59/59/6 41/41/6 60/60/6
f 60/60/6 41/41/6 42/42/6
f 60/60/6 42/42/6 43/43/6
f 42/42/6 51/51/6 43/43/6
f 43/43/6 51/51/6 127/127/6
f 60/60/6 43/43/6 30/30/6
f 14/14/6 30/30/6 81/81/6
f 30/30/6 43/43/6 44/44/6
f 81/81/6 30/30/6 44/44/6
f 15/15/6 128/128/6 80/80/6
f 80/80/6 128/128/6 31/31/6
