# Blender 3.4.1
# www.blender.org
mtllib Untitled.017.mtl
o Untitled.017
v 5.400000 2.100000 0.700000
v 5.600000 2.000000 1.700000
v 6.000000 1.800000 0.700000
v 6.000000 2.100000 0.700000
v 6.000000 2.100000 0.500000
v 5.600000 1.900000 1.700000
v 5.800000 2.000000 1.700000
v 5.400000 1.800000 0.700000
v 5.600000 1.900000 0.700000
v 5.600000 2.000000 0.700000
v 5.400000 2.100000 0.500000
v 6.000000 1.800000 0.500000
v 5.400000 1.800000 0.500000
v 5.800000 1.900000 1.700000
v 5.800000 1.900000 0.700000
v 5.800000 2.000000 0.700000
vn -1.0000 -0.0000 -0.0000
vn 1.0000 -0.0000 -0.0000
vn -0.0000 -0.0000 1.0000
vn -0.0000 -0.0000 -1.0000
vn -0.0000 -1.0000 -0.0000
vn -0.0000 1.0000 -0.0000
vt 0.029297 0.500000
vt 0.791016 0.500000
vt 0.029297 0.500000
vt 0.029297 0.500000
vt 0.029297 0.500000
vt 0.791016 0.500000
vt 0.791016 0.500000
vt 0.029297 0.500000
vt 0.029297 0.500000
vt 0.791016 0.500000
vt 0.029297 0.500000
vt 0.791016 0.500000
vt 0.029297 0.500000
vt 0.029297 0.500000
vt 0.029297 0.500000
vt 0.791016 0.500000
vt 0.029297 0.500000
vt 0.791016 0.500000
vt 0.029297 0.500000
vt 0.791016 0.500000
s 0
usemtl palette.017
f 1/1/1 13/15/1 8/8/1
f 11/13/1 13/15/1 1/1/1
f 2/2/1 9/10/1 6/6/1
f 10/12/1 9/10/1 2/2/1
f 14/16/2 15/18/2 7/7/2
f 7/7/2 15/18/2 16/20/2
f 3/3/2 12/14/2 4/4/2
f 4/4/2 12/14/2 5/5/2
f 14/16/3 2/2/3 6/6/3
f 7/7/3 2/2/3 14/16/3
f 9/9/3 1/1/3 8/8/3
f 10/11/3 1/1/3 9/9/3
f 15/17/3 9/9/3 8/8/3
f 16/19/3 1/1/3 10/11/3
f 3/3/3 15/17/3 8/8/3
f 3/3/3 16/19/3 15/17/3
f 4/4/3 1/1/3 16/19/3
f 4/4/3 16/19/3 3/3/3
f 13/15/4 11/13/4 12/14/4
f 12/14/4 11/13/4 5/5/4
f 13/15/5 3/3/5 8/8/5
f 12/14/5 3/3/5 13/15/5
f 9/10/5 14/16/5 6/6/5
f 15/18/5 14/16/5 9/10/5
f 2/2/6 7/7/6 10/12/6
f 10/12/6 7/7/6 16/20/6
f 1/1/6 4/4/6 11/13/6
f 11/13/6 4/4/6 5/5/6
