# Blender 3.4.1
# www.blender.org
mtllib Untitled.024.mtl
o Untitled.024
v -6.100000 2.799999 3.900001
v -6.100000 2.799999 3.300000
v -6.100000 2.899999 3.900001
v -6.100000 2.900000 3.300000
v -6.100000 2.900000 3.200001
v -6.100000 3.099999 4.800001
v -6.100000 3.099999 4.100000
v -6.100000 3.099999 3.100000
v -6.100000 3.200000 3.100000
v -6.100000 3.200000 3.000000
v -6.100000 3.999999 4.800001
v -6.100000 4.000000 2.200001
v -6.100000 4.099999 2.200001
v -6.100000 4.699999 2.100001
v -6.100000 4.799999 5.100001
v -6.100000 5.400000 2.300001
v -6.100000 5.499999 4.900001
v -6.100000 5.500000 3.100001
v -6.100000 5.599999 4.100001
v -6.100000 5.599999 3.100001
v -6.100000 5.699999 2.900001
v -6.100000 5.699999 2.600001
v -6.100000 5.800000 3.900001
v -6.100000 5.900000 3.900001
v -5.700000 2.799999 3.300000
v -5.700000 3.099999 4.800001
v -5.700000 3.099999 4.000000
v -5.700000 3.099999 3.200001
v -5.700000 3.099999 2.400001
v -5.700000 3.200000 3.100000
v -5.700000 3.299999 4.900001
v -5.700000 3.400000 2.400001
v -5.700000 3.400000 2.300000
v -5.700000 3.599999 2.400001
v -5.700000 3.599999 2.300000
v -5.700000 3.699999 4.900001
v -5.700000 4.099999 2.000001
v -5.700000 4.799999 4.800001
v -5.700000 4.800000 2.400001
v -5.700000 4.999999 4.900001
v -5.700000 5.099999 2.300001
v -5.700000 5.500000 4.300001
v -5.700000 5.500000 4.100001
v -5.700000 5.599999 4.600001
v -5.700000 5.599999 3.200001
v -5.700000 5.599999 2.600001
v -5.700000 5.699999 2.900001
v -5.700000 5.800000 4.000001
v -5.700000 5.800000 3.900001
v -5.700000 5.900000 3.900001
v -6.100000 3.999999 5.100000
v -6.100000 3.299999 4.900001
v -5.700000 5.499999 4.900001
v -6.100000 3.299999 4.800001
v -6.100000 4.799999 4.800001
v -6.100000 4.999999 4.800001
v -6.100000 5.499999 4.800001
v -5.700000 3.699999 4.800001
v -5.700000 3.999999 4.800001
v -5.700000 4.999999 4.800001
v -5.700000 5.599999 4.800001
v -6.100000 5.699999 4.600001
v -6.100000 3.199999 4.100000
v -6.100000 5.500000 4.100001
v -5.700000 3.099999 4.100000
v -5.700000 3.199999 4.100000
v -5.700000 2.899999 4.000000
v -5.700000 2.799999 3.900001
v -5.700000 2.899999 3.900001
v -6.100000 5.599999 3.000001
v -5.700000 3.200000 3.000000
v -5.700000 5.500000 3.000001
v -6.100000 5.599999 2.900001
v -5.700000 5.599999 2.900001
v -5.700000 5.699999 4.300001
v -5.700000 2.900000 3.300000
v -6.100000 5.900000 3.200001
v -5.700000 3.099999 3.100000
v -5.700000 5.699999 2.600001
v -6.100000 3.099999 2.400001
v -6.100000 3.400000 2.400001
v -6.100000 3.599999 2.400001
v -6.100000 4.000000 2.400001
v -6.100000 5.099999 2.400001
v -6.100000 5.400000 2.400001
v -6.100000 5.599999 2.400001
v -5.700000 5.400000 2.400001
v -6.100000 3.400000 2.300000
v -6.100000 5.099999 2.300001
v -5.700000 5.400000 2.300001
v -6.100000 4.800000 2.100001
v -5.700000 4.699999 2.100001
v -5.700000 4.800000 2.100001
v -6.100000 4.699999 2.000001
v -6.100000 2.899999 4.000000
v -5.700000 2.900000 3.200001
v -6.100000 3.099999 4.300001
v -5.700000 3.099999 4.300001
v -6.100000 3.099999 4.000000
v -6.100000 3.099999 3.200001
v -6.100000 3.099999 3.000000
v -5.700000 3.099999 3.000000
v -6.100000 3.199999 4.300001
v -5.700000 3.199999 4.300001
v -5.700000 3.299999 4.800001
v -5.700000 3.999999 5.100000
v -5.700000 4.000000 2.400001
v -5.700000 4.000000 2.200001
v -5.700000 4.099999 2.200001
v -6.100000 4.099999 2.000001
v -6.100000 4.999999 4.900001
v -5.700000 5.099999 2.400001
v -6.100000 3.599999 2.300000
v -6.100000 3.699999 4.900001
v -6.100000 3.699999 4.800001
v -5.700000 4.699999 2.000001
v -5.700000 4.799999 5.100001
v -6.100000 4.800000 2.400001
v -5.700000 5.499999 4.800001
v -6.100000 5.500000 4.300001
v -5.700000 5.500000 3.100001
v -6.100000 5.500000 3.000001
v -6.100000 5.599999 4.800001
v -6.100000 5.599999 4.600001
v -5.700000 5.599999 4.100001
v -6.100000 5.599999 4.000001
v -5.700000 5.599999 4.000001
v -6.100000 5.599999 3.200001
v -5.700000 5.599999 3.100001
v -5.700000 5.599999 3.000001
v -6.100000 5.599999 2.600001
v -5.700000 5.599999 2.400001
v -5.700000 5.699999 4.600001
v -6.100000 5.699999 4.300001
v -6.100000 5.800000 4.000001
v -5.700000 5.900000 3.200001
vn -1.0000 -0.0000 -0.0000
vn -1.0000 -0.0001 -0.0000
vn 1.0000 -0.0000 -0.0000
vn 1.0000 0.0001 -0.0000
vn -0.0000 -0.0000 1.0000
vn -0.0000 -0.0000 -1.0000
vn -0.0000 -1.0000 -0.0000
vn -0.0000 1.0000 -0.0000
vt 0.197266 0.500000
vt 0.197266 0.500000
vt 0.197266 0.500000
vt 0.197266 0.500000
vt 0.197266 0.500000
vt 0.197266 0.500000
vt 0.197266 0.500000
vt 0.197266 0.500000
vt 0.197266 0.500000
vt 0.197266 0.500000
vt 0.197266 0.500000
vt 0.197266 0.500000
vt 0.197266 0.500000
vt 0.197266 0.500000
vt 0.197266 0.500000
vt 0.197266 0.500000
vt 0.197266 0.500000
vt 0.197266 0.500000
vt 0.197266 0.500000
vt 0.197266 0.500000
vt 0.197266 0.500000
vt 0.197266 0.500000
vt 0.197266 0.500000
vt 0.197266 0.500000
vt 0.197266 0.500000
vt 0.197266 0.500000
vt 0.197266 0.500000
vt 0.197266 0.500000
vt 0.197266 0.500000
vt 0.197266 0.500000
vt 0.197266 0.500000
vt 0.197266 0.500000
vt 0.197266 0.500000
vt 0.197266 0.500000
vt 0.197266 0.500000
vt 0.197266 0.500000
vt 0.197266 0.500000
vt 0.197266 0.500000
vt 0.197266 0.500000
vt 0.197266 0.500000
vt 0.197266 0.500000
vt 0.197266 0.500000
vt 0.197266 0.500000
vt 0.197266 0.500000
vt 0.197266 0.500000
vt 0.197266 0.500000
vt 0.197266 0.500000
vt 0.197266 0.500000
vt 0.197266 0.500000
vt 0.197266 0.500000
vt 0.197266 0.500000
vt 0.197266 0.500000
vt 0.197266 0.500000
vt 0.197266 0.500000
vt 0.197266 0.500000
vt 0.197266 0.500000
vt 0.197266 0.500000
vt 0.197266 0.500000
vt 0.197266 0.500000
vt 0.197266 0.500000
vt 0.197266 0.500000
vt 0.197266 0.500000
vt 0.197266 0.500000
vt 0.197266 0.500000
vt 0.197266 0.500000
vt 0.197266 0.500000
vt 0.197266 0.500000
vt 0.197266 0.500000
vt 0.197266 0.500000
vt 0.197266 0.500000
vt 0.197266 0.500000
vt 0.197266 0.500000
vt 0.197266 0.500000
vt 0.197266 0.500000
vt 0.197266 0.500000
vt 0.197266 0.500000
vt 0.197266 0.500000
vt 0.197266 0.500000
vt 0.197266 0.500000
vt 0.197266 0.500000
vt 0.197266 0.500000
vt 0.197266 0.500000
vt 0.197266 0.500000
vt 0.197266 0.500000
vt 0.197266 0.500000
vt 0.197266 0.500000
vt 0.197266 0.500000
vt 0.197266 0.500000
vt 0.197266 0.500000
vt 0.197266 0.500000
vt 0.197266 0.500000
vt 0.197266 0.500000
vt 0.197266 0.500000
vt 0.197266 0.500000
vt 0.197266 0.500000
vt 0.197266 0.500000
vt 0.197266 0.500000
vt 0.197266 0.500000
vt 0.197266 0.500000
vt 0.197266 0.500000
vt 0.197266 0.500000
vt 0.197266 0.500000
vt 0.197266 0.500000
vt 0.197266 0.500000
vt 0.197266 0.500000
vt 0.197266 0.500000
vt 0.197266 0.500000
vt 0.197266 0.500000
vt 0.197266 0.500000
vt 0.197266 0.500000
vt 0.197266 0.500000
vt 0.197266 0.500000
vt 0.197266 0.500000
vt 0.197266 0.500000
vt 0.197266 0.500000
vt 0.197266 0.500000
vt 0.197266 0.500000
vt 0.197266 0.500000
vt 0.197266 0.500000
vt 0.197266 0.500000
vt 0.197266 0.500000
vt 0.197266 0.500000
vt 0.197266 0.500000
vt 0.197266 0.500000
vt 0.197266 0.500000
vt 0.197266 0.500000
vt 0.197266 0.500000
vt 0.197266 0.500000
vt 0.197266 0.500000
vt 0.197266 0.500000
vt 0.197266 0.500000
vt 0.197266 0.500000
vt 0.197266 0.500000
vt 0.197266 0.500000
vt 0.197266 0.500000
vt 0.197266 0.500000
s 0
usemtl palette.024
f 3/3/1 2/2/1 1/1/1
f 4/4/1 2/2/1 3/3/1
f 99/99/1 3/3/1 95/95/1
f 99/99/1 4/4/1 3/3/1
f 99/99/1 5/5/1 4/4/1
f 100/100/1 5/5/1 99/99/1
f 103/103/1 97/97/1 6/6/1
f 63/63/1 99/99/1 7/7/1
f 63/63/1 100/100/1 99/99/1
f 63/63/1 8/8/1 100/100/1
f 9/9/1 8/8/1 63/63/1
f 10/10/1 80/80/1 101/101/1
f 54/54/1 9/9/1 63/63/1
f 54/54/1 10/10/1 9/9/1
f 54/54/1 103/103/1 6/6/1
f 54/54/1 63/63/1 103/103/1
f 81/81/1 80/80/1 10/10/1
f 81/81/1 54/54/1 52/52/1
f 81/81/1 10/10/1 54/54/1
f 82/82/1 81/81/1 52/52/1
f 82/82/1 88/88/1 81/81/1
f 113/113/1 88/88/1 82/82/1
f 114/114/1 82/82/1 52/52/1
f 115/115/1 82/82/1 114/114/1
f 11/11/1 82/82/1 115/115/1
f 83/83/1 82/82/1 11/11/1
f 13/13/1 83/83/1 11/11/1
f 13/13/1 12/12/1 83/83/1
f 13/13/1 11/11/1 51/51/1
f 14/14/1 110/110/1 13/13/1
f 94/94/1 110/110/1 14/14/1
f 15/15/1 13/13/1 51/51/1
f 15/15/1 14/14/1 13/13/1
f 55/55/1 14/14/1 15/15/1
f 118/118/1 14/14/1 55/55/1
f 91/91/1 14/14/1 118/118/1
f 56/56/1 118/118/1 55/55/1
f 84/84/1 118/118/1 56/56/1
f 84/84/1 56/56/1 111/111/1
f 85/85/1 84/84/1 111/111/1
f 85/85/1 89/89/1 84/84/1
f 16/16/1 89/89/1 85/85/1
f 17/17/1 85/85/1 111/111/1
f 57/57/1 85/85/1 17/17/1
f 120/120/1 85/85/1 57/57/1
f 64/64/1 85/85/1 120/120/1
f 18/18/1 85/85/1 64/64/1
f 122/122/1 85/85/1 18/18/1
f 123/123/1 120/120/1 57/57/1
f 124/124/1 120/120/1 123/123/1
f 19/19/1 18/18/1 64/64/1
f 126/126/2 18/18/2 19/19/2
f 128/128/1 18/18/1 126/126/1
f 20/20/1 18/18/1 128/128/1
f 70/70/1 85/85/1 122/122/1
f 73/73/1 85/85/1 70/70/1
f 131/131/1 85/85/1 73/73/1
f 86/86/1 85/85/1 131/131/1
f 62/62/1 120/120/1 124/124/1
f 134/134/1 120/120/1 62/62/1
f 21/21/1 131/131/1 73/73/1
f 22/22/1 131/131/1 21/21/1
f 135/135/1 128/128/1 126/126/1
f 23/23/1 128/128/1 135/135/1
f 24/24/1 128/128/1 23/23/1
f 77/77/1 128/128/1 24/24/1
f 68/68/3 25/25/3 69/69/3
f 69/69/3 25/25/3 76/76/3
f 67/67/3 69/69/3 27/27/3
f 69/69/3 76/76/3 27/27/3
f 76/76/3 96/96/3 27/27/3
f 27/27/3 96/96/3 28/28/3
f 26/26/3 98/98/3 104/104/3
f 65/65/3 27/27/3 66/66/3
f 27/27/3 28/28/3 66/66/3
f 28/28/3 78/78/3 66/66/3
f 66/66/3 78/78/3 30/30/3
f 102/102/3 29/29/3 71/71/3
f 66/66/3 30/30/3 105/105/3
f 30/30/3 71/71/3 105/105/3
f 26/26/3 104/104/3 105/105/3
f 104/104/3 66/66/3 105/105/3
f 71/71/3 29/29/3 32/32/3
f 31/31/3 105/105/3 32/32/3
f 105/105/3 71/71/3 32/32/3
f 31/31/3 32/32/3 34/34/3
f 32/32/3 33/33/3 34/34/3
f 34/34/3 33/33/3 35/35/3
f 31/31/3 34/34/3 36/36/3
f 36/36/3 34/34/3 58/58/3
f 58/58/3 34/34/3 59/59/3
f 59/59/3 34/34/3 107/107/3
f 59/59/3 107/107/3 109/109/3
f 107/107/3 108/108/3 109/109/3
f 106/106/3 59/59/3 109/109/3
f 109/109/3 37/37/3 92/92/3
f 92/92/3 37/37/3 116/116/3
f 106/106/3 109/109/3 117/117/3
f 109/109/3 92/92/3 117/117/3
f 117/117/4 92/92/4 38/38/4
f 38/38/3 92/92/3 39/39/3
f 39/39/3 92/92/3 93/93/3
f 38/38/3 39/39/3 60/60/3
f 60/60/3 39/39/3 112/112/3
f 40/40/3 60/60/3 112/112/3
f 40/40/3 112/112/3 87/87/3
f 112/112/3 41/41/3 87/87/3
f 87/87/3 41/41/3 90/90/3
f 40/40/3 87/87/3 53/53/3
f 53/53/3 87/87/3 119/119/3
f 119/119/3 87/87/3 42/42/3
f 42/42/3 87/87/3 43/43/3
f 43/43/3 87/87/3 121/121/3
f 121/121/3 87/87/3 72/72/3
f 119/119/3 42/42/3 61/61/3
f 61/61/3 42/42/3 44/44/3
f 43/43/3 121/121/3 125/125/3
f 125/125/4 121/121/4 127/127/4
f 127/127/3 121/121/3 45/45/3
f 45/45/3 121/121/3 129/129/3
f 72/72/3 87/87/3 130/130/3
f 130/130/3 87/87/3 74/74/3
f 74/74/3 87/87/3 46/46/3
f 46/46/3 87/87/3 132/132/3
f 44/44/3 42/42/3 133/133/3
f 133/133/3 42/42/3 75/75/3
f 74/74/3 46/46/3 47/47/3
f 47/47/3 46/46/3 79/79/3
f 127/127/3 45/45/3 48/48/3
f 48/48/3 45/45/3 49/49/3
f 49/49/3 45/45/3 50/50/3
f 50/50/3 45/45/3 136/136/3
f 106/106/5 15/15/5 51/51/5
f 117/117/5 15/15/5 106/106/5
f 31/31/5 114/114/5 52/52/5
f 36/36/5 114/114/5 31/31/5
f 40/40/5 17/17/5 111/111/5
f 53/53/5 17/17/5 40/40/5
f 26/26/5 54/54/5 6/6/5
f 105/105/5 54/54/5 26/26/5
f 58/58/5 11/11/5 115/115/5
f 59/59/5 11/11/5 58/58/5
f 38/38/5 56/56/5 55/55/5
f 60/60/5 56/56/5 38/38/5
f 119/119/5 123/123/5 57/57/5
f 61/61/5 123/123/5 119/119/5
f 44/44/5 62/62/5 124/124/5
f 133/133/5 62/62/5 44/44/5
f 65/65/5 63/63/5 7/7/5
f 66/66/5 63/63/5 65/65/5
f 43/43/5 19/19/5 64/64/5
f 125/125/5 19/19/5 43/43/5
f 67/67/5 99/99/5 95/95/5
f 27/27/5 99/99/5 67/67/5
f 127/127/5 135/135/5 126/126/5
f 48/48/5 135/135/5 127/127/5
f 68/68/5 3/3/5 1/1/5
f 69/69/5 3/3/5 68/68/5
f 49/49/5 24/24/5 23/23/5
f 50/50/5 24/24/5 49/49/5
f 102/102/5 10/10/5 101/101/5
f 71/71/5 10/10/5 102/102/5
f 72/72/5 70/70/5 122/122/5
f 130/130/5 70/70/5 72/72/5
f 74/74/5 21/21/5 73/73/5
f 47/47/5 21/21/5 74/74/5
f 97/97/6 103/103/6 98/98/6
f 98/98/6 103/103/6 104/104/6
f 120/120/6 134/134/6 42/42/6
f 42/42/6 134/134/6 75/75/6
f 2/2/6 4/4/6 25/25/6
f 25/25/6 4/4/6 76/76/6
f 5/5/6 100/100/6 96/96/6
f 96/96/6 100/100/6 28/28/6
f 128/128/6 77/77/6 45/45/6
f 45/45/6 77/77/6 136/136/6
f 8/8/6 9/9/6 78/78/6
f 78/78/6 9/9/6 30/30/6
f 18/18/6 20/20/6 121/121/6
f 121/121/6 20/20/6 129/129/6
f 131/131/6 22/22/6 46/46/6
f 46/46/6 22/22/6 79/79/6
f 80/80/6 81/81/6 29/29/6
f 29/29/6 81/81/6 32/32/6
f 82/82/6 83/83/6 34/34/6
f 34/34/6 83/83/6 107/107/6
f 118/118/6 84/84/6 39/39/6
f 39/39/6 84/84/6 112/112/6
f 85/85/6 86/86/6 87/87/6
f 87/87/6 86/86/6 132/132/6
f 88/88/6 113/113/6 33/33/6
f 33/33/6 113/113/6 35/35/6
f 89/89/6 16/16/6 41/41/6
f 41/41/6 16/16/6 90/90/6
f 12/12/6 13/13/6 108/108/6
f 108/108/6 13/13/6 109/109/6
f 14/14/6 91/91/6 92/92/6
f 92/92/6 91/91/6 93/93/6
f 110/110/6 94/94/6 37/37/6
f 37/37/6 94/94/6 116/116/6
f 2/2/7 68/68/7 1/1/7
f 25/25/7 68/68/7 2/2/7
f 3/3/7 67/67/7 95/95/7
f 69/69/7 67/67/7 3/3/7
f 5/5/7 76/76/7 4/4/7
f 96/96/7 76/76/7 5/5/7
f 97/97/7 26/26/7 6/6/7
f 98/98/7 26/26/7 97/97/7
f 99/99/7 65/65/7 7/7/7
f 27/27/7 65/65/7 99/99/7
f 8/8/7 28/28/7 100/100/7
f 78/78/7 28/28/7 8/8/7
f 80/80/7 102/102/7 101/101/7
f 29/29/7 102/102/7 80/80/7
f 63/63/7 104/104/7 103/103/7
f 66/66/7 104/104/7 63/63/7
f 10/10/7 30/30/7 9/9/7
f 71/71/7 30/30/7 10/10/7
f 54/54/7 31/31/7 52/52/7
f 105/105/7 31/31/7 54/54/7
f 88/88/7 32/32/7 81/81/7
f 33/33/7 32/32/7 88/88/7
f 11/11/7 106/106/7 51/51/7
f 59/59/7 106/106/7 11/11/7
f 12/12/7 107/107/7 83/83/7
f 108/108/7 107/107/7 12/12/7
f 110/110/7 109/109/7 13/13/7
f 37/37/7 109/109/7 110/110/7
f 56/56/7 40/40/7 111/111/7
f 60/60/7 40/40/7 56/56/7
f 89/89/7 112/112/7 84/84/7
f 41/41/7 112/112/7 89/89/7
f 82/82/8 34/34/8 113/113/8
f 113/113/8 34/34/8 35/35/8
f 114/114/8 36/36/8 115/115/8
f 115/115/8 36/36/8 58/58/8
f 14/14/8 92/92/8 94/94/8
f 94/94/8 92/92/8 116/116/8
f 15/15/8 117/117/8 55/55/8
f 55/55/8 117/117/8 38/38/8
f 118/118/8 39/39/8 91/91/8
f 91/91/8 39/39/8 93/93/8
f 85/85/8 87/87/8 16/16/8
f 16/16/8 87/87/8 90/90/8
f 17/17/8 53/53/8 57/57/8
f 57/57/8 53/53/8 119/119/8
f 120/120/8 42/42/8 64/64/8
f 64/64/8 42/42/8 43/43/8
f 18/18/8 121/121/8 122/122/8
f 122/122/8 121/121/8 72/72/8
f 123/123/8 61/61/8 124/124/8
f 124/124/8 61/61/8 44/44/8
f 19/19/8 125/125/8 126/126/8
f 126/126/8 125/125/8 127/127/8
f 128/128/8 45/45/8 20/20/8
f 20/20/8 45/45/8 129/129/8
f 70/70/8 130/130/8 73/73/8
f 73/73/8 130/130/8 74/74/8
f 131/131/8 46/46/8 86/86/8
f 86/86/8 46/46/8 132/132/8
f 62/62/8 133/133/8 134/134/8
f 134/134/8 133/133/8 75/75/8
f 21/21/8 47/47/8 22/22/8
f 22/22/8 47/47/8 79/79/8
f 135/135/8 48/48/8 23/23/8
f 23/23/8 48/48/8 49/49/8
f 24/24/8 50/50/8 77/77/8
f 77/77/8 50/50/8 136/136/8
