# Blender 3.4.1
# www.blender.org
mtllib Untitled.016.mtl
o Untitled.016
v 5.400000 2.400000 1.700000
v 5.400000 2.600000 1.400000
v 5.400000 2.600000 0.700000
v 5.500000 2.400000 1.400000
v 5.500000 2.400000 1.300000
v 5.500000 2.400000 0.700000
v 5.500000 2.600000 1.300000
v 5.500000 2.600000 0.800000
v 5.500000 2.600000 0.700000
v 5.900000 2.400000 1.700000
v 5.900000 2.400000 0.600000
v 5.900000 2.600000 1.700001
v 5.500000 2.400000 1.500000
v 5.500000 2.600000 1.700001
v 5.500000 2.600000 1.500000
v 5.800000 2.600000 1.300000
v 5.800000 2.600000 0.800000
v 5.900000 2.600000 0.800000
v 6.000000 2.400000 1.700000
v 6.000000 2.600000 1.400000
v 6.000000 2.600000 0.700000
v 5.500000 2.400000 1.700000
v 6.000000 2.600000 1.700001
v 5.800000 2.400000 0.800000
v 5.900000 2.400000 0.800000
v 5.400000 2.400000 0.700000
v 5.900000 2.400000 0.700000
v 5.900000 2.400000 1.400000
v 5.900000 2.600000 1.400000
v 5.800000 2.400000 1.300000
v 5.900000 2.400000 1.300000
v 5.500000 2.600000 0.600000
v 5.400000 2.600000 0.400000
v 5.500000 2.400000 0.400000
v 5.500000 2.600000 0.400000
v 6.000000 2.600000 0.400000
v 5.900000 2.400000 1.500000
v 5.400000 2.400000 1.400000
v 6.000000 2.400000 1.400000
v 5.600000 2.400000 1.300000
v 5.500000 2.400000 0.800000
v 5.600000 2.400000 0.800000
v 6.000000 2.400000 0.700000
v 5.500000 2.400000 0.600000
v 5.400000 2.400000 0.400000
v 5.900000 2.400000 0.400000
v 6.000000 2.400000 0.400000
v 5.400000 2.600000 1.700001
v 5.900000 2.600000 1.500000
v 5.500000 2.600000 1.400000
v 5.600000 2.600000 1.300000
v 5.900000 2.600000 1.300000
v 5.600000 2.600000 0.800000
v 5.900000 2.600000 0.700000
v 5.900000 2.600000 0.600000
v 5.900000 2.600000 0.400000
vn -1.0000 -0.0000 -0.0000
vn 1.0000 -0.0000 -0.0000
vn -0.0000 -0.0000 1.0000
vn -0.0000 -0.0000 -1.0000
vn -0.0000 -1.0000 -0.0000
vn -0.0000 1.0000 -0.0000
vt 0.408203 0.500000
vt 0.408203 0.500000
vt 0.408203 0.500000
vt 0.408203 0.500000
vt 0.408203 0.500000
vt 0.408203 0.500000
vt 0.408203 0.500000
vt 0.408203 0.500000
vt 0.408203 0.500000
vt 0.408203 0.500000
vt 0.408203 0.500000
vt 0.408203 0.500000
vt 0.408203 0.500000
vt 0.408203 0.500000
vt 0.408203 0.500000
vt 0.408203 0.500000
vt 0.408203 0.500000
vt 0.408203 0.500000
vt 0.408203 0.500000
vt 0.408203 0.500000
vt 0.408203 0.500000
vt 0.408203 0.500000
vt 0.408203 0.500000
vt 0.408203 0.500000
vt 0.408203 0.500000
vt 0.408203 0.500000
vt 0.408203 0.500000
vt 0.408203 0.500000
vt 0.408203 0.500000
vt 0.408203 0.500000
vt 0.408203 0.500000
vt 0.408203 0.500000
vt 0.408203 0.500000
vt 0.408203 0.500000
vt 0.408203 0.500000
vt 0.408203 0.500000
vt 0.408203 0.500000
vt 0.408203 0.500000
vt 0.408203 0.500000
vt 0.408203 0.500000
vt 0.408203 0.500000
vt 0.408203 0.500000
vt 0.408203 0.500000
vt 0.408203 0.500000
vt 0.408203 0.500000
vt 0.408203 0.500000
vt 0.408203 0.500000
vt 0.408203 0.500000
vt 0.408203 0.500000
vt 0.408203 0.500000
vt 0.408203 0.500000
vt 0.408203 0.500000
vt 0.408203 0.500000
vt 0.408203 0.500000
vt 0.408203 0.500000
vt 0.408203 0.500000
s 0
usemtl palette.016
f 48/48/1 38/38/1 1/1/1
f 2/2/1 38/38/1 48/48/1
f 3/3/1 45/45/1 26/26/1
f 33/33/1 45/45/1 3/3/1
f 50/50/1 5/5/1 4/4/1
f 7/7/1 5/5/1 50/50/1
f 8/8/1 6/6/1 41/41/1
f 9/9/1 6/6/1 8/8/1
f 51/51/1 42/42/1 40/40/1
f 53/53/1 42/42/1 51/51/1
f 12/12/1 37/37/1 10/10/1
f 49/49/1 37/37/1 12/12/1
f 55/55/1 46/46/1 11/11/1
f 56/56/1 46/46/1 55/55/1
f 22/22/2 13/13/2 14/14/2
f 14/14/2 13/13/2 15/15/2
f 44/44/2 34/34/2 32/32/2
f 32/32/2 34/34/2 35/35/2
f 30/30/2 24/24/2 16/16/2
f 16/16/2 24/24/2 17/17/2
f 28/28/2 31/31/2 29/29/2
f 29/29/2 31/31/2 52/52/2
f 25/25/2 27/27/2 18/18/2
f 18/18/2 27/27/2 54/54/2
f 19/19/2 39/39/2 23/23/2
f 23/23/2 39/39/2 20/20/2
f 43/43/2 47/47/2 21/21/2
f 21/21/2 47/47/2 36/36/2
f 22/22/3 48/48/3 1/1/3
f 14/14/3 48/48/3 22/22/3
f 19/19/3 12/12/3 10/10/3
f 23/23/3 12/12/3 19/19/3
f 37/37/3 15/15/3 13/13/3
f 49/49/3 15/15/3 37/37/3
f 42/42/3 8/8/3 41/41/3
f 53/53/3 8/8/3 42/42/3
f 25/25/3 17/17/3 24/24/3
f 18/18/3 17/17/3 25/25/3
f 6/6/3 3/3/3 26/26/3
f 9/9/3 3/3/3 6/6/3
f 43/43/3 54/54/3 27/27/3
f 21/21/3 54/54/3 43/43/3
f 38/38/4 2/2/4 4/4/4
f 4/4/4 2/2/4 50/50/4
f 28/28/4 29/29/4 39/39/4
f 39/39/4 29/29/4 20/20/4
f 5/5/4 7/7/4 40/40/4
f 40/40/4 7/7/4 51/51/4
f 30/30/4 16/16/4 31/31/4
f 31/31/4 16/16/4 52/52/4
f 44/44/4 32/32/4 11/11/4
f 11/11/4 32/32/4 55/55/4
f 45/45/4 33/33/4 34/34/4
f 34/34/4 33/33/4 35/35/4
f 46/46/4 56/56/4 47/47/4
f 47/47/4 56/56/4 36/36/4
f 13/13/5 22/22/5 1/1/5
f 37/37/5 19/19/5 10/10/5
f 38/38/5 13/13/5 1/1/5
f 38/38/5 37/37/5 13/13/5
f 4/4/5 37/37/5 38/38/5
f 28/28/5 19/19/5 37/37/5
f 28/28/5 37/37/5 4/4/5
f 39/39/5 19/19/5 28/28/5
f 5/5/5 28/28/5 4/4/5
f 40/40/5 28/28/5 5/5/5
f 30/30/5 28/28/5 40/40/5
f 31/31/5 28/28/5 30/30/5
f 42/42/5 30/30/5 40/40/5
f 24/24/5 30/30/5 42/42/5
f 6/6/5 42/42/5 41/41/5
f 6/6/5 25/25/5 24/24/5
f 6/6/5 24/24/5 42/42/5
f 27/27/5 25/25/5 6/6/5
f 44/44/5 27/27/5 6/6/5
f 44/44/5 43/43/5 27/27/5
f 44/44/5 6/6/5 26/26/5
f 11/11/5 43/43/5 44/44/5
f 45/45/5 44/44/5 26/26/5
f 34/34/5 44/44/5 45/45/5
f 46/46/5 43/43/5 11/11/5
f 47/47/5 43/43/5 46/46/5
f 48/48/6 14/14/6 15/15/6
f 12/12/6 23/23/6 49/49/6
f 48/48/6 15/15/6 2/2/6
f 15/15/6 49/49/6 2/2/6
f 2/2/6 49/49/6 50/50/6
f 49/49/6 23/23/6 29/29/6
f 50/50/6 49/49/6 29/29/6
f 29/29/6 23/23/6 20/20/6
f 50/50/6 29/29/6 7/7/6
f 7/7/6 29/29/6 51/51/6
f 51/51/6 29/29/6 16/16/6
f 16/16/6 29/29/6 52/52/6
f 51/51/6 16/16/6 53/53/6
f 53/53/6 16/16/6 17/17/6
f 8/8/6 53/53/6 9/9/6
f 17/17/6 18/18/6 9/9/6
f 53/53/6 17/17/6 9/9/6
f 9/9/6 18/18/6 54/54/6
f 9/9/6 54/54/6 32/32/6
f 54/54/6 21/21/6 32/32/6
f 3/3/6 9/9/6 32/32/6
f 32/32/6 21/21/6 55/55/6
f 3/3/6 32/32/6 33/33/6
f 33/33/6 32/32/6 35/35/6
f 55/55/6 21/21/6 56/56/6
f 56/56/6 21/21/6 36/36/6
