# Blender 3.4.1
# www.blender.org
mtllib Untitled.027.mtl
o Untitled.027
v -1.000000 5.200000 -3.799999
v -0.900000 2.500001 -3.799999
v -0.900000 2.700001 -3.799999
v -0.800000 2.500001 -3.700000
v -0.800000 2.500001 -3.799999
v -0.800000 2.600001 -3.799999
v -0.800000 3.100001 -3.700000
v -0.800000 3.100001 -3.799999
v -0.700000 2.900001 -3.900000
v -0.700000 3.100001 -3.700000
v -0.700000 3.200001 -3.700000
v -0.600000 1.500001 -3.800000
v -0.600000 1.500001 -4.000000
v -0.600000 2.700001 -3.799999
v -0.600000 2.700001 -3.900000
v -0.600000 2.900001 -3.799999
v -0.600000 2.900001 -4.000000
v -0.900000 1.500001 -3.700000
v -0.900000 2.700001 -3.700000
v -0.900000 3.100001 -3.700000
v -0.900000 5.200000 -3.699999
v -0.800000 2.600001 -3.700000
v -0.800000 3.200001 -3.700000
v -0.700000 5.200000 -3.699999
v -1.000000 1.500001 -3.800000
v -0.900000 3.100001 -3.799999
v -0.800000 2.700001 -3.799999
v -0.700000 2.700001 -3.799999
v -0.600000 3.200001 -3.799999
v -0.700000 3.200001 -3.900000
v -0.600000 2.900001 -3.900000
v -0.600000 3.200001 -3.900000
v -1.000000 5.200000 -3.999999
v -0.900000 1.500001 -4.000000
v -0.700000 2.900001 -4.000000
v -0.700000 3.200001 -4.000000
v -0.700000 5.200000 -3.999999
v -0.600000 3.200001 -4.000000
v -0.600000 5.200000 -3.999999
v -0.900000 1.500001 -4.099999
v -0.900000 5.200000 -4.099999
v -0.700000 5.200000 -4.099999
v -0.700000 1.500001 -3.700000
v -0.900000 1.500001 -3.800000
v -0.700000 1.500001 -3.800000
v -1.000000 1.500001 -4.000000
v -0.700000 1.500001 -4.000000
v -0.700000 1.500001 -4.099999
v -0.800000 2.700001 -3.700000
v -0.700000 3.100001 -3.799999
v -0.700000 3.200001 -3.799999
v -0.900000 2.500001 -3.700000
v -0.700000 2.600001 -3.700000
v -0.700000 2.600001 -3.799999
v -0.700000 2.900001 -3.799999
v -0.900000 5.200000 -3.799999
v -0.700000 5.200000 -3.799999
v -0.600000 5.200000 -3.799999
v -0.900000 5.200000 -3.999999
vn -1.0000 -0.0000 -0.0000
vn 1.0000 -0.0000 -0.0000
vn -0.0000 -0.0000 1.0000
vn -0.0001 -0.0000 1.0000
vn -0.0000 -0.0000 -1.0000
vn -0.0000 -1.0000 -0.0000
vn -0.0000 1.0000 -0.0000
vt 0.791016 0.500000
vt 0.783203 0.500000
vt 0.791016 0.500000
vt 0.791016 0.500000
vt 0.783203 0.500000
vt 0.791016 0.500000
vt 0.783203 0.500000
vt 0.791016 0.500000
vt 0.783203 0.500000
vt 0.791016 0.500000
vt 0.791016 0.500000
vt 0.783203 0.500000
vt 0.783203 0.500000
vt 0.783203 0.500000
vt 0.783203 0.500000
vt 0.783203 0.500000
vt 0.791016 0.500000
vt 0.791016 0.500000
vt 0.791016 0.500000
vt 0.791016 0.500000
vt 0.783203 0.500000
vt 0.791016 0.500000
vt 0.783203 0.500000
vt 0.783203 0.500000
vt 0.791016 0.500000
vt 0.783203 0.500000
vt 0.791016 0.500000
vt 0.783203 0.500000
vt 0.791016 0.500000
vt 0.783203 0.500000
vt 0.791016 0.500000
vt 0.791016 0.500000
vt 0.791016 0.500000
vt 0.783203 0.500000
vt 0.791016 0.500000
vt 0.791016 0.500000
vt 0.783203 0.500000
vt 0.791016 0.500000
vt 0.783203 0.500000
vt 0.783203 0.500000
vt 0.791016 0.500000
vt 0.791016 0.500000
vt 0.783203 0.500000
vt 0.791016 0.500000
vt 0.791016 0.500000
vt 0.783203 0.500000
vt 0.783203 0.500000
vt 0.791016 0.500000
vt 0.791016 0.500000
vt 0.791016 0.500000
vt 0.783203 0.500000
vt 0.791016 0.500000
vt 0.791016 0.500000
vt 0.783203 0.500000
vt 0.791016 0.500000
vt 0.783203 0.500000
vt 0.791016 0.500000
vt 0.791016 0.500000
vt 0.791016 0.500000
vt 0.791016 0.500000
vt 0.791016 0.500000
vt 0.791016 0.500000
vt 0.791016 0.500000
vt 0.791016 0.500000
vt 0.791016 0.500000
vt 0.791016 0.500000
vt 0.791016 0.500000
vt 0.783203 0.500000
vt 0.783203 0.500000
vt 0.783203 0.500000
vt 0.791016 0.500000
vt 0.791016 0.500000
vt 0.791016 0.500000
vt 0.783203 0.500000
vt 0.791016 0.500000
vt 0.783203 0.500000
vt 0.791016 0.500000
vt 0.791016 0.500000
vt 0.791016 0.500000
vt 0.791016 0.500000
s 0
usemtl palette.027
f 1/1/1 46/65/1 25/36/1
f 33/49/1 46/65/1 1/1/1
f 52/72/1 44/63/1 18/27/1
f 2/3/1 44/63/1 52/72/1
f 20/30/1 3/5/1 19/28/1
f 26/37/1 3/5/1 20/30/1
f 21/31/1 26/38/1 20/29/1
f 56/77/1 26/38/1 21/31/1
f 59/80/1 40/59/1 34/50/1
f 41/60/1 40/59/1 59/80/1
f 22/32/1 5/8/1 4/6/1
f 6/10/1 5/8/1 22/32/1
f 49/68/2 27/39/2 7/12/2
f 7/12/2 27/39/2 8/13/2
f 43/62/2 45/64/2 53/73/2
f 53/73/2 45/64/2 54/75/2
f 47/66/2 48/67/2 35/52/2
f 55/76/2 9/14/2 50/69/2
f 10/15/2 50/69/2 11/16/2
f 50/69/2 9/14/2 51/70/2
f 11/16/2 50/69/2 51/70/2
f 51/70/2 9/14/2 30/43/2
f 35/52/2 48/67/2 36/53/2
f 11/17/2 51/71/2 24/35/2
f 24/35/2 51/71/2 57/78/2
f 36/53/2 48/67/2 37/55/2
f 37/55/2 48/67/2 42/61/2
f 12/18/2 13/19/2 14/20/2
f 14/20/2 13/19/2 15/22/2
f 14/21/2 15/23/2 16/24/2
f 15/22/2 13/19/2 31/45/2
f 16/24/2 15/23/2 31/46/2
f 31/45/2 13/19/2 17/25/2
f 31/46/2 17/26/2 32/47/2
f 32/47/2 17/26/2 38/56/2
f 29/42/2 32/48/2 58/79/2
f 32/48/2 38/57/2 58/79/2
f 58/79/2 38/57/2 39/58/2
f 4/6/3 52/72/3 18/27/3
f 49/68/3 20/30/3 19/28/3
f 7/11/3 21/31/3 20/29/3
f 7/12/3 20/30/3 49/68/3
f 23/33/4 21/31/4 7/11/4
f 43/62/3 22/32/3 4/6/3
f 43/62/3 4/6/3 18/27/3
f 53/73/3 22/32/3 43/62/3
f 10/15/3 23/34/3 7/12/3
f 11/17/3 21/31/3 23/33/3
f 11/16/3 23/34/3 10/15/3
f 24/35/3 21/31/3 11/17/3
f 44/63/3 1/1/3 25/36/3
f 2/3/3 1/1/3 44/63/3
f 3/4/3 1/1/3 2/3/3
f 26/38/3 1/1/3 3/4/3
f 56/77/3 1/1/3 26/38/3
f 5/7/3 3/5/3 2/2/3
f 6/9/3 3/5/3 5/7/3
f 27/39/3 3/5/3 6/9/3
f 54/74/3 8/13/3 27/39/3
f 54/74/3 27/39/3 6/9/3
f 28/40/3 8/13/3 54/74/3
f 55/76/3 8/13/3 28/40/3
f 50/69/3 8/13/3 55/76/3
f 12/18/3 54/75/3 45/64/3
f 12/18/3 28/41/3 54/75/3
f 14/21/3 55/76/3 28/40/3
f 14/20/3 28/41/3 12/18/3
f 16/24/3 55/76/3 14/21/3
f 29/42/3 57/78/3 51/71/3
f 58/79/3 57/78/3 29/42/3
f 31/46/3 30/43/3 9/14/3
f 32/47/3 30/43/3 31/46/3
f 46/65/5 33/49/5 34/50/5
f 34/50/5 33/49/5 59/80/5
f 47/66/5 35/52/5 13/19/5
f 35/51/5 36/54/5 17/26/5
f 13/19/5 35/52/5 17/25/5
f 36/53/5 37/55/5 38/57/5
f 17/26/5 36/54/5 38/56/5
f 38/57/5 37/55/5 39/58/5
f 40/59/5 41/60/5 48/67/5
f 48/67/5 41/60/5 42/61/5
f 44/63/6 43/62/6 18/27/6
f 45/64/6 43/62/6 44/63/6
f 46/65/6 44/63/6 25/36/6
f 46/65/6 12/18/6 45/64/6
f 46/65/6 45/64/6 44/63/6
f 34/50/6 12/18/6 46/65/6
f 47/66/6 12/18/6 34/50/6
f 13/19/6 12/18/6 47/66/6
f 40/59/6 47/66/6 34/50/6
f 48/67/6 47/66/6 40/59/6
f 3/5/6 49/68/6 19/28/6
f 27/39/6 49/68/6 3/5/6
f 8/13/6 10/15/6 7/12/6
f 50/69/6 10/15/6 8/13/6
f 30/44/6 29/42/6 51/71/6
f 32/48/6 29/42/6 30/44/6
f 52/72/7 4/6/7 2/3/7
f 2/3/7 4/6/7 5/8/7
f 22/32/7 53/73/7 6/10/7
f 6/10/7 53/73/7 54/75/7
f 55/76/7 16/24/7 9/14/7
f 9/14/7 16/24/7 31/46/7
f 21/31/7 24/35/7 56/77/7
f 56/77/7 24/35/7 57/78/7
f 1/1/7 56/77/7 33/49/7
f 57/78/7 58/79/7 33/49/7
f 56/77/7 57/78/7 33/49/7
f 33/49/7 58/79/7 59/80/7
f 59/80/7 58/79/7 37/55/7
f 37/55/7 58/79/7 39/58/7
f 59/80/7 37/55/7 41/60/7
f 41/60/7 37/55/7 42/61/7
