# MagicaVoxel @ Ephtracy

# group
o 

# material
mtllib lvl2-19.mtl
usemtl palette

# normals
vn -1 0 0
vn 1 0 0
vn 0 1 0
vn 0 -1 0
vn 0 0 1
vn 0 0 -1

# texcoords
vt 0.470703 0.5
vt 0.482422 0.5
vt 0.490234 0.5

# verts
v -3.6 10.5 -5.7
v -3.6 10.4 -5.7
v -3.6 10.5 -5.8
v -3.6 10.4 -5.8
v -3.6 10.5 -5.9
v -3.6 10.4 -5.9
v -3.5 10.5 -5.9
v -3.5 10.4 -5.9
v -3.5 10.5 -6
v -3.5 10.4 -6
v -3.4 10.5 -6
v -3.4 10.4 -6
v -3.4 10.5 -6.1
v -3.4 10.4 -6.1
v -3.2 10.5 -5.2
v -3.2 10.4 -5.2
v -3.2 10.5 -5.9
v -3.2 10.4 -5.9
v -2.9 10.5 -5.8
v -2.9 10.4 -5.8
v -2.9 10.5 -5.9
v -2.9 10.4 -5.9
v -2.8 10.5 -5.7
v -2.8 10.4 -5.7
v -2.8 10.5 -5.8
v -2.8 10.4 -5.8
v -3.5 10.5 -5.7
v -3.5 10.4 -5.7
v -3.5 10.5 -5.8
v -3.5 10.4 -5.8
v -3.4 10.5 -5.8
v -3.4 10.4 -5.8
v -3.4 10.5 -5.9
v -3.4 10.4 -5.9
v -3.1 10.5 -5.2
v -3.1 10.4 -5.2
v -3.1 10.5 -5.9
v -3.1 10.4 -5.9
v -2.9 10.5 -6
v -2.9 10.4 -6
v -2.9 10.5 -6.1
v -2.9 10.4 -6.1
v -2.8 10.5 -5.9
v -2.8 10.4 -5.9
v -2.8 10.5 -6
v -2.8 10.4 -6
v -2.7 10.5 -5.7
v -2.7 10.4 -5.7
v -2.7 10.5 -5.8
v -2.7 10.4 -5.8
v -2.7 10.5 -5.9
v -2.7 10.4 -5.9
v -3.6 10.5 -5.7
v -3.6 10.5 -5.8
v -3.6 10.5 -5.9
v -3.5 10.5 -5.7
v -3.5 10.5 -5.8
v -3.5 10.5 -5.9
v -3.5 10.5 -6
v -3.4 10.5 -5.8
v -3.4 10.5 -5.9
v -3.4 10.5 -6
v -3.4 10.5 -6.1
v -3.2 10.5 -5.2
v -3.2 10.5 -5.9
v -3.1 10.5 -5.2
v -3.1 10.5 -5.9
v -2.9 10.5 -5.8
v -2.9 10.5 -5.9
v -2.9 10.5 -6
v -2.9 10.5 -6.1
v -2.8 10.5 -5.7
v -2.8 10.5 -5.8
v -2.8 10.5 -5.9
v -2.8 10.5 -6
v -2.7 10.5 -5.7
v -2.7 10.5 -5.8
v -2.7 10.5 -5.9
v -3.6 10.4 -5.7
v -3.6 10.4 -5.8
v -3.6 10.4 -5.9
v -3.5 10.4 -5.7
v -3.5 10.4 -5.8
v -3.5 10.4 -5.9
v -3.5 10.4 -6
v -3.4 10.4 -5.8
v -3.4 10.4 -5.9
v -3.4 10.4 -6
v -3.4 10.4 -6.1
v -3.2 10.4 -5.2
v -3.2 10.4 -5.9
v -3.1 10.4 -5.2
v -3.1 10.4 -5.9
v -2.9 10.4 -5.8
v -2.9 10.4 -5.9
v -2.9 10.4 -6
v -2.9 10.4 -6.1
v -2.8 10.4 -5.7
v -2.8 10.4 -5.8
v -2.8 10.4 -5.9
v -2.8 10.4 -6
v -2.7 10.4 -5.7
v -2.7 10.4 -5.8
v -2.7 10.4 -5.9
v -3.2 10.5 -5.2
v -3.1 10.5 -5.2
v -3.2 10.4 -5.2
v -3.1 10.4 -5.2
v -3.6 10.5 -5.7
v -3.5 10.5 -5.7
v -2.8 10.5 -5.7
v -2.7 10.5 -5.7
v -3.6 10.4 -5.7
v -3.5 10.4 -5.7
v -2.8 10.4 -5.7
v -2.7 10.4 -5.7
v -3.5 10.5 -5.8
v -3.4 10.5 -5.8
v -2.9 10.5 -5.8
v -2.8 10.5 -5.8
v -3.5 10.4 -5.8
v -3.4 10.4 -5.8
v -2.9 10.4 -5.8
v -2.8 10.4 -5.8
v -3.4 10.5 -5.9
v -3.2 10.5 -5.9
v -3.1 10.5 -5.9
v -2.9 10.5 -5.9
v -3.4 10.4 -5.9
v -3.2 10.4 -5.9
v -3.1 10.4 -5.9
v -2.9 10.4 -5.9
v -3.6 10.5 -5.9
v -3.5 10.5 -5.9
v -2.8 10.5 -5.9
v -2.7 10.5 -5.9
v -3.6 10.4 -5.9
v -3.5 10.4 -5.9
v -2.8 10.4 -5.9
v -2.7 10.4 -5.9
v -3.5 10.5 -6
v -3.4 10.5 -6
v -2.9 10.5 -6
v -2.8 10.5 -6
v -3.5 10.4 -6
v -3.4 10.4 -6
v -2.9 10.4 -6
v -2.8 10.4 -6
v -3.4 10.5 -6.1
v -2.9 10.5 -6.1
v -3.4 10.4 -6.1
v -2.9 10.4 -6.1

# faces
f 3/1/1 2/1/1 1/1/1
f 4/1/1 2/1/1 3/1/1
f 5/2/1 4/2/1 3/2/1
f 6/2/1 4/2/1 5/2/1
f 9/2/1 8/2/1 7/2/1
f 10/2/1 8/2/1 9/2/1
f 13/2/1 12/2/1 11/2/1
f 14/2/1 12/2/1 13/2/1
f 17/3/1 16/3/1 15/3/1
f 18/3/1 16/3/1 17/3/1
f 21/1/1 20/1/1 19/1/1
f 22/1/1 20/1/1 21/1/1
f 25/1/1 24/1/1 23/1/1
f 26/1/1 24/1/1 25/1/1
f 27/1/2 28/1/2 29/1/2
f 29/1/2 28/1/2 30/1/2
f 31/1/2 32/1/2 33/1/2
f 33/1/2 32/1/2 34/1/2
f 35/3/2 36/3/2 37/3/2
f 37/3/2 36/3/2 38/3/2
f 39/2/2 40/2/2 41/2/2
f 41/2/2 40/2/2 42/2/2
f 43/2/2 44/2/2 45/2/2
f 45/2/2 44/2/2 46/2/2
f 47/1/2 48/1/2 49/1/2
f 49/1/2 48/1/2 50/1/2
f 49/2/2 50/2/2 51/2/2
f 51/2/2 50/2/2 52/2/2
f 56/1/3 54/1/3 53/1/3
f 57/2/3 55/2/3 54/2/3
f 57/1/3 54/1/3 56/1/3
f 58/2/3 55/2/3 57/2/3
f 60/1/3 58/1/3 57/1/3
f 61/2/3 59/2/3 58/2/3
f 61/1/3 58/1/3 60/1/3
f 62/2/3 59/2/3 61/2/3
f 65/1/3 62/1/3 61/1/3
f 66/3/3 65/3/3 64/3/3
f 67/1/3 62/1/3 65/1/3
f 67/3/3 65/3/3 66/3/3
f 69/1/3 62/1/3 67/1/3
f 70/2/3 63/2/3 62/2/3
f 70/1/3 62/1/3 69/1/3
f 71/2/3 63/2/3 70/2/3
f 73/1/3 69/1/3 68/1/3
f 74/2/3 70/2/3 69/2/3
f 74/1/3 69/1/3 73/1/3
f 75/2/3 70/2/3 74/2/3
f 76/1/3 73/1/3 72/1/3
f 77/2/3 74/2/3 73/2/3
f 77/1/3 73/1/3 76/1/3
f 78/2/3 74/2/3 77/2/3
f 79/1/4 80/1/4 82/1/4
f 80/2/4 81/2/4 83/2/4
f 82/1/4 80/1/4 83/1/4
f 83/2/4 81/2/4 84/2/4
f 83/1/4 84/1/4 86/1/4
f 84/2/4 85/2/4 87/2/4
f 86/1/4 84/1/4 87/1/4
f 87/2/4 85/2/4 88/2/4
f 87/1/4 88/1/4 91/1/4
f 90/3/4 91/3/4 92/3/4
f 91/1/4 88/1/4 93/1/4
f 92/3/4 91/3/4 93/3/4
f 93/1/4 88/1/4 95/1/4
f 88/2/4 89/2/4 96/2/4
f 95/1/4 88/1/4 96/1/4
f 96/2/4 89/2/4 97/2/4
f 94/1/4 95/1/4 99/1/4
f 95/2/4 96/2/4 100/2/4
f 99/1/4 95/1/4 100/1/4
f 100/2/4 96/2/4 101/2/4
f 98/1/4 99/1/4 102/1/4
f 99/2/4 100/2/4 103/2/4
f 102/1/4 99/1/4 103/1/4
f 103/2/4 100/2/4 104/2/4
f 107/3/5 106/3/5 105/3/5
f 108/3/5 106/3/5 107/3/5
f 113/1/5 110/1/5 109/1/5
f 114/1/5 110/1/5 113/1/5
f 115/1/5 112/1/5 111/1/5
f 116/1/5 112/1/5 115/1/5
f 121/1/5 118/1/5 117/1/5
f 122/1/5 118/1/5 121/1/5
f 123/1/5 120/1/5 119/1/5
f 124/1/5 120/1/5 123/1/5
f 129/1/5 126/1/5 125/1/5
f 130/1/5 126/1/5 129/1/5
f 131/1/5 128/1/5 127/1/5
f 132/1/5 128/1/5 131/1/5
f 133/2/6 134/2/6 137/2/6
f 137/2/6 134/2/6 138/2/6
f 135/2/6 136/2/6 139/2/6
f 139/2/6 136/2/6 140/2/6
f 141/2/6 142/2/6 145/2/6
f 145/2/6 142/2/6 146/2/6
f 143/2/6 144/2/6 147/2/6
f 147/2/6 144/2/6 148/2/6
f 149/2/6 150/2/6 151/2/6
f 151/2/6 150/2/6 152/2/6
