# MagicaVoxel @ Ephtracy

# group
o 

# material
mtllib lvl2-14.mtl
usemtl palette

# normals
vn -1 0 0
vn 1 0 0
vn 0 0 1
vn 0 0 -1
vn 0 -1 0
vn 0 1 0

# texcoords
vt 0.470703 0.5
vt 0.482422 0.5
vt 0.494141 0.5

# verts
v -0.2 2.2 5.2
v -0.2 2.2 5.1
v -0.2 2.2 3.8
v -0.2 2.2 3.7
v -0.2 2.3 5.2
v -0.2 2.3 5.1
v -0.2 2.3 3.8
v -0.2 2.3 3.7
v -0.2 2.4 5.2
v -0.2 2.4 5.1
v -0.2 2.4 3.8
v -0.2 2.4 3.7
v -0.1 2.1 5.1
v -0.1 2.1 5
v -0.1 2.1 3.9
v -0.1 2.1 3.8
v -0.1 2.2 5.1
v -0.1 2.2 3.8
v -0.1 2.3 5.1
v -0.1 2.3 5
v -0.1 2.3 3.9
v -0.1 2.3 3.8
v -0.1 2.4 5.1
v -0.1 2.4 5
v -0.1 2.4 3.9
v -0.1 2.4 3.8
v 0 2 5
v 0 2 4.9
v 0 2 4
v 0 2 3.9
v 0 2.1 5
v 0 2.1 3.9
v 0 2.2 5
v 0 2.2 4.9
v 0 2.2 4
v 0 2.2 3.9
v 0 2.3 5
v 0 2.3 4.9
v 0 2.3 4
v 0 2.3 3.9
v 0.1 1.9 4.9
v 0.1 1.9 4.8
v 0.1 1.9 4.1
v 0.1 1.9 4
v 0.1 2 4.9
v 0.1 2 4
v 0.1 2.2 4.9
v 0.1 2.2 4.8
v 0.1 2.2 4.1
v 0.1 2.2 4
v 0.1 2.3 4.9
v 0.1 2.3 4.8
v 0.1 2.3 4.1
v 0.1 2.3 4
v 0.2 1.8 4.8
v 0.2 1.8 4.7
v 0.2 1.8 4.2
v 0.2 1.8 4.1
v 0.2 1.9 4.8
v 0.2 1.9 4.1
v 0.2 2.2 4.8
v 0.2 2.2 4.7
v 0.2 2.2 4.2
v 0.2 2.2 4.1
v 0.2 2.3 4.8
v 0.2 2.3 4.7
v 0.2 2.3 4.2
v 0.2 2.3 4.1
v 0.3 1.7 4.7
v 0.3 1.7 4.6
v 0.3 1.7 4.3
v 0.3 1.7 4.2
v 0.3 1.8 4.7
v 0.3 1.8 4.2
v 0.3 2.2 4.7
v 0.3 2.2 4.6
v 0.3 2.2 4.3
v 0.3 2.2 4.2
v 0.3 2.3 4.7
v 0.3 2.3 4.6
v 0.3 2.3 4.3
v 0.3 2.3 4.2
v 0.4 1.7 4.6
v 0.4 1.7 4.5
v 0.4 1.7 4.4
v 0.4 1.7 4.3
v 0.4 2.2 4.6
v 0.4 2.2 4.5
v 0.4 2.2 4.4
v 0.4 2.2 4.3
v 0.5 1.6 4.6
v 0.5 1.6 4.5
v 0.5 1.6 4.4
v 0.5 1.6 4.3
v 0.5 1.7 4.6
v 0.5 1.7 4.5
v 0.5 1.7 4.4
v 0.5 1.7 4.3
v 0.5 2.1 4.5
v 0.5 2.1 4.4
v 0.5 2.2 4.6
v 0.5 2.2 4.5
v 0.5 2.2 4.4
v 0.5 2.2 4.3
v 0.5 2.4 4.7
v 0.5 2.4 4.6
v 0.5 2.4 4.3
v 0.5 2.4 4.2
v 0.5 2.5 4.7
v 0.5 2.5 4.6
v 0.5 2.5 4.5
v 0.5 2.5 4.4
v 0.5 2.5 4.3
v 0.5 2.5 4.2
v 0.5 2.8 4.7
v 0.5 2.8 4.6
v 0.5 2.8 4.5
v 0.5 2.8 4.4
v 0.5 2.8 4.3
v 0.5 2.8 4.2
v 0.6 1.5 4.5
v 0.6 1.5 4.4
v 0.6 1.6 4.5
v 0.6 1.6 4.4
v 0.6 1.7 4.5
v 0.6 1.7 4.4
v 0.6 2.1 4.5
v 0.6 2.1 4.4
v 0.6 2.2 4.5
v 0.6 2.2 4.4
v -0.1 2.2 5.2
v -0.1 2.2 5.1
v -0.1 2.2 3.8
v -0.1 2.2 3.7
v -0.1 2.3 5.2
v -0.1 2.3 5.1
v -0.1 2.3 3.8
v -0.1 2.3 3.7
v -0.1 2.4 5.2
v -0.1 2.4 5.1
v -0.1 2.4 3.8
v -0.1 2.4 3.7
v 0 2.1 5.1
v 0 2.1 5
v 0 2.1 3.9
v 0 2.1 3.8
v 0 2.2 5
v 0 2.2 3.9
v 0 2.3 5.1
v 0 2.3 5
v 0 2.3 3.9
v 0 2.3 3.8
v 0 2.4 5.1
v 0 2.4 5
v 0 2.4 3.9
v 0 2.4 3.8
v 0.1 2 5
v 0.1 2 4.9
v 0.1 2 4
v 0.1 2 3.9
v 0.1 2.2 5
v 0.1 2.2 4.9
v 0.1 2.2 4
v 0.1 2.2 3.9
v 0.1 2.3 5
v 0.1 2.3 4.9
v 0.1 2.3 4
v 0.1 2.3 3.9
v 0.2 1.9 4.9
v 0.2 1.9 4.8
v 0.2 1.9 4.1
v 0.2 1.9 4
v 0.2 2.2 4.9
v 0.2 2.2 4.8
v 0.2 2.2 4.1
v 0.2 2.2 4
v 0.2 2.3 4.9
v 0.2 2.3 4.8
v 0.2 2.3 4.1
v 0.2 2.3 4
v 0.3 1.8 4.8
v 0.3 1.8 4.7
v 0.3 1.8 4.2
v 0.3 1.8 4.1
v 0.3 2.2 4.8
v 0.3 2.2 4.7
v 0.3 2.2 4.2
v 0.3 2.2 4.1
v 0.3 2.3 4.8
v 0.3 2.3 4.7
v 0.3 2.3 4.2
v 0.3 2.3 4.1
v 0.4 1.7 4.7
v 0.4 1.7 4.6
v 0.4 1.7 4.3
v 0.4 1.7 4.2
v 0.4 2.2 4.7
v 0.4 2.2 4.6
v 0.4 2.2 4.3
v 0.4 2.2 4.2
v 0.4 2.3 4.7
v 0.4 2.3 4.6
v 0.4 2.3 4.3
v 0.4 2.3 4.2
v 0.5 2.1 4.6
v 0.5 2.1 4.5
v 0.5 2.1 4.4
v 0.5 2.1 4.3
v 0.5 2.2 4.6
v 0.5 2.2 4.5
v 0.5 2.2 4.4
v 0.5 2.2 4.3
v 0.6 2.4 4.7
v 0.6 2.4 4.6
v 0.6 2.4 4.3
v 0.6 2.4 4.2
v 0.6 2.5 4.7
v 0.6 2.5 4.6
v 0.6 2.5 4.5
v 0.6 2.5 4.4
v 0.6 2.5 4.3
v 0.6 2.5 4.2
v 0.6 2.8 4.7
v 0.6 2.8 4.6
v 0.6 2.8 4.5
v 0.6 2.8 4.4
v 0.6 2.8 4.3
v 0.6 2.8 4.2
v 0.7 1.5 4.5
v 0.7 1.5 4.4
v 0.7 1.6 4.6
v 0.7 1.6 4.5
v 0.7 1.6 4.4
v 0.7 1.6 4.3
v 0.7 1.7 4.6
v 0.7 1.7 4.5
v 0.7 1.7 4.4
v 0.7 1.7 4.3
v 0.7 2 4.6
v 0.7 2 4.5
v 0.7 2 4.4
v 0.7 2 4.3
v 0.7 2.1 4.6
v 0.7 2.1 4.5
v 0.7 2.1 4.4
v 0.7 2.1 4.3
v 0.7 2.2 4.5
v 0.7 2.2 4.4
v 0.8 1.6 4.5
v 0.8 1.6 4.4
v 0.8 1.7 4.6
v 0.8 1.7 4.5
v 0.8 1.7 4.4
v 0.8 1.7 4.3
v 0.8 2 4.6
v 0.8 2 4.5
v 0.8 2 4.4
v 0.8 2 4.3
v 0.8 2.1 4.5
v 0.8 2.1 4.4
v 0.8 2.2 4.6
v 0.8 2.2 4.3
v 0.8 2.3 4.6
v 0.8 2.3 4.5
v 0.8 2.3 4.4
v 0.8 2.3 4.3
v 0.8 2.4 4.6
v 0.8 2.4 4.5
v 0.8 2.4 4.4
v 0.8 2.4 4.3
v 0.8 2.5 4.6
v 0.8 2.5 4.3
v -0.2 2.2 5.2
v -0.2 2.3 5.2
v -0.2 2.4 5.2
v -0.1 2.2 5.2
v -0.1 2.3 5.2
v -0.1 2.4 5.2
v -0.1 2.1 5.1
v -0.1 2.2 5.1
v -0.1 2.3 5.1
v -0.1 2.4 5.1
v 0 2.1 5.1
v 0 2.3 5.1
v 0 2.4 5.1
v 0 2 5
v 0 2.1 5
v 0 2.2 5
v 0 2.3 5
v 0.1 2 5
v 0.1 2.2 5
v 0.1 2.3 5
v 0.1 1.9 4.9
v 0.1 2 4.9
v 0.1 2.2 4.9
v 0.1 2.3 4.9
v 0.2 1.9 4.9
v 0.2 2.2 4.9
v 0.2 2.3 4.9
v 0.2 1.8 4.8
v 0.2 1.9 4.8
v 0.2 2.2 4.8
v 0.2 2.3 4.8
v 0.3 1.8 4.8
v 0.3 2.2 4.8
v 0.3 2.3 4.8
v 0.3 1.7 4.7
v 0.3 1.8 4.7
v 0.3 2.2 4.7
v 0.3 2.3 4.7
v 0.4 1.7 4.7
v 0.4 2.2 4.7
v 0.4 2.3 4.7
v 0.5 2.4 4.7
v 0.5 2.5 4.7
v 0.5 2.8 4.7
v 0.6 2.4 4.7
v 0.6 2.5 4.7
v 0.6 2.8 4.7
v 0.4 1.7 4.6
v 0.4 2.2 4.6
v 0.5 1.6 4.6
v 0.5 1.7 4.6
v 0.5 2.1 4.6
v 0.5 2.2 4.6
v 0.5 2.4 4.6
v 0.6 2.4 4.6
v 0.6 2.5 4.6
v 0.7 1.6 4.6
v 0.7 1.7 4.6
v 0.7 2 4.6
v 0.7 2.1 4.6
v 0.7 2.3 4.6
v 0.7 2.4 4.6
v 0.8 1.7 4.6
v 0.8 2 4.6
v 0.8 2.2 4.6
v 0.8 2.3 4.6
v 0.8 2.4 4.6
v 0.8 2.5 4.6
v 0.6 1.5 4.5
v 0.6 1.6 4.5
v 0.6 2.1 4.5
v 0.6 2.2 4.5
v 0.7 1.5 4.5
v 0.7 1.6 4.5
v 0.7 1.7 4.5
v 0.7 2 4.5
v 0.7 2.1 4.5
v 0.7 2.2 4.5
v 0.8 1.6 4.5
v 0.8 1.7 4.5
v 0.8 2 4.5
v 0.8 2.1 4.5
v 0.4 1.7 4.4
v 0.4 2.2 4.4
v 0.5 1.6 4.4
v 0.5 1.7 4.4
v 0.5 2.1 4.4
v 0.5 2.2 4.4
v 0.5 2.5 4.4
v 0.5 2.8 4.4
v 0.6 1.6 4.4
v 0.6 1.7 4.4
v 0.6 2.5 4.4
v 0.6 2.8 4.4
v 0.3 1.7 4.3
v 0.3 2.2 4.3
v 0.3 2.3 4.3
v 0.4 1.7 4.3
v 0.4 2.2 4.3
v 0.4 2.3 4.3
v 0.2 1.8 4.2
v 0.2 2.2 4.2
v 0.2 2.3 4.2
v 0.3 1.8 4.2
v 0.3 2.2 4.2
v 0.3 2.3 4.2
v 0.1 1.9 4.1
v 0.1 2.2 4.1
v 0.1 2.3 4.1
v 0.2 1.9 4.1
v 0.2 2.2 4.1
v 0.2 2.3 4.1
v 0 2 4
v 0 2.2 4
v 0 2.3 4
v 0.1 2 4
v 0.1 2.2 4
v 0.1 2.3 4
v -0.1 2.1 3.9
v -0.1 2.3 3.9
v -0.1 2.4 3.9
v 0 2.1 3.9
v 0 2.2 3.9
v 0 2.3 3.9
v 0 2.4 3.9
v -0.2 2.2 3.8
v -0.2 2.3 3.8
v -0.2 2.4 3.8
v -0.1 2.2 3.8
v -0.1 2.3 3.8
v -0.1 2.4 3.8
v -0.2 2.2 5.1
v -0.2 2.3 5.1
v -0.2 2.4 5.1
v -0.1 2.2 5.1
v -0.1 2.3 5.1
v -0.1 2.4 5.1
v -0.1 2.1 5
v -0.1 2.3 5
v -0.1 2.4 5
v 0 2.1 5
v 0 2.2 5
v 0 2.3 5
v 0 2.4 5
v 0 2 4.9
v 0 2.2 4.9
v 0 2.3 4.9
v 0.1 2 4.9
v 0.1 2.2 4.9
v 0.1 2.3 4.9
v 0.1 1.9 4.8
v 0.1 2.2 4.8
v 0.1 2.3 4.8
v 0.2 1.9 4.8
v 0.2 2.2 4.8
v 0.2 2.3 4.8
v 0.2 1.8 4.7
v 0.2 2.2 4.7
v 0.2 2.3 4.7
v 0.3 1.8 4.7
v 0.3 2.2 4.7
v 0.3 2.3 4.7
v 0.3 1.7 4.6
v 0.3 2.2 4.6
v 0.3 2.3 4.6
v 0.4 1.7 4.6
v 0.4 2.2 4.6
v 0.4 2.3 4.6
v 0.4 1.7 4.5
v 0.4 2.2 4.5
v 0.5 1.6 4.5
v 0.5 1.7 4.5
v 0.5 2.1 4.5
v 0.5 2.2 4.5
v 0.5 2.5 4.5
v 0.5 2.8 4.5
v 0.6 1.6 4.5
v 0.6 1.7 4.5
v 0.6 2.5 4.5
v 0.6 2.8 4.5
v 0.6 1.5 4.4
v 0.6 1.6 4.4
v 0.6 2.1 4.4
v 0.6 2.2 4.4
v 0.7 1.5 4.4
v 0.7 1.6 4.4
v 0.7 1.7 4.4
v 0.7 2 4.4
v 0.7 2.1 4.4
v 0.7 2.2 4.4
v 0.8 1.6 4.4
v 0.8 1.7 4.4
v 0.8 2 4.4
v 0.8 2.1 4.4
v 0.4 1.7 4.3
v 0.4 2.2 4.3
v 0.5 1.6 4.3
v 0.5 1.7 4.3
v 0.5 2.1 4.3
v 0.5 2.2 4.3
v 0.5 2.4 4.3
v 0.6 2.4 4.3
v 0.6 2.5 4.3
v 0.7 1.6 4.3
v 0.7 1.7 4.3
v 0.7 2 4.3
v 0.7 2.1 4.3
v 0.7 2.3 4.3
v 0.7 2.4 4.3
v 0.8 1.7 4.3
v 0.8 2 4.3
v 0.8 2.2 4.3
v 0.8 2.3 4.3
v 0.8 2.4 4.3
v 0.8 2.5 4.3
v 0.3 1.7 4.2
v 0.3 1.8 4.2
v 0.3 2.2 4.2
v 0.3 2.3 4.2
v 0.4 1.7 4.2
v 0.4 2.2 4.2
v 0.4 2.3 4.2
v 0.5 2.4 4.2
v 0.5 2.5 4.2
v 0.5 2.8 4.2
v 0.6 2.4 4.2
v 0.6 2.5 4.2
v 0.6 2.8 4.2
v 0.2 1.8 4.1
v 0.2 1.9 4.1
v 0.2 2.2 4.1
v 0.2 2.3 4.1
v 0.3 1.8 4.1
v 0.3 2.2 4.1
v 0.3 2.3 4.1
v 0.1 1.9 4
v 0.1 2 4
v 0.1 2.2 4
v 0.1 2.3 4
v 0.2 1.9 4
v 0.2 2.2 4
v 0.2 2.3 4
v 0 2 3.9
v 0 2.1 3.9
v 0 2.2 3.9
v 0 2.3 3.9
v 0.1 2 3.9
v 0.1 2.2 3.9
v 0.1 2.3 3.9
v -0.1 2.1 3.8
v -0.1 2.2 3.8
v -0.1 2.3 3.8
v -0.1 2.4 3.8
v 0 2.1 3.8
v 0 2.3 3.8
v 0 2.4 3.8
v -0.2 2.2 3.7
v -0.2 2.3 3.7
v -0.2 2.4 3.7
v -0.1 2.2 3.7
v -0.1 2.3 3.7
v -0.1 2.4 3.7
v 0.6 1.5 4.5
v 0.7 1.5 4.5
v 0.6 1.5 4.4
v 0.7 1.5 4.4
v 0.5 1.6 4.6
v 0.7 1.6 4.6
v 0.5 1.6 4.5
v 0.6 1.6 4.5
v 0.7 1.6 4.5
v 0.8 1.6 4.5
v 0.5 1.6 4.4
v 0.6 1.6 4.4
v 0.7 1.6 4.4
v 0.8 1.6 4.4
v 0.5 1.6 4.3
v 0.7 1.6 4.3
v 0.3 1.7 4.7
v 0.4 1.7 4.7
v 0.3 1.7 4.6
v 0.4 1.7 4.6
v 0.5 1.7 4.6
v 0.7 1.7 4.6
v 0.8 1.7 4.6
v 0.4 1.7 4.5
v 0.5 1.7 4.5
v 0.6 1.7 4.5
v 0.7 1.7 4.5
v 0.8 1.7 4.5
v 0.4 1.7 4.4
v 0.5 1.7 4.4
v 0.6 1.7 4.4
v 0.7 1.7 4.4
v 0.8 1.7 4.4
v 0.3 1.7 4.3
v 0.4 1.7 4.3
v 0.5 1.7 4.3
v 0.7 1.7 4.3
v 0.8 1.7 4.3
v 0.3 1.7 4.2
v 0.4 1.7 4.2
v 0.2 1.8 4.8
v 0.3 1.8 4.8
v 0.2 1.8 4.7
v 0.3 1.8 4.7
v 0.2 1.8 4.2
v 0.3 1.8 4.2
v 0.2 1.8 4.1
v 0.3 1.8 4.1
v 0.1 1.9 4.9
v 0.2 1.9 4.9
v 0.1 1.9 4.8
v 0.2 1.9 4.8
v 0.1 1.9 4.1
v 0.2 1.9 4.1
v 0.1 1.9 4
v 0.2 1.9 4
v 0 2 5
v 0.1 2 5
v 0 2 4.9
v 0.1 2 4.9
v 0 2 4
v 0.1 2 4
v 0 2 3.9
v 0.1 2 3.9
v -0.1 2.1 5.1
v 0 2.1 5.1
v -0.1 2.1 5
v 0 2.1 5
v -0.1 2.1 3.9
v 0 2.1 3.9
v -0.1 2.1 3.8
v 0 2.1 3.8
v -0.2 2.2 5.2
v -0.1 2.2 5.2
v -0.2 2.2 5.1
v -0.1 2.2 5.1
v 0.5 2.2 4.6
v 0.8 2.2 4.6
v 0.5 2.2 4.5
v 0.6 2.2 4.5
v 0.7 2.2 4.5
v 0.5 2.2 4.4
v 0.6 2.2 4.4
v 0.7 2.2 4.4
v 0.5 2.2 4.3
v 0.8 2.2 4.3
v -0.2 2.2 3.8
v -0.1 2.2 3.8
v -0.2 2.2 3.7
v -0.1 2.2 3.7
v 0.5 2.4 4.7
v 0.6 2.4 4.7
v 0.5 2.4 4.6
v 0.6 2.4 4.6
v 0.5 2.4 4.3
v 0.6 2.4 4.3
v 0.5 2.4 4.2
v 0.6 2.4 4.2
v 0.7 2 4.6
v 0.8 2 4.6
v 0.7 2 4.5
v 0.8 2 4.5
v 0.7 2 4.4
v 0.8 2 4.4
v 0.7 2 4.3
v 0.8 2 4.3
v 0.5 2.1 4.6
v 0.7 2.1 4.6
v 0.5 2.1 4.5
v 0.6 2.1 4.5
v 0.7 2.1 4.5
v 0.8 2.1 4.5
v 0.5 2.1 4.4
v 0.6 2.1 4.4
v 0.7 2.1 4.4
v 0.8 2.1 4.4
v 0.5 2.1 4.3
v 0.7 2.1 4.3
v 0.4 2.2 4.6
v 0.5 2.2 4.6
v 0.4 2.2 4.5
v 0.5 2.2 4.5
v 0.4 2.2 4.4
v 0.5 2.2 4.4
v 0.4 2.2 4.3
v 0.5 2.2 4.3
v 0 2.3 5
v 0.1 2.3 5
v 0 2.3 4.9
v 0.1 2.3 4.9
v 0.2 2.3 4.9
v 0.1 2.3 4.8
v 0.2 2.3 4.8
v 0.3 2.3 4.8
v 0.2 2.3 4.7
v 0.3 2.3 4.7
v 0.4 2.3 4.7
v 0.3 2.3 4.6
v 0.4 2.3 4.6
v 0.3 2.3 4.3
v 0.4 2.3 4.3
v 0.2 2.3 4.2
v 0.3 2.3 4.2
v 0.4 2.3 4.2
v 0.1 2.3 4.1
v 0.2 2.3 4.1
v 0.3 2.3 4.1
v 0 2.3 4
v 0.1 2.3 4
v 0.2 2.3 4
v 0 2.3 3.9
v 0.1 2.3 3.9
v -0.2 2.4 5.2
v -0.1 2.4 5.2
v -0.2 2.4 5.1
v -0.1 2.4 5.1
v 0 2.4 5.1
v -0.1 2.4 5
v 0 2.4 5
v -0.1 2.4 3.9
v 0 2.4 3.9
v -0.2 2.4 3.8
v -0.1 2.4 3.8
v 0 2.4 3.8
v -0.2 2.4 3.7
v -0.1 2.4 3.7
v 0.6 2.5 4.6
v 0.8 2.5 4.6
v 0.5 2.5 4.5
v 0.6 2.5 4.5
v 0.5 2.5 4.4
v 0.6 2.5 4.4
v 0.6 2.5 4.3
v 0.8 2.5 4.3
v 0.5 2.8 4.7
v 0.6 2.8 4.7
v 0.5 2.8 4.6
v 0.6 2.8 4.6
v 0.5 2.8 4.5
v 0.6 2.8 4.5
v 0.5 2.8 4.4
v 0.6 2.8 4.4
v 0.5 2.8 4.3
v 0.6 2.8 4.3
v 0.5 2.8 4.2
v 0.6 2.8 4.2

# faces
f 5/2/1 2/2/1 1/2/1
f 6/2/1 2/2/1 5/2/1
f 7/2/1 4/2/1 3/2/1
f 8/2/1 4/2/1 7/2/1
f 9/1/1 6/1/1 5/1/1
f 10/1/1 6/1/1 9/1/1
f 11/1/1 8/1/1 7/1/1
f 12/1/1 8/1/1 11/1/1
f 17/2/1 14/2/1 13/2/1
f 18/2/1 16/2/1 15/2/1
f 19/2/1 14/2/1 17/2/1
f 20/2/1 14/2/1 19/2/1
f 21/2/1 18/2/1 15/2/1
f 22/2/1 18/2/1 21/2/1
f 23/1/1 20/1/1 19/1/1
f 24/1/1 20/1/1 23/1/1
f 25/1/1 22/1/1 21/1/1
f 26/1/1 22/1/1 25/1/1
f 31/2/1 28/2/1 27/2/1
f 32/2/1 30/2/1 29/2/1
f 33/2/1 28/2/1 31/2/1
f 34/2/1 28/2/1 33/2/1
f 35/2/1 32/2/1 29/2/1
f 36/2/1 32/2/1 35/2/1
f 37/1/1 34/1/1 33/1/1
f 38/1/1 34/1/1 37/1/1
f 39/1/1 36/1/1 35/1/1
f 40/1/1 36/1/1 39/1/1
f 45/2/1 42/2/1 41/2/1
f 46/2/1 44/2/1 43/2/1
f 47/2/1 42/2/1 45/2/1
f 48/2/1 42/2/1 47/2/1
f 49/2/1 46/2/1 43/2/1
f 50/2/1 46/2/1 49/2/1
f 51/1/1 48/1/1 47/1/1
f 52/1/1 48/1/1 51/1/1
f 53/1/1 50/1/1 49/1/1
f 54/1/1 50/1/1 53/1/1
f 59/2/1 56/2/1 55/2/1
f 60/2/1 58/2/1 57/2/1
f 61/2/1 56/2/1 59/2/1
f 62/2/1 56/2/1 61/2/1
f 63/2/1 60/2/1 57/2/1
f 64/2/1 60/2/1 63/2/1
f 65/1/1 62/1/1 61/1/1
f 66/1/1 62/1/1 65/1/1
f 67/1/1 64/1/1 63/1/1
f 68/1/1 64/1/1 67/1/1
f 73/2/1 70/2/1 69/2/1
f 74/2/1 72/2/1 71/2/1
f 75/2/1 70/2/1 73/2/1
f 76/2/1 70/2/1 75/2/1
f 77/2/1 74/2/1 71/2/1
f 78/2/1 74/2/1 77/2/1
f 79/1/1 76/1/1 75/1/1
f 80/1/1 76/1/1 79/1/1
f 81/1/1 78/1/1 77/1/1
f 82/1/1 78/1/1 81/1/1
f 87/1/1 84/1/1 83/1/1
f 88/1/1 84/1/1 87/1/1
f 89/1/1 86/1/1 85/1/1
f 90/1/1 86/1/1 89/1/1
f 95/1/1 92/1/1 91/1/1
f 96/1/1 92/1/1 95/1/1
f 97/1/1 94/1/1 93/1/1
f 98/1/1 94/1/1 97/1/1
f 99/1/1 97/1/1 96/1/1
f 100/1/1 97/1/1 99/1/1
f 106/1/1 103/1/1 102/1/1
f 106/1/1 104/1/1 103/1/1
f 106/1/1 102/1/1 101/1/1
f 107/1/1 104/1/1 106/1/1
f 109/1/1 107/1/1 106/1/1
f 109/1/1 108/1/1 107/1/1
f 109/1/1 106/1/1 105/1/1
f 110/1/1 108/1/1 109/1/1
f 111/1/1 108/1/1 110/1/1
f 112/1/1 108/1/1 111/1/1
f 113/1/1 108/1/1 112/1/1
f 114/1/1 108/1/1 113/1/1
f 115/2/1 110/2/1 109/2/1
f 116/1/1 111/1/1 110/1/1
f 116/2/1 110/2/1 115/2/1
f 117/1/1 111/1/1 116/1/1
f 118/1/1 113/1/1 112/1/1
f 119/2/1 114/2/1 113/2/1
f 119/1/1 113/1/1 118/1/1
f 120/2/1 114/2/1 119/2/1
f 123/1/1 122/1/1 121/1/1
f 124/1/1 122/1/1 123/1/1
f 125/1/1 124/1/1 123/1/1
f 126/1/1 124/1/1 125/1/1
f 129/1/1 128/1/1 127/1/1
f 130/1/1 128/1/1 129/1/1
f 131/2/2 132/2/2 135/2/2
f 135/2/2 132/2/2 136/2/2
f 133/2/2 134/2/2 137/2/2
f 137/2/2 134/2/2 138/2/2
f 135/1/2 136/1/2 139/1/2
f 139/1/2 136/1/2 140/1/2
f 137/1/2 138/1/2 141/1/2
f 141/1/2 138/1/2 142/1/2
f 143/2/2 144/2/2 147/2/2
f 145/2/2 146/2/2 148/2/2
f 143/2/2 147/2/2 149/2/2
f 149/2/2 147/2/2 150/2/2
f 148/2/2 146/2/2 151/2/2
f 151/2/2 146/2/2 152/2/2
f 149/1/2 150/1/2 153/1/2
f 153/1/2 150/1/2 154/1/2
f 151/1/2 152/1/2 155/1/2
f 155/1/2 152/1/2 156/1/2
f 157/2/2 158/2/2 161/2/2
f 161/2/2 158/2/2 162/2/2
f 159/2/2 160/2/2 163/2/2
f 163/2/2 160/2/2 164/2/2
f 161/1/2 162/1/2 165/1/2
f 165/1/2 162/1/2 166/1/2
f 163/1/2 164/1/2 167/1/2
f 167/1/2 164/1/2 168/1/2
f 169/2/2 170/2/2 173/2/2
f 173/2/2 170/2/2 174/2/2
f 171/2/2 172/2/2 175/2/2
f 175/2/2 172/2/2 176/2/2
f 173/1/2 174/1/2 177/1/2
f 177/1/2 174/1/2 178/1/2
f 175/1/2 176/1/2 179/1/2
f 179/1/2 176/1/2 180/1/2
f 181/2/2 182/2/2 185/2/2
f 185/2/2 182/2/2 186/2/2
f 183/2/2 184/2/2 187/2/2
f 187/2/2 184/2/2 188/2/2
f 185/1/2 186/1/2 189/1/2
f 189/1/2 186/1/2 190/1/2
f 187/1/2 188/1/2 191/1/2
f 191/1/2 188/1/2 192/1/2
f 193/2/2 194/2/2 197/2/2
f 197/2/2 194/2/2 198/2/2
f 195/2/2 196/2/2 199/2/2
f 199/2/2 196/2/2 200/2/2
f 197/1/2 198/1/2 201/1/2
f 201/1/2 198/1/2 202/1/2
f 199/1/2 200/1/2 203/1/2
f 203/1/2 200/1/2 204/1/2
f 205/1/2 206/1/2 209/1/2
f 209/1/2 206/1/2 210/1/2
f 207/1/2 208/1/2 211/1/2
f 211/1/2 208/1/2 212/1/2
f 213/1/2 214/1/2 217/1/2
f 217/1/2 214/1/2 218/1/2
f 215/1/2 216/1/2 221/1/2
f 221/1/2 216/1/2 222/1/2
f 217/2/2 218/2/2 223/2/2
f 218/1/2 219/1/2 224/1/2
f 223/2/2 218/2/2 224/2/2
f 224/1/2 219/1/2 225/1/2
f 220/1/2 221/1/2 226/1/2
f 221/2/2 222/2/2 227/2/2
f 226/1/2 221/1/2 227/1/2
f 227/2/2 222/2/2 228/2/2
f 229/1/2 230/1/2 232/1/2
f 232/1/2 230/1/2 233/1/2
f 231/1/2 232/1/2 235/1/2
f 235/1/2 232/1/2 236/1/2
f 233/1/2 234/1/2 237/1/2
f 237/1/2 234/1/2 238/1/2
f 239/1/2 240/1/2 243/1/2
f 243/1/2 240/1/2 244/1/2
f 241/1/2 242/1/2 245/1/2
f 245/1/2 242/1/2 246/1/2
f 244/1/2 245/1/2 247/1/2
f 247/1/2 245/1/2 248/1/2
f 249/1/2 250/1/2 252/1/2
f 252/1/2 250/1/2 253/1/2
f 251/1/2 252/1/2 255/1/2
f 252/2/2 253/2/2 256/2/2
f 255/1/2 252/1/2 256/1/2
f 253/1/2 254/1/2 257/1/2
f 256/2/2 253/2/2 257/2/2
f 257/1/2 254/1/2 258/1/2
f 256/1/2 257/1/2 259/1/2
f 259/1/2 257/1/2 260/1/2
f 261/1/2 262/1/2 263/1/2
f 263/1/2 262/1/2 264/1/2
f 264/1/2 262/1/2 265/1/2
f 265/1/2 262/1/2 266/1/2
f 263/3/2 264/3/2 267/3/2
f 264/1/2 265/1/2 268/1/2
f 267/3/2 264/3/2 268/3/2
f 265/3/2 266/3/2 269/3/2
f 268/1/2 265/1/2 269/1/2
f 269/3/2 266/3/2 270/3/2
f 267/1/2 268/1/2 271/1/2
f 268/1/2 269/1/2 271/1/2
f 269/1/2 270/1/2 271/1/2
f 271/1/2 270/1/2 272/1/2
f 276/2/3 274/2/3 273/2/3
f 277/1/3 275/1/3 274/1/3
f 277/2/3 274/2/3 276/2/3
f 278/1/3 275/1/3 277/1/3
f 283/2/3 280/2/3 279/2/3
f 283/2/3 281/2/3 280/2/3
f 284/1/3 282/1/3 281/1/3
f 284/2/3 281/2/3 283/2/3
f 285/1/3 282/1/3 284/1/3
f 290/2/3 287/2/3 286/2/3
f 290/2/3 288/2/3 287/2/3
f 291/1/3 289/1/3 288/1/3
f 291/2/3 288/2/3 290/2/3
f 292/1/3 289/1/3 291/1/3
f 297/2/3 294/2/3 293/2/3
f 297/2/3 295/2/3 294/2/3
f 298/1/3 296/1/3 295/1/3
f 298/2/3 295/2/3 297/2/3
f 299/1/3 296/1/3 298/1/3
f 304/2/3 301/2/3 300/2/3
f 304/2/3 302/2/3 301/2/3
f 305/1/3 303/1/3 302/1/3
f 305/2/3 302/2/3 304/2/3
f 306/1/3 303/1/3 305/1/3
f 311/2/3 308/2/3 307/2/3
f 311/2/3 309/2/3 308/2/3
f 312/1/3 310/1/3 309/1/3
f 312/2/3 309/2/3 311/2/3
f 313/1/3 310/1/3 312/1/3
f 317/1/3 315/1/3 314/1/3
f 318/2/3 316/2/3 315/2/3
f 318/1/3 315/1/3 317/1/3
f 319/2/3 316/2/3 318/2/3
f 323/1/3 321/1/3 320/1/3
f 324/1/3 321/1/3 323/1/3
f 325/1/3 321/1/3 324/1/3
f 327/1/3 326/1/3 325/1/3
f 329/1/3 323/1/3 322/1/3
f 329/1/3 324/1/3 323/1/3
f 330/1/3 324/1/3 329/1/3
f 331/1/3 324/1/3 330/1/3
f 332/1/3 324/1/3 331/1/3
f 333/1/3 328/1/3 327/1/3
f 333/1/3 327/1/3 325/1/3
f 334/1/3 328/1/3 333/1/3
f 335/1/3 331/1/3 330/1/3
f 336/1/3 331/1/3 335/1/3
f 337/1/3 333/1/3 325/1/3
f 338/3/3 334/3/3 333/3/3
f 338/1/3 333/1/3 337/1/3
f 339/1/3 328/1/3 334/1/3
f 339/3/3 334/3/3 338/3/3
f 340/1/3 328/1/3 339/1/3
f 345/1/3 342/1/3 341/1/3
f 346/1/3 342/1/3 345/1/3
f 349/1/3 344/1/3 343/1/3
f 350/1/3 344/1/3 349/1/3
f 351/1/3 347/1/3 346/1/3
f 352/1/3 347/1/3 351/1/3
f 353/1/3 349/1/3 348/1/3
f 354/1/3 349/1/3 353/1/3
f 358/1/3 356/1/3 355/1/3
f 359/1/3 356/1/3 358/1/3
f 360/1/3 356/1/3 359/1/3
f 363/1/3 358/1/3 357/1/3
f 364/1/3 358/1/3 363/1/3
f 365/1/3 362/1/3 361/1/3
f 366/1/3 362/1/3 365/1/3
f 370/2/3 368/2/3 367/2/3
f 371/1/3 369/1/3 368/1/3
f 371/2/3 368/2/3 370/2/3
f 372/1/3 369/1/3 371/1/3
f 376/2/3 374/2/3 373/2/3
f 377/1/3 375/1/3 374/1/3
f 377/2/3 374/2/3 376/2/3
f 378/1/3 375/1/3 377/1/3
f 382/2/3 380/2/3 379/2/3
f 383/1/3 381/1/3 380/1/3
f 383/2/3 380/2/3 382/2/3
f 384/1/3 381/1/3 383/1/3
f 388/2/3 386/2/3 385/2/3
f 389/1/3 387/1/3 386/1/3
f 389/2/3 386/2/3 388/2/3
f 390/1/3 387/1/3 389/1/3
f 394/2/3 392/2/3 391/2/3
f 395/2/3 392/2/3 394/2/3
f 396/1/3 393/1/3 392/1/3
f 396/2/3 392/2/3 395/2/3
f 397/1/3 393/1/3 396/1/3
f 401/2/3 399/2/3 398/2/3
f 402/1/3 400/1/3 399/1/3
f 402/2/3 399/2/3 401/2/3
f 403/1/3 400/1/3 402/1/3
f 404/2/4 405/2/4 407/2/4
f 405/1/4 406/1/4 408/1/4
f 407/2/4 405/2/4 408/2/4
f 408/1/4 406/1/4 409/1/4
f 410/2/4 411/2/4 413/2/4
f 413/2/4 411/2/4 414/2/4
f 411/1/4 412/1/4 415/1/4
f 414/2/4 411/2/4 415/2/4
f 415/1/4 412/1/4 416/1/4
f 417/2/4 418/2/4 420/2/4
f 418/1/4 419/1/4 421/1/4
f 420/2/4 418/2/4 421/2/4
f 421/1/4 419/1/4 422/1/4
f 423/2/4 424/2/4 426/2/4
f 424/1/4 425/1/4 427/1/4
f 426/2/4 424/2/4 427/2/4
f 427/1/4 425/1/4 428/1/4
f 429/2/4 430/2/4 432/2/4
f 430/1/4 431/1/4 433/1/4
f 432/2/4 430/2/4 433/2/4
f 433/1/4 431/1/4 434/1/4
f 435/2/4 436/2/4 438/2/4
f 436/1/4 437/1/4 439/1/4
f 438/2/4 436/2/4 439/2/4
f 439/1/4 437/1/4 440/1/4
f 441/1/4 442/1/4 444/1/4
f 444/1/4 442/1/4 445/1/4
f 445/1/4 442/1/4 446/1/4
f 443/1/4 444/1/4 449/1/4
f 449/1/4 444/1/4 450/1/4
f 447/1/4 448/1/4 451/1/4
f 451/1/4 448/1/4 452/1/4
f 453/1/4 454/1/4 457/1/4
f 457/1/4 454/1/4 458/1/4
f 455/1/4 456/1/4 461/1/4
f 461/1/4 456/1/4 462/1/4
f 458/1/4 459/1/4 463/1/4
f 463/1/4 459/1/4 464/1/4
f 460/1/4 461/1/4 465/1/4
f 465/1/4 461/1/4 466/1/4
f 467/1/4 468/1/4 470/1/4
f 470/1/4 468/1/4 471/1/4
f 471/1/4 468/1/4 472/1/4
f 472/1/4 473/1/4 474/1/4
f 469/1/4 470/1/4 476/1/4
f 470/1/4 471/1/4 476/1/4
f 476/1/4 471/1/4 477/1/4
f 477/1/4 471/1/4 478/1/4
f 478/1/4 471/1/4 479/1/4
f 474/1/4 475/1/4 480/1/4
f 472/1/4 474/1/4 480/1/4
f 480/1/4 475/1/4 481/1/4
f 477/1/4 478/1/4 482/1/4
f 482/1/4 478/1/4 483/1/4
f 472/1/4 480/1/4 484/1/4
f 480/3/4 481/3/4 485/3/4
f 484/1/4 480/1/4 485/1/4
f 481/1/4 475/1/4 486/1/4
f 485/3/4 481/3/4 486/3/4
f 486/1/4 475/1/4 487/1/4
f 488/2/4 489/2/4 492/2/4
f 489/2/4 490/2/4 492/2/4
f 490/1/4 491/1/4 493/1/4
f 492/2/4 490/2/4 493/2/4
f 493/1/4 491/1/4 494/1/4
f 495/1/4 496/1/4 498/1/4
f 496/2/4 497/2/4 499/2/4
f 498/1/4 496/1/4 499/1/4
f 499/2/4 497/2/4 500/2/4
f 501/2/4 502/2/4 505/2/4
f 502/2/4 503/2/4 505/2/4
f 503/1/4 504/1/4 506/1/4
f 505/2/4 503/2/4 506/2/4
f 506/1/4 504/1/4 507/1/4
f 508/2/4 509/2/4 512/2/4
f 509/2/4 510/2/4 512/2/4
f 510/1/4 511/1/4 513/1/4
f 512/2/4 510/2/4 513/2/4
f 513/1/4 511/1/4 514/1/4
f 515/2/4 516/2/4 519/2/4
f 516/2/4 517/2/4 519/2/4
f 517/1/4 518/1/4 520/1/4
f 519/2/4 517/2/4 520/2/4
f 520/1/4 518/1/4 521/1/4
f 522/2/4 523/2/4 526/2/4
f 523/2/4 524/2/4 526/2/4
f 524/1/4 525/1/4 527/1/4
f 526/2/4 524/2/4 527/2/4
f 527/1/4 525/1/4 528/1/4
f 529/2/4 530/2/4 532/2/4
f 530/1/4 531/1/4 533/1/4
f 532/2/4 530/2/4 533/2/4
f 533/1/4 531/1/4 534/1/4
f 537/1/5 536/1/5 535/1/5
f 538/1/5 536/1/5 537/1/5
f 541/1/5 540/1/5 539/1/5
f 542/1/5 540/1/5 541/1/5
f 543/1/5 540/1/5 542/1/5
f 547/1/5 544/1/5 543/1/5
f 548/1/5 544/1/5 547/1/5
f 549/1/5 546/1/5 545/1/5
f 549/1/5 547/1/5 546/1/5
f 550/1/5 547/1/5 549/1/5
f 553/2/5 552/2/5 551/2/5
f 554/2/5 552/2/5 553/2/5
f 558/1/5 555/1/5 554/1/5
f 559/1/5 555/1/5 558/1/5
f 561/1/5 557/1/5 556/1/5
f 562/1/5 557/1/5 561/1/5
f 564/1/5 560/1/5 559/1/5
f 565/1/5 560/1/5 564/1/5
f 569/1/5 564/1/5 563/1/5
f 570/1/5 564/1/5 569/1/5
f 571/1/5 567/1/5 566/1/5
f 572/1/5 567/1/5 571/1/5
f 573/2/5 569/2/5 568/2/5
f 574/2/5 569/2/5 573/2/5
f 577/2/5 576/2/5 575/2/5
f 578/2/5 576/2/5 577/2/5
f 581/2/5 580/2/5 579/2/5
f 582/2/5 580/2/5 581/2/5
f 585/2/5 584/2/5 583/2/5
f 586/2/5 584/2/5 585/2/5
f 589/2/5 588/2/5 587/2/5
f 590/2/5 588/2/5 589/2/5
f 593/2/5 592/2/5 591/2/5
f 594/2/5 592/2/5 593/2/5
f 597/2/5 596/2/5 595/2/5
f 598/2/5 596/2/5 597/2/5
f 601/2/5 600/2/5 599/2/5
f 602/2/5 600/2/5 601/2/5
f 605/2/5 604/2/5 603/2/5
f 606/2/5 604/2/5 605/2/5
f 609/2/5 608/2/5 607/2/5
f 610/2/5 608/2/5 609/2/5
f 613/1/5 612/1/5 611/1/5
f 614/1/5 612/1/5 613/1/5
f 615/1/5 612/1/5 614/1/5
f 616/1/5 614/1/5 613/1/5
f 617/1/5 614/1/5 616/1/5
f 618/1/5 612/1/5 615/1/5
f 619/1/5 617/1/5 616/1/5
f 619/1/5 618/1/5 617/1/5
f 620/1/5 612/1/5 618/1/5
f 620/1/5 618/1/5 619/1/5
f 623/2/5 622/2/5 621/2/5
f 624/2/5 622/2/5 623/2/5
f 627/1/5 626/1/5 625/1/5
f 628/1/5 626/1/5 627/1/5
f 631/1/5 630/1/5 629/1/5
f 632/1/5 630/1/5 631/1/5
f 633/1/6 634/1/6 635/1/6
f 635/1/6 634/1/6 636/1/6
f 637/1/6 638/1/6 639/1/6
f 639/1/6 638/1/6 640/1/6
f 641/1/6 642/1/6 643/1/6
f 643/1/6 642/1/6 644/1/6
f 644/1/6 642/1/6 645/1/6
f 643/1/6 644/1/6 647/1/6
f 647/1/6 644/1/6 648/1/6
f 645/1/6 646/1/6 649/1/6
f 649/1/6 646/1/6 650/1/6
f 647/1/6 648/1/6 651/1/6
f 648/1/6 649/1/6 651/1/6
f 651/1/6 649/1/6 652/1/6
f 653/1/6 654/1/6 655/1/6
f 655/1/6 654/1/6 656/1/6
f 657/1/6 658/1/6 659/1/6
f 659/1/6 658/1/6 660/1/6
f 661/1/6 662/1/6 663/1/6
f 663/1/6 662/1/6 664/1/6
f 664/1/6 665/1/6 666/1/6
f 666/1/6 665/1/6 667/1/6
f 667/1/6 668/1/6 669/1/6
f 669/1/6 668/1/6 670/1/6
f 670/1/6 671/1/6 672/1/6
f 672/1/6 671/1/6 673/1/6
f 674/1/6 675/1/6 677/1/6
f 677/1/6 675/1/6 678/1/6
f 676/1/6 677/1/6 680/1/6
f 680/1/6 677/1/6 681/1/6
f 679/1/6 680/1/6 683/1/6
f 683/1/6 680/1/6 684/1/6
f 682/1/6 683/1/6 685/1/6
f 685/1/6 683/1/6 686/1/6
f 687/1/6 688/1/6 689/1/6
f 689/1/6 688/1/6 690/1/6
f 690/1/6 691/1/6 692/1/6
f 692/1/6 691/1/6 693/1/6
f 694/1/6 695/1/6 697/1/6
f 697/1/6 695/1/6 698/1/6
f 696/1/6 697/1/6 699/1/6
f 699/1/6 697/1/6 700/1/6
f 701/1/6 702/1/6 704/1/6
f 703/1/6 704/1/6 705/1/6
f 704/1/6 702/1/6 706/1/6
f 705/1/6 704/1/6 706/1/6
f 706/1/6 702/1/6 707/1/6
f 707/1/6 702/1/6 708/1/6
f 709/2/6 710/2/6 711/2/6
f 711/2/6 710/2/6 712/2/6
f 711/1/6 712/1/6 713/1/6
f 713/1/6 712/1/6 714/1/6
f 715/1/6 716/1/6 717/1/6
f 717/1/6 716/1/6 718/1/6
f 717/2/6 718/2/6 719/2/6
f 719/2/6 718/2/6 720/2/6
