# MagicaVoxel @ Ephtracy

# group
o 

# material
mtllib lvl2-21.mtl
usemtl palette

# normals
vn -1 0 0
vn 1 0 0
vn 0 0 -1
vn 0 0 1
vn 0 1 0
vn 0 -1 0

# texcoords
vt 0.408203 0.5
vt 0.412109 0.5
vt 0.458984 0.5

# verts
v 2.9 12 -5.3
v 2.9 12 -5.2
v 2.9 12 -5
v 2.9 11.9 -5.3
v 2.9 11.9 -5.2
v 2.9 11.8 -5.3
v 2.9 11.8 -5
v 3 12.2 -5.3
v 3 12.2 -5
v 3 12.1 -5.1
v 3 12.1 -5
v 3 12 -5.4
v 3 12 -5.3
v 3 12 -5.2
v 3 12 -5.1
v 3 12 -5
v 3 12 -4.9
v 3 11.9 -5.4
v 3 11.9 -5.3
v 3 11.8 -5.4
v 3 11.8 -5.3
v 3 11.8 -5.2
v 3 11.8 -5
v 3 11.8 -4.9
v 3 11.7 -5.3
v 3 11.7 -5.2
v 3 11.6 -5.1
v 3 11.6 -5
v 3 11.5 -5.3
v 3 11.5 -5.1
v 3 11.5 -5
v 3.1 12.3 -5.3
v 3.1 12.3 -5.2
v 3.1 12.3 -5.1
v 3.1 12.3 -5
v 3.1 12.2 -5.4
v 3.1 12.2 -5.3
v 3.1 12.2 -5.2
v 3.1 12.2 -5.1
v 3.1 12.2 -5
v 3.1 12.2 -4.9
v 3.1 12.1 -5
v 3.1 12 -5.5
v 3.1 12 -5.4
v 3.1 12 -5.3
v 3.1 12 -5
v 3.1 12 -4.9
v 3.1 12 -4.8
v 3.1 11.9 -5.5
v 3.1 11.9 -5.4
v 3.1 11.8 -5.5
v 3.1 11.8 -5.4
v 3.1 11.8 -5.3
v 3.1 11.8 -5
v 3.1 11.8 -4.9
v 3.1 11.8 -4.8
v 3.1 11.7 -5.4
v 3.1 11.7 -5.3
v 3.1 11.7 -5
v 3.1 11.7 -4.9
v 3.1 11.6 -5
v 3.1 11.5 -5.4
v 3.1 11.5 -5.3
v 3.1 11.5 -5.2
v 3.1 11.5 -5.1
v 3.1 11.5 -5
v 3.1 11.5 -4.9
v 3.1 11.4 -5.3
v 3.1 11.4 -5.2
v 3.1 11.3 -5.1
v 3.1 11.3 -5
v 3.1 11.2 -5.3
v 3.1 11.2 -5.1
v 3.1 11.2 -5
v 3.2 12.4 -5.2
v 3.2 12.4 -5.1
v 3.2 12.3 -5.2
v 3.2 12.3 -5.1
v 3.2 11.2 -5.2
v 3.2 11.2 -5.1
v 3.2 11.1 -5.2
v 3.2 11.1 -5.1
v 3.2 11 -5.2
v 3.2 11 -5.1
v 3.3 12.4 -5.2
v 3.3 12.4 -5.1
v 3.3 12.3 -5.2
v 3.3 12.3 -5.1
v 3.3 11.2 -5.2
v 3.3 11.2 -5.1
v 3.3 11.1 -5.2
v 3.3 11.1 -5.1
v 3.3 11 -5.2
v 3.3 11 -5.1
v 3.4 12.3 -5.3
v 3.4 12.3 -5.1
v 3.4 12.3 -5
v 3.4 12.2 -5.4
v 3.4 12.2 -5.3
v 3.4 12.2 -5.1
v 3.4 12.2 -5
v 3.4 12.2 -4.9
v 3.4 12.1 -5.4
v 3.4 12.1 -5.3
v 3.4 12.1 -5
v 3.4 12.1 -4.9
v 3.4 12 -5.5
v 3.4 12 -5.4
v 3.4 12 -5.3
v 3.4 12 -5
v 3.4 12 -4.9
v 3.4 12 -4.8
v 3.4 11.9 -5.5
v 3.4 11.9 -5.4
v 3.4 11.9 -4.9
v 3.4 11.9 -4.8
v 3.4 11.8 -5.5
v 3.4 11.8 -5.4
v 3.4 11.8 -5.3
v 3.4 11.8 -5
v 3.4 11.8 -4.9
v 3.4 11.8 -4.8
v 3.4 11.7 -5.4
v 3.4 11.7 -5.3
v 3.4 11.6 -5
v 3.4 11.6 -4.9
v 3.4 11.5 -5.4
v 3.4 11.5 -5.3
v 3.4 11.5 -5
v 3.4 11.5 -4.9
v 3.4 11.4 -5.2
v 3.4 11.4 -5.1
v 3.4 11.4 -5
v 3.4 11.2 -5.3
v 3.4 11.2 -5.2
v 3.4 11.2 -5.1
v 3.4 11.2 -5
v 3.5 12.2 -5.3
v 3.5 12.2 -5
v 3.5 12.1 -5.3
v 3.5 12.1 -5.2
v 3.5 12 -5.4
v 3.5 12 -5.3
v 3.5 12 -5.2
v 3.5 12 -5.1
v 3.5 12 -5
v 3.5 12 -4.9
v 3.5 11.9 -5.3
v 3.5 11.8 -5.4
v 3.5 11.8 -5.3
v 3.5 11.8 -5.2
v 3.5 11.8 -5.1
v 3.5 11.8 -5
v 3.5 11.8 -4.9
v 3.5 11.7 -5.3
v 3.5 11.7 -5.2
v 3.5 11.7 -5.1
v 3.5 11.6 -5.2
v 3.5 11.6 -5.1
v 3.5 11.5 -5.3
v 3.5 11.5 -5
v 3.6 12 -5.3
v 3.6 12 -5.1
v 3.6 12 -5
v 3.6 11.9 -5.3
v 3.6 11.9 -5.2
v 3.6 11.9 -5.1
v 3.6 11.8 -5.3
v 3.6 11.8 -5.2
v 3.6 11.8 -5.1
v 3.6 11.8 -5
v 3.1 12 -5.5
v 3.1 11.9 -5.5
v 3.1 11.8 -5.5
v 3.2 11.9 -5.5
v 3.2 11.8 -5.5
v 3.3 11.9 -5.5
v 3.3 11.8 -5.5
v 3.4 12 -5.5
v 3.4 11.9 -5.5
v 3.4 11.8 -5.5
v 3 12 -5.4
v 3 11.9 -5.4
v 3 11.8 -5.4
v 3.1 12.2 -5.4
v 3.1 12 -5.4
v 3.1 11.9 -5.4
v 3.1 11.8 -5.4
v 3.1 11.7 -5.4
v 3.1 11.5 -5.4
v 3.2 12.2 -5.4
v 3.2 12.1 -5.4
v 3.2 11.8 -5.4
v 3.2 11.7 -5.4
v 3.3 12.2 -5.4
v 3.3 12.1 -5.4
v 3.3 11.8 -5.4
v 3.3 11.7 -5.4
v 3.3 11.5 -5.4
v 3.4 12.2 -5.4
v 3.4 12.1 -5.4
v 3.4 12 -5.4
v 3.4 11.9 -5.4
v 3.4 11.8 -5.4
v 3.4 11.7 -5.4
v 3.4 11.5 -5.4
v 3.5 12 -5.4
v 3.5 11.8 -5.4
v 2.9 12 -5.3
v 2.9 11.9 -5.3
v 2.9 11.8 -5.3
v 3 12.2 -5.3
v 3 12 -5.3
v 3 11.9 -5.3
v 3 11.8 -5.3
v 3 11.7 -5.3
v 3 11.5 -5.3
v 3.1 12.3 -5.3
v 3.1 12.2 -5.3
v 3.1 12 -5.3
v 3.1 11.8 -5.3
v 3.1 11.7 -5.3
v 3.1 11.5 -5.3
v 3.1 11.4 -5.3
v 3.1 11.2 -5.3
v 3.2 12.3 -5.3
v 3.2 12.2 -5.3
v 3.2 11.4 -5.3
v 3.2 11.3 -5.3
v 3.3 12.3 -5.3
v 3.3 12.2 -5.3
v 3.3 11.5 -5.3
v 3.3 11.3 -5.3
v 3.4 12.3 -5.3
v 3.4 12.2 -5.3
v 3.4 12.1 -5.3
v 3.4 12 -5.3
v 3.4 11.8 -5.3
v 3.4 11.7 -5.3
v 3.4 11.5 -5.3
v 3.4 11.2 -5.3
v 3.5 12.2 -5.3
v 3.5 12.1 -5.3
v 3.5 12 -5.3
v 3.5 11.9 -5.3
v 3.5 11.8 -5.3
v 3.5 11.7 -5.3
v 3.5 11.5 -5.3
v 3.6 12 -5.3
v 3.6 11.9 -5.3
v 3.6 11.8 -5.3
v 3.2 12.4 -5.2
v 3.2 12.3 -5.2
v 3.2 11.2 -5.2
v 3.2 11.1 -5.2
v 3.2 11 -5.2
v 3.3 12.4 -5.2
v 3.3 12.3 -5.2
v 3.3 11.2 -5.2
v 3.3 11.1 -5.2
v 3.3 11 -5.2
v 3.2 12.4 -5.1
v 3.2 12.3 -5.1
v 3.2 11.2 -5.1
v 3.2 11.1 -5.1
v 3.2 11 -5.1
v 3.3 12.4 -5.1
v 3.3 12.3 -5.1
v 3.3 11.2 -5.1
v 3.3 11.1 -5.1
v 3.3 11 -5.1
v 2.9 12 -5
v 2.9 11.8 -5
v 3 12.2 -5
v 3 12.1 -5
v 3 12 -5
v 3 11.8 -5
v 3 11.6 -5
v 3 11.5 -5
v 3.1 12.3 -5
v 3.1 12.2 -5
v 3.1 12.1 -5
v 3.1 12 -5
v 3.1 11.8 -5
v 3.1 11.7 -5
v 3.1 11.6 -5
v 3.1 11.5 -5
v 3.1 11.3 -5
v 3.1 11.2 -5
v 3.2 12.3 -5
v 3.2 12.2 -5
v 3.2 11.5 -5
v 3.2 11.3 -5
v 3.2 11.2 -5
v 3.3 12.2 -5
v 3.3 11.5 -5
v 3.3 11.4 -5
v 3.3 11.3 -5
v 3.4 12.3 -5
v 3.4 12.2 -5
v 3.4 12.1 -5
v 3.4 12 -5
v 3.4 11.8 -5
v 3.4 11.6 -5
v 3.4 11.5 -5
v 3.4 11.4 -5
v 3.4 11.2 -5
v 3.5 12.2 -5
v 3.5 12 -5
v 3.5 11.8 -5
v 3.5 11.5 -5
v 3.6 12 -5
v 3.6 11.8 -5
v 3 12 -4.9
v 3 11.8 -4.9
v 3.1 12.2 -4.9
v 3.1 12 -4.9
v 3.1 11.8 -4.9
v 3.1 11.7 -4.9
v 3.1 11.5 -4.9
v 3.2 12 -4.9
v 3.2 11.8 -4.9
v 3.2 11.7 -4.9
v 3.2 11.6 -4.9
v 3.2 11.5 -4.9
v 3.3 12.2 -4.9
v 3.3 12.1 -4.9
v 3.3 11.8 -4.9
v 3.3 11.6 -4.9
v 3.3 11.5 -4.9
v 3.4 12.2 -4.9
v 3.4 12.1 -4.9
v 3.4 12 -4.9
v 3.4 11.9 -4.9
v 3.4 11.8 -4.9
v 3.4 11.6 -4.9
v 3.4 11.5 -4.9
v 3.5 12 -4.9
v 3.5 11.8 -4.9
v 3.1 12 -4.8
v 3.1 11.8 -4.8
v 3.2 12 -4.8
v 3.2 11.9 -4.8
v 3.4 12 -4.8
v 3.4 11.9 -4.8
v 3.4 11.8 -4.8
v 3.2 12.4 -5.2
v 3.3 12.4 -5.2
v 3.2 12.4 -5.1
v 3.3 12.4 -5.1
v 3.1 12.3 -5.3
v 3.2 12.3 -5.3
v 3.3 12.3 -5.3
v 3.4 12.3 -5.3
v 3.1 12.3 -5.2
v 3.2 12.3 -5.2
v 3.3 12.3 -5.2
v 3.1 12.3 -5.1
v 3.2 12.3 -5.1
v 3.3 12.3 -5.1
v 3.4 12.3 -5.1
v 3.1 12.3 -5
v 3.2 12.3 -5
v 3.4 12.3 -5
v 3.1 12.2 -5.4
v 3.2 12.2 -5.4
v 3.3 12.2 -5.4
v 3.4 12.2 -5.4
v 3 12.2 -5.3
v 3.1 12.2 -5.3
v 3.2 12.2 -5.3
v 3.3 12.2 -5.3
v 3.4 12.2 -5.3
v 3.5 12.2 -5.3
v 3.1 12.2 -5.2
v 3.1 12.2 -5.1
v 3.4 12.2 -5.1
v 3 12.2 -5
v 3.1 12.2 -5
v 3.2 12.2 -5
v 3.3 12.2 -5
v 3.4 12.2 -5
v 3.5 12.2 -5
v 3.1 12.2 -4.9
v 3.3 12.2 -4.9
v 3.4 12.2 -4.9
v 3.1 12 -5.5
v 3.4 12 -5.5
v 3 12 -5.4
v 3.1 12 -5.4
v 3.4 12 -5.4
v 3.5 12 -5.4
v 2.9 12 -5.3
v 3 12 -5.3
v 3.1 12 -5.3
v 3.4 12 -5.3
v 3.5 12 -5.3
v 3.6 12 -5.3
v 2.9 12 -5.2
v 3 12 -5.2
v 3.5 12 -5.2
v 3 12 -5.1
v 3.5 12 -5.1
v 3.6 12 -5.1
v 2.9 12 -5
v 3 12 -5
v 3.1 12 -5
v 3.4 12 -5
v 3.5 12 -5
v 3.6 12 -5
v 3 12 -4.9
v 3.1 12 -4.9
v 3.2 12 -4.9
v 3.4 12 -4.9
v 3.5 12 -4.9
v 3.1 12 -4.8
v 3.2 12 -4.8
v 3.4 12 -4.8
v 3.1 11.8 -5.5
v 3.2 11.8 -5.5
v 3.3 11.8 -5.5
v 3.4 11.8 -5.5
v 3 11.8 -5.4
v 3.1 11.8 -5.4
v 3.2 11.8 -5.4
v 3.3 11.8 -5.4
v 3.4 11.8 -5.4
v 3.5 11.8 -5.4
v 2.9 11.8 -5.3
v 3 11.8 -5.3
v 3.1 11.8 -5.3
v 3.4 11.8 -5.3
v 3.5 11.8 -5.3
v 3.6 11.8 -5.3
v 3 11.8 -5.2
v 3.5 11.8 -5.2
v 3.6 11.8 -5.2
v 3.5 11.8 -5.1
v 3.6 11.8 -5.1
v 2.9 11.8 -5
v 3 11.8 -5
v 3.1 11.8 -5
v 3.4 11.8 -5
v 3.5 11.8 -5
v 3.6 11.8 -5
v 3 11.8 -4.9
v 3.1 11.8 -4.9
v 3.2 11.8 -4.9
v 3.3 11.8 -4.9
v 3.4 11.8 -4.9
v 3.5 11.8 -4.9
v 3.1 11.8 -4.8
v 3.4 11.8 -4.8
v 3.1 11.5 -5.4
v 3.3 11.5 -5.4
v 3.4 11.5 -5.4
v 3 11.5 -5.3
v 3.1 11.5 -5.3
v 3.3 11.5 -5.3
v 3.4 11.5 -5.3
v 3.5 11.5 -5.3
v 3.1 11.5 -5.2
v 3 11.5 -5.1
v 3.1 11.5 -5.1
v 3 11.5 -5
v 3.1 11.5 -5
v 3.2 11.5 -5
v 3.3 11.5 -5
v 3.4 11.5 -5
v 3.5 11.5 -5
v 3.1 11.5 -4.9
v 3.2 11.5 -4.9
v 3.3 11.5 -4.9
v 3.4 11.5 -4.9
v 3.1 11.2 -5.3
v 3.4 11.2 -5.3
v 3.2 11.2 -5.2
v 3.3 11.2 -5.2
v 3.4 11.2 -5.2
v 3.1 11.2 -5.1
v 3.2 11.2 -5.1
v 3.3 11.2 -5.1
v 3.4 11.2 -5.1
v 3.1 11.2 -5
v 3.2 11.2 -5
v 3.4 11.2 -5
v 3.2 11 -5.2
v 3.3 11 -5.2
v 3.2 11 -5.1
v 3.3 11 -5.1

# faces
f 4/1/1 2/1/1 1/1/1
f 5/3/1 3/3/1 2/3/1
f 5/1/1 2/1/1 4/1/1
f 6/3/1 5/3/1 4/3/1
f 7/3/1 3/3/1 5/3/1
f 7/3/1 5/3/1 6/3/1
f 10/3/1 9/3/1 8/3/1
f 11/3/1 9/3/1 10/3/1
f 13/3/1 10/3/1 8/3/1
f 14/3/1 10/3/1 13/3/1
f 15/2/1 11/2/1 10/2/1
f 15/3/1 10/3/1 14/3/1
f 16/2/1 11/2/1 15/2/1
f 18/1/1 13/1/1 12/1/1
f 19/1/1 13/1/1 18/1/1
f 20/3/1 19/3/1 18/3/1
f 21/3/1 19/3/1 20/3/1
f 23/3/1 17/3/1 16/3/1
f 24/3/1 17/3/1 23/3/1
f 25/2/1 22/2/1 21/2/1
f 26/3/1 23/3/1 22/3/1
f 26/2/1 22/2/1 25/2/1
f 27/3/1 26/3/1 25/3/1
f 27/3/1 23/3/1 26/3/1
f 28/3/1 23/3/1 27/3/1
f 29/3/1 27/3/1 25/3/1
f 30/2/1 28/2/1 27/2/1
f 30/3/1 27/3/1 29/3/1
f 31/2/1 28/2/1 30/2/1
f 37/2/1 33/2/1 32/2/1
f 38/3/1 34/3/1 33/3/1
f 38/2/1 33/2/1 37/2/1
f 39/1/1 35/1/1 34/1/1
f 39/3/1 34/3/1 38/3/1
f 40/1/1 35/1/1 39/1/1
f 42/3/1 41/3/1 40/3/1
f 44/3/1 37/3/1 36/3/1
f 45/3/1 37/3/1 44/3/1
f 46/3/1 41/3/1 42/3/1
f 47/3/1 41/3/1 46/3/1
f 49/3/1 44/3/1 43/3/1
f 50/3/1 44/3/1 49/3/1
f 51/1/1 50/1/1 49/1/1
f 52/1/1 50/1/1 51/1/1
f 55/1/1 48/1/1 47/1/1
f 56/1/1 48/1/1 55/1/1
f 57/1/1 53/1/1 52/1/1
f 58/1/1 53/1/1 57/1/1
f 59/1/1 55/1/1 54/1/1
f 60/1/1 55/1/1 59/1/1
f 61/3/1 60/3/1 59/3/1
f 62/3/1 58/3/1 57/3/1
f 63/3/1 58/3/1 62/3/1
f 66/3/1 60/3/1 61/3/1
f 67/3/1 60/3/1 66/3/1
f 68/1/1 64/1/1 63/1/1
f 69/3/1 65/3/1 64/3/1
f 69/1/1 64/1/1 68/1/1
f 69/3/1 66/3/1 65/3/1
f 70/3/1 69/3/1 68/3/1
f 70/3/1 66/3/1 69/3/1
f 71/3/1 66/3/1 70/3/1
f 72/3/1 70/3/1 68/3/1
f 73/2/1 71/2/1 70/2/1
f 73/3/1 70/3/1 72/3/1
f 74/2/1 71/2/1 73/2/1
f 77/3/1 76/3/1 75/3/1
f 78/3/1 76/3/1 77/3/1
f 81/1/1 80/1/1 79/1/1
f 82/1/1 80/1/1 81/1/1
f 83/3/1 82/3/1 81/3/1
f 84/3/1 82/3/1 83/3/1
f 85/3/2 86/3/2 87/3/2
f 87/3/2 86/3/2 88/3/2
f 89/1/2 90/1/2 91/1/2
f 91/1/2 90/1/2 92/1/2
f 91/3/2 92/3/2 93/3/2
f 93/3/2 92/3/2 94/3/2
f 95/1/2 96/1/2 99/1/2
f 96/3/2 97/3/2 100/3/2
f 99/1/2 96/1/2 100/1/2
f 100/3/2 97/3/2 101/3/2
f 98/2/2 99/2/2 103/2/2
f 103/2/2 99/2/2 104/2/2
f 101/2/2 102/2/2 105/2/2
f 105/2/2 102/2/2 106/2/2
f 103/3/2 104/3/2 108/3/2
f 108/3/2 104/3/2 109/3/2
f 105/3/2 106/3/2 110/3/2
f 110/3/2 106/3/2 111/3/2
f 107/3/2 108/3/2 113/3/2
f 113/3/2 108/3/2 114/3/2
f 111/3/2 112/3/2 115/3/2
f 115/3/2 112/3/2 116/3/2
f 113/1/2 114/1/2 117/1/2
f 117/1/2 114/1/2 118/1/2
f 115/1/2 116/1/2 121/1/2
f 121/1/2 116/1/2 122/1/2
f 118/1/2 119/1/2 123/1/2
f 123/1/2 119/1/2 124/1/2
f 120/1/2 121/1/2 125/1/2
f 125/1/2 121/1/2 126/1/2
f 123/2/2 124/2/2 127/2/2
f 127/2/2 124/2/2 128/2/2
f 125/3/2 126/3/2 129/3/2
f 129/3/2 126/3/2 130/3/2
f 128/3/2 129/3/2 131/3/2
f 131/3/2 129/3/2 132/3/2
f 132/3/2 129/3/2 133/3/2
f 128/3/2 131/3/2 134/3/2
f 131/2/2 132/2/2 135/2/2
f 134/3/2 131/3/2 135/3/2
f 132/1/2 133/1/2 136/1/2
f 135/2/2 132/2/2 136/2/2
f 136/1/2 133/1/2 137/1/2
f 138/3/2 139/3/2 140/3/2
f 140/3/2 139/3/2 141/3/2
f 140/1/2 141/1/2 143/1/2
f 141/3/2 139/3/2 144/3/2
f 143/1/2 141/1/2 144/1/2
f 144/3/2 139/3/2 145/3/2
f 145/3/2 139/3/2 146/3/2
f 142/3/2 143/3/2 148/3/2
f 142/3/2 148/3/2 149/3/2
f 149/3/2 148/3/2 150/3/2
f 146/3/2 147/3/2 153/3/2
f 153/3/2 147/3/2 154/3/2
f 150/1/2 151/1/2 155/1/2
f 151/2/2 152/2/2 156/2/2
f 155/1/2 151/1/2 156/1/2
f 152/3/2 153/3/2 157/3/2
f 156/2/2 152/2/2 157/2/2
f 155/3/2 156/3/2 158/3/2
f 156/1/2 157/1/2 158/1/2
f 157/3/2 153/3/2 159/3/2
f 158/1/2 157/1/2 159/1/2
f 155/3/2 158/3/2 160/3/2
f 158/3/2 159/3/2 160/3/2
f 159/3/2 153/3/2 161/3/2
f 160/3/2 159/3/2 161/3/2
f 162/3/2 163/3/2 165/3/2
f 165/3/2 163/3/2 166/3/2
f 163/1/2 164/1/2 167/1/2
f 166/3/2 163/3/2 167/3/2
f 165/1/2 166/1/2 168/1/2
f 166/2/2 167/2/2 169/2/2
f 168/1/2 166/1/2 169/1/2
f 167/1/2 164/1/2 170/1/2
f 169/2/2 167/2/2 170/2/2
f 170/1/2 164/1/2 171/1/2
f 175/3/3 173/3/3 172/3/3
f 175/1/3 174/1/3 173/1/3
f 176/1/3 174/1/3 175/1/3
f 177/3/3 175/3/3 172/3/3
f 177/3/3 176/3/3 175/3/3
f 178/3/3 176/3/3 177/3/3
f 179/3/3 177/3/3 172/3/3
f 180/1/3 178/1/3 177/1/3
f 180/3/3 177/3/3 179/3/3
f 181/1/3 178/1/3 180/1/3
f 186/1/3 183/1/3 182/1/3
f 187/3/3 184/3/3 183/3/3
f 187/1/3 183/1/3 186/1/3
f 188/3/3 184/3/3 187/3/3
f 191/3/3 186/3/3 185/3/3
f 192/3/3 186/3/3 191/3/3
f 193/1/3 189/1/3 188/1/3
f 194/3/3 190/3/3 189/3/3
f 194/1/3 189/1/3 193/1/3
f 195/1/3 192/1/3 191/1/3
f 196/3/3 186/3/3 192/3/3
f 196/1/3 192/1/3 195/1/3
f 197/3/3 194/3/3 193/3/3
f 198/3/3 190/3/3 194/3/3
f 198/3/3 194/3/3 197/3/3
f 199/3/3 190/3/3 198/3/3
f 200/2/3 196/2/3 195/2/3
f 201/3/3 186/3/3 196/3/3
f 201/2/3 196/2/3 200/2/3
f 202/3/3 186/3/3 201/3/3
f 204/1/3 198/1/3 197/1/3
f 205/2/3 199/2/3 198/2/3
f 205/1/3 198/1/3 204/1/3
f 206/2/3 199/2/3 205/2/3
f 207/3/3 203/3/3 202/3/3
f 207/3/3 204/3/3 203/3/3
f 208/3/3 204/3/3 207/3/3
f 213/1/3 210/1/3 209/1/3
f 214/3/3 211/3/3 210/3/3
f 214/1/3 210/1/3 213/1/3
f 215/3/3 211/3/3 214/3/3
f 219/3/3 213/3/3 212/3/3
f 220/3/3 213/3/3 219/3/3
f 221/2/3 216/2/3 215/2/3
f 222/3/3 217/3/3 216/3/3
f 222/2/3 216/2/3 221/2/3
f 223/3/3 217/3/3 222/3/3
f 226/2/3 219/2/3 218/2/3
f 227/2/3 219/2/3 226/2/3
f 228/3/3 225/3/3 224/3/3
f 228/1/3 224/1/3 223/1/3
f 229/3/3 225/3/3 228/3/3
f 230/3/3 227/3/3 226/3/3
f 231/3/3 227/3/3 230/3/3
f 232/1/3 228/1/3 223/1/3
f 232/1/3 229/1/3 228/1/3
f 233/3/3 225/3/3 229/3/3
f 233/1/3 229/1/3 232/1/3
f 234/1/3 231/1/3 230/1/3
f 235/1/3 231/1/3 234/1/3
f 240/3/3 233/3/3 232/3/3
f 241/3/3 225/3/3 233/3/3
f 241/3/3 233/3/3 240/3/3
f 242/3/3 236/3/3 235/3/3
f 243/1/3 237/1/3 236/1/3
f 243/3/3 236/3/3 242/3/3
f 244/1/3 237/1/3 243/1/3
f 246/1/3 239/1/3 238/1/3
f 247/3/3 240/3/3 239/3/3
f 247/1/3 239/1/3 246/1/3
f 248/3/3 240/3/3 247/3/3
f 249/3/3 245/3/3 244/3/3
f 250/1/3 246/1/3 245/1/3
f 250/3/3 245/3/3 249/3/3
f 251/1/3 246/1/3 250/1/3
f 257/3/3 253/3/3 252/3/3
f 258/3/3 253/3/3 257/3/3
f 259/1/3 255/1/3 254/1/3
f 260/3/3 256/3/3 255/3/3
f 260/1/3 255/1/3 259/1/3
f 261/3/3 256/3/3 260/3/3
f 262/3/4 263/3/4 267/3/4
f 267/3/4 263/3/4 268/3/4
f 264/1/4 265/1/4 269/1/4
f 265/3/4 266/3/4 270/3/4
f 269/1/4 265/1/4 270/1/4
f 270/3/4 266/3/4 271/3/4
f 272/3/4 273/3/4 276/3/4
f 276/3/4 273/3/4 277/3/4
f 274/3/4 275/3/4 281/3/4
f 275/2/4 276/2/4 282/2/4
f 281/3/4 275/3/4 282/3/4
f 282/2/4 276/2/4 283/2/4
f 277/3/4 278/3/4 284/3/4
f 284/3/4 278/3/4 285/3/4
f 278/2/4 279/2/4 286/2/4
f 285/3/4 278/3/4 286/3/4
f 286/2/4 279/2/4 287/2/4
f 280/1/4 281/1/4 290/1/4
f 290/1/4 281/1/4 291/1/4
f 287/3/4 288/3/4 292/3/4
f 288/2/4 289/2/4 293/2/4
f 292/3/4 288/3/4 293/3/4
f 293/2/4 289/2/4 294/2/4
f 290/3/4 291/3/4 295/3/4
f 292/3/4 293/3/4 296/3/4
f 296/3/4 293/3/4 297/3/4
f 293/1/4 294/1/4 298/1/4
f 297/3/4 293/3/4 298/3/4
f 290/3/4 295/3/4 299/3/4
f 299/3/4 295/3/4 300/3/4
f 296/3/4 297/3/4 305/3/4
f 297/1/4 298/1/4 306/1/4
f 305/3/4 297/3/4 306/3/4
f 298/1/4 294/1/4 307/1/4
f 306/1/4 298/1/4 307/1/4
f 300/3/4 301/3/4 308/3/4
f 301/3/4 302/3/4 308/3/4
f 308/3/4 302/3/4 309/3/4
f 303/3/4 304/3/4 310/3/4
f 304/3/4 305/3/4 310/3/4
f 310/3/4 305/3/4 311/3/4
f 309/1/4 310/1/4 312/1/4
f 312/1/4 310/1/4 313/1/4
f 314/3/4 315/3/4 317/3/4
f 317/3/4 315/3/4 318/3/4
f 316/3/4 317/3/4 321/3/4
f 318/1/4 319/1/4 322/1/4
f 319/3/4 320/3/4 323/3/4
f 322/1/4 319/1/4 323/1/4
f 323/3/4 320/3/4 324/3/4
f 324/3/4 320/3/4 325/3/4
f 316/3/4 321/3/4 326/3/4
f 326/3/4 321/3/4 327/3/4
f 322/3/4 323/3/4 328/3/4
f 323/3/4 324/3/4 328/3/4
f 324/2/4 325/2/4 329/2/4
f 328/3/4 324/3/4 329/3/4
f 329/2/4 325/2/4 330/2/4
f 326/2/4 327/2/4 331/2/4
f 327/3/4 321/3/4 332/3/4
f 331/2/4 327/2/4 332/2/4
f 332/3/4 321/3/4 333/3/4
f 328/1/4 329/1/4 335/1/4
f 329/3/4 330/3/4 336/3/4
f 335/1/4 329/1/4 336/1/4
f 336/3/4 330/3/4 337/3/4
f 333/3/4 334/3/4 338/3/4
f 334/3/4 335/3/4 338/3/4
f 338/3/4 335/3/4 339/3/4
f 340/1/4 341/1/4 342/1/4
f 342/1/4 341/1/4 343/1/4
f 342/3/4 343/3/4 344/3/4
f 343/1/4 341/1/4 345/1/4
f 344/3/4 343/3/4 345/3/4
f 345/1/4 341/1/4 346/1/4
f 349/3/5 348/3/5 347/3/5
f 350/3/5 348/3/5 349/3/5
f 355/2/5 352/2/5 351/2/5
f 356/3/5 353/3/5 352/3/5
f 356/2/5 352/2/5 355/2/5
f 357/1/5 354/1/5 353/1/5
f 357/3/5 353/3/5 356/3/5
f 358/3/5 356/3/5 355/3/5
f 359/3/5 356/3/5 358/3/5
f 360/1/5 354/1/5 357/1/5
f 361/1/5 354/1/5 360/1/5
f 362/1/5 359/1/5 358/1/5
f 363/3/5 360/3/5 359/3/5
f 363/1/5 359/1/5 362/1/5
f 363/3/5 361/3/5 360/3/5
f 364/3/5 361/3/5 363/3/5
f 370/3/5 366/3/5 365/3/5
f 371/1/5 367/1/5 366/1/5
f 371/3/5 366/3/5 370/3/5
f 372/2/5 368/2/5 367/2/5
f 372/1/5 367/1/5 371/1/5
f 373/2/5 368/2/5 372/2/5
f 375/3/5 370/3/5 369/3/5
f 376/3/5 375/3/5 369/3/5
f 377/3/5 374/3/5 373/3/5
f 378/3/5 376/3/5 369/3/5
f 379/3/5 376/3/5 378/3/5
f 382/3/5 374/3/5 377/3/5
f 383/3/5 374/3/5 382/3/5
f 384/3/5 381/3/5 380/3/5
f 384/3/5 380/3/5 379/3/5
f 385/2/5 382/2/5 381/2/5
f 385/3/5 381/3/5 384/3/5
f 386/2/5 382/2/5 385/2/5
f 390/3/5 388/3/5 387/3/5
f 391/3/5 388/3/5 390/3/5
f 394/1/5 390/1/5 389/1/5
f 395/1/5 390/1/5 394/1/5
f 396/3/5 392/3/5 391/3/5
f 397/3/5 392/3/5 396/3/5
f 399/1/5 394/1/5 393/1/5
f 400/1/5 394/1/5 399/1/5
f 401/3/5 398/3/5 397/3/5
f 402/3/5 400/3/5 399/3/5
f 403/3/5 398/3/5 401/3/5
f 404/3/5 398/3/5 403/3/5
f 405/3/5 402/3/5 399/3/5
f 406/3/5 402/3/5 405/3/5
f 409/1/5 404/1/5 403/1/5
f 410/1/5 404/1/5 409/1/5
f 411/3/5 407/3/5 406/3/5
f 412/3/5 407/3/5 411/3/5
f 414/3/5 409/3/5 408/3/5
f 415/3/5 409/3/5 414/3/5
f 416/1/5 413/1/5 412/1/5
f 417/3/5 414/3/5 413/3/5
f 417/1/5 413/1/5 416/1/5
f 418/3/5 414/3/5 417/3/5
f 419/1/6 420/1/6 424/1/6
f 420/3/6 421/3/6 425/3/6
f 424/1/6 420/1/6 425/1/6
f 421/1/6 422/1/6 426/1/6
f 425/3/6 421/3/6 426/3/6
f 426/1/6 422/1/6 427/1/6
f 423/3/6 424/3/6 430/3/6
f 430/3/6 424/3/6 431/3/6
f 427/3/6 428/3/6 432/3/6
f 432/3/6 428/3/6 433/3/6
f 429/3/6 430/3/6 435/3/6
f 433/1/6 434/1/6 436/1/6
f 436/1/6 434/1/6 437/1/6
f 436/2/6 437/2/6 438/2/6
f 438/2/6 437/2/6 439/2/6
f 429/3/6 435/3/6 440/3/6
f 440/3/6 435/3/6 441/3/6
f 438/1/6 439/1/6 444/1/6
f 444/1/6 439/1/6 445/1/6
f 441/3/6 442/3/6 446/3/6
f 446/3/6 442/3/6 447/3/6
f 443/3/6 444/3/6 450/3/6
f 450/3/6 444/3/6 451/3/6
f 448/1/6 449/1/6 452/1/6
f 449/1/6 450/1/6 452/1/6
f 447/1/6 448/1/6 452/1/6
f 452/1/6 450/1/6 453/1/6
f 454/3/6 455/3/6 458/3/6
f 455/2/6 456/2/6 459/2/6
f 458/3/6 455/3/6 459/3/6
f 459/2/6 456/2/6 460/2/6
f 457/3/6 458/3/6 462/3/6
f 457/3/6 462/3/6 463/3/6
f 463/3/6 462/3/6 464/3/6
f 463/2/6 464/2/6 465/2/6
f 465/2/6 464/2/6 466/2/6
f 460/3/6 461/3/6 469/3/6
f 469/3/6 461/3/6 470/3/6
f 466/3/6 467/3/6 471/3/6
f 467/2/6 468/2/6 472/2/6
f 471/3/6 467/3/6 472/3/6
f 468/3/6 469/3/6 473/3/6
f 472/2/6 468/2/6 473/2/6
f 473/3/6 469/3/6 474/3/6
f 475/3/6 476/3/6 477/3/6
f 477/3/6 476/3/6 478/3/6
f 478/3/6 476/3/6 479/3/6
f 475/3/6 477/3/6 480/3/6
f 480/3/6 477/3/6 481/3/6
f 478/2/6 479/2/6 482/2/6
f 482/2/6 479/2/6 483/2/6
f 480/2/6 481/2/6 484/2/6
f 481/1/6 482/1/6 485/1/6
f 484/2/6 481/2/6 485/2/6
f 482/1/6 483/1/6 485/1/6
f 485/1/6 483/1/6 486/1/6
f 487/3/6 488/3/6 489/3/6
f 489/3/6 488/3/6 490/3/6
