# MagicaVoxel @ Ephtracy

# group
o 

# material
mtllib lvl2-32.mtl
usemtl palette

# normals
vn -1 0 0
vn 1 0 0
vn 0 0 -1
vn 0 0 1
vn 0 -1 0
vn 0 1 0

# texcoords
vt 0.0292969 0.5
vt 0.283203 0.5
vt 0.291016 0.5

# verts
v -1.8 5 -0.4
v -1.8 5 -0.3
v -1.8 5 -0.2
v -1.8 5 0
v -1.8 5 0.1
v -1.8 5 0.3
v -1.8 5 0.4
v -1.8 6.7 -0.4
v -1.8 6.7 -0.3
v -1.8 6.9 -0.3
v -1.8 6.9 -0.2
v -1.8 7 -0.2
v -1.8 7 -0.1
v -1.8 7.1 -0.1
v -1.8 7.1 0
v -1.8 7.2 0
v -1.8 7.2 0.1
v -1.8 7.2 0.3
v -1.8 7.2 0.4
v -1.6 5 -0.4
v -1.6 5 -0.3
v -1.6 5 -0.2
v -1.6 5 0
v -1.6 5 0.1
v -1.6 5 0.3
v -1.6 5 0.4
v -1.6 5.8 0.2
v -1.6 5.8 0.3
v -1.6 5.8 0.4
v -1.6 6 0.2
v -1.6 6 0.3
v -1.6 6 0.4
v -1.6 6.7 -0.4
v -1.6 6.7 -0.3
v -1.6 6.9 -0.3
v -1.6 6.9 -0.2
v -1.6 7 -0.2
v -1.6 7 -0.1
v -1.6 7.1 -0.1
v -1.6 7.1 0
v -1.6 7.2 0
v -1.6 7.2 0.1
v -1.6 7.2 0.3
v -1.6 7.2 0.4
v -1.5 5.8 0.2
v -1.5 5.8 0.4
v -1.5 6 0.2
v -1.5 6 0.4
v -1.8 5 -0.4
v -1.8 6.7 -0.4
v -1.6 5 -0.4
v -1.6 6.7 -0.4
v -1.8 6.7 -0.3
v -1.8 6.9 -0.3
v -1.6 6.7 -0.3
v -1.6 6.9 -0.3
v -1.8 6.9 -0.2
v -1.8 7 -0.2
v -1.6 6.9 -0.2
v -1.6 7 -0.2
v -1.8 7 -0.1
v -1.8 7.1 -0.1
v -1.6 7 -0.1
v -1.6 7.1 -0.1
v -1.8 7.1 0
v -1.8 7.2 0
v -1.6 7.1 0
v -1.6 7.2 0
v -1.6 5.8 0.2
v -1.6 6 0.2
v -1.5 5.8 0.2
v -1.5 6 0.2
v -1.8 5 0.4
v -1.8 7.2 0.4
v -1.6 5 0.4
v -1.6 5.8 0.4
v -1.6 6 0.4
v -1.6 7.2 0.4
v -1.5 5.8 0.4
v -1.5 6 0.4
v -1.8 5 -0.4
v -1.6 5 -0.4
v -1.8 5 -0.3
v -1.6 5 -0.3
v -1.8 5 -0.2
v -1.6 5 -0.2
v -1.8 5 0
v -1.6 5 0
v -1.8 5 0.1
v -1.6 5 0.1
v -1.8 5 0.3
v -1.6 5 0.3
v -1.8 5 0.4
v -1.6 5 0.4
v -1.6 5.8 0.2
v -1.5 5.8 0.2
v -1.6 5.8 0.3
v -1.6 5.8 0.4
v -1.5 5.8 0.4
v -1.6 6 0.2
v -1.5 6 0.2
v -1.6 6 0.3
v -1.6 6 0.4
v -1.5 6 0.4
v -1.8 6.7 -0.4
v -1.6 6.7 -0.4
v -1.8 6.7 -0.3
v -1.6 6.7 -0.3
v -1.8 6.9 -0.3
v -1.6 6.9 -0.3
v -1.8 6.9 -0.2
v -1.6 6.9 -0.2
v -1.8 7 -0.2
v -1.6 7 -0.2
v -1.8 7 -0.1
v -1.6 7 -0.1
v -1.8 7.1 -0.1
v -1.6 7.1 -0.1
v -1.8 7.1 0
v -1.6 7.1 0
v -1.8 7.2 0
v -1.6 7.2 0
v -1.8 7.2 0.1
v -1.6 7.2 0.1
v -1.8 7.2 0.3
v -1.6 7.2 0.3
v -1.8 7.2 0.4
v -1.6 7.2 0.4

# faces
f 1/2/1 2/2/1 8/2/1
f 2/3/1 3/3/1 9/3/1
f 8/2/1 2/2/1 9/2/1
f 9/3/1 3/3/1 10/3/1
f 3/2/1 4/2/1 11/2/1
f 10/3/1 3/3/1 11/3/1
f 11/2/1 4/2/1 12/2/1
f 12/2/1 4/2/1 13/2/1
f 13/2/1 4/2/1 14/2/1
f 4/3/1 5/3/1 15/3/1
f 14/2/1 4/2/1 15/2/1
f 15/3/1 5/3/1 16/3/1
f 5/2/1 6/2/1 17/2/1
f 16/3/1 5/3/1 17/3/1
f 6/3/1 7/3/1 18/3/1
f 17/2/1 6/2/1 18/2/1
f 18/3/1 7/3/1 19/3/1
f 27/2/2 25/2/2 24/2/2
f 28/3/2 26/3/2 25/3/2
f 28/2/2 25/2/2 27/2/2
f 29/3/2 26/3/2 28/3/2
f 30/2/2 27/2/2 24/2/2
f 33/2/2 21/2/2 20/2/2
f 34/3/2 22/3/2 21/3/2
f 34/2/2 21/2/2 33/2/2
f 35/3/2 22/3/2 34/3/2
f 36/2/2 23/2/2 22/2/2
f 36/3/2 22/3/2 35/3/2
f 37/2/2 23/2/2 36/2/2
f 38/2/2 23/2/2 37/2/2
f 39/2/2 23/2/2 38/2/2
f 40/3/2 24/3/2 23/3/2
f 40/2/2 23/2/2 39/2/2
f 41/3/2 24/3/2 40/3/2
f 42/2/2 30/2/2 24/2/2
f 42/3/2 24/3/2 41/3/2
f 42/2/2 31/2/2 30/2/2
f 43/3/2 32/3/2 31/3/2
f 43/2/2 31/2/2 42/2/2
f 44/3/2 32/3/2 43/3/2
f 47/1/2 46/1/2 45/1/2
f 48/1/2 46/1/2 47/1/2
f 49/2/3 50/2/3 51/2/3
f 51/2/3 50/2/3 52/2/3
f 53/3/3 54/3/3 55/3/3
f 55/3/3 54/3/3 56/3/3
f 57/2/3 58/2/3 59/2/3
f 59/2/3 58/2/3 60/2/3
f 61/2/3 62/2/3 63/2/3
f 63/2/3 62/2/3 64/2/3
f 65/3/3 66/3/3 67/3/3
f 67/3/3 66/3/3 68/3/3
f 69/1/3 70/1/3 71/1/3
f 71/1/3 70/1/3 72/1/3
f 75/3/4 74/3/4 73/3/4
f 76/3/4 74/3/4 75/3/4
f 77/3/4 74/3/4 76/3/4
f 78/3/4 74/3/4 77/3/4
f 79/1/4 77/1/4 76/1/4
f 80/1/4 77/1/4 79/1/4
f 81/2/5 82/2/5 83/2/5
f 83/2/5 82/2/5 84/2/5
f 83/3/5 84/3/5 85/3/5
f 85/3/5 84/3/5 86/3/5
f 85/2/5 86/2/5 87/2/5
f 87/2/5 86/2/5 88/2/5
f 87/3/5 88/3/5 89/3/5
f 89/3/5 88/3/5 90/3/5
f 89/2/5 90/2/5 91/2/5
f 91/2/5 90/2/5 92/2/5
f 91/3/5 92/3/5 93/3/5
f 93/3/5 92/3/5 94/3/5
f 95/1/5 96/1/5 97/1/5
f 97/1/5 96/1/5 98/1/5
f 98/1/5 96/1/5 99/1/5
f 102/1/6 101/1/6 100/1/6
f 103/1/6 101/1/6 102/1/6
f 104/1/6 101/1/6 103/1/6
f 107/2/6 106/2/6 105/2/6
f 108/2/6 106/2/6 107/2/6
f 111/3/6 110/3/6 109/3/6
f 112/3/6 110/3/6 111/3/6
f 115/2/6 114/2/6 113/2/6
f 116/2/6 114/2/6 115/2/6
f 119/2/6 118/2/6 117/2/6
f 120/2/6 118/2/6 119/2/6
f 123/3/6 122/3/6 121/3/6
f 124/3/6 122/3/6 123/3/6
f 125/2/6 124/2/6 123/2/6
f 126/2/6 124/2/6 125/2/6
f 127/3/6 126/3/6 125/3/6
f 128/3/6 126/3/6 127/3/6
