# MagicaVoxel @ Ephtracy

# group
o 

# material
mtllib lvl3-17.mtl
usemtl palette

# normals
vn -1 0 0
vn 1 0 0
vn 0 0 1
vn 0 0 -1
vn 0 -1 0
vn 0 1 0

# texcoords
vt 0.478516 0.5
vt 0.494141 0.5
vt 0.498047 0.5

# verts
v 8.8 0 5.7
v 8.8 0 5.6
v 8.8 0.2 5.7
v 8.8 0.2 5.6
v 8.9 0 6.1
v 8.9 0 6
v 8.9 0 5.7
v 8.9 0 5.6
v 8.9 0 5.5
v 8.9 0.1 6.1
v 8.9 0.1 6
v 8.9 0.1 5.8
v 8.9 0.1 5.7
v 8.9 0.2 6
v 8.9 0.2 5.9
v 8.9 0.2 5.7
v 8.9 0.2 5.6
v 8.9 0.2 5.5
v 8.9 0.3 5.8
v 8.9 0.3 5.7
v 8.9 0.3 5.6
v 8.9 0.4 5.9
v 8.9 0.4 5.8
v 8.9 0.4 5.7
v 8.9 0.4 5.6
v 9 0.1 5.8
v 9 0.1 5.7
v 9 0.2 6
v 9 0.2 5.9
v 9 0.2 5.6
v 9 0.2 5.5
v 9 0.3 5.8
v 9 0.3 5.7
v 9 0.3 5.6
v 9 0.4 6
v 9 0.4 5.9
v 9 0.4 5.8
v 9 0.4 5.7
v 9 0.4 5.6
v 9 0.4 5.5
v 9 0.5 5.9
v 9 0.5 5.8
v 9 0.5 5.7
v 9 0.6 5.8
v 9 0.6 5.7
v 9 0.7 5.8
v 9 0.7 5.7
v 9.1 0.1 6
v 9.1 0.1 5.9
v 9.1 0.1 5.6
v 9.1 0.1 5.5
v 9.1 0.2 6
v 9.1 0.2 5.9
v 9.1 0.2 5.7
v 9.1 0.2 5.6
v 9.1 0.2 5.5
v 9.1 0.3 5.7
v 9.1 0.3 5.6
v 9.1 0.4 5.6
v 9.1 0.5 5.7
v 9.1 0.5 5.6
v 9.1 0.6 5.7
v 9.1 0.6 5.6
v 9.1 0.7 5.8
v 9.1 0.7 5.7
v 9.1 0.8 5.8
v 9.1 0.8 5.7
v 9.1 0.9 5.8
v 9.1 0.9 5.7
v 9.2 0.5 5.9
v 9.2 0.5 5.8
v 9.2 0.6 5.9
v 9.2 0.6 5.8
v 9.3 0.1 6
v 9.3 0.1 5.9
v 9.3 0.2 6
v 9.3 0.2 5.9
v 9 0.1 6
v 9 0.1 5.9
v 9 0.1 5.6
v 9 0.1 5.5
v 9 0.2 6
v 9 0.2 5.9
v 9 0.2 5.7
v 9 0.2 5.6
v 9 0.2 5.5
v 9 0.3 5.7
v 9 0.3 5.6
v 9 0.4 5.7
v 9 0.4 5.6
v 9.1 0.3 6
v 9.1 0.3 5.9
v 9.1 0.4 6
v 9.1 0.4 5.9
v 9.2 0 5.6
v 9.2 0 5.5
v 9.2 0.1 6
v 9.2 0.1 5.9
v 9.2 0.1 5.6
v 9.2 0.1 5.5
v 9.2 0.2 6
v 9.2 0.2 5.9
v 9.2 0.2 5.6
v 9.2 0.3 6
v 9.2 0.3 5.9
v 9.2 0.3 5.8
v 9.2 0.4 5.9
v 9.2 0.4 5.8
v 9.2 0.4 5.7
v 9.2 0.4 5.6
v 9.2 0.4 5.5
v 9.2 0.5 5.7
v 9.2 0.5 5.6
v 9.2 0.6 5.7
v 9.2 0.6 5.6
v 9.2 0.7 5.8
v 9.2 0.7 5.7
v 9.2 0.8 5.8
v 9.2 0.8 5.7
v 9.2 0.9 5.8
v 9.2 0.9 5.7
v 9.3 0.2 5.9
v 9.3 0.2 5.8
v 9.3 0.2 5.7
v 9.3 0.2 5.6
v 9.3 0.3 5.9
v 9.3 0.3 5.8
v 9.3 0.4 5.9
v 9.3 0.4 5.8
v 9.3 0.4 5.7
v 9.3 0.4 5.6
v 9.3 0.5 5.8
v 9.3 0.6 5.9
v 9.3 0.6 5.8
v 9.4 0 6.1
v 9.4 0 6
v 9.4 0 5.9
v 9.4 0 5.7
v 9.4 0 5.6
v 9.4 0.1 6.1
v 9.4 0.1 6
v 9.4 0.1 5.9
v 9.4 0.1 5.8
v 9.4 0.1 5.7
v 9.4 0.2 6
v 9.4 0.2 5.9
v 9.4 0.2 5.8
v 9.4 0.2 5.7
v 9.4 0.2 5.6
v 9.4 0.5 5.8
v 9.4 0.5 5.7
v 9.4 0.6 5.8
v 9.4 0.6 5.7
v 9.4 0.7 5.8
v 9.4 0.7 5.7
v 9.5 0 5.9
v 9.5 0 5.7
v 9.5 0.1 5.9
v 9.5 0.1 5.7
v 8.9 0 6.1
v 8.9 0.1 6.1
v 9 0 6.1
v 9 0.1 6.1
v 9.3 0 6.1
v 9.3 0.1 6.1
v 9.4 0 6.1
v 9.4 0.1 6.1
v 8.9 0.1 6
v 8.9 0.2 6
v 9 0.1 6
v 9 0.2 6
v 9 0.4 6
v 9.1 0.1 6
v 9.1 0.2 6
v 9.1 0.3 6
v 9.1 0.4 6
v 9.2 0.1 6
v 9.2 0.2 6
v 9.2 0.3 6
v 9.3 0.1 6
v 9.3 0.2 6
v 9.4 0.1 6
v 9.4 0.2 6
v 8.9 0.2 5.9
v 8.9 0.4 5.9
v 9 0.1 5.9
v 9 0.2 5.9
v 9 0.4 5.9
v 9 0.5 5.9
v 9.1 0.1 5.9
v 9.1 0.2 5.9
v 9.1 0.3 5.9
v 9.1 0.4 5.9
v 9.1 0.5 5.9
v 9.2 0.1 5.9
v 9.2 0.2 5.9
v 9.2 0.3 5.9
v 9.2 0.4 5.9
v 9.2 0.5 5.9
v 9.2 0.6 5.9
v 9.3 0.1 5.9
v 9.3 0.2 5.9
v 9.3 0.3 5.9
v 9.3 0.4 5.9
v 9.3 0.6 5.9
v 9.4 0 5.9
v 9.4 0.1 5.9
v 9.5 0 5.9
v 9.5 0.1 5.9
v 9 0.5 5.8
v 9 0.6 5.8
v 9 0.7 5.8
v 9.1 0.5 5.8
v 9.1 0.6 5.8
v 9.1 0.7 5.8
v 9.1 0.8 5.8
v 9.1 0.9 5.8
v 9.2 0.3 5.8
v 9.2 0.4 5.8
v 9.2 0.5 5.8
v 9.2 0.6 5.8
v 9.2 0.7 5.8
v 9.2 0.8 5.8
v 9.2 0.9 5.8
v 9.3 0.2 5.8
v 9.3 0.3 5.8
v 9.3 0.4 5.8
v 9.3 0.5 5.8
v 9.3 0.6 5.8
v 9.3 0.7 5.8
v 9.4 0.2 5.8
v 9.4 0.5 5.8
v 9.4 0.6 5.8
v 9.4 0.7 5.8
v 8.8 0 5.7
v 8.8 0.2 5.7
v 8.9 0 5.7
v 8.9 0.1 5.7
v 8.9 0.2 5.7
v 8.9 0.3 5.7
v 9 0.1 5.7
v 9 0.3 5.7
v 9 0.2 5.6
v 9 0.3 5.6
v 9 0.4 5.6
v 9.1 0.2 5.6
v 9.1 0.3 5.6
v 9.1 0.4 5.6
v 8.9 0.1 5.8
v 8.9 0.3 5.8
v 9 0.1 5.8
v 9 0.3 5.8
v 9 0.2 5.7
v 9 0.3 5.7
v 9 0.4 5.7
v 9 0.5 5.7
v 9 0.6 5.7
v 9 0.7 5.7
v 9.1 0.2 5.7
v 9.1 0.3 5.7
v 9.1 0.5 5.7
v 9.1 0.6 5.7
v 9.1 0.7 5.7
v 9.1 0.8 5.7
v 9.1 0.9 5.7
v 9.2 0.4 5.7
v 9.2 0.5 5.7
v 9.2 0.6 5.7
v 9.2 0.7 5.7
v 9.2 0.8 5.7
v 9.2 0.9 5.7
v 9.3 0.2 5.7
v 9.3 0.4 5.7
v 9.3 0.5 5.7
v 9.3 0.6 5.7
v 9.3 0.7 5.7
v 9.4 0 5.7
v 9.4 0.1 5.7
v 9.4 0.2 5.7
v 9.4 0.5 5.7
v 9.4 0.6 5.7
v 9.4 0.7 5.7
v 9.5 0 5.7
v 9.5 0.1 5.7
v 8.8 0 5.6
v 8.8 0.2 5.6
v 8.9 0 5.6
v 8.9 0.2 5.6
v 8.9 0.3 5.6
v 8.9 0.4 5.6
v 9 0.1 5.6
v 9 0.2 5.6
v 9 0.3 5.6
v 9 0.4 5.6
v 9.1 0.1 5.6
v 9.1 0.2 5.6
v 9.1 0.4 5.6
v 9.1 0.5 5.6
v 9.1 0.6 5.6
v 9.2 0 5.6
v 9.2 0.1 5.6
v 9.2 0.2 5.6
v 9.2 0.4 5.6
v 9.2 0.5 5.6
v 9.2 0.6 5.6
v 9.3 0 5.6
v 9.3 0.1 5.6
v 9.3 0.2 5.6
v 9.3 0.4 5.6
v 9.4 0 5.6
v 9.4 0.2 5.6
v 8.9 0 5.5
v 8.9 0.2 5.5
v 9 0 5.5
v 9 0.1 5.5
v 9 0.2 5.5
v 9 0.4 5.5
v 9.1 0.1 5.5
v 9.1 0.2 5.5
v 9.1 0.4 5.5
v 9.2 0 5.5
v 9.2 0.1 5.5
v 9.2 0.4 5.5
v 8.9 0 6.1
v 9 0 6.1
v 9.3 0 6.1
v 9.4 0 6.1
v 8.9 0 6
v 9 0 6
v 9.3 0 6
v 9.4 0 6
v 9.4 0 5.9
v 9.5 0 5.9
v 8.8 0 5.7
v 8.9 0 5.7
v 9.3 0 5.7
v 9.4 0 5.7
v 9.5 0 5.7
v 8.8 0 5.6
v 8.9 0 5.6
v 9 0 5.6
v 9.2 0 5.6
v 9.3 0 5.6
v 9.4 0 5.6
v 8.9 0 5.5
v 9 0 5.5
v 9.2 0 5.5
v 9 0.2 6
v 9.1 0.2 6
v 9 0.2 5.9
v 9.1 0.2 5.9
v 9 0.2 5.6
v 9.1 0.2 5.6
v 9 0.2 5.5
v 9.1 0.2 5.5
v 8.9 0.3 5.8
v 9 0.3 5.8
v 8.9 0.3 5.7
v 9 0.3 5.7
v 9.2 0.4 5.9
v 9.3 0.4 5.9
v 9.2 0.4 5.8
v 9.3 0.4 5.8
v 8.9 0.1 6.1
v 9 0.1 6.1
v 9.3 0.1 6.1
v 9.4 0.1 6.1
v 8.9 0.1 6
v 9 0.1 6
v 9.1 0.1 6
v 9.2 0.1 6
v 9.3 0.1 6
v 9.4 0.1 6
v 9 0.1 5.9
v 9.1 0.1 5.9
v 9.2 0.1 5.9
v 9.3 0.1 5.9
v 9.4 0.1 5.9
v 9.5 0.1 5.9
v 8.9 0.1 5.8
v 9 0.1 5.8
v 9.4 0.1 5.8
v 8.9 0.1 5.7
v 9 0.1 5.7
v 9.4 0.1 5.7
v 9.5 0.1 5.7
v 9 0.1 5.6
v 9.1 0.1 5.6
v 9 0.1 5.5
v 9.1 0.1 5.5
v 8.9 0.2 6
v 9 0.2 6
v 9.3 0.2 6
v 9.4 0.2 6
v 8.9 0.2 5.9
v 9 0.2 5.9
v 9.3 0.2 5.9
v 9.4 0.2 5.9
v 9.3 0.2 5.8
v 9.4 0.2 5.8
v 8.8 0.2 5.7
v 8.9 0.2 5.7
v 9 0.2 5.7
v 9.1 0.2 5.7
v 9.3 0.2 5.7
v 9.4 0.2 5.7
v 8.8 0.2 5.6
v 8.9 0.2 5.6
v 9 0.2 5.6
v 9.1 0.2 5.6
v 9.3 0.2 5.6
v 9.4 0.2 5.6
v 8.9 0.2 5.5
v 9 0.2 5.5
v 9.1 0.3 6
v 9.2 0.3 6
v 9.1 0.3 5.9
v 9.2 0.3 5.9
v 9.3 0.3 5.9
v 9.2 0.3 5.8
v 9.3 0.3 5.8
v 9 0.4 6
v 9.1 0.4 6
v 8.9 0.4 5.9
v 9 0.4 5.9
v 9.1 0.4 5.9
v 8.9 0.4 5.8
v 9 0.4 5.8
v 8.9 0.4 5.7
v 9 0.4 5.7
v 9.2 0.4 5.7
v 9.3 0.4 5.7
v 8.9 0.4 5.6
v 9 0.4 5.6
v 9.1 0.4 5.6
v 9.2 0.4 5.6
v 9.3 0.4 5.6
v 9 0.4 5.5
v 9.1 0.4 5.5
v 9.2 0.4 5.5
v 9 0.5 5.9
v 9.1 0.5 5.9
v 9.2 0.5 5.9
v 9 0.5 5.8
v 9.1 0.5 5.8
v 9.2 0.5 5.8
v 9.2 0.6 5.9
v 9.3 0.6 5.9
v 9.2 0.6 5.8
v 9.3 0.6 5.8
v 9.1 0.6 5.7
v 9.2 0.6 5.7
v 9.1 0.6 5.6
v 9.2 0.6 5.6
v 9 0.7 5.8
v 9.1 0.7 5.8
v 9.2 0.7 5.8
v 9.3 0.7 5.8
v 9.4 0.7 5.8
v 9 0.7 5.7
v 9.1 0.7 5.7
v 9.2 0.7 5.7
v 9.3 0.7 5.7
v 9.4 0.7 5.7
v 9.1 0.9 5.8
v 9.2 0.9 5.8
v 9.1 0.9 5.7
v 9.2 0.9 5.7

# faces
f 3/2/1 2/2/1 1/2/1
f 4/2/1 2/2/1 3/2/1
f 10/2/1 6/2/1 5/2/1
f 11/3/1 7/3/1 6/3/1
f 11/2/1 6/2/1 10/2/1
f 12/3/1 7/3/1 11/3/1
f 13/3/1 7/3/1 12/3/1
f 14/2/1 12/2/1 11/2/1
f 15/2/1 12/2/1 14/2/1
f 17/2/1 9/2/1 8/2/1
f 18/2/1 9/2/1 17/2/1
f 19/2/1 12/2/1 15/2/1
f 20/3/1 17/3/1 16/3/1
f 21/3/1 17/3/1 20/3/1
f 22/2/1 19/2/1 15/2/1
f 23/1/1 20/1/1 19/1/1
f 23/2/1 19/2/1 22/2/1
f 24/2/1 21/2/1 20/2/1
f 24/1/1 20/1/1 23/1/1
f 25/2/1 21/2/1 24/2/1
f 32/3/1 27/3/1 26/3/1
f 33/3/1 27/3/1 32/3/1
f 34/1/1 31/1/1 30/1/1
f 35/1/1 29/1/1 28/1/1
f 36/1/1 29/1/1 35/1/1
f 39/1/1 31/1/1 34/1/1
f 40/1/1 31/1/1 39/1/1
f 41/2/1 37/2/1 36/2/1
f 42/3/1 38/3/1 37/3/1
f 42/2/1 37/2/1 41/2/1
f 43/3/1 38/3/1 42/3/1
f 44/2/1 43/2/1 42/2/1
f 45/2/1 43/2/1 44/2/1
f 46/1/1 45/1/1 44/1/1
f 47/1/1 45/1/1 46/1/1
f 52/3/1 49/3/1 48/3/1
f 53/3/1 49/3/1 52/3/1
f 55/2/1 51/2/1 50/2/1
f 56/2/1 51/2/1 55/2/1
f 57/2/1 55/2/1 54/2/1
f 58/2/1 55/2/1 57/2/1
f 59/3/1 58/3/1 57/3/1
f 60/3/1 59/3/1 57/3/1
f 61/3/1 59/3/1 60/3/1
f 62/2/1 61/2/1 60/2/1
f 63/2/1 61/2/1 62/2/1
f 66/3/1 65/3/1 64/3/1
f 67/3/1 65/3/1 66/3/1
f 68/2/1 67/2/1 66/2/1
f 69/2/1 67/2/1 68/2/1
f 72/1/1 71/1/1 70/1/1
f 73/1/1 71/1/1 72/1/1
f 76/3/1 75/3/1 74/3/1
f 77/3/1 75/3/1 76/3/1
f 78/2/2 79/2/2 82/2/2
f 82/2/2 79/2/2 83/2/2
f 80/2/2 81/2/2 85/2/2
f 85/2/2 81/2/2 86/2/2
f 84/3/2 85/3/2 87/3/2
f 87/3/2 85/3/2 88/3/2
f 87/2/2 88/2/2 89/2/2
f 89/2/2 88/2/2 90/2/2
f 91/1/2 92/1/2 93/1/2
f 93/1/2 92/1/2 94/1/2
f 95/3/2 96/3/2 99/3/2
f 99/3/2 96/3/2 100/3/2
f 97/3/2 98/3/2 101/3/2
f 101/3/2 98/3/2 102/3/2
f 99/2/2 100/2/2 103/2/2
f 101/2/2 102/2/2 104/2/2
f 104/2/2 102/2/2 105/2/2
f 105/3/2 106/3/2 107/3/2
f 107/3/2 106/3/2 108/3/2
f 103/2/2 100/2/2 110/2/2
f 110/2/2 100/2/2 111/2/2
f 109/3/2 110/3/2 112/3/2
f 112/3/2 110/3/2 113/3/2
f 112/2/2 113/2/2 114/2/2
f 114/2/2 113/2/2 115/2/2
f 116/3/2 117/3/2 118/3/2
f 118/3/2 117/3/2 119/3/2
f 118/2/2 119/2/2 120/2/2
f 120/2/2 119/2/2 121/2/2
f 122/3/2 123/3/2 126/3/2
f 126/3/2 123/3/2 127/3/2
f 124/1/2 125/1/2 130/1/2
f 130/1/2 125/1/2 131/1/2
f 128/1/2 129/1/2 132/1/2
f 128/1/2 132/1/2 133/1/2
f 133/1/2 132/1/2 134/1/2
f 135/1/2 136/1/2 140/1/2
f 136/3/2 137/3/2 141/3/2
f 140/1/2 136/1/2 141/1/2
f 141/3/2 137/3/2 142/3/2
f 138/2/2 139/2/2 144/2/2
f 141/3/2 142/3/2 145/3/2
f 142/1/2 143/1/2 146/1/2
f 145/3/2 142/3/2 146/3/2
f 143/3/2 144/3/2 147/3/2
f 146/1/2 143/1/2 147/1/2
f 144/2/2 139/2/2 148/2/2
f 147/3/2 144/3/2 148/3/2
f 148/2/2 139/2/2 149/2/2
f 147/3/2 148/3/2 150/3/2
f 150/3/2 148/3/2 151/3/2
f 150/2/2 151/2/2 152/2/2
f 152/2/2 151/2/2 153/2/2
f 152/1/2 153/1/2 154/1/2
f 154/1/2 153/1/2 155/1/2
f 156/2/2 157/2/2 158/2/2
f 158/2/2 157/2/2 159/2/2
f 162/2/3 161/2/3 160/2/3
f 163/2/3 161/2/3 162/2/3
f 164/3/3 163/3/3 162/3/3
f 165/3/3 163/3/3 164/3/3
f 166/1/3 165/1/3 164/1/3
f 167/1/3 165/1/3 166/1/3
f 170/2/3 169/2/3 168/2/3
f 171/2/3 169/2/3 170/2/3
f 174/1/3 172/1/3 171/1/3
f 175/1/3 172/1/3 174/1/3
f 176/1/3 172/1/3 175/1/3
f 177/3/3 174/3/3 173/3/3
f 178/2/3 175/2/3 174/2/3
f 178/3/3 174/3/3 177/3/3
f 179/2/3 175/2/3 178/2/3
f 182/3/3 181/3/3 180/3/3
f 183/3/3 181/3/3 182/3/3
f 187/2/3 185/2/3 184/2/3
f 188/2/3 185/2/3 187/2/3
f 190/3/3 187/3/3 186/3/3
f 191/3/3 187/3/3 190/3/3
f 193/2/3 189/2/3 188/2/3
f 194/2/3 189/2/3 193/2/3
f 197/3/3 193/3/3 192/3/3
f 197/3/3 194/3/3 193/3/3
f 198/3/3 194/3/3 197/3/3
f 199/3/3 194/3/3 198/3/3
f 201/3/3 196/3/3 195/3/3
f 201/3/3 197/3/3 196/3/3
f 202/3/3 197/3/3 201/3/3
f 203/3/3 197/3/3 202/3/3
f 204/1/3 199/1/3 198/1/3
f 204/1/3 200/1/3 199/1/3
f 205/1/3 200/1/3 204/1/3
f 208/2/3 207/2/3 206/2/3
f 209/2/3 207/2/3 208/2/3
f 213/2/3 211/2/3 210/2/3
f 214/1/3 212/1/3 211/1/3
f 214/2/3 211/2/3 213/2/3
f 215/1/3 212/1/3 214/1/3
f 220/3/3 214/3/3 213/3/3
f 220/3/3 215/3/3 214/3/3
f 220/3/3 216/3/3 215/3/3
f 221/3/3 216/3/3 220/3/3
f 222/3/3 216/3/3 221/3/3
f 223/2/3 217/2/3 216/2/3
f 223/3/3 216/3/3 222/3/3
f 224/2/3 217/2/3 223/2/3
f 226/1/3 219/1/3 218/1/3
f 227/1/3 219/1/3 226/1/3
f 229/2/3 222/2/3 221/2/3
f 230/2/3 222/2/3 229/2/3
f 231/3/3 228/3/3 227/3/3
f 231/3/3 226/3/3 225/3/3
f 231/3/3 227/3/3 226/3/3
f 232/2/3 229/2/3 228/2/3
f 232/3/3 228/3/3 231/3/3
f 233/1/3 230/1/3 229/1/3
f 233/2/3 229/2/3 232/2/3
f 234/1/3 230/1/3 233/1/3
f 237/2/3 236/2/3 235/2/3
f 238/2/3 236/2/3 237/2/3
f 239/2/3 236/2/3 238/2/3
f 241/3/3 240/3/3 239/3/3
f 241/3/3 239/3/3 238/3/3
f 242/3/3 240/3/3 241/3/3
f 246/1/3 244/1/3 243/1/3
f 246/1/3 245/1/3 244/1/3
f 247/1/3 245/1/3 246/1/3
f 248/1/3 245/1/3 247/1/3
f 249/2/4 250/2/4 251/2/4
f 251/2/4 250/2/4 252/2/4
f 253/3/4 254/3/4 259/3/4
f 254/3/4 255/3/4 259/3/4
f 255/3/4 256/3/4 259/3/4
f 259/3/4 256/3/4 260/3/4
f 256/2/4 257/2/4 261/2/4
f 260/3/4 256/3/4 261/3/4
f 257/1/4 258/1/4 262/1/4
f 261/2/4 257/2/4 262/2/4
f 262/1/4 258/1/4 263/1/4
f 263/3/4 264/3/4 268/3/4
f 262/3/4 263/3/4 268/3/4
f 268/3/4 264/3/4 269/3/4
f 264/2/4 265/2/4 270/2/4
f 269/3/4 264/3/4 270/3/4
f 270/2/4 265/2/4 271/2/4
f 266/3/4 267/3/4 273/3/4
f 267/3/4 268/3/4 273/3/4
f 273/3/4 268/3/4 274/3/4
f 268/2/4 269/2/4 275/2/4
f 274/3/4 268/3/4 275/3/4
f 275/2/4 269/2/4 276/2/4
f 273/3/4 274/3/4 279/3/4
f 272/3/4 273/3/4 279/3/4
f 274/2/4 275/2/4 280/2/4
f 279/3/4 274/3/4 280/3/4
f 275/1/4 276/1/4 281/1/4
f 280/2/4 275/2/4 281/2/4
f 281/1/4 276/1/4 282/1/4
f 277/2/4 278/2/4 283/2/4
f 283/2/4 278/2/4 284/2/4
f 285/2/4 286/2/4 287/2/4
f 287/2/4 286/2/4 288/2/4
f 288/3/4 289/3/4 292/3/4
f 289/2/4 290/2/4 293/2/4
f 292/3/4 289/3/4 293/3/4
f 293/2/4 290/2/4 294/2/4
f 291/3/4 292/3/4 295/3/4
f 295/3/4 292/3/4 296/3/4
f 297/3/4 298/3/4 303/3/4
f 298/2/4 299/2/4 304/2/4
f 303/3/4 298/3/4 304/3/4
f 304/2/4 299/2/4 305/2/4
f 300/3/4 301/3/4 306/3/4
f 301/2/4 302/2/4 307/2/4
f 306/3/4 301/3/4 307/3/4
f 302/1/4 303/1/4 308/1/4
f 307/2/4 302/2/4 308/2/4
f 308/1/4 303/1/4 309/1/4
f 306/2/4 307/2/4 310/2/4
f 307/2/4 308/2/4 310/2/4
f 310/2/4 308/2/4 311/2/4
f 312/2/4 313/2/4 314/2/4
f 314/2/4 313/2/4 315/2/4
f 315/2/4 313/2/4 316/2/4
f 314/3/4 315/3/4 318/3/4
f 316/1/4 317/1/4 319/1/4
f 319/1/4 317/1/4 320/1/4
f 314/3/4 318/3/4 321/3/4
f 318/2/4 319/2/4 322/2/4
f 321/3/4 318/3/4 322/3/4
f 319/2/4 320/2/4 322/2/4
f 322/2/4 320/2/4 323/2/4
f 328/2/5 325/2/5 324/2/5
f 329/3/5 326/3/5 325/3/5
f 329/2/5 325/2/5 328/2/5
f 330/1/5 327/1/5 326/1/5
f 330/3/5 326/3/5 329/3/5
f 331/1/5 327/1/5 330/1/5
f 332/3/5 329/3/5 328/3/5
f 332/3/5 330/3/5 329/3/5
f 332/3/5 331/3/5 330/3/5
f 335/3/5 332/3/5 328/3/5
f 336/3/5 332/3/5 335/3/5
f 337/2/5 333/2/5 332/2/5
f 337/3/5 332/3/5 336/3/5
f 338/2/5 333/2/5 337/2/5
f 339/2/5 335/2/5 334/2/5
f 340/3/5 336/3/5 335/3/5
f 340/2/5 335/2/5 339/2/5
f 341/3/5 336/3/5 340/3/5
f 342/3/5 336/3/5 341/3/5
f 343/2/5 337/2/5 336/2/5
f 343/3/5 336/3/5 342/3/5
f 344/2/5 337/2/5 343/2/5
f 345/2/5 341/2/5 340/2/5
f 346/3/5 342/3/5 341/3/5
f 346/2/5 341/2/5 345/2/5
f 347/3/5 342/3/5 346/3/5
f 350/1/5 349/1/5 348/1/5
f 351/1/5 349/1/5 350/1/5
f 354/1/5 353/1/5 352/1/5
f 355/1/5 353/1/5 354/1/5
f 358/1/5 357/1/5 356/1/5
f 359/1/5 357/1/5 358/1/5
f 362/1/5 361/1/5 360/1/5
f 363/1/5 361/1/5 362/1/5
f 364/2/6 365/2/6 368/2/6
f 365/3/6 366/3/6 369/3/6
f 368/2/6 365/2/6 369/2/6
f 369/3/6 366/3/6 370/3/6
f 370/3/6 366/3/6 371/3/6
f 366/1/6 367/1/6 372/1/6
f 371/3/6 366/3/6 372/3/6
f 372/1/6 367/1/6 373/1/6
f 369/3/6 370/3/6 374/3/6
f 374/3/6 370/3/6 375/3/6
f 371/3/6 372/3/6 376/3/6
f 376/3/6 372/3/6 377/3/6
f 378/2/6 379/2/6 382/2/6
f 380/3/6 381/3/6 383/3/6
f 383/3/6 381/3/6 384/3/6
f 382/2/6 379/2/6 385/2/6
f 385/2/6 379/2/6 386/2/6
f 387/3/6 388/3/6 389/3/6
f 389/3/6 388/3/6 390/3/6
f 391/2/6 392/2/6 395/2/6
f 395/2/6 392/2/6 396/2/6
f 393/3/6 394/3/6 397/3/6
f 397/3/6 394/3/6 398/3/6
f 397/1/6 398/1/6 399/1/6
f 399/1/6 398/1/6 400/1/6
f 401/2/6 402/2/6 407/2/6
f 407/2/6 402/2/6 408/2/6
f 403/3/6 404/3/6 409/3/6
f 409/3/6 404/3/6 410/3/6
f 405/2/6 406/2/6 411/2/6
f 411/2/6 406/2/6 412/2/6
f 408/2/6 409/2/6 413/2/6
f 413/2/6 409/2/6 414/2/6
f 415/2/6 416/2/6 417/2/6
f 417/2/6 416/2/6 418/2/6
f 418/3/6 419/3/6 420/3/6
f 420/3/6 419/3/6 421/3/6
f 422/1/6 423/1/6 425/1/6
f 425/1/6 423/1/6 426/1/6
f 424/2/6 425/2/6 427/2/6
f 427/2/6 425/2/6 428/2/6
f 427/1/6 428/1/6 429/1/6
f 429/1/6 428/1/6 430/1/6
f 429/2/6 430/2/6 433/2/6
f 433/2/6 430/2/6 434/2/6
f 431/1/6 432/1/6 436/1/6
f 436/1/6 432/1/6 437/1/6
f 434/1/6 435/1/6 438/1/6
f 435/2/6 436/2/6 439/2/6
f 438/1/6 435/1/6 439/1/6
f 439/2/6 436/2/6 440/2/6
f 441/2/6 442/2/6 444/2/6
f 442/3/6 443/3/6 445/3/6
f 444/2/6 442/2/6 445/2/6
f 445/3/6 443/3/6 446/3/6
f 447/1/6 448/1/6 449/1/6
f 449/1/6 448/1/6 450/1/6
f 451/2/6 452/2/6 453/2/6
f 453/2/6 452/2/6 454/2/6
f 455/1/6 456/1/6 460/1/6
f 460/1/6 456/1/6 461/1/6
f 457/2/6 458/2/6 462/2/6
f 458/1/6 459/1/6 463/1/6
f 462/2/6 458/2/6 463/2/6
f 463/1/6 459/1/6 464/1/6
f 465/2/6 466/2/6 467/2/6
f 467/2/6 466/2/6 468/2/6
