# MagicaVoxel @ Ephtracy

# group
o 

# material
mtllib lvl3-11.mtl
usemtl palette

# normals
vn -1 0 0
vn 1 0 0
vn 0 0 1
vn 0 0 -1
vn 0 -1 0
vn 0 1 0

# texcoords
vt 0.478516 0.5
vt 0.494141 0.5
vt 0.498047 0.5

# verts
v 4.2 1.2 9
v 4.2 1.2 8.9
v 4.2 1.3 9
v 4.2 1.3 8.9
v 4.2 1.5 8.9
v 4.2 1.5 8.8
v 4.2 1.6 8.9
v 4.2 1.6 8.8
v 4.3 1.1 9
v 4.3 1.1 8.9
v 4.3 1.2 9.1
v 4.3 1.2 9
v 4.3 1.2 8.9
v 4.3 1.2 8.8
v 4.3 1.2 8.7
v 4.3 1.3 9.1
v 4.3 1.3 9
v 4.3 1.3 8.9
v 4.3 1.4 8.8
v 4.3 1.4 8.7
v 4.3 1.5 9
v 4.3 1.5 8.9
v 4.3 1.5 8.8
v 4.3 1.6 8.9
v 4.3 1.6 8.8
v 4.3 1.7 8.9
v 4.3 1.7 8.8
v 4.4 1.1 8.9
v 4.4 1.1 8.8
v 4.4 1.1 8.7
v 4.4 1.2 8.9
v 4.4 1.2 8.8
v 4.4 1.2 8.7
v 4.4 1.2 8.6
v 4.4 1.4 8.8
v 4.4 1.4 8.7
v 4.4 1.5 8.7
v 4.4 1.5 8.6
v 4.4 1.6 9
v 4.4 1.6 8.9
v 4.4 1.6 8.8
v 4.4 1.6 8.7
v 4.4 1.7 9
v 4.4 1.7 8.9
v 4.4 1.7 8.8
v 4.4 1.7 8.7
v 4.4 1.8 9
v 4.4 1.8 8.9
v 4.4 1.9 8.9
v 4.4 1.9 8.8
v 4.4 2 8.9
v 4.4 2 8.8
v 4.5 1.1 9
v 4.5 1.1 8.9
v 4.5 1.2 9.1
v 4.5 1.2 9
v 4.5 1.2 8.9
v 4.5 1.3 9.1
v 4.5 1.3 9
v 4.5 1.4 9
v 4.5 1.4 8.9
v 4.5 1.5 9
v 4.5 1.5 8.9
v 4.4 1.1 9
v 4.4 1.1 8.9
v 4.4 1.2 9.1
v 4.4 1.2 9
v 4.4 1.2 8.9
v 4.4 1.3 9.1
v 4.4 1.3 9
v 4.4 1.5 9
v 4.4 1.5 8.9
v 4.5 1.1 8.8
v 4.5 1.1 8.7
v 4.5 1.2 8.8
v 4.5 1.2 8.7
v 4.5 1.2 8.6
v 4.5 1.3 8.7
v 4.5 1.4 8.8
v 4.5 1.4 8.7
v 4.5 1.5 8.9
v 4.5 1.5 8.8
v 4.5 1.5 8.7
v 4.5 1.5 8.6
v 4.5 1.6 9
v 4.5 1.6 8.9
v 4.5 1.6 8.8
v 4.5 1.6 8.7
v 4.5 1.7 9
v 4.5 1.7 8.9
v 4.5 1.7 8.8
v 4.5 1.7 8.7
v 4.5 1.8 9
v 4.5 1.8 8.9
v 4.5 1.9 8.9
v 4.5 1.9 8.8
v 4.5 2 8.9
v 4.5 2 8.8
v 4.6 1.1 9
v 4.6 1.1 8.9
v 4.6 1.2 9.1
v 4.6 1.2 9
v 4.6 1.2 8.9
v 4.6 1.2 8.8
v 4.6 1.2 8.7
v 4.6 1.3 9.1
v 4.6 1.3 9
v 4.6 1.3 8.8
v 4.6 1.3 8.7
v 4.6 1.4 9
v 4.6 1.4 8.9
v 4.6 1.4 8.8
v 4.6 1.4 8.7
v 4.6 1.5 9
v 4.6 1.5 8.9
v 4.6 1.5 8.8
v 4.7 1.1 8.9
v 4.7 1.1 8.8
v 4.7 1.4 8.9
v 4.7 1.4 8.8
v 4.3 1.2 9.1
v 4.3 1.3 9.1
v 4.4 1.2 9.1
v 4.4 1.3 9.1
v 4.5 1.2 9.1
v 4.5 1.3 9.1
v 4.6 1.2 9.1
v 4.6 1.3 9.1
v 4.2 1.2 9
v 4.2 1.3 9
v 4.3 1.1 9
v 4.3 1.2 9
v 4.3 1.3 9
v 4.3 1.5 9
v 4.4 1.1 9
v 4.4 1.2 9
v 4.4 1.3 9
v 4.4 1.5 9
v 4.4 1.6 9
v 4.4 1.7 9
v 4.4 1.8 9
v 4.5 1.1 9
v 4.5 1.2 9
v 4.5 1.3 9
v 4.5 1.4 9
v 4.5 1.5 9
v 4.5 1.6 9
v 4.5 1.7 9
v 4.5 1.8 9
v 4.6 1.1 9
v 4.6 1.2 9
v 4.6 1.3 9
v 4.6 1.4 9
v 4.6 1.5 9
v 4.2 1.5 8.9
v 4.2 1.6 8.9
v 4.3 1.5 8.9
v 4.3 1.6 8.9
v 4.3 1.7 8.9
v 4.4 1.1 8.9
v 4.4 1.2 8.9
v 4.4 1.5 8.9
v 4.4 1.6 8.9
v 4.4 1.7 8.9
v 4.4 1.8 8.9
v 4.4 1.9 8.9
v 4.4 2 8.9
v 4.5 1.1 8.9
v 4.5 1.2 8.9
v 4.5 1.4 8.9
v 4.5 1.5 8.9
v 4.5 1.6 8.9
v 4.5 1.8 8.9
v 4.5 1.9 8.9
v 4.5 2 8.9
v 4.6 1.1 8.9
v 4.6 1.2 8.9
v 4.6 1.4 8.9
v 4.7 1.1 8.9
v 4.7 1.4 8.9
v 4.2 1.2 8.9
v 4.2 1.3 8.9
v 4.3 1.1 8.9
v 4.3 1.2 8.9
v 4.3 1.3 8.9
v 4.4 1.1 8.9
v 4.4 1.2 8.9
v 4.2 1.5 8.8
v 4.2 1.6 8.8
v 4.3 1.4 8.8
v 4.3 1.5 8.8
v 4.3 1.6 8.8
v 4.3 1.7 8.8
v 4.4 1.4 8.8
v 4.4 1.6 8.8
v 4.4 1.7 8.8
v 4.4 1.9 8.8
v 4.4 2 8.8
v 4.5 1.1 8.8
v 4.5 1.2 8.8
v 4.5 1.4 8.8
v 4.5 1.5 8.8
v 4.5 1.7 8.8
v 4.5 1.9 8.8
v 4.5 2 8.8
v 4.6 1.1 8.8
v 4.6 1.2 8.8
v 4.6 1.3 8.8
v 4.6 1.4 8.8
v 4.6 1.5 8.8
v 4.7 1.1 8.8
v 4.7 1.4 8.8
v 4.3 1.2 8.7
v 4.3 1.4 8.7
v 4.4 1.1 8.7
v 4.4 1.2 8.7
v 4.4 1.4 8.7
v 4.4 1.5 8.7
v 4.4 1.6 8.7
v 4.4 1.7 8.7
v 4.5 1.1 8.7
v 4.5 1.2 8.7
v 4.5 1.3 8.7
v 4.5 1.4 8.7
v 4.5 1.5 8.7
v 4.5 1.6 8.7
v 4.5 1.7 8.7
v 4.6 1.2 8.7
v 4.6 1.3 8.7
v 4.6 1.4 8.7
v 4.4 1.2 8.6
v 4.4 1.5 8.6
v 4.5 1.2 8.6
v 4.5 1.5 8.6
v 4.3 1.1 9
v 4.4 1.1 9
v 4.5 1.1 9
v 4.6 1.1 9
v 4.3 1.1 8.9
v 4.4 1.1 8.9
v 4.5 1.1 8.9
v 4.6 1.1 8.9
v 4.7 1.1 8.9
v 4.4 1.1 8.8
v 4.5 1.1 8.8
v 4.6 1.1 8.8
v 4.7 1.1 8.8
v 4.4 1.1 8.7
v 4.5 1.1 8.7
v 4.3 1.2 9.1
v 4.4 1.2 9.1
v 4.5 1.2 9.1
v 4.6 1.2 9.1
v 4.2 1.2 9
v 4.3 1.2 9
v 4.4 1.2 9
v 4.5 1.2 9
v 4.6 1.2 9
v 4.2 1.2 8.9
v 4.3 1.2 8.9
v 4.4 1.2 8.9
v 4.3 1.2 8.8
v 4.4 1.2 8.8
v 4.5 1.2 8.8
v 4.6 1.2 8.8
v 4.3 1.2 8.7
v 4.4 1.2 8.7
v 4.5 1.2 8.7
v 4.6 1.2 8.7
v 4.4 1.2 8.6
v 4.5 1.2 8.6
v 4.2 1.5 8.9
v 4.3 1.5 8.9
v 4.2 1.5 8.8
v 4.3 1.5 8.8
v 4.4 1.6 9
v 4.5 1.6 9
v 4.4 1.6 8.9
v 4.5 1.6 8.9
v 4.3 1.3 9.1
v 4.4 1.3 9.1
v 4.5 1.3 9.1
v 4.6 1.3 9.1
v 4.2 1.3 9
v 4.3 1.3 9
v 4.4 1.3 9
v 4.5 1.3 9
v 4.6 1.3 9
v 4.2 1.3 8.9
v 4.3 1.3 8.9
v 4.6 1.4 8.9
v 4.7 1.4 8.9
v 4.3 1.4 8.8
v 4.4 1.4 8.8
v 4.5 1.4 8.8
v 4.6 1.4 8.8
v 4.7 1.4 8.8
v 4.3 1.4 8.7
v 4.4 1.4 8.7
v 4.5 1.4 8.7
v 4.6 1.4 8.7
v 4.3 1.5 9
v 4.4 1.5 9
v 4.5 1.5 9
v 4.6 1.5 9
v 4.3 1.5 8.9
v 4.4 1.5 8.9
v 4.5 1.5 8.9
v 4.6 1.5 8.9
v 4.5 1.5 8.8
v 4.6 1.5 8.8
v 4.4 1.5 8.7
v 4.5 1.5 8.7
v 4.4 1.5 8.6
v 4.5 1.5 8.6
v 4.2 1.6 8.9
v 4.3 1.6 8.9
v 4.2 1.6 8.8
v 4.3 1.6 8.8
v 4.3 1.7 8.9
v 4.4 1.7 8.9
v 4.3 1.7 8.8
v 4.4 1.7 8.8
v 4.5 1.7 8.8
v 4.4 1.7 8.7
v 4.5 1.7 8.7
v 4.4 1.8 9
v 4.5 1.8 9
v 4.4 1.8 8.9
v 4.5 1.8 8.9
v 4.4 2 8.9
v 4.5 2 8.9
v 4.4 2 8.8
v 4.5 2 8.8

# faces
f 3/2/1 2/2/1 1/2/1
f 4/2/1 2/2/1 3/2/1
f 7/1/1 6/1/1 5/1/1
f 8/1/1 6/1/1 7/1/1
f 12/2/1 10/2/1 9/2/1
f 13/2/1 10/2/1 12/2/1
f 16/2/1 12/2/1 11/2/1
f 17/2/1 12/2/1 16/2/1
f 18/3/1 14/3/1 13/3/1
f 19/2/1 15/2/1 14/2/1
f 19/3/1 18/3/1 17/3/1
f 19/3/1 14/3/1 18/3/1
f 20/2/1 15/2/1 19/2/1
f 21/3/1 19/3/1 17/3/1
f 22/3/1 19/3/1 21/3/1
f 23/3/1 19/3/1 22/3/1
f 26/3/1 25/3/1 24/3/1
f 27/3/1 25/3/1 26/3/1
f 31/3/1 29/3/1 28/3/1
f 32/2/1 30/2/1 29/2/1
f 32/3/1 29/3/1 31/3/1
f 33/2/1 30/2/1 32/2/1
f 36/2/1 34/2/1 33/2/1
f 37/2/1 34/2/1 36/2/1
f 37/3/1 36/3/1 35/3/1
f 38/2/1 34/2/1 37/2/1
f 41/3/1 37/3/1 35/3/1
f 42/3/1 37/3/1 41/3/1
f 43/3/1 40/3/1 39/3/1
f 44/3/1 40/3/1 43/3/1
f 45/2/1 42/2/1 41/2/1
f 46/2/1 42/2/1 45/2/1
f 47/2/1 44/2/1 43/2/1
f 48/3/1 45/3/1 44/3/1
f 48/2/1 44/2/1 47/2/1
f 49/3/1 45/3/1 48/3/1
f 50/3/1 45/3/1 49/3/1
f 51/1/1 50/1/1 49/1/1
f 52/1/1 50/1/1 51/1/1
f 56/2/1 54/2/1 53/2/1
f 57/2/1 54/2/1 56/2/1
f 58/2/1 56/2/1 55/2/1
f 59/3/1 57/3/1 56/3/1
f 59/2/1 56/2/1 58/2/1
f 60/3/1 57/3/1 59/3/1
f 61/3/1 57/3/1 60/3/1
f 62/1/1 61/1/1 60/1/1
f 63/1/1 61/1/1 62/1/1
f 64/2/2 65/2/2 67/2/2
f 67/2/2 65/2/2 68/2/2
f 66/2/2 67/2/2 69/2/2
f 67/3/2 68/3/2 70/3/2
f 69/2/2 67/2/2 70/2/2
f 70/3/2 68/3/2 71/3/2
f 71/3/2 68/3/2 72/3/2
f 73/2/2 74/2/2 75/2/2
f 75/2/2 74/2/2 76/2/2
f 76/2/2 77/2/2 78/2/2
f 78/2/2 77/2/2 80/2/2
f 79/3/2 80/3/2 82/3/2
f 80/2/2 77/2/2 83/2/2
f 82/3/2 80/3/2 83/3/2
f 83/2/2 77/2/2 84/2/2
f 81/3/2 82/3/2 86/3/2
f 82/3/2 83/3/2 86/3/2
f 86/3/2 83/3/2 87/3/2
f 87/3/2 83/3/2 88/3/2
f 85/3/2 86/3/2 89/3/2
f 86/3/2 87/3/2 89/3/2
f 89/3/2 87/3/2 90/3/2
f 87/2/2 88/2/2 91/2/2
f 90/3/2 87/3/2 91/3/2
f 91/2/2 88/2/2 92/2/2
f 89/2/2 90/2/2 93/2/2
f 90/3/2 91/3/2 94/3/2
f 93/2/2 90/2/2 94/2/2
f 94/3/2 91/3/2 95/3/2
f 95/3/2 91/3/2 96/3/2
f 95/1/2 96/1/2 97/1/2
f 97/1/2 96/1/2 98/1/2
f 99/2/2 100/2/2 102/2/2
f 102/2/2 100/2/2 103/2/2
f 101/2/2 102/2/2 106/2/2
f 102/3/2 103/3/2 107/3/2
f 106/2/2 102/2/2 107/2/2
f 104/3/2 105/3/2 108/3/2
f 108/3/2 105/3/2 109/3/2
f 107/3/2 103/3/2 110/3/2
f 110/3/2 103/3/2 111/3/2
f 108/1/2 109/1/2 112/1/2
f 112/1/2 109/1/2 113/1/2
f 110/1/2 111/1/2 114/1/2
f 111/3/2 112/3/2 115/3/2
f 114/1/2 111/1/2 115/1/2
f 115/3/2 112/3/2 116/3/2
f 117/2/2 118/2/2 119/2/2
f 119/2/2 118/2/2 120/2/2
f 123/2/3 122/2/3 121/2/3
f 124/2/3 122/2/3 123/2/3
f 127/2/3 126/2/3 125/2/3
f 128/2/3 126/2/3 127/2/3
f 132/2/3 130/2/3 129/2/3
f 133/2/3 130/2/3 132/2/3
f 135/2/3 132/2/3 131/2/3
f 136/2/3 132/2/3 135/2/3
f 137/3/3 134/3/3 133/3/3
f 138/3/3 134/3/3 137/3/3
f 147/3/3 140/3/3 139/3/3
f 148/2/3 141/2/3 140/2/3
f 148/3/3 140/3/3 147/3/3
f 149/2/3 141/2/3 148/2/3
f 150/2/3 143/2/3 142/2/3
f 151/2/3 143/2/3 150/2/3
f 152/3/3 145/3/3 144/3/3
f 153/1/3 146/1/3 145/1/3
f 153/3/3 145/3/3 152/3/3
f 154/1/3 146/1/3 153/1/3
f 157/1/3 156/1/3 155/1/3
f 158/1/3 156/1/3 157/1/3
f 162/3/3 158/3/3 157/3/3
f 162/3/3 159/3/3 158/3/3
f 163/3/3 159/3/3 162/3/3
f 164/3/3 159/3/3 163/3/3
f 168/3/3 161/3/3 160/3/3
f 168/3/3 162/3/3 161/3/3
f 168/3/3 163/3/3 162/3/3
f 169/3/3 163/3/3 168/3/3
f 170/3/3 163/3/3 169/3/3
f 171/3/3 163/3/3 170/3/3
f 172/3/3 163/3/3 171/3/3
f 173/3/3 166/3/3 165/3/3
f 174/1/3 167/1/3 166/1/3
f 174/3/3 166/3/3 173/3/3
f 175/1/3 167/1/3 174/1/3
f 179/2/3 177/2/3 176/2/3
f 179/2/3 178/2/3 177/2/3
f 180/2/3 178/2/3 179/2/3
f 181/2/4 182/2/4 184/2/4
f 184/2/4 182/2/4 185/2/4
f 183/2/4 184/2/4 186/2/4
f 186/2/4 184/2/4 187/2/4
f 188/1/4 189/1/4 191/1/4
f 191/1/4 189/1/4 192/1/4
f 190/3/4 191/3/4 194/3/4
f 192/3/4 193/3/4 194/3/4
f 191/3/4 192/3/4 194/3/4
f 194/3/4 193/3/4 195/3/4
f 195/3/4 193/3/4 196/3/4
f 196/3/4 197/3/4 203/3/4
f 197/1/4 198/1/4 204/1/4
f 203/3/4 197/3/4 204/3/4
f 204/1/4 198/1/4 205/1/4
f 199/3/4 200/3/4 206/3/4
f 206/3/4 200/3/4 207/3/4
f 201/3/4 202/3/4 209/3/4
f 209/3/4 202/3/4 210/3/4
f 207/2/4 208/2/4 211/2/4
f 206/2/4 207/2/4 211/2/4
f 208/2/4 209/2/4 211/2/4
f 211/2/4 209/2/4 212/2/4
f 213/2/4 214/2/4 216/2/4
f 216/2/4 214/2/4 217/2/4
f 215/2/4 216/2/4 221/2/4
f 221/2/4 216/2/4 222/2/4
f 218/3/4 219/3/4 225/3/4
f 219/2/4 220/2/4 226/2/4
f 225/3/4 219/3/4 226/3/4
f 226/2/4 220/2/4 227/2/4
f 222/3/4 223/3/4 228/3/4
f 223/1/4 224/1/4 229/1/4
f 228/3/4 223/3/4 229/3/4
f 229/1/4 224/1/4 230/1/4
f 231/2/4 232/2/4 233/2/4
f 233/2/4 232/2/4 234/2/4
f 239/2/5 236/2/5 235/2/5
f 240/2/5 236/2/5 239/2/5
f 241/2/5 238/2/5 237/2/5
f 242/2/5 238/2/5 241/2/5
f 244/3/5 241/3/5 240/3/5
f 244/3/5 242/3/5 241/3/5
f 245/3/5 242/3/5 244/3/5
f 246/2/5 243/2/5 242/2/5
f 246/3/5 242/3/5 245/3/5
f 247/2/5 243/2/5 246/2/5
f 248/2/5 245/2/5 244/2/5
f 249/2/5 245/2/5 248/2/5
f 255/2/5 251/2/5 250/2/5
f 256/2/5 251/2/5 255/2/5
f 257/2/5 253/2/5 252/2/5
f 258/2/5 253/2/5 257/2/5
f 259/2/5 255/2/5 254/2/5
f 260/2/5 255/2/5 259/2/5
f 262/3/5 261/3/5 260/3/5
f 263/3/5 261/3/5 262/3/5
f 266/2/5 263/2/5 262/2/5
f 267/2/5 263/2/5 266/2/5
f 268/3/5 265/3/5 264/3/5
f 269/3/5 265/3/5 268/3/5
f 270/2/5 268/2/5 267/2/5
f 271/2/5 268/2/5 270/2/5
f 274/1/5 273/1/5 272/1/5
f 275/1/5 273/1/5 274/1/5
f 278/3/5 277/3/5 276/3/5
f 279/3/5 277/3/5 278/3/5
f 280/2/6 281/2/6 285/2/6
f 285/2/6 281/2/6 286/2/6
f 282/2/6 283/2/6 287/2/6
f 287/2/6 283/2/6 288/2/6
f 284/2/6 285/2/6 289/2/6
f 289/2/6 285/2/6 290/2/6
f 291/2/6 292/2/6 296/2/6
f 296/2/6 292/2/6 297/2/6
f 293/2/6 294/2/6 298/2/6
f 298/2/6 294/2/6 299/2/6
f 295/1/6 296/1/6 300/1/6
f 300/1/6 296/1/6 301/1/6
f 302/3/6 303/3/6 306/3/6
f 306/3/6 303/3/6 307/3/6
f 304/1/6 305/1/6 308/1/6
f 308/1/6 305/1/6 309/1/6
f 308/3/6 309/3/6 310/3/6
f 310/3/6 309/3/6 311/3/6
f 312/2/6 313/2/6 314/2/6
f 314/2/6 313/2/6 315/2/6
f 316/1/6 317/1/6 318/1/6
f 318/1/6 317/1/6 319/1/6
f 320/3/6 321/3/6 322/3/6
f 322/3/6 321/3/6 323/3/6
f 323/2/6 324/2/6 325/2/6
f 325/2/6 324/2/6 326/2/6
f 327/2/6 328/2/6 329/2/6
f 329/2/6 328/2/6 330/2/6
f 331/1/6 332/1/6 333/1/6
f 333/1/6 332/1/6 334/1/6
