# MagicaVoxel @ Ephtracy

# group
o 

# material
mtllib lvl3-8.mtl
usemtl palette

# normals
vn -1 0 0
vn 1 0 0
vn 0 0 1
vn 0 0 -1
vn 0 -1 0
vn 0 1 0

# texcoords
vt 0.904297 0.5
vt 0.935547 0.5
vt 0.966797 0.5
vt 0.978516 0.5

# verts
v 1 5.3 -5
v 1 5.3 -5.1
v 1 5.4 -5
v 1 5.4 -5.1
v 1 5.4 -5.2
v 1 5.5 -5.1
v 1 5.5 -5.2
v 1 5.6 -4.9
v 1 5.6 -5
v 1 5.6 -5.1
v 1 5.7 -4.9
v 1 5.7 -5
v 1 5.7 -5.1
v 1.1 5.4 -5
v 1.1 5.4 -5.1
v 1.1 5.4 -5.2
v 1.1 5.4 -5.3
v 1.1 5.5 -5.1
v 1.1 5.5 -5.2
v 1.1 5.5 -5.3
v 1.1 5.6 -5
v 1.1 5.6 -5.1
v 1.1 5.6 -5.2
v 1.1 5.7 -4.9
v 1.1 5.7 -5
v 1.1 5.7 -5.1
v 1.1 5.7 -5.2
v 1.1 5.8 -4.9
v 1.1 5.8 -5
v 1.1 5.8 -5.1
v 1.2 5.2 -5
v 1.2 5.2 -5.1
v 1.2 5.3 -5
v 1.2 5.3 -5.1
v 1.3 5.1 -5
v 1.3 5.1 -5.1
v 1.3 5.2 -5
v 1.3 5.2 -5.1
v 1.3 5.2 -5.3
v 1.3 5.3 -4.7
v 1.3 5.3 -4.8
v 1.3 5.3 -5.1
v 1.3 5.3 -5.3
v 1.3 5.4 -4.7
v 1.3 5.4 -4.8
v 1.3 5.6 -5.1
v 1.3 5.6 -5.3
v 1.3 5.6 -5.4
v 1.3 5.6 -5.5
v 1.3 5.7 -5.1
v 1.3 5.7 -5.3
v 1.3 5.7 -5.4
v 1.3 5.7 -5.5
v 1.4 4.8 -5
v 1.4 4.8 -5.1
v 1.4 5 -4.8
v 1.4 5 -5
v 1.4 5.1 -4.9
v 1.4 5.1 -5
v 1.4 5.1 -5.1
v 1.4 5.2 -4.7
v 1.4 5.2 -4.8
v 1.4 5.2 -5.3
v 1.4 5.2 -5.4
v 1.4 5.3 -4.6
v 1.4 5.3 -4.7
v 1.4 5.3 -4.8
v 1.4 5.3 -4.9
v 1.4 5.3 -5.2
v 1.4 5.3 -5.3
v 1.4 5.3 -5.4
v 1.4 5.3 -5.5
v 1.4 5.4 -4.6
v 1.4 5.4 -4.7
v 1.4 5.4 -4.8
v 1.4 5.4 -4.9
v 1.4 5.4 -5.2
v 1.4 5.4 -5.3
v 1.4 5.4 -5.4
v 1.4 5.4 -5.5
v 1.4 5.5 -4.7
v 1.4 5.5 -4.8
v 1.4 5.5 -5.3
v 1.4 5.5 -5.4
v 1.4 5.5 -5.5
v 1.4 5.6 -4.7
v 1.4 5.6 -4.8
v 1.4 5.6 -4.9
v 1.4 5.6 -5.3
v 1.4 5.6 -5.4
v 1.4 5.6 -5.5
v 1.4 5.6 -5.6
v 1.4 5.7 -5.3
v 1.4 5.7 -5.4
v 1.4 5.7 -5.5
v 1.4 5.7 -5.6
v 1.4 5.8 -5.4
v 1.4 5.8 -5.5
v 1.5 5.4 -4.6
v 1.5 5.4 -4.7
v 1.5 5.5 -4.6
v 1.5 5.5 -4.7
v 1.2 5.4 -5
v 1.2 5.4 -5.1
v 1.2 5.4 -5.2
v 1.2 5.4 -5.3
v 1.2 5.5 -5.1
v 1.2 5.5 -5.2
v 1.2 5.5 -5.3
v 1.2 5.6 -4.9
v 1.2 5.6 -5
v 1.2 5.6 -5.1
v 1.2 5.6 -5.2
v 1.2 5.7 -5
v 1.2 5.7 -5.1
v 1.2 5.7 -5.2
v 1.2 5.8 -4.9
v 1.2 5.8 -5
v 1.2 5.8 -5.1
v 1.3 5.3 -5
v 1.3 5.3 -5.1
v 1.3 5.4 -5
v 1.3 5.4 -5.1
v 1.3 5.6 -5
v 1.3 5.6 -5.1
v 1.3 5.7 -5
v 1.3 5.7 -5.1
v 1.4 5.2 -5.1
v 1.4 5.2 -5.3
v 1.4 5.3 -5.1
v 1.4 5.3 -5.2
v 1.4 5.3 -5.3
v 1.4 5.6 -5.1
v 1.4 5.6 -5.2
v 1.4 5.7 -5.1
v 1.4 5.7 -5.2
v 1.5 4.8 -5
v 1.5 4.8 -5.1
v 1.5 5 -4.8
v 1.5 5 -5
v 1.5 5.1 -4.9
v 1.5 5.1 -5
v 1.5 5.2 -4.7
v 1.5 5.2 -4.8
v 1.5 5.2 -5.3
v 1.5 5.2 -5.4
v 1.5 5.3 -4.6
v 1.5 5.3 -4.7
v 1.5 5.3 -4.8
v 1.5 5.3 -4.9
v 1.5 5.3 -5
v 1.5 5.3 -5.1
v 1.5 5.3 -5.2
v 1.5 5.3 -5.3
v 1.5 5.3 -5.4
v 1.5 5.4 -4.6
v 1.5 5.4 -4.7
v 1.5 5.4 -4.8
v 1.5 5.4 -4.9
v 1.5 5.4 -5.2
v 1.5 5.4 -5.3
v 1.5 5.4 -5.4
v 1.5 5.5 -4.7
v 1.5 5.5 -4.8
v 1.5 5.5 -5.3
v 1.5 5.5 -5.4
v 1.5 5.5 -5.5
v 1.5 5.6 -4.7
v 1.5 5.6 -4.8
v 1.5 5.6 -4.9
v 1.5 5.6 -5.2
v 1.5 5.6 -5.3
v 1.5 5.6 -5.4
v 1.5 5.6 -5.5
v 1.5 5.6 -5.6
v 1.5 5.7 -5.2
v 1.5 5.7 -5.3
v 1.5 5.7 -5.4
v 1.5 5.7 -5.5
v 1.5 5.7 -5.6
v 1.5 5.8 -5.4
v 1.5 5.8 -5.5
v 1.6 5.3 -4.7
v 1.6 5.3 -4.8
v 1.6 5.3 -5.3
v 1.6 5.3 -5.4
v 1.6 5.3 -5.5
v 1.6 5.4 -4.6
v 1.6 5.4 -4.7
v 1.6 5.4 -5.3
v 1.6 5.4 -5.4
v 1.6 5.4 -5.5
v 1.6 5.5 -4.6
v 1.6 5.5 -4.7
v 1.6 5.5 -4.8
v 1.4 5.3 -4.6
v 1.4 5.4 -4.6
v 1.5 5.3 -4.6
v 1.5 5.4 -4.6
v 1.5 5.5 -4.6
v 1.6 5.4 -4.6
v 1.6 5.5 -4.6
v 1.3 5.3 -4.7
v 1.3 5.4 -4.7
v 1.4 5.2 -4.7
v 1.4 5.3 -4.7
v 1.4 5.4 -4.7
v 1.4 5.5 -4.7
v 1.4 5.6 -4.7
v 1.5 5.2 -4.7
v 1.5 5.3 -4.7
v 1.5 5.4 -4.7
v 1.5 5.5 -4.7
v 1.5 5.6 -4.7
v 1.6 5.3 -4.7
v 1.6 5.4 -4.7
v 1.4 5 -4.8
v 1.4 5.2 -4.8
v 1.5 5 -4.8
v 1.5 5.2 -4.8
v 1 5.6 -4.9
v 1 5.7 -4.9
v 1.1 5.6 -4.9
v 1.1 5.7 -4.9
v 1.1 5.8 -4.9
v 1.2 5.6 -4.9
v 1.2 5.8 -4.9
v 1 5.3 -5
v 1 5.4 -5
v 1.1 5.4 -5
v 1.1 5.6 -5
v 1.2 5.2 -5
v 1.2 5.3 -5
v 1.2 5.4 -5
v 1.2 5.6 -5
v 1.2 5.7 -5
v 1.3 5.1 -5
v 1.3 5.2 -5
v 1.3 5.3 -5
v 1.3 5.4 -5
v 1.3 5.6 -5
v 1.3 5.7 -5
v 1.4 4.8 -5
v 1.4 5 -5
v 1.4 5.1 -5
v 1.5 4.8 -5
v 1.5 5 -5
v 1.5 5.1 -5
v 1.5 5.3 -5
v 1 5.4 -5.1
v 1 5.5 -5.1
v 1.1 5.4 -5.1
v 1.1 5.5 -5.1
v 1.3 5.6 -5.1
v 1.3 5.7 -5.1
v 1.4 5.6 -5.1
v 1.4 5.7 -5.1
v 1.4 5.3 -5.2
v 1.4 5.4 -5.2
v 1.4 5.6 -5.2
v 1.4 5.7 -5.2
v 1.5 5.3 -5.2
v 1.5 5.4 -5.2
v 1.5 5.6 -5.2
v 1.5 5.7 -5.2
v 1.4 5.2 -5.3
v 1.4 5.3 -5.3
v 1.4 5.4 -5.3
v 1.4 5.5 -5.3
v 1.5 5.2 -5.3
v 1.5 5.3 -5.3
v 1.5 5.4 -5.3
v 1.5 5.5 -5.3
v 1.6 5.3 -5.3
v 1.6 5.4 -5.3
v 1.3 5.6 -5.4
v 1.3 5.7 -5.4
v 1.4 5.5 -5.4
v 1.4 5.6 -5.4
v 1.4 5.7 -5.4
v 1.4 5.8 -5.4
v 1.5 5.5 -5.4
v 1.5 5.6 -5.4
v 1.5 5.7 -5.4
v 1.5 5.8 -5.4
v 1.3 5.3 -4.8
v 1.3 5.4 -4.8
v 1.4 5.3 -4.8
v 1.4 5.4 -4.8
v 1.5 5.3 -4.8
v 1.5 5.4 -4.8
v 1.5 5.5 -4.8
v 1.6 5.3 -4.8
v 1.6 5.5 -4.8
v 1.4 5.1 -4.9
v 1.4 5.3 -4.9
v 1.4 5.4 -4.9
v 1.4 5.6 -4.9
v 1.5 5.1 -4.9
v 1.5 5.3 -4.9
v 1.5 5.4 -4.9
v 1.5 5.6 -4.9
v 1 5.3 -5.1
v 1 5.4 -5.1
v 1 5.6 -5.1
v 1 5.7 -5.1
v 1.1 5.4 -5.1
v 1.1 5.5 -5.1
v 1.1 5.6 -5.1
v 1.1 5.7 -5.1
v 1.1 5.8 -5.1
v 1.2 5.2 -5.1
v 1.2 5.3 -5.1
v 1.2 5.4 -5.1
v 1.2 5.5 -5.1
v 1.2 5.6 -5.1
v 1.2 5.7 -5.1
v 1.2 5.8 -5.1
v 1.3 5.1 -5.1
v 1.3 5.2 -5.1
v 1.3 5.3 -5.1
v 1.3 5.4 -5.1
v 1.3 5.6 -5.1
v 1.3 5.7 -5.1
v 1.4 4.8 -5.1
v 1.4 5.1 -5.1
v 1.4 5.2 -5.1
v 1.4 5.3 -5.1
v 1.5 4.8 -5.1
v 1.5 5.3 -5.1
v 1 5.4 -5.2
v 1 5.5 -5.2
v 1.1 5.4 -5.2
v 1.1 5.5 -5.2
v 1.1 5.6 -5.2
v 1.1 5.7 -5.2
v 1.2 5.6 -5.2
v 1.2 5.7 -5.2
v 1.1 5.4 -5.3
v 1.1 5.5 -5.3
v 1.2 5.4 -5.3
v 1.2 5.5 -5.3
v 1.3 5.2 -5.3
v 1.3 5.3 -5.3
v 1.3 5.6 -5.3
v 1.3 5.7 -5.3
v 1.4 5.2 -5.3
v 1.4 5.3 -5.3
v 1.4 5.6 -5.3
v 1.4 5.7 -5.3
v 1.4 5.2 -5.4
v 1.4 5.3 -5.4
v 1.4 5.4 -5.4
v 1.4 5.5 -5.4
v 1.5 5.2 -5.4
v 1.5 5.3 -5.4
v 1.5 5.4 -5.4
v 1.5 5.5 -5.4
v 1.3 5.6 -5.5
v 1.3 5.7 -5.5
v 1.4 5.3 -5.5
v 1.4 5.4 -5.5
v 1.4 5.5 -5.5
v 1.4 5.6 -5.5
v 1.4 5.7 -5.5
v 1.4 5.8 -5.5
v 1.5 5.3 -5.5
v 1.5 5.4 -5.5
v 1.5 5.5 -5.5
v 1.5 5.6 -5.5
v 1.5 5.7 -5.5
v 1.5 5.8 -5.5
v 1.6 5.3 -5.5
v 1.6 5.4 -5.5
v 1.4 5.6 -5.6
v 1.4 5.7 -5.6
v 1.5 5.6 -5.6
v 1.5 5.7 -5.6
v 1.4 4.8 -5
v 1.5 4.8 -5
v 1.4 4.8 -5.1
v 1.5 4.8 -5.1
v 1.4 5 -4.8
v 1.5 5 -4.8
v 1.4 5 -5
v 1.5 5 -5
v 1.3 5.1 -5
v 1.4 5.1 -5
v 1.3 5.1 -5.1
v 1.4 5.1 -5.1
v 1.4 5.2 -4.7
v 1.5 5.2 -4.7
v 1.4 5.2 -4.8
v 1.5 5.2 -4.8
v 1.2 5.2 -5
v 1.3 5.2 -5
v 1.2 5.2 -5.1
v 1.3 5.2 -5.1
v 1.4 5.2 -5.1
v 1.3 5.2 -5.3
v 1.4 5.2 -5.3
v 1.5 5.2 -5.3
v 1.4 5.2 -5.4
v 1.5 5.2 -5.4
v 1.4 5.3 -4.6
v 1.5 5.3 -4.6
v 1.3 5.3 -4.7
v 1.4 5.3 -4.7
v 1.5 5.3 -4.7
v 1.6 5.3 -4.7
v 1.3 5.3 -4.8
v 1.4 5.3 -4.8
v 1.5 5.3 -4.8
v 1.6 5.3 -4.8
v 1 5.3 -5
v 1.2 5.3 -5
v 1 5.3 -5.1
v 1.2 5.3 -5.1
v 1.4 5.3 -5.2
v 1.5 5.3 -5.2
v 1.4 5.3 -5.3
v 1.5 5.3 -5.3
v 1.6 5.3 -5.3
v 1.4 5.3 -5.4
v 1.5 5.3 -5.4
v 1.6 5.3 -5.4
v 1.4 5.3 -5.5
v 1.5 5.3 -5.5
v 1.6 5.3 -5.5
v 1.5 5.4 -4.6
v 1.6 5.4 -4.6
v 1.5 5.4 -4.7
v 1.6 5.4 -4.7
v 1.4 5.4 -4.8
v 1.5 5.4 -4.8
v 1.4 5.4 -4.9
v 1.5 5.4 -4.9
v 1 5.4 -5.1
v 1.1 5.4 -5.1
v 1.2 5.4 -5.1
v 1 5.4 -5.2
v 1.1 5.4 -5.2
v 1.2 5.4 -5.2
v 1.1 5.4 -5.3
v 1.2 5.4 -5.3
v 1.4 5.5 -5.4
v 1.5 5.5 -5.4
v 1.4 5.5 -5.5
v 1.5 5.5 -5.5
v 1 5.6 -4.9
v 1.1 5.6 -4.9
v 1.2 5.6 -4.9
v 1 5.6 -5
v 1.1 5.6 -5
v 1.2 5.6 -5
v 1.3 5.6 -5
v 1 5.6 -5.1
v 1.1 5.6 -5.1
v 1.2 5.6 -5.1
v 1.3 5.6 -5.1
v 1.4 5.6 -5.1
v 1.1 5.6 -5.2
v 1.2 5.6 -5.2
v 1.4 5.6 -5.2
v 1.5 5.6 -5.2
v 1.3 5.6 -5.3
v 1.4 5.6 -5.3
v 1.5 5.6 -5.3
v 1.3 5.6 -5.4
v 1.4 5.6 -5.4
v 1.5 5.6 -5.4
v 1.3 5.6 -5.5
v 1.4 5.6 -5.5
v 1.5 5.6 -5.5
v 1.4 5.6 -5.6
v 1.5 5.6 -5.6
v 1.4 5.1 -4.9
v 1.5 5.1 -4.9
v 1.4 5.1 -5
v 1.5 5.1 -5
v 1.4 5.3 -4.8
v 1.5 5.3 -4.8
v 1.4 5.3 -4.9
v 1.5 5.3 -4.9
v 1.3 5.3 -5
v 1.5 5.3 -5
v 1.3 5.3 -5.1
v 1.4 5.3 -5.1
v 1.5 5.3 -5.1
v 1.4 5.3 -5.2
v 1.3 5.3 -5.3
v 1.4 5.3 -5.3
v 1.4 5.4 -4.6
v 1.5 5.4 -4.6
v 1.3 5.4 -4.7
v 1.4 5.4 -4.7
v 1.5 5.4 -4.7
v 1.3 5.4 -4.8
v 1.4 5.4 -4.8
v 1 5.4 -5
v 1.1 5.4 -5
v 1.2 5.4 -5
v 1.3 5.4 -5
v 1 5.4 -5.1
v 1.1 5.4 -5.1
v 1.2 5.4 -5.1
v 1.3 5.4 -5.1
v 1.4 5.4 -5.2
v 1.5 5.4 -5.2
v 1.4 5.4 -5.3
v 1.5 5.4 -5.3
v 1.6 5.4 -5.3
v 1.4 5.4 -5.4
v 1.5 5.4 -5.4
v 1.6 5.4 -5.4
v 1.4 5.4 -5.5
v 1.5 5.4 -5.5
v 1.6 5.4 -5.5
v 1.5 5.5 -4.6
v 1.6 5.5 -4.6
v 1.5 5.5 -4.7
v 1.6 5.5 -4.7
v 1.5 5.5 -4.8
v 1.6 5.5 -4.8
v 1 5.5 -5.1
v 1.1 5.5 -5.1
v 1.2 5.5 -5.1
v 1 5.5 -5.2
v 1.1 5.5 -5.2
v 1.2 5.5 -5.2
v 1.1 5.5 -5.3
v 1.2 5.5 -5.3
v 1.4 5.5 -5.3
v 1.5 5.5 -5.3
v 1.4 5.5 -5.4
v 1.5 5.5 -5.4
v 1.4 5.6 -4.7
v 1.5 5.6 -4.7
v 1.4 5.6 -4.8
v 1.5 5.6 -4.8
v 1.4 5.6 -4.9
v 1.5 5.6 -4.9
v 1 5.7 -4.9
v 1.1 5.7 -4.9
v 1 5.7 -5
v 1.1 5.7 -5
v 1.2 5.7 -5
v 1.3 5.7 -5
v 1 5.7 -5.1
v 1.1 5.7 -5.1
v 1.2 5.7 -5.1
v 1.3 5.7 -5.1
v 1.4 5.7 -5.1
v 1.1 5.7 -5.2
v 1.2 5.7 -5.2
v 1.4 5.7 -5.2
v 1.5 5.7 -5.2
v 1.3 5.7 -5.3
v 1.4 5.7 -5.3
v 1.5 5.7 -5.3
v 1.3 5.7 -5.4
v 1.4 5.7 -5.4
v 1.5 5.7 -5.4
v 1.3 5.7 -5.5
v 1.4 5.7 -5.5
v 1.5 5.7 -5.5
v 1.4 5.7 -5.6
v 1.5 5.7 -5.6
v 1.1 5.8 -4.9
v 1.2 5.8 -4.9
v 1.1 5.8 -5
v 1.2 5.8 -5
v 1.1 5.8 -5.1
v 1.2 5.8 -5.1
v 1.4 5.8 -5.4
v 1.5 5.8 -5.4
v 1.4 5.8 -5.5
v 1.5 5.8 -5.5

# faces
f 3/4/1 2/4/1 1/4/1
f 4/4/1 2/4/1 3/4/1
f 6/2/1 5/2/1 4/2/1
f 7/2/1 5/2/1 6/2/1
f 11/2/1 9/2/1 8/2/1
f 12/3/1 10/3/1 9/3/1
f 12/2/1 9/2/1 11/2/1
f 13/3/1 10/3/1 12/3/1
f 18/4/1 15/4/1 14/4/1
f 19/1/1 17/1/1 16/1/1
f 20/1/1 17/1/1 19/1/1
f 21/4/1 18/4/1 14/4/1
f 22/4/1 18/4/1 21/4/1
f 26/2/1 23/2/1 22/2/1
f 27/2/1 23/2/1 26/2/1
f 28/1/1 25/1/1 24/1/1
f 29/3/1 26/3/1 25/3/1
f 29/1/1 25/1/1 28/1/1
f 30/3/1 26/3/1 29/3/1
f 33/4/1 32/4/1 31/4/1
f 34/4/1 32/4/1 33/4/1
f 37/4/1 36/4/1 35/4/1
f 38/4/1 36/4/1 37/4/1
f 42/4/1 39/4/1 38/4/1
f 43/4/1 39/4/1 42/4/1
f 44/1/1 41/1/1 40/1/1
f 45/1/1 41/1/1 44/1/1
f 50/1/1 47/1/1 46/1/1
f 51/1/1 47/1/1 50/1/1
f 52/1/1 49/1/1 48/1/1
f 53/1/1 49/1/1 52/1/1
f 57/4/1 55/4/1 54/4/1
f 58/4/1 57/4/1 56/4/1
f 59/4/1 55/4/1 57/4/1
f 59/4/1 57/4/1 58/4/1
f 60/4/1 55/4/1 59/4/1
f 62/4/1 58/4/1 56/4/1
f 66/4/1 62/4/1 61/4/1
f 67/4/1 58/4/1 62/4/1
f 67/4/1 62/4/1 66/4/1
f 68/4/1 58/4/1 67/4/1
f 70/4/1 64/4/1 63/4/1
f 71/4/1 64/4/1 70/4/1
f 73/2/1 66/2/1 65/2/1
f 74/2/1 66/2/1 73/2/1
f 77/3/1 70/3/1 69/3/1
f 78/4/1 71/4/1 70/4/1
f 78/3/1 70/3/1 77/3/1
f 79/3/1 72/3/1 71/3/1
f 79/4/1 71/4/1 78/4/1
f 80/3/1 72/3/1 79/3/1
f 81/4/1 75/4/1 74/4/1
f 82/3/1 76/3/1 75/3/1
f 82/4/1 75/4/1 81/4/1
f 83/4/1 79/4/1 78/4/1
f 84/4/1 79/4/1 83/4/1
f 86/2/1 82/2/1 81/2/1
f 87/3/1 76/3/1 82/3/1
f 87/2/1 82/2/1 86/2/1
f 88/3/1 76/3/1 87/3/1
f 90/4/1 85/4/1 84/4/1
f 91/4/1 85/4/1 90/4/1
f 93/3/1 90/3/1 89/3/1
f 94/3/1 90/3/1 93/3/1
f 95/1/1 92/1/1 91/1/1
f 96/1/1 92/1/1 95/1/1
f 97/2/1 95/2/1 94/2/1
f 98/2/1 95/2/1 97/2/1
f 101/2/1 100/2/1 99/2/1
f 102/2/1 100/2/1 101/2/1
f 103/4/2 104/4/2 107/4/2
f 104/3/2 105/3/2 107/3/2
f 105/1/2 106/1/2 108/1/2
f 107/3/2 105/3/2 108/3/2
f 108/1/2 106/1/2 109/1/2
f 103/4/2 107/4/2 111/4/2
f 111/4/2 107/4/2 112/4/2
f 110/1/2 111/1/2 114/1/2
f 112/2/2 113/2/2 115/2/2
f 115/2/2 113/2/2 116/2/2
f 110/1/2 114/1/2 117/1/2
f 114/3/2 115/3/2 118/3/2
f 117/1/2 114/1/2 118/1/2
f 118/3/2 115/3/2 119/3/2
f 120/4/2 121/4/2 122/4/2
f 122/4/2 121/4/2 123/4/2
f 124/3/2 125/3/2 126/3/2
f 126/3/2 125/3/2 127/3/2
f 128/4/2 129/4/2 130/4/2
f 130/4/2 129/4/2 131/4/2
f 131/4/2 129/4/2 132/4/2
f 133/1/2 134/1/2 135/1/2
f 135/1/2 134/1/2 136/1/2
f 137/4/2 138/4/2 140/4/2
f 139/4/2 140/4/2 141/4/2
f 140/4/2 138/4/2 142/4/2
f 141/4/2 140/4/2 142/4/2
f 139/4/2 141/4/2 144/4/2
f 143/4/2 144/4/2 148/4/2
f 144/4/2 141/4/2 149/4/2
f 148/4/2 144/4/2 149/4/2
f 149/4/2 141/4/2 150/4/2
f 142/4/2 138/4/2 151/4/2
f 151/4/2 138/4/2 152/4/2
f 145/4/2 146/4/2 154/4/2
f 154/4/2 146/4/2 155/4/2
f 147/2/2 148/2/2 156/2/2
f 156/2/2 148/2/2 157/2/2
f 153/3/2 154/3/2 160/3/2
f 160/3/2 154/3/2 161/3/2
f 158/3/2 159/3/2 164/3/2
f 161/4/2 162/4/2 165/4/2
f 165/4/2 162/4/2 166/4/2
f 163/2/2 164/2/2 168/2/2
f 164/3/2 159/3/2 169/3/2
f 168/2/2 164/2/2 169/2/2
f 169/3/2 159/3/2 170/3/2
f 166/4/2 167/4/2 173/4/2
f 173/4/2 167/4/2 174/4/2
f 171/2/2 172/2/2 176/2/2
f 172/3/2 173/3/2 177/3/2
f 176/2/2 172/2/2 177/2/2
f 173/4/2 174/4/2 178/4/2
f 177/3/2 173/3/2 178/3/2
f 174/1/2 175/1/2 179/1/2
f 178/4/2 174/4/2 179/4/2
f 179/1/2 175/1/2 180/1/2
f 178/2/2 179/2/2 181/2/2
f 181/2/2 179/2/2 182/2/2
f 183/3/2 184/3/2 189/3/2
f 185/3/2 186/3/2 190/3/2
f 186/2/2 187/2/2 191/2/2
f 190/3/2 186/3/2 191/3/2
f 191/2/2 187/2/2 192/2/2
f 188/2/2 189/2/2 193/2/2
f 189/3/2 184/3/2 194/3/2
f 193/2/2 189/2/2 194/2/2
f 194/3/2 184/3/2 195/3/2
f 198/2/3 197/2/3 196/2/3
f 199/2/3 197/2/3 198/2/3
f 201/2/3 200/2/3 199/2/3
f 202/2/3 200/2/3 201/2/3
f 206/1/3 204/1/3 203/1/3
f 207/1/3 204/1/3 206/1/3
f 210/4/3 206/4/3 205/4/3
f 211/4/3 206/4/3 210/4/3
f 212/4/3 208/4/3 207/4/3
f 213/2/3 209/2/3 208/2/3
f 213/4/3 208/4/3 212/4/3
f 214/2/3 209/2/3 213/2/3
f 215/3/3 212/3/3 211/3/3
f 216/3/3 212/3/3 215/3/3
f 219/4/3 218/4/3 217/4/3
f 220/4/3 218/4/3 219/4/3
f 223/2/3 222/2/3 221/2/3
f 224/2/3 222/2/3 223/2/3
f 226/1/3 224/1/3 223/1/3
f 226/1/3 225/1/3 224/1/3
f 227/1/3 225/1/3 226/1/3
f 230/4/3 229/4/3 228/4/3
f 233/4/3 230/4/3 228/4/3
f 233/4/3 231/4/3 230/4/3
f 234/4/3 231/4/3 233/4/3
f 235/4/3 231/4/3 234/4/3
f 238/4/3 233/4/3 232/4/3
f 238/4/3 234/4/3 233/4/3
f 239/4/3 234/4/3 238/4/3
f 240/4/3 234/4/3 239/4/3
f 241/3/3 236/3/3 235/3/3
f 242/3/3 236/3/3 241/3/3
f 245/4/3 238/4/3 237/4/3
f 245/4/3 239/4/3 238/4/3
f 246/4/3 244/4/3 243/4/3
f 247/4/3 244/4/3 246/4/3
f 248/4/3 239/4/3 245/4/3
f 249/4/3 239/4/3 248/4/3
f 252/2/3 251/2/3 250/2/3
f 253/2/3 251/2/3 252/2/3
f 256/1/3 255/1/3 254/1/3
f 257/1/3 255/1/3 256/1/3
f 262/3/3 259/3/3 258/3/3
f 263/3/3 259/3/3 262/3/3
f 264/2/3 261/2/3 260/2/3
f 265/2/3 261/2/3 264/2/3
f 270/4/3 267/4/3 266/4/3
f 271/4/3 267/4/3 270/4/3
f 272/4/3 269/4/3 268/4/3
f 273/4/3 269/4/3 272/4/3
f 274/3/3 272/3/3 271/3/3
f 275/3/3 272/3/3 274/3/3
f 279/1/3 277/1/3 276/1/3
f 280/1/3 277/1/3 279/1/3
f 282/4/3 279/4/3 278/4/3
f 283/4/3 279/4/3 282/4/3
f 284/2/3 281/2/3 280/2/3
f 285/2/3 281/2/3 284/2/3
f 286/1/4 287/1/4 288/1/4
f 288/1/4 287/1/4 289/1/4
f 288/4/4 289/4/4 290/4/4
f 290/4/4 289/4/4 291/4/4
f 290/3/4 291/3/4 293/3/4
f 291/3/4 292/3/4 293/3/4
f 293/3/4 292/3/4 294/3/4
f 295/4/4 296/4/4 299/4/4
f 299/4/4 296/4/4 300/4/4
f 297/3/4 298/3/4 301/3/4
f 301/3/4 298/3/4 302/3/4
f 303/4/4 304/4/4 307/4/4
f 305/3/4 306/3/4 309/3/4
f 309/3/4 306/3/4 310/3/4
f 303/4/4 307/4/4 313/4/4
f 313/4/4 307/4/4 314/4/4
f 308/4/4 309/4/4 315/4/4
f 315/4/4 309/4/4 316/4/4
f 310/3/4 311/3/4 317/3/4
f 317/3/4 311/3/4 318/3/4
f 313/4/4 314/4/4 320/4/4
f 312/4/4 313/4/4 320/4/4
f 320/4/4 314/4/4 321/4/4
f 321/4/4 314/4/4 322/4/4
f 316/3/4 317/3/4 323/3/4
f 323/3/4 317/3/4 324/3/4
f 319/4/4 320/4/4 326/4/4
f 326/4/4 320/4/4 327/4/4
f 325/4/4 326/4/4 329/4/4
f 327/4/4 328/4/4 329/4/4
f 326/4/4 327/4/4 329/4/4
f 329/4/4 328/4/4 330/4/4
f 331/2/4 332/2/4 333/2/4
f 333/2/4 332/2/4 334/2/4
f 335/2/4 336/2/4 337/2/4
f 337/2/4 336/2/4 338/2/4
f 339/1/4 340/1/4 341/1/4
f 341/1/4 340/1/4 342/1/4
f 343/4/4 344/4/4 347/4/4
f 347/4/4 344/4/4 348/4/4
f 345/1/4 346/1/4 349/1/4
f 349/1/4 346/1/4 350/1/4
f 351/4/4 352/4/4 355/4/4
f 355/4/4 352/4/4 356/4/4
f 353/4/4 354/4/4 357/4/4
f 357/4/4 354/4/4 358/4/4
f 359/1/4 360/1/4 364/1/4
f 364/1/4 360/1/4 365/1/4
f 361/3/4 362/3/4 367/3/4
f 367/3/4 362/3/4 368/3/4
f 363/4/4 364/4/4 369/4/4
f 369/4/4 364/4/4 370/4/4
f 365/2/4 366/2/4 371/2/4
f 371/2/4 366/2/4 372/2/4
f 367/2/4 368/2/4 373/2/4
f 373/2/4 368/2/4 374/2/4
f 375/1/4 376/1/4 377/1/4
f 377/1/4 376/1/4 378/1/4
f 381/4/5 380/4/5 379/4/5
f 382/4/5 380/4/5 381/4/5
f 385/4/5 384/4/5 383/4/5
f 386/4/5 384/4/5 385/4/5
f 389/4/5 388/4/5 387/4/5
f 390/4/5 388/4/5 389/4/5
f 393/4/5 392/4/5 391/4/5
f 394/4/5 392/4/5 393/4/5
f 397/4/5 396/4/5 395/4/5
f 398/4/5 396/4/5 397/4/5
f 400/4/5 399/4/5 398/4/5
f 401/4/5 399/4/5 400/4/5
f 403/4/5 402/4/5 401/4/5
f 404/4/5 402/4/5 403/4/5
f 408/2/5 406/2/5 405/2/5
f 409/2/5 406/2/5 408/2/5
f 411/1/5 408/1/5 407/1/5
f 412/1/5 408/1/5 411/1/5
f 413/3/5 410/3/5 409/3/5
f 414/3/5 410/3/5 413/3/5
f 417/4/5 416/4/5 415/4/5
f 418/4/5 416/4/5 417/4/5
f 421/3/5 420/3/5 419/3/5
f 422/3/5 420/3/5 421/3/5
f 425/3/5 423/3/5 422/3/5
f 426/3/5 423/3/5 425/3/5
f 427/3/5 425/3/5 424/3/5
f 428/2/5 426/2/5 425/2/5
f 428/3/5 425/3/5 427/3/5
f 429/2/5 426/2/5 428/2/5
f 432/2/5 431/2/5 430/2/5
f 433/2/5 431/2/5 432/2/5
f 436/3/5 435/3/5 434/3/5
f 437/3/5 435/3/5 436/3/5
f 441/2/5 439/2/5 438/2/5
f 442/3/5 440/3/5 439/3/5
f 442/2/5 439/2/5 441/2/5
f 443/3/5 440/3/5 442/3/5
f 444/1/5 443/1/5 442/1/5
f 445/1/5 443/1/5 444/1/5
f 448/4/5 447/4/5 446/4/5
f 449/4/5 447/4/5 448/4/5
f 453/2/5 451/2/5 450/2/5
f 454/1/5 452/1/5 451/1/5
f 454/2/5 451/2/5 453/2/5
f 455/1/5 452/1/5 454/1/5
f 457/3/5 454/3/5 453/3/5
f 458/3/5 454/3/5 457/3/5
f 459/3/5 456/3/5 455/3/5
f 460/3/5 456/3/5 459/3/5
f 462/2/5 459/2/5 458/2/5
f 463/2/5 459/2/5 462/2/5
f 464/1/5 461/1/5 460/1/5
f 466/1/5 464/1/5 460/1/5
f 467/2/5 465/2/5 464/2/5
f 467/1/5 464/1/5 466/1/5
f 468/2/5 465/2/5 467/2/5
f 470/3/5 468/3/5 467/3/5
f 471/3/5 468/3/5 470/3/5
f 472/1/5 470/1/5 469/1/5
f 473/1/5 470/1/5 472/1/5
f 475/1/5 474/1/5 473/1/5
f 476/1/5 474/1/5 475/1/5
f 477/4/6 478/4/6 479/4/6
f 479/4/6 478/4/6 480/4/6
f 481/4/6 482/4/6 483/4/6
f 483/4/6 482/4/6 484/4/6
f 485/4/6 486/4/6 487/4/6
f 487/4/6 486/4/6 488/4/6
f 488/4/6 486/4/6 489/4/6
f 487/4/6 488/4/6 490/4/6
f 487/4/6 490/4/6 491/4/6
f 491/4/6 490/4/6 492/4/6
f 493/2/6 494/2/6 496/2/6
f 496/2/6 494/2/6 497/2/6
f 495/1/6 496/1/6 498/1/6
f 498/1/6 496/1/6 499/1/6
f 500/4/6 501/4/6 504/4/6
f 504/4/6 501/4/6 505/4/6
f 502/4/6 503/4/6 506/4/6
f 506/4/6 503/4/6 507/4/6
f 508/3/6 509/3/6 510/3/6
f 510/3/6 509/3/6 511/3/6
f 511/3/6 512/3/6 514/3/6
f 514/3/6 512/3/6 515/3/6
f 513/3/6 514/3/6 516/3/6
f 514/2/6 515/2/6 517/2/6
f 516/3/6 514/3/6 517/3/6
f 517/2/6 515/2/6 518/2/6
f 519/2/6 520/2/6 521/2/6
f 521/2/6 520/2/6 522/2/6
f 521/3/6 522/3/6 523/3/6
f 523/3/6 522/3/6 524/3/6
f 525/2/6 526/2/6 528/2/6
f 526/3/6 527/3/6 529/3/6
f 528/2/6 526/2/6 529/2/6
f 529/3/6 527/3/6 530/3/6
f 529/1/6 530/1/6 531/1/6
f 531/1/6 530/1/6 532/1/6
f 533/4/6 534/4/6 535/4/6
f 535/4/6 534/4/6 536/4/6
f 537/2/6 538/2/6 539/2/6
f 539/2/6 538/2/6 540/2/6
f 539/3/6 540/3/6 541/3/6
f 541/3/6 540/3/6 542/3/6
f 543/2/6 544/2/6 545/2/6
f 545/2/6 544/2/6 546/2/6
f 545/3/6 546/3/6 549/3/6
f 549/3/6 546/3/6 550/3/6
f 547/3/6 548/3/6 551/3/6
f 551/3/6 548/3/6 552/3/6
f 550/2/6 551/2/6 554/2/6
f 554/2/6 551/2/6 555/2/6
f 552/1/6 553/1/6 556/1/6
f 552/1/6 556/1/6 558/1/6
f 556/2/6 557/2/6 559/2/6
f 558/1/6 556/1/6 559/1/6
f 559/2/6 557/2/6 560/2/6
f 559/3/6 560/3/6 562/3/6
f 562/3/6 560/3/6 563/3/6
f 561/1/6 562/1/6 564/1/6
f 564/1/6 562/1/6 565/1/6
f 565/1/6 566/1/6 567/1/6
f 567/1/6 566/1/6 568/1/6
f 569/1/6 570/1/6 571/1/6
f 571/1/6 570/1/6 572/1/6
f 571/3/6 572/3/6 573/3/6
f 573/3/6 572/3/6 574/3/6
f 575/2/6 576/2/6 577/2/6
f 577/2/6 576/2/6 578/2/6
