# MagicaVoxel @ Ephtracy

# group
o 

# material
mtllib lvl3-25.mtl
usemtl palette

# normals
vn -1 0 0
vn 1 0 0
vn 0 0 1
vn 0 0 -1
vn 0 -1 0
vn 0 1 0

# texcoords
vt 0.443359 0.5
vt 0.470703 0.5
vt 0.490234 0.5

# verts
v -2.4 0.9 3.5
v -2.4 0.9 3.4
v -2.4 1 3.5
v -2.4 1 3.4
v -2.2 0.8 3.5
v -2.2 0.8 3.4
v -2.2 0.9 3.6
v -2.2 0.9 3.5
v -2.2 0.9 3.4
v -2.2 0.9 3.3
v -2.2 1 3.6
v -2.2 1 3.5
v -2.2 1 3.4
v -2.2 1 3.3
v -2.2 1.1 3.5
v -2.2 1.1 3.4
v -1.9 0.4 3.6
v -1.9 0.4 3.5
v -1.9 0.7 3.6
v -1.9 0.7 3.5
v -1.9 0.7 3.4
v -1.9 0.9 3.5
v -1.9 0.9 3.4
v -1.9 0.9 3.3
v -1.9 1 3.5
v -1.9 1 3.4
v -1.9 1 3.3
v -1.9 1.1 3.5
v -1.9 1.1 3.4
v -2.1 0.8 3.5
v -2.1 0.8 3.4
v -2.1 0.9 3.6
v -2.1 0.9 3.5
v -2.1 0.9 3.4
v -2.1 0.9 3.3
v -2.1 1 3.6
v -2.1 1 3.5
v -2.1 1 3.4
v -2.1 1 3.3
v -2.1 1.1 3.5
v -2.1 1.1 3.4
v -1.7 0.4 3.6
v -1.7 0.4 3.5
v -1.7 0.7 3.6
v -1.7 0.7 3.5
v -1.7 0.7 3.4
v -1.7 0.9 3.5
v -1.7 0.9 3.4
v -1.7 0.9 3.3
v -1.7 1 3.5
v -1.7 1 3.4
v -1.7 1 3.3
v -1.7 1.1 3.5
v -1.7 1.1 3.4
v -1.4 0.9 3.5
v -1.4 0.9 3.4
v -1.4 1 3.5
v -1.4 1 3.4
v -2.2 0.9 3.6
v -2.2 1 3.6
v -2.1 0.9 3.6
v -2.1 1 3.6
v -1.9 0.4 3.6
v -1.9 0.7 3.6
v -1.7 0.4 3.6
v -1.7 0.7 3.6
v -2.4 0.9 3.5
v -2.4 1 3.5
v -2.2 0.8 3.5
v -2.2 0.9 3.5
v -2.2 1 3.5
v -2.2 1.1 3.5
v -2.1 0.8 3.5
v -2.1 0.9 3.5
v -2.1 1 3.5
v -2.1 1.1 3.5
v -1.9 0.7 3.5
v -1.9 0.9 3.5
v -1.9 1 3.5
v -1.9 1.1 3.5
v -1.7 0.7 3.5
v -1.7 0.9 3.5
v -1.7 1 3.5
v -1.7 1.1 3.5
v -1.4 0.9 3.5
v -1.4 1 3.5
v -1.9 0.4 3.5
v -1.9 0.7 3.5
v -1.7 0.4 3.5
v -1.7 0.7 3.5
v -2.4 0.9 3.4
v -2.4 1 3.4
v -2.2 0.8 3.4
v -2.2 0.9 3.4
v -2.2 1 3.4
v -2.2 1.1 3.4
v -2.1 0.8 3.4
v -2.1 0.9 3.4
v -2.1 1 3.4
v -2.1 1.1 3.4
v -1.9 0.7 3.4
v -1.9 0.9 3.4
v -1.9 1 3.4
v -1.9 1.1 3.4
v -1.7 0.7 3.4
v -1.7 0.9 3.4
v -1.7 1 3.4
v -1.7 1.1 3.4
v -1.4 0.9 3.4
v -1.4 1 3.4
v -2.2 0.9 3.3
v -2.2 1 3.3
v -2.1 0.9 3.3
v -2.1 1 3.3
v -1.9 0.9 3.3
v -1.9 1 3.3
v -1.7 0.9 3.3
v -1.7 1 3.3
v -1.9 0.4 3.6
v -1.7 0.4 3.6
v -1.9 0.4 3.5
v -1.7 0.4 3.5
v -1.9 0.7 3.5
v -1.7 0.7 3.5
v -1.9 0.7 3.4
v -1.7 0.7 3.4
v -2.2 0.8 3.5
v -2.1 0.8 3.5
v -2.2 0.8 3.4
v -2.1 0.8 3.4
v -2.2 0.9 3.6
v -2.1 0.9 3.6
v -2.4 0.9 3.5
v -2.2 0.9 3.5
v -2.1 0.9 3.5
v -1.9 0.9 3.5
v -1.7 0.9 3.5
v -1.4 0.9 3.5
v -2.4 0.9 3.4
v -2.2 0.9 3.4
v -2.1 0.9 3.4
v -1.9 0.9 3.4
v -1.7 0.9 3.4
v -1.4 0.9 3.4
v -2.2 0.9 3.3
v -2.1 0.9 3.3
v -1.9 0.9 3.3
v -1.7 0.9 3.3
v -1.9 0.7 3.6
v -1.7 0.7 3.6
v -1.9 0.7 3.5
v -1.7 0.7 3.5
v -2.2 1 3.6
v -2.1 1 3.6
v -2.4 1 3.5
v -2.2 1 3.5
v -2.1 1 3.5
v -1.9 1 3.5
v -1.7 1 3.5
v -1.4 1 3.5
v -2.4 1 3.4
v -2.2 1 3.4
v -2.1 1 3.4
v -1.9 1 3.4
v -1.7 1 3.4
v -1.4 1 3.4
v -2.2 1 3.3
v -2.1 1 3.3
v -1.9 1 3.3
v -1.7 1 3.3
v -2.2 1.1 3.5
v -2.1 1.1 3.5
v -1.9 1.1 3.5
v -1.7 1.1 3.5
v -2.2 1.1 3.4
v -2.1 1.1 3.4
v -1.9 1.1 3.4
v -1.7 1.1 3.4

# faces
f 3/2/1 2/2/1 1/2/1
f 4/2/1 2/2/1 3/2/1
f 8/2/1 6/2/1 5/2/1
f 9/2/1 6/2/1 8/2/1
f 11/2/1 8/2/1 7/2/1
f 12/2/1 8/2/1 11/2/1
f 13/2/1 10/2/1 9/2/1
f 14/2/1 10/2/1 13/2/1
f 15/2/1 13/2/1 12/2/1
f 16/2/1 13/2/1 15/2/1
f 19/1/1 18/1/1 17/1/1
f 20/1/1 18/1/1 19/1/1
f 22/1/1 21/1/1 20/1/1
f 23/1/1 21/1/1 22/1/1
f 26/1/1 24/1/1 23/1/1
f 27/1/1 24/1/1 26/1/1
f 28/1/1 26/1/1 25/1/1
f 29/1/1 26/1/1 28/1/1
f 30/2/2 31/2/2 33/2/2
f 33/2/2 31/2/2 34/2/2
f 32/2/2 33/2/2 36/2/2
f 36/2/2 33/2/2 37/2/2
f 34/2/2 35/2/2 38/2/2
f 38/2/2 35/2/2 39/2/2
f 37/2/2 38/2/2 40/2/2
f 40/2/2 38/2/2 41/2/2
f 42/1/2 43/1/2 44/1/2
f 44/1/2 43/1/2 45/1/2
f 45/1/2 46/1/2 47/1/2
f 47/1/2 46/1/2 48/1/2
f 48/1/2 49/1/2 51/1/2
f 51/1/2 49/1/2 52/1/2
f 50/1/2 51/1/2 53/1/2
f 53/1/2 51/1/2 54/1/2
f 55/3/2 56/3/2 57/3/2
f 57/3/2 56/3/2 58/3/2
f 61/2/3 60/2/3 59/2/3
f 62/2/3 60/2/3 61/2/3
f 65/1/3 64/1/3 63/1/3
f 66/1/3 64/1/3 65/1/3
f 70/2/3 68/2/3 67/2/3
f 71/2/3 68/2/3 70/2/3
f 73/2/3 70/2/3 69/2/3
f 74/2/3 70/2/3 73/2/3
f 75/2/3 72/2/3 71/2/3
f 76/2/3 72/2/3 75/2/3
f 78/3/3 75/3/3 74/3/3
f 79/3/3 75/3/3 78/3/3
f 81/1/3 78/1/3 77/1/3
f 82/3/3 79/3/3 78/3/3
f 82/1/3 78/1/3 81/1/3
f 83/1/3 80/1/3 79/1/3
f 83/3/3 79/3/3 82/3/3
f 84/1/3 80/1/3 83/1/3
f 85/3/3 83/3/3 82/3/3
f 86/3/3 83/3/3 85/3/3
f 87/1/4 88/1/4 89/1/4
f 89/1/4 88/1/4 90/1/4
f 91/2/4 92/2/4 94/2/4
f 94/2/4 92/2/4 95/2/4
f 93/2/4 94/2/4 97/2/4
f 97/2/4 94/2/4 98/2/4
f 95/2/4 96/2/4 99/2/4
f 99/2/4 96/2/4 100/2/4
f 98/3/4 99/3/4 102/3/4
f 102/3/4 99/3/4 103/3/4
f 101/1/4 102/1/4 105/1/4
f 105/1/4 102/1/4 106/1/4
f 103/1/4 104/1/4 107/1/4
f 107/1/4 104/1/4 108/1/4
f 106/3/4 107/3/4 109/3/4
f 109/3/4 107/3/4 110/3/4
f 111/2/4 112/2/4 113/2/4
f 113/2/4 112/2/4 114/2/4
f 115/1/4 116/1/4 117/1/4
f 117/1/4 116/1/4 118/1/4
f 121/1/5 120/1/5 119/1/5
f 122/1/5 120/1/5 121/1/5
f 125/1/5 124/1/5 123/1/5
f 126/1/5 124/1/5 125/1/5
f 129/2/5 128/2/5 127/2/5
f 130/2/5 128/2/5 129/2/5
f 134/2/5 132/2/5 131/2/5
f 135/2/5 132/2/5 134/2/5
f 139/2/5 134/2/5 133/2/5
f 140/2/5 134/2/5 139/2/5
f 141/3/5 136/3/5 135/3/5
f 142/3/5 136/3/5 141/3/5
f 143/3/5 138/3/5 137/3/5
f 144/3/5 138/3/5 143/3/5
f 145/2/5 141/2/5 140/2/5
f 146/2/5 141/2/5 145/2/5
f 147/1/5 143/1/5 142/1/5
f 148/1/5 143/1/5 147/1/5
f 149/1/6 150/1/6 151/1/6
f 151/1/6 150/1/6 152/1/6
f 153/2/6 154/2/6 156/2/6
f 156/2/6 154/2/6 157/2/6
f 155/2/6 156/2/6 161/2/6
f 161/2/6 156/2/6 162/2/6
f 157/3/6 158/3/6 163/3/6
f 163/3/6 158/3/6 164/3/6
f 159/3/6 160/3/6 165/3/6
f 165/3/6 160/3/6 166/3/6
f 162/2/6 163/2/6 167/2/6
f 167/2/6 163/2/6 168/2/6
f 164/1/6 165/1/6 169/1/6
f 169/1/6 165/1/6 170/1/6
f 171/2/6 172/2/6 175/2/6
f 175/2/6 172/2/6 176/2/6
f 173/1/6 174/1/6 177/1/6
f 177/1/6 174/1/6 178/1/6
