# Blender 3.4.1
# www.blender.org
mtllib Untitled.mtl
o Untitled
v -5.900000 3.999999 5.800001
v -5.900000 4.099999 5.700000
v -5.700000 3.799999 5.800001
v -5.700000 3.899999 5.900001
v -5.600000 3.799999 6.000000
v -5.600000 3.899999 6.200000
v -5.600000 3.899999 5.700000
v -5.600000 3.999999 6.100000
v -5.600000 3.999999 6.000000
v -5.500000 3.599999 5.800001
v -5.500000 3.599999 5.700000
v -5.500000 3.699999 5.800001
v -5.400000 3.999999 5.500000
v -5.600000 3.899999 5.900001
v -5.500000 3.899999 6.200000
v -5.500000 3.899999 6.000000
v -5.500000 3.899999 5.800001
v -5.500000 3.999999 6.000000
v -5.400000 3.599999 5.700000
v -5.400000 3.699999 5.700000
v -5.400000 3.799999 6.000000
v -5.400000 3.899999 5.700000
v -5.300000 3.899999 5.700000
v -5.300000 3.899999 5.500000
v -5.300000 3.999999 5.600000
v -5.200000 4.099999 5.500000
v -5.500000 3.799999 6.200000
v -5.500000 3.899999 6.100000
v -5.500000 3.999999 6.100000
v -5.600000 3.899999 6.000000
v -5.500000 3.799999 6.000000
v -5.700000 3.799999 5.900001
v -5.600000 3.699999 5.900001
v -5.500000 3.699999 5.900001
v -5.400000 3.699999 5.900001
v -5.900000 4.099999 5.800001
v -5.800000 3.999999 5.800001
v -5.800000 4.099999 5.800001
v -5.400000 3.599999 5.800001
v -5.400000 3.999999 5.700000
v -5.300000 3.999999 5.700000
v -5.500000 3.799999 6.100000
v -5.600000 3.899999 5.800001
v -6.000000 3.999999 5.700000
v -5.900000 3.999999 5.700000
v -5.800000 3.999999 5.700000
v -5.800000 4.099999 5.700000
v -5.700000 3.999999 5.700000
v -5.500000 3.699999 5.700000
v -5.500000 3.799999 5.700000
v -5.500000 3.899999 5.700000
v -5.400000 3.799999 5.700000
v -5.500000 3.799999 5.600000
v -5.500000 3.899999 5.600000
v -5.400000 3.799999 5.600000
v -5.200000 3.999999 5.500000
v -5.600000 3.699999 5.800001
v -5.400000 3.699999 5.800001
v -5.600000 3.799999 6.200000
v -5.600000 3.799999 6.100000
v -5.600000 3.799999 5.900001
v -5.500000 3.799999 5.900001
v -5.600000 3.799999 5.800001
v -5.600000 3.799999 5.700000
v -5.800000 3.899999 5.900001
v -6.000000 3.899999 5.800001
v -5.900000 3.899999 5.800001
v -5.700000 3.899999 5.800001
v -6.000000 3.899999 5.700000
v -5.900000 3.899999 5.700000
v -5.800000 3.899999 5.700000
v -5.700000 3.899999 5.700000
v -5.400000 3.899999 5.600000
v -5.400000 3.899999 5.500000
v -5.200000 3.999999 5.600000
v -5.300000 3.999999 5.500000
v -5.400000 3.799999 5.900001
v -5.500000 3.799999 5.800001
v -5.400000 3.799999 5.800001
v -5.600000 3.899999 6.100000
v -5.400000 3.899999 6.000000
v -5.500000 3.899999 5.900001
v -5.400000 3.899999 5.900001
v -5.800000 3.999999 5.900001
v -5.700000 3.999999 5.900001
v -6.000000 3.999999 5.800001
v -5.300000 4.099999 5.600000
v -5.200000 4.099999 5.600000
v -5.300000 4.099999 5.500000
vn -1.0000 -0.0000 -0.0000
vn 1.0000 -0.0000 -0.0000
vn -0.0000 -0.0000 1.0000
vn -0.0000 -0.0000 -1.0000
vn -0.0000 -1.0000 -0.0000
vn -0.0000 1.0000 -0.0000
vt 0.966797 0.500000
vt 0.966797 0.500000
vt 0.935547 0.500000
vt 0.966797 0.500000
vt 0.935547 0.500000
vt 0.904297 0.500000
vt 0.904297 0.500000
vt 0.935547 0.500000
vt 0.904297 0.500000
vt 0.904297 0.500000
vt 0.935547 0.500000
vt 0.935547 0.500000
vt 0.904297 0.500000
vt 0.935547 0.500000
vt 0.966797 0.500000
vt 0.904297 0.500000
vt 0.935547 0.500000
vt 0.904297 0.500000
vt 0.935547 0.500000
vt 0.904297 0.500000
vt 0.935547 0.500000
vt 0.904297 0.500000
vt 0.935547 0.500000
vt 0.935547 0.500000
vt 0.904297 0.500000
vt 0.935547 0.500000
vt 0.966797 0.500000
vt 0.935547 0.500000
vt 0.966797 0.500000
vt 0.966797 0.500000
vt 0.966797 0.500000
vt 0.966797 0.500000
vt 0.904297 0.500000
vt 0.904297 0.500000
vt 0.904297 0.500000
vt 0.904297 0.500000
vt 0.935547 0.500000
vt 0.904297 0.500000
vt 0.935547 0.500000
vt 0.904297 0.500000
vt 0.935547 0.500000
vt 0.904297 0.500000
vt 0.935547 0.500000
vt 0.966797 0.500000
vt 0.966797 0.500000
vt 0.966797 0.500000
vt 0.935547 0.500000
vt 0.966797 0.500000
vt 0.966797 0.500000
vt 0.904297 0.500000
vt 0.935547 0.500000
vt 0.966797 0.500000
vt 0.966797 0.500000
vt 0.966797 0.500000
vt 0.966797 0.500000
vt 0.966797 0.500000
vt 0.904297 0.500000
vt 0.935547 0.500000
vt 0.935547 0.500000
vt 0.904297 0.500000
vt 0.935547 0.500000
vt 0.935547 0.500000
vt 0.904297 0.500000
vt 0.935547 0.500000
vt 0.935547 0.500000
vt 0.935547 0.500000
vt 0.966797 0.500000
vt 0.904297 0.500000
vt 0.904297 0.500000
vt 0.935547 0.500000
vt 0.904297 0.500000
vt 0.904297 0.500000
vt 0.935547 0.500000
vt 0.904297 0.500000
vt 0.935547 0.500000
vt 0.904297 0.500000
vt 0.935547 0.500000
vt 0.904297 0.500000
vt 0.935547 0.500000
vt 0.966797 0.500000
vt 0.966797 0.500000
vt 0.966797 0.500000
vt 0.966797 0.500000
vt 0.935547 0.500000
vt 0.966797 0.500000
vt 0.966797 0.500000
vt 0.966797 0.500000
vt 0.966797 0.500000
vt 0.966797 0.500000
vt 0.935547 0.500000
vt 0.966797 0.500000
vt 0.966797 0.500000
vt 0.966797 0.500000
vt 0.935547 0.500000
vt 0.935547 0.500000
vt 0.904297 0.500000
vt 0.935547 0.500000
vt 0.904297 0.500000
vt 0.904297 0.500000
vt 0.935547 0.500000
vt 0.904297 0.500000
vt 0.935547 0.500000
vt 0.935547 0.500000
vt 0.966797 0.500000
vt 0.966797 0.500000
vt 0.966797 0.500000
vt 0.966797 0.500000
vt 0.966797 0.500000
vt 0.966797 0.500000
s 0
usemtl palette
f 86/106/1 69/85/1 66/81/1
f 44/52/1 69/85/1 86/106/1
f 36/44/1 45/53/1 1/1/1
f 2/2/1 45/53/1 36/44/1
f 84/104/1 71/87/1 65/80/1
f 37/45/1 71/87/1 84/104/1
f 46/54/1 71/87/1 37/45/1
f 4/5/1 3/3/1 32/39/1
f 68/84/1 3/3/1 4/5/1
f 61/74/1 57/68/1 33/40/1
f 63/78/1 57/68/1 61/74/1
f 6/7/1 60/72/1 59/71/1
f 80/99/1 60/72/1 6/7/1
f 30/36/1 61/74/1 5/6/1
f 14/16/1 61/74/1 30/36/1
f 43/51/1 64/79/1 63/77/1
f 7/8/1 64/79/1 43/51/1
f 8/9/1 30/36/1 80/99/1
f 9/10/1 30/36/1 8/9/1
f 12/14/1 11/12/1 10/11/1
f 49/58/1 11/12/1 12/14/1
f 78/96/1 49/57/1 12/13/1
f 50/60/1 49/57/1 78/96/1
f 51/61/1 53/64/1 50/59/1
f 54/65/1 53/64/1 51/61/1
f 40/48/1 73/89/1 22/27/1
f 40/48/1 74/91/1 73/89/1
f 13/15/1 74/91/1 40/48/1
f 87/107/1 76/93/1 25/31/1
f 89/109/1 76/93/1 87/107/1
f 67/82/2 70/86/2 1/1/2
f 1/1/2 70/86/2 45/53/2
f 37/45/2 46/54/2 38/46/2
f 38/46/2 46/54/2 47/55/2
f 4/4/2 68/83/2 85/105/2
f 68/83/2 72/88/2 85/105/2
f 85/105/2 72/88/2 48/56/2
f 61/73/2 63/77/2 14/17/2
f 14/17/2 63/77/2 43/51/2
f 27/33/2 42/50/2 15/18/2
f 15/18/2 42/50/2 28/34/2
f 78/95/2 50/59/2 17/21/2
f 17/21/2 50/59/2 51/61/2
f 28/34/2 16/20/2 29/35/2
f 29/35/2 16/20/2 18/22/2
f 39/47/2 19/23/2 58/70/2
f 58/70/2 19/23/2 20/24/2
f 35/43/2 58/70/2 77/94/2
f 58/69/2 20/25/2 79/98/2
f 77/94/2 58/70/2 79/97/2
f 79/98/2 20/25/2 52/63/2
f 21/26/2 77/94/2 81/100/2
f 81/100/2 77/94/2 83/103/2
f 52/62/2 55/66/2 22/28/2
f 22/28/2 55/66/2 73/90/2
f 23/29/2 24/30/2 41/49/2
f 41/49/2 24/30/2 25/31/2
f 25/31/2 24/30/2 76/93/2
f 75/92/2 56/67/2 88/108/2
f 88/108/2 56/67/2 26/32/2
f 27/33/3 6/7/3 59/71/3
f 15/18/3 6/7/3 27/33/3
f 28/34/3 8/9/3 80/99/3
f 29/35/3 8/9/3 28/34/3
f 31/38/3 30/36/3 5/6/3
f 16/20/3 30/36/3 31/38/3
f 21/26/3 16/19/3 31/37/3
f 81/100/3 16/19/3 21/26/3
f 4/4/3 84/104/3 65/80/3
f 85/105/3 84/104/3 4/4/3
f 61/73/3 4/5/3 32/39/3
f 14/17/3 4/5/3 61/73/3
f 34/42/3 61/74/3 33/40/3
f 62/76/3 61/74/3 34/42/3
f 35/43/3 62/75/3 34/41/3
f 77/94/3 62/75/3 35/43/3
f 67/82/3 86/106/3 66/81/3
f 1/1/3 86/106/3 67/82/3
f 37/45/3 36/44/3 1/1/3
f 38/46/3 36/44/3 37/45/3
f 78/95/3 43/51/3 63/77/3
f 17/21/3 43/51/3 78/95/3
f 39/47/3 12/14/3 10/11/3
f 58/70/3 12/14/3 39/47/3
f 52/62/3 51/61/3 50/59/3
f 22/28/3 51/61/3 52/62/3
f 23/29/3 40/48/3 22/27/3
f 41/49/3 40/48/3 23/29/3
f 75/92/3 87/107/3 25/31/3
f 88/108/3 87/107/3 75/92/3
f 60/72/4 80/99/4 42/50/4
f 42/50/4 80/99/4 28/34/4
f 30/36/4 9/10/4 16/20/4
f 16/20/4 9/10/4 18/22/4
f 61/74/4 14/16/4 62/76/4
f 62/76/4 14/16/4 82/101/4
f 62/75/4 82/102/4 77/94/4
f 77/94/4 82/102/4 83/103/4
f 3/3/4 68/84/4 63/77/4
f 63/77/4 68/84/4 43/51/4
f 57/68/4 63/78/4 12/13/4
f 12/13/4 63/78/4 78/96/4
f 69/85/4 44/52/4 70/86/4
f 70/86/4 44/52/4 45/53/4
f 45/53/4 2/2/4 46/54/4
f 46/54/4 2/2/4 47/55/4
f 71/87/4 46/54/4 72/88/4
f 72/88/4 46/54/4 48/56/4
f 64/79/4 7/8/4 50/59/4
f 50/59/4 7/8/4 51/61/4
f 11/12/4 49/58/4 19/23/4
f 49/57/4 50/60/4 20/25/4
f 19/23/4 49/58/4 20/24/4
f 20/25/4 50/60/4 52/63/4
f 53/64/4 54/65/4 55/66/4
f 55/66/4 54/65/4 73/90/4
f 74/91/4 13/15/4 24/30/4
f 24/30/4 13/15/4 76/93/4
f 76/93/4 89/109/4 56/67/4
f 56/67/4 89/109/4 26/32/4
f 11/12/5 39/47/5 10/11/5
f 19/23/5 39/47/5 11/12/5
f 57/68/5 34/42/5 33/40/5
f 12/14/5 35/43/5 34/41/5
f 12/13/5 34/42/5 57/68/5
f 58/70/5 35/43/5 12/14/5
f 60/72/5 27/33/5 59/71/5
f 42/50/5 27/33/5 60/72/5
f 61/74/5 31/38/5 5/6/5
f 62/75/5 21/26/5 31/37/5
f 62/76/5 31/38/5 61/74/5
f 77/94/5 21/26/5 62/75/5
f 3/3/5 61/73/5 32/39/5
f 63/77/5 61/73/5 3/3/5
f 64/79/5 78/95/5 63/77/5
f 50/59/5 78/95/5 64/79/5
f 53/64/5 52/62/5 50/59/5
f 55/66/5 52/62/5 53/64/5
f 30/36/5 28/34/5 80/99/5
f 16/20/5 28/34/5 30/36/5
f 68/83/5 4/4/5 65/80/5
f 69/85/5 67/82/5 66/81/5
f 70/86/5 67/82/5 69/85/5
f 71/87/5 68/83/5 65/80/5
f 72/88/5 68/83/5 71/87/5
f 73/89/5 23/29/5 22/27/5
f 74/91/5 23/29/5 73/89/5
f 24/30/5 23/29/5 74/91/5
f 45/53/5 37/45/5 1/1/5
f 46/54/5 37/45/5 45/53/5
f 76/93/5 75/92/5 25/31/5
f 56/67/5 75/92/5 76/93/5
f 61/74/6 62/76/6 63/78/6
f 62/75/6 77/94/6 78/95/6
f 63/78/6 62/76/6 78/96/6
f 78/95/6 77/94/6 79/97/6
f 78/96/6 79/98/6 50/60/6
f 50/60/6 79/98/6 52/63/6
f 6/7/6 15/18/6 80/99/6
f 80/99/6 15/18/6 28/34/6
f 30/36/6 16/20/6 14/16/6
f 16/19/6 81/100/6 82/102/6
f 14/16/6 16/20/6 82/101/6
f 82/102/6 81/100/6 83/103/6
f 4/5/6 14/17/6 68/84/6
f 68/84/6 14/17/6 43/51/6
f 43/51/6 17/21/6 7/8/6
f 7/8/6 17/21/6 51/61/6
f 51/61/6 22/28/6 54/65/6
f 54/65/6 22/28/6 73/90/6
f 8/9/6 29/35/6 9/10/6
f 9/10/6 29/35/6 18/22/6
f 84/104/6 85/105/6 37/45/6
f 86/106/6 1/1/6 44/52/6
f 44/52/6 1/1/6 45/53/6
f 37/45/6 85/105/6 46/54/6
f 46/54/6 85/105/6 48/56/6
f 40/48/6 41/49/6 25/31/6
f 40/48/6 25/31/6 13/15/6
f 13/15/6 25/31/6 76/93/6
f 36/44/6 38/46/6 2/2/6
f 2/2/6 38/46/6 47/55/6
f 87/107/6 88/108/6 89/109/6
f 89/109/6 88/108/6 26/32/6
