# Blender 3.4.1
# www.blender.org
mtllib Untitled.026.mtl
o Untitled.026
v 3.900000 7.699999 1.700001
v 4.300000 7.599999 1.800001
v 4.400000 8.100000 1.800001
v 4.500000 8.100000 1.800001
v 4.200000 7.699999 2.100001
v 4.400000 7.699999 2.100001
v 4.200000 7.800000 2.100001
v 4.100000 8.000000 2.100001
v 4.000000 7.599999 1.800001
v 4.000000 7.699999 1.800001
v 4.300000 7.699999 1.800001
v 4.400000 8.100000 2.100001
v 4.500000 8.100000 2.100001
v 4.200000 7.900000 2.200001
v 3.900000 8.000000 2.200001
v 4.400000 8.100000 2.200001
v 3.900000 8.100000 1.700001
v 3.900000 8.100000 1.800001
v 3.900000 8.200000 1.800001
v 3.900000 8.000000 2.100001
v 3.900000 8.100000 2.100001
v 3.900000 8.200000 2.100001
v 3.900000 7.900000 2.200001
v 4.000000 7.599999 1.700001
v 4.000000 7.699999 1.700001
v 4.100000 7.900000 2.200001
v 4.100000 8.000000 2.200001
v 4.200000 7.699999 2.200001
v 4.200000 7.800000 2.200001
v 4.300000 7.699999 2.100001
v 4.300000 7.599999 2.200001
v 4.400000 8.000000 1.800001
v 4.400000 7.900000 2.100001
v 3.900000 7.699999 1.800001
v 3.900000 8.000000 1.800001
v 4.100000 7.699999 2.100001
v 4.100000 7.699999 2.200001
v 4.100000 7.800000 2.200001
v 4.200000 7.900000 2.100001
v 4.200000 8.000000 2.200001
v 4.400000 8.100000 1.700001
v 4.500000 7.699999 1.800001
v 4.500000 7.699999 2.100001
v 3.900000 7.599999 1.800001
v 3.900000 7.599999 2.200001
v 4.000000 7.599999 2.200001
v 4.300000 7.599999 1.700001
v 4.400000 7.599999 1.800001
v 4.400000 7.599999 2.200001
v 3.800000 7.699999 1.800001
v 3.800000 7.699999 2.100001
v 3.900000 7.699999 2.100001
v 4.000000 7.699999 2.200001
v 4.300000 7.699999 1.700001
v 4.300000 7.699999 2.200001
v 4.400000 7.699999 1.700001
v 4.100000 7.800000 2.100001
v 4.200000 8.000000 2.100001
v 4.400000 8.000000 2.100001
v 4.400000 8.000000 2.200001
v 4.000000 7.699999 2.100001
v 4.400000 7.699999 1.800001
v 3.900000 7.900000 2.100001
v 4.100000 7.900000 2.100001
v 4.400000 7.900000 2.200001
v 3.800000 8.100000 1.800001
v 3.800000 8.100000 2.100001
v 3.900000 8.100000 2.200001
v 4.400000 8.200000 1.800001
v 4.400000 8.200000 2.100001
vn -0.0000 -0.0000 -1.0000
vn -0.0000 -0.0000 1.0000
vn -1.0000 -0.0000 -0.0000
vn 1.0000 -0.0000 -0.0000
vn -0.0000 -1.0000 -0.0000
vn -0.0000 1.0000 -0.0000
vt 0.443359 0.500000
vt 0.443359 0.500000
vt 0.443359 0.500000
vt 0.443359 0.500000
vt 0.443359 0.500000
vt 0.443359 0.500000
vt 0.443359 0.500000
vt 0.443359 0.500000
vt 0.443359 0.500000
vt 0.443359 0.500000
vt 0.443359 0.500000
vt 0.443359 0.500000
vt 0.443359 0.500000
vt 0.443359 0.500000
vt 0.443359 0.500000
vt 0.443359 0.500000
vt 0.443359 0.500000
vt 0.443359 0.500000
vt 0.443359 0.500000
vt 0.443359 0.500000
vt 0.443359 0.500000
vt 0.443359 0.500000
vt 0.443359 0.500000
vt 0.443359 0.500000
vt 0.443359 0.500000
vt 0.443359 0.500000
vt 0.443359 0.500000
vt 0.443359 0.500000
vt 0.443359 0.500000
vt 0.443359 0.500000
vt 0.443359 0.500000
vt 0.443359 0.500000
vt 0.443359 0.500000
vt 0.443359 0.500000
vt 0.443359 0.500000
vt 0.443359 0.500000
vt 0.443359 0.500000
vt 0.443359 0.500000
vt 0.443359 0.500000
vt 0.443359 0.500000
vt 0.443359 0.500000
vt 0.443359 0.500000
vt 0.443359 0.500000
vt 0.443359 0.500000
vt 0.443359 0.500000
vt 0.443359 0.500000
vt 0.443359 0.500000
vt 0.443359 0.500000
vt 0.443359 0.500000
vt 0.443359 0.500000
vt 0.443359 0.500000
vt 0.443359 0.500000
vt 0.443359 0.500000
vt 0.443359 0.500000
vt 0.443359 0.500000
vt 0.443359 0.500000
vt 0.443359 0.500000
vt 0.443359 0.500000
vt 0.443359 0.500000
vt 0.443359 0.500000
vt 0.443359 0.500000
vt 0.443359 0.500000
vt 0.443359 0.500000
vt 0.443359 0.500000
vt 0.443359 0.500000
vt 0.443359 0.500000
vt 0.443359 0.500000
vt 0.443359 0.500000
vt 0.443359 0.500000
vt 0.443359 0.500000
s 0
usemtl palette.026
f 25/25/1 47/47/1 24/24/1
f 54/54/1 47/47/1 25/25/1
f 17/17/1 25/25/1 1/1/1
f 17/17/1 56/56/1 54/54/1
f 17/17/1 54/54/1 25/25/1
f 41/41/1 56/56/1 17/17/1
f 34/34/1 9/9/1 44/44/1
f 10/10/1 9/9/1 34/34/1
f 11/11/1 48/48/1 2/2/1
f 62/62/1 48/48/1 11/11/1
f 66/66/1 34/34/1 50/50/1
f 18/18/1 34/34/1 66/66/1
f 3/3/1 42/42/1 62/62/1
f 4/4/1 42/42/1 3/3/1
f 19/19/1 3/3/1 18/18/1
f 69/69/1 3/3/1 19/19/1
f 57/57/1 61/61/1 52/52/1
f 57/57/1 36/36/1 61/61/1
f 7/7/1 6/6/1 30/30/1
f 7/7/1 30/30/1 5/5/1
f 63/63/1 57/57/1 52/52/1
f 63/63/1 7/7/1 57/57/1
f 64/64/1 7/7/1 63/63/1
f 39/39/1 6/6/1 7/7/1
f 39/39/1 7/7/1 64/64/1
f 33/33/1 6/6/1 39/39/1
f 8/8/1 39/39/1 64/64/1
f 58/58/1 39/39/1 8/8/1
f 9/9/2 2/2/2 10/10/2
f 10/10/2 2/2/2 11/11/2
f 34/34/2 10/10/2 35/35/2
f 11/11/2 62/62/2 35/35/2
f 10/10/2 11/11/2 35/35/2
f 35/35/2 62/62/2 32/32/2
f 51/51/2 52/52/2 63/63/2
f 6/6/2 43/43/2 33/33/2
f 51/51/2 63/63/2 20/20/2
f 33/33/2 43/43/2 59/59/2
f 51/51/2 20/20/2 67/67/2
f 67/67/2 20/20/2 21/21/2
f 59/59/2 43/43/2 12/12/2
f 12/12/2 43/43/2 13/13/2
f 21/21/2 12/12/2 22/22/2
f 22/22/2 12/12/2 70/70/2
f 45/45/2 46/46/2 53/53/2
f 31/31/2 49/49/2 55/55/2
f 53/53/2 37/37/2 38/38/2
f 28/28/2 55/55/2 29/29/2
f 53/53/2 38/38/2 23/23/2
f 38/38/2 29/29/2 23/23/2
f 45/45/2 53/53/2 23/23/2
f 23/23/2 29/29/2 26/26/2
f 29/29/2 55/55/2 14/14/2
f 26/26/2 29/29/2 14/14/2
f 55/55/2 49/49/2 65/65/2
f 14/14/2 55/55/2 65/65/2
f 26/26/2 14/14/2 27/27/2
f 27/27/2 14/14/2 40/40/2
f 15/15/2 27/27/2 68/68/2
f 40/40/2 60/60/2 68/68/2
f 27/27/2 40/40/2 68/68/2
f 68/68/2 60/60/2 16/16/2
f 51/51/3 66/66/3 50/50/3
f 67/67/3 66/66/3 51/51/3
f 34/34/3 17/17/3 1/1/3
f 18/18/3 17/17/3 34/34/3
f 52/52/3 34/34/3 44/44/3
f 21/21/3 19/19/3 18/18/3
f 22/22/3 19/19/3 21/21/3
f 45/45/3 63/63/3 52/52/3
f 45/45/3 52/52/3 44/44/3
f 23/23/3 63/63/3 45/45/3
f 15/15/3 21/21/3 20/20/3
f 68/68/3 21/21/3 15/15/3
f 9/9/3 25/25/3 24/24/3
f 10/10/3 25/25/3 9/9/3
f 26/26/3 8/8/3 64/64/3
f 27/27/3 8/8/3 26/26/3
f 28/28/3 7/7/3 5/5/3
f 29/29/3 7/7/3 28/28/3
f 30/30/3 11/11/3 2/2/3
f 31/31/3 30/30/3 2/2/3
f 55/55/3 30/30/3 31/31/3
f 6/6/3 32/32/3 62/62/3
f 33/33/3 32/32/3 6/6/3
f 59/59/3 32/32/3 33/33/3
f 34/34/4 35/35/4 52/52/4
f 52/52/4 35/35/4 63/63/4
f 63/63/4 35/35/4 20/20/4
f 9/9/4 10/10/4 61/61/4
f 9/9/4 61/61/4 46/46/4
f 46/46/4 61/61/4 53/53/4
f 36/36/4 57/57/4 37/37/4
f 37/37/4 57/57/4 38/38/4
f 39/39/4 58/58/4 14/14/4
f 14/14/4 58/58/4 40/40/4
f 47/47/4 54/54/4 2/2/4
f 2/2/4 54/54/4 11/11/4
f 56/56/4 41/41/4 62/62/4
f 62/62/4 41/41/4 3/3/4
f 48/48/4 62/62/4 6/6/4
f 3/3/4 69/69/4 12/12/4
f 12/12/4 69/69/4 70/70/4
f 6/6/4 33/33/4 49/49/4
f 48/48/4 6/6/4 49/49/4
f 49/49/4 33/33/4 65/65/4
f 59/59/4 12/12/4 60/60/4
f 60/60/4 12/12/4 16/16/4
f 42/42/4 4/4/4 43/43/4
f 43/43/4 4/4/4 13/13/4
f 9/9/5 45/45/5 44/44/5
f 46/46/5 45/45/5 9/9/5
f 47/47/5 9/9/5 24/24/5
f 2/2/5 9/9/5 47/47/5
f 48/48/5 31/31/5 2/2/5
f 49/49/5 31/31/5 48/48/5
f 34/34/5 51/51/5 50/50/5
f 52/52/5 51/51/5 34/34/5
f 25/25/5 34/34/5 1/1/5
f 10/10/5 34/34/5 25/25/5
f 36/36/5 53/53/5 61/61/5
f 37/37/5 53/53/5 36/36/5
f 30/30/5 28/28/5 5/5/5
f 55/55/5 28/28/5 30/30/5
f 56/56/5 11/11/5 54/54/5
f 62/62/5 11/11/5 56/56/5
f 42/42/5 6/6/5 62/62/5
f 43/43/5 6/6/5 42/42/5
f 7/7/5 38/38/5 57/57/5
f 29/29/5 38/38/5 7/7/5
f 8/8/5 20/20/5 35/35/5
f 8/8/5 15/15/5 20/20/5
f 27/27/5 15/15/5 8/8/5
f 58/58/5 8/8/5 35/35/5
f 32/32/5 58/58/5 35/35/5
f 32/32/5 40/40/5 58/58/5
f 59/59/5 40/40/5 32/32/5
f 60/60/5 40/40/5 59/59/5
f 34/34/6 52/52/6 10/10/6
f 10/10/6 52/52/6 61/61/6
f 11/11/6 30/30/6 62/62/6
f 62/62/6 30/30/6 6/6/6
f 63/63/6 23/23/6 64/64/6
f 64/64/6 23/23/6 26/26/6
f 39/39/6 14/14/6 33/33/6
f 33/33/6 14/14/6 65/65/6
f 66/66/6 67/67/6 18/18/6
f 18/18/6 67/67/6 21/21/6
f 17/17/6 18/18/6 41/41/6
f 41/41/6 18/18/6 3/3/6
f 21/21/6 68/68/6 12/12/6
f 12/12/6 68/68/6 16/16/6
f 3/3/6 12/12/6 4/4/6
f 4/4/6 12/12/6 13/13/6
f 19/19/6 22/22/6 69/69/6
f 69/69/6 22/22/6 70/70/6
