# Blender 3.4.1
# www.blender.org
mtllib Untitled.004.mtl
o Untitled.004
v -6.300000 4.200000 -3.499999
v -6.300000 4.300001 -3.499999
v -6.200000 4.300001 -3.499999
v -6.200000 4.300001 -3.599999
v -6.200000 4.400001 -3.499999
v -6.100000 4.200000 -3.499999
v -6.100000 4.300001 -3.599999
v -6.000000 4.100000 -3.599999
v -5.900000 4.200000 -3.499999
v -5.900000 4.300001 -3.499999
v -5.900000 4.300001 -3.599999
v -5.900000 4.500000 -3.199999
v -5.800000 4.000000 -3.699999
v -5.800000 4.300001 -3.699999
v -5.700000 4.300001 -3.699999
v -5.700000 4.300001 -3.899999
v -6.100000 4.400001 -3.599999
v -6.000000 4.200000 -3.499999
v -6.000000 4.300001 -3.599999
v -5.800000 4.000000 -3.599999
v -5.800000 4.100000 -3.499999
v -5.700000 3.900001 -3.499999
v -5.700000 4.000000 -3.699999
v -5.700000 4.200000 -3.799999
v -5.700000 4.300001 -3.399999
v -5.700000 4.400001 -3.399999
v -5.700000 4.500000 -3.399999
v -5.600000 4.000000 -3.699999
v -5.600000 4.300001 -3.699999
v -5.600000 4.400001 -3.899999
v -5.900000 4.400001 -3.199999
v -5.700000 4.500000 -3.299999
v -6.200000 4.200000 -3.499999
v -6.100000 4.400001 -3.499999
v -6.000000 4.100000 -3.499999
v -5.900000 3.900001 -3.499999
v -5.900000 4.100000 -3.499999
v -5.600000 4.000000 -3.599999
v -5.600000 4.100000 -3.599999
v -5.800000 4.200000 -3.699999
v -5.700000 4.200000 -3.699999
v -5.600000 4.400001 -3.699999
v -5.900000 4.400001 -3.299999
v -5.800000 4.400001 -3.299999
v -5.800000 4.500000 -3.299999
v -5.800000 4.400001 -3.399999
v -5.800000 4.500000 -3.399999
v -5.800000 4.400001 -3.499999
v -5.700000 4.300001 -3.499999
v -6.300000 4.200000 -3.599999
v -6.100000 4.200000 -3.599999
v -6.000000 4.200000 -3.599999
v -5.900000 3.900001 -3.599999
v -5.900000 4.100000 -3.599999
v -5.800000 3.900001 -3.599999
v -5.800000 4.100000 -3.599999
v -5.700000 4.300001 -3.599999
v -5.800000 4.100000 -3.699999
v -5.700000 3.900001 -3.699999
v -5.700000 4.100000 -3.699999
v -5.600000 4.100000 -3.699999
v -5.800000 4.100000 -3.799999
v -5.800000 4.200000 -3.799999
v -5.800000 4.300001 -3.799999
v -5.700000 4.100000 -3.799999
v -5.700000 4.300001 -3.799999
v -5.700000 4.400001 -3.899999
v -5.600000 4.300001 -3.899999
v -5.800000 3.900001 -3.499999
v -5.800000 3.900001 -3.699999
v -6.000000 4.100000 -3.699999
v -5.900000 4.100000 -3.699999
v -5.800000 4.200000 -3.499999
v -5.700000 4.200000 -3.499999
v -6.200000 4.200000 -3.599999
v -5.800000 4.200000 -3.599999
v -5.700000 4.200000 -3.599999
v -5.800000 4.300001 -3.399999
v -6.100000 4.300001 -3.499999
v -5.800000 4.300001 -3.499999
v -5.800000 4.400001 -3.199999
v -5.700000 4.400001 -3.299999
v -5.800000 4.000000 -3.499999
v -5.700000 4.000000 -3.499999
v -5.700000 4.000000 -3.599999
v -5.700000 4.100000 -3.599999
v -5.900000 4.200000 -3.599999
v -6.000000 4.200000 -3.699999
v -5.900000 4.200000 -3.699999
v -6.000000 4.300001 -3.499999
v -6.300000 4.300001 -3.599999
v -5.700000 4.400001 -3.499999
v -6.200000 4.400001 -3.599999
v -5.700000 4.400001 -3.699999
v -5.800000 4.500000 -3.199999
v -5.900000 4.500000 -3.299999
vn -1.0000 -0.0000 -0.0000
vn 1.0000 -0.0000 -0.0000
vn -0.0000 -0.0000 1.0000
vn -0.0000 -0.0000 -1.0000
vn -0.0000 -1.0000 -0.0000
vn -0.0000 1.0000 -0.0000
vt 0.783203 0.500000
vt 0.783203 0.500000
vt 0.783203 0.500000
vt 0.783203 0.500000
vt 0.783203 0.500000
vt 0.783203 0.500000
vt 0.783203 0.500000
vt 0.783203 0.500000
vt 0.791016 0.500000
vt 0.791016 0.500000
vt 0.783203 0.500000
vt 0.791016 0.500000
vt 0.791016 0.500000
vt 0.791016 0.500000
vt 0.783203 0.500000
vt 0.791016 0.500000
vt 0.791016 0.500000
vt 0.783203 0.500000
vt 0.791016 0.500000
vt 0.783203 0.500000
vt 0.783203 0.500000
vt 0.783203 0.500000
vt 0.783203 0.500000
vt 0.783203 0.500000
vt 0.791016 0.500000
vt 0.783203 0.500000
vt 0.791016 0.500000
vt 0.791016 0.500000
vt 0.783203 0.500000
vt 0.791016 0.500000
vt 0.783203 0.500000
vt 0.791016 0.500000
vt 0.783203 0.500000
vt 0.783203 0.500000
vt 0.783203 0.500000
vt 0.791016 0.500000
vt 0.783203 0.500000
vt 0.783203 0.500000
vt 0.791016 0.500000
vt 0.783203 0.500000
vt 0.783203 0.500000
vt 0.783203 0.500000
vt 0.783203 0.500000
vt 0.783203 0.500000
vt 0.791016 0.500000
vt 0.783203 0.500000
vt 0.791016 0.500000
vt 0.791016 0.500000
vt 0.783203 0.500000
vt 0.791016 0.500000
vt 0.783203 0.500000
vt 0.791016 0.500000
vt 0.783203 0.500000
vt 0.791016 0.500000
vt 0.791016 0.500000
vt 0.783203 0.500000
vt 0.791016 0.500000
vt 0.783203 0.500000
vt 0.783203 0.500000
vt 0.783203 0.500000
vt 0.783203 0.500000
vt 0.783203 0.500000
vt 0.791016 0.500000
vt 0.783203 0.500000
vt 0.783203 0.500000
vt 0.783203 0.500000
vt 0.791016 0.500000
vt 0.783203 0.500000
vt 0.783203 0.500000
vt 0.791016 0.500000
vt 0.783203 0.500000
vt 0.791016 0.500000
vt 0.783203 0.500000
vt 0.791016 0.500000
vt 0.791016 0.500000
vt 0.791016 0.500000
vt 0.783203 0.500000
vt 0.791016 0.500000
vt 0.783203 0.500000
vt 0.791016 0.500000
vt 0.791016 0.500000
vt 0.783203 0.500000
vt 0.791016 0.500000
vt 0.783203 0.500000
vt 0.791016 0.500000
vt 0.783203 0.500000
vt 0.783203 0.500000
vt 0.791016 0.500000
vt 0.783203 0.500000
vt 0.783203 0.500000
vt 0.791016 0.500000
vt 0.783203 0.500000
vt 0.791016 0.500000
vt 0.791016 0.500000
vt 0.791016 0.500000
vt 0.791016 0.500000
vt 0.791016 0.500000
vt 0.783203 0.500000
vt 0.791016 0.500000
vt 0.791016 0.500000
vt 0.783203 0.500000
vt 0.783203 0.500000
vt 0.783203 0.500000
vt 0.791016 0.500000
vt 0.791016 0.500000
vt 0.783203 0.500000
vt 0.783203 0.500000
vt 0.791016 0.500000
vt 0.791016 0.500000
vt 0.783203 0.500000
vt 0.791016 0.500000
vt 0.783203 0.500000
vt 0.791016 0.500000
vt 0.783203 0.500000
vt 0.791016 0.500000
vt 0.791016 0.500000
vt 0.791016 0.500000
vt 0.783203 0.500000
vt 0.783203 0.500000
vt 0.783203 0.500000
vt 0.783203 0.500000
vt 0.783203 0.500000
vt 0.791016 0.500000
vt 0.791016 0.500000
s 0
usemtl palette.004
f 2/2/1 50/64/1 1/1/1
f 91/119/1 50/64/1 2/2/1
f 5/5/1 4/4/1 3/3/1
f 93/121/1 4/4/1 5/5/1
f 79/102/1 51/65/1 6/6/1
f 7/7/1 51/65/1 79/102/1
f 18/22/1 8/8/1 35/43/1
f 52/67/1 71/94/1 8/9/1
f 52/66/1 8/8/1 18/22/1
f 88/116/1 71/94/1 52/67/1
f 37/46/1 53/68/1 36/44/1
f 54/69/1 53/68/1 37/46/1
f 10/12/1 87/115/1 9/10/1
f 11/13/1 87/115/1 10/12/1
f 12/14/1 43/54/1 31/39/1
f 96/124/1 43/54/1 12/14/1
f 20/25/1 70/93/1 55/72/1
f 13/16/1 70/93/1 20/25/1
f 56/73/1 13/15/1 20/24/1
f 58/77/1 13/15/1 56/73/1
f 76/99/1 58/76/1 56/74/1
f 40/49/1 62/82/1 58/77/1
f 40/50/1 58/76/1 76/99/1
f 63/84/1 62/82/1 40/49/1
f 14/17/1 63/83/1 40/50/1
f 64/85/1 63/83/1 14/17/1
f 46/59/1 80/103/1 78/101/1
f 48/61/1 80/103/1 46/59/1
f 45/58/1 46/59/1 44/56/1
f 47/60/1 46/59/1 45/58/1
f 94/122/1 66/87/1 15/18/1
f 94/122/1 16/20/1 66/87/1
f 67/89/1 16/20/1 94/122/1
f 33/41/2 75/98/2 3/3/2
f 3/3/2 75/98/2 4/4/2
f 79/102/2 7/7/2 34/42/2
f 34/42/2 7/7/2 17/21/2
f 18/22/2 52/66/2 90/118/2
f 90/118/2 52/66/2 19/23/2
f 54/70/2 72/95/2 87/115/2
f 87/115/2 72/95/2 89/117/2
f 83/107/2 20/24/2 21/26/2
f 21/26/2 20/24/2 56/73/2
f 21/27/2 56/74/2 73/96/2
f 73/96/2 56/74/2 76/99/2
f 81/105/2 44/55/2 95/123/2
f 95/123/2 44/55/2 45/57/2
f 22/28/2 59/78/2 84/109/2
f 84/109/2 59/78/2 85/111/2
f 85/111/2 59/78/2 23/30/2
f 86/113/2 60/80/2 77/100/2
f 60/79/2 65/86/2 41/51/2
f 77/100/2 60/80/2 41/52/2
f 41/51/2 65/86/2 24/31/2
f 74/97/2 77/100/2 49/63/2
f 49/63/2 77/100/2 57/75/2
f 41/52/2 24/32/2 15/19/2
f 15/19/2 24/32/2 66/88/2
f 25/33/2 49/62/2 26/34/2
f 26/34/2 49/62/2 92/120/2
f 82/106/2 26/34/2 32/40/2
f 32/40/2 26/34/2 27/35/2
f 38/47/2 28/36/2 39/48/2
f 39/48/2 28/36/2 61/81/2
f 29/37/2 68/90/2 42/53/2
f 42/53/2 68/90/2 30/38/2
f 81/105/3 12/14/3 31/39/3
f 95/123/3 12/14/3 81/105/3
f 82/106/3 45/58/3 44/56/3
f 32/40/3 45/58/3 82/106/3
f 25/33/3 46/59/3 78/101/3
f 26/34/3 46/59/3 25/33/3
f 33/41/3 2/2/3 1/1/3
f 3/3/3 2/2/3 33/41/3
f 79/102/3 5/5/3 3/3/3
f 34/42/3 5/5/3 79/102/3
f 18/22/3 79/102/3 6/6/3
f 90/118/3 79/102/3 18/22/3
f 37/46/3 18/22/3 35/43/3
f 9/11/3 18/22/3 37/46/3
f 69/92/3 37/46/3 36/44/3
f 83/107/3 37/46/3 69/92/3
f 21/27/3 10/12/3 9/10/3
f 21/26/3 37/46/3 83/107/3
f 21/27/3 9/10/3 37/45/3
f 73/96/3 10/12/3 21/27/3
f 80/104/3 10/12/3 73/96/3
f 22/28/3 83/108/3 69/91/3
f 84/109/3 83/108/3 22/28/3
f 74/97/3 80/104/3 73/96/3
f 49/63/3 80/104/3 74/97/3
f 85/110/3 56/73/3 20/24/3
f 86/113/3 76/99/3 56/74/3
f 86/112/3 56/73/3 85/110/3
f 77/100/3 76/99/3 86/113/3
f 38/47/3 86/113/3 85/111/3
f 39/48/3 86/113/3 38/47/3
f 41/52/3 14/17/3 40/50/3
f 15/19/3 14/17/3 41/52/3
f 29/37/3 94/122/3 15/18/3
f 42/53/3 94/122/3 29/37/3
f 43/54/4 96/124/4 44/55/4
f 44/55/4 96/124/4 45/57/4
f 46/59/4 47/60/4 26/34/4
f 26/34/4 47/60/4 27/35/4
f 80/103/4 48/61/4 49/62/4
f 49/62/4 48/61/4 92/120/4
f 50/64/4 91/119/4 75/98/4
f 75/98/4 91/119/4 4/4/4
f 4/4/4 93/121/4 7/7/4
f 7/7/4 93/121/4 17/21/4
f 51/65/4 7/7/4 52/66/4
f 52/66/4 7/7/4 19/23/4
f 53/68/4 54/69/4 55/71/4
f 55/71/4 54/69/4 20/24/4
f 87/115/4 11/13/4 56/74/4
f 20/24/4 54/69/4 56/73/4
f 54/70/4 87/115/4 56/74/4
f 56/74/4 11/13/4 76/99/4
f 76/99/4 11/13/4 77/100/4
f 77/100/4 11/13/4 57/75/4
f 71/94/4 88/116/4 72/95/4
f 72/95/4 88/116/4 89/117/4
f 70/93/4 13/16/4 59/78/4
f 13/15/4 58/77/4 23/29/4
f 59/78/4 13/16/4 23/30/4
f 23/29/4 58/77/4 60/79/4
f 23/30/4 60/80/4 28/36/4
f 28/36/4 60/80/4 61/81/4
f 62/82/4 63/84/4 65/86/4
f 63/83/4 64/85/4 24/32/4
f 65/86/4 63/84/4 24/31/4
f 24/32/4 64/85/4 66/88/4
f 16/20/4 67/89/4 68/90/4
f 68/90/4 67/89/4 30/38/4
f 53/68/5 69/92/5 36/44/5
f 55/72/5 22/28/5 69/91/5
f 55/71/5 69/92/5 53/68/5
f 70/93/5 22/28/5 55/72/5
f 59/78/5 22/28/5 70/93/5
f 23/30/5 38/47/5 85/111/5
f 28/36/5 38/47/5 23/30/5
f 8/8/5 37/46/5 35/43/5
f 54/69/5 37/46/5 8/8/5
f 71/94/5 54/70/5 8/9/5
f 72/95/5 54/70/5 71/94/5
f 62/82/5 60/79/5 58/77/5
f 65/86/5 60/79/5 62/82/5
f 50/64/5 33/41/5 1/1/5
f 75/98/5 33/41/5 50/64/5
f 51/65/5 18/22/5 6/6/5
f 52/66/5 18/22/5 51/65/5
f 76/99/5 74/97/5 73/96/5
f 77/100/5 74/97/5 76/99/5
f 80/103/5 25/33/5 78/101/5
f 49/62/5 25/33/5 80/103/5
f 4/4/5 79/102/5 3/3/5
f 7/7/5 79/102/5 4/4/5
f 66/87/5 29/37/5 15/18/5
f 16/20/5 29/37/5 66/87/5
f 68/90/5 29/37/5 16/20/5
f 43/54/5 81/105/5 31/39/5
f 44/55/5 81/105/5 43/54/5
f 46/59/5 82/106/5 44/56/5
f 26/34/5 82/106/5 46/59/5
f 83/108/6 84/109/6 20/25/6
f 20/25/6 84/109/6 85/111/6
f 86/113/6 39/48/6 60/80/6
f 60/80/6 39/48/6 61/81/6
f 18/22/6 9/11/6 52/66/6
f 52/66/6 9/11/6 87/114/6
f 52/67/6 87/115/6 88/116/6
f 88/116/6 87/115/6 89/117/6
f 76/99/6 77/100/6 40/50/6
f 40/50/6 77/100/6 41/52/6
f 2/2/6 3/3/6 91/119/6
f 91/119/6 3/3/6 4/4/6
f 79/102/6 90/118/6 7/7/6
f 7/7/6 90/118/6 19/23/6
f 80/104/6 49/63/6 11/13/6
f 10/12/6 80/104/6 11/13/6
f 11/13/6 49/63/6 57/75/6
f 14/17/6 15/19/6 64/85/6
f 64/85/6 15/19/6 66/88/6
f 46/59/6 26/34/6 48/61/6
f 48/61/6 26/34/6 92/120/6
f 5/5/6 34/42/6 93/121/6
f 93/121/6 34/42/6 17/21/6
f 94/122/6 42/53/6 67/89/6
f 67/89/6 42/53/6 30/38/6
f 12/14/6 95/123/6 96/124/6
f 96/124/6 95/123/6 45/57/6
f 45/58/6 32/40/6 47/60/6
f 47/60/6 32/40/6 27/35/6
