# Blender 3.4.1
# www.blender.org
mtllib Untitled.003.mtl
o Untitled.003
v 4.500000 8.600000 -1.899999
v 4.300000 8.600000 -1.899999
v 4.400000 8.700000 -1.899999
v 4.500000 8.800000 -1.899999
v 4.600000 8.900000 -1.899999
v 4.500000 8.900000 -1.899999
v 4.300000 8.700000 -1.999999
v 4.500000 8.800000 -1.999999
v 4.600000 8.900000 -1.999999
v 4.500000 8.900000 -1.999999
v 4.400000 8.900000 -1.999999
v 4.600000 9.000000 -1.999999
v 4.500000 9.000000 -1.999999
v 4.400000 9.000000 -1.999999
v 4.400000 8.400000 -2.099998
v 4.400000 8.500000 -2.099998
v 4.400000 8.300000 -2.199999
v 4.500000 8.400000 -2.199999
v 4.400000 8.400000 -2.199999
v 4.200000 8.400000 -2.199999
v 4.800000 8.500000 -2.199999
v 4.800000 8.600000 -2.199999
v 4.400000 8.800000 -2.199999
v 4.400000 8.900000 -2.199999
v 4.400000 8.000000 -2.299999
v 4.200000 8.400000 -2.299999
v 4.100000 8.400000 -2.299999
v 4.600000 8.500000 -2.299999
v 4.100000 8.500000 -2.299999
v 4.900000 8.600000 -2.299999
v 4.800000 8.600000 -2.299999
v 4.700000 8.600000 -2.299999
v 4.800000 8.700000 -2.299999
v 4.700000 8.700000 -2.299999
v 4.800000 8.800000 -2.299999
v 4.100000 8.800000 -2.299999
v 4.200000 8.900000 -2.299999
v 4.500000 8.600000 -2.099998
v 4.200000 8.600000 -2.099998
v 4.300000 8.700000 -2.099998
v 4.500000 8.800000 -2.099998
v 4.300000 8.800000 -2.099998
v 4.500000 8.600000 -2.199999
v 4.500000 8.800000 -2.199999
v 4.500000 8.900000 -2.199999
v 4.300000 8.800000 -2.299999
v 4.700000 8.200000 -2.399999
v 4.500000 8.300000 -2.399999
v 4.800000 8.400000 -2.399999
v 4.600000 8.500000 -2.399999
v 4.300000 8.500000 -2.399999
v 4.100000 8.500000 -2.399999
v 4.800000 8.600000 -2.399999
v 4.700000 8.600000 -2.399999
v 4.600000 8.600000 -2.399999
v 4.300000 8.600000 -2.399999
v 4.100000 8.600000 -2.399999
v 4.700000 8.700000 -2.399999
v 4.200000 8.700000 -2.399999
v 4.200000 8.800000 -2.399999
v 3.900000 8.800000 -2.399999
v 4.000000 9.000000 -2.399999
v 4.200000 8.500000 -2.499999
v 4.100000 8.500000 -2.499999
v 4.000000 8.500000 -2.499999
v 4.200000 8.600000 -2.499999
v 4.900000 8.700000 -2.499999
v 4.700000 8.700000 -2.499999
v 4.900000 8.500000 -2.299999
v 4.900000 8.500000 -2.399999
v 4.800000 8.500000 -2.299999
v 4.800000 8.500000 -2.399999
v 4.800000 8.800000 -2.399999
v 4.800000 8.500000 -2.499999
v 4.700000 8.400000 -2.399999
v 4.600000 8.800000 -1.899999
v 4.600000 8.800000 -2.099998
v 4.500000 8.900000 -2.099998
v 4.500000 8.500000 -2.199999
v 4.500000 8.000000 -2.299999
v 4.500000 8.000000 -2.399999
v 4.500000 8.200000 -2.399999
v 4.500000 8.500000 -2.399999
v 4.400000 8.900000 -2.299999
v 4.300000 8.500000 -2.299999
v 4.300000 8.800000 -2.399999
v 4.200000 8.600000 -2.299999
v 4.200000 8.500000 -2.399999
v 4.200000 8.600000 -2.399999
v 4.100000 8.800000 -2.199999
v 4.100000 8.900000 -2.199999
v 4.100000 8.900000 -2.299999
v 4.100000 9.000000 -2.299999
v 4.100000 8.800000 -2.399999
v 4.100000 8.900000 -2.399999
v 4.100000 9.000000 -2.399999
v 4.700000 8.600000 -2.199999
v 4.600000 8.600000 -2.299999
v 4.600000 8.800000 -2.299999
v 4.600000 8.300000 -2.399999
v 4.400000 8.500000 -1.899999
v 4.400000 8.800000 -1.899999
v 4.400000 8.900000 -1.899999
v 4.400000 8.600000 -1.999999
v 4.400000 8.700000 -1.999999
v 4.400000 8.800000 -1.999999
v 4.400000 8.700000 -2.099998
v 4.400000 8.800000 -2.099998
v 4.400000 8.900000 -2.099998
v 4.400000 8.500000 -2.199999
v 4.400000 8.600000 -2.199999
v 4.400000 8.400000 -2.299999
v 4.400000 8.500000 -2.299999
v 4.300000 8.700000 -1.899999
v 4.300000 8.600000 -1.999999
v 4.300000 8.900000 -2.099998
v 4.200000 8.700000 -1.999999
v 4.200000 8.500000 -2.199999
v 4.100000 8.400000 -2.399999
v 4.000000 8.900000 -2.199999
v 4.000000 8.600000 -2.299999
v 4.000000 8.800000 -2.299999
v 4.000000 9.000000 -2.299999
v 4.000000 8.500000 -2.399999
v 4.000000 8.600000 -2.399999
v 4.400000 8.000000 -2.399999
v 4.700000 8.200000 -2.299999
v 4.500000 8.200000 -2.299999
v 4.500000 8.300000 -2.199999
v 4.500000 8.300000 -2.299999
v 4.400000 8.300000 -2.299999
v 4.800000 8.400000 -2.299999
v 4.700000 8.400000 -2.299999
v 4.500000 8.400000 -2.099998
v 4.200000 8.400000 -2.399999
v 4.700000 8.500000 -2.199999
v 4.700000 8.500000 -2.399999
v 4.700000 8.500000 -2.499999
v 4.500000 8.500000 -1.899999
v 4.500000 8.500000 -2.099998
v 4.200000 8.500000 -2.299999
v 4.000000 8.500000 -2.299999
v 4.900000 8.600000 -2.399999
v 4.900000 8.600000 -2.499999
v 4.800000 8.600000 -2.499999
v 4.300000 8.600000 -2.099998
v 4.200000 8.600000 -1.999999
v 4.100000 8.700000 -2.299999
v 4.100000 8.700000 -2.399999
v 4.000000 8.700000 -2.299999
v 4.000000 8.700000 -2.399999
v 4.600000 8.800000 -1.999999
v 4.400000 8.800000 -2.299999
v 4.300000 8.800000 -1.999999
v 4.200000 8.800000 -2.199999
v 4.200000 8.800000 -2.299999
v 4.000000 8.800000 -2.199999
v 4.000000 8.800000 -2.399999
v 3.900000 8.800000 -2.299999
v 4.600000 8.300000 -2.299999
v 4.700000 8.500000 -2.299999
v 4.400000 8.500000 -2.399999
v 4.500000 8.600000 -1.999999
v 4.400000 8.600000 -1.899999
v 4.400000 8.600000 -2.099998
v 4.300000 8.600000 -2.299999
v 4.100000 8.600000 -2.299999
v 4.100000 8.600000 -2.499999
v 4.000000 8.600000 -2.499999
v 4.900000 8.700000 -2.399999
v 4.800000 8.700000 -2.399999
v 4.800000 8.700000 -2.499999
v 4.200000 8.700000 -2.099998
v 4.200000 8.700000 -2.299999
v 4.700000 8.800000 -2.299999
v 4.700000 8.800000 -2.399999
v 4.600000 8.800000 -2.399999
v 4.300000 8.900000 -1.999999
v 4.300000 8.900000 -2.299999
v 4.300000 8.900000 -2.399999
v 4.200000 8.900000 -2.199999
v 4.200000 8.900000 -2.399999
v 4.000000 8.900000 -2.299999
v 4.000000 8.900000 -2.399999
v 3.900000 8.900000 -2.299999
v 3.900000 8.900000 -2.399999
v 4.600000 9.000000 -2.099998
v 4.500000 9.000000 -2.099998
v 4.400000 9.000000 -2.099998
vn -0.0000 -0.0000 1.0000
vn -0.0000 -0.0000 -1.0000
vn 1.0000 -0.0000 -0.0000
vn -1.0000 -0.0000 -0.0000
vn -0.0000 -1.0000 -0.0000
vn -0.0000 1.0000 -0.0000
vt 0.978516 0.500000
vt 0.935547 0.500000
vt 0.935547 0.500000
vt 0.935547 0.500000
vt 0.966797 0.500000
vt 0.935547 0.500000
vt 0.935547 0.500000
vt 0.966797 0.500000
vt 0.935547 0.500000
vt 0.966797 0.500000
vt 0.904297 0.500000
vt 0.978516 0.500000
vt 0.935547 0.500000
vt 0.904297 0.500000
vt 0.966797 0.500000
vt 0.904297 0.500000
vt 0.935547 0.500000
vt 0.904297 0.500000
vt 0.935547 0.500000
vt 0.966797 0.500000
vt 0.966797 0.500000
vt 0.935547 0.500000
vt 0.904297 0.500000
vt 0.904297 0.500000
vt 0.966797 0.500000
vt 0.966797 0.500000
vt 0.978516 0.500000
vt 0.978516 0.500000
vt 0.978516 0.500000
vt 0.978516 0.500000
vt 0.978516 0.500000
vt 0.978516 0.500000
vt 0.904297 0.500000
vt 0.904297 0.500000
vt 0.966797 0.500000
vt 0.904297 0.500000
vt 0.966797 0.500000
vt 0.904297 0.500000
vt 0.978516 0.500000
vt 0.978516 0.500000
vt 0.978516 0.500000
vt 0.978516 0.500000
vt 0.978516 0.500000
vt 0.966797 0.500000
vt 0.935547 0.500000
vt 0.978516 0.500000
vt 0.935547 0.500000
vt 0.904297 0.500000
vt 0.978516 0.500000
vt 0.966797 0.500000
vt 0.904297 0.500000
vt 0.935547 0.500000
vt 0.978516 0.500000
vt 0.978516 0.500000
vt 0.966797 0.500000
vt 0.935547 0.500000
vt 0.935547 0.500000
vt 0.978516 0.500000
vt 0.966797 0.500000
vt 0.904297 0.500000
vt 0.904297 0.500000
vt 0.935547 0.500000
vt 0.966797 0.500000
vt 0.978516 0.500000
vt 0.904297 0.500000
vt 0.966797 0.500000
vt 0.904297 0.500000
vt 0.978516 0.500000
vt 0.904297 0.500000
vt 0.966797 0.500000
vt 0.935547 0.500000
vt 0.978516 0.500000
vt 0.966797 0.500000
vt 0.966797 0.500000
vt 0.935547 0.500000
vt 0.904297 0.500000
vt 0.978516 0.500000
vt 0.978516 0.500000
vt 0.978516 0.500000
vt 0.978516 0.500000
vt 0.966797 0.500000
vt 0.978516 0.500000
vt 0.935547 0.500000
vt 0.966797 0.500000
vt 0.978516 0.500000
vt 0.966797 0.500000
vt 0.935547 0.500000
vt 0.978516 0.500000
vt 0.966797 0.500000
vt 0.966797 0.500000
vt 0.966797 0.500000
vt 0.978516 0.500000
vt 0.935547 0.500000
vt 0.966797 0.500000
vt 0.935547 0.500000
vt 0.966797 0.500000
vt 0.978516 0.500000
vt 0.935547 0.500000
vt 0.966797 0.500000
vt 0.904297 0.500000
vt 0.935547 0.500000
vt 0.966797 0.500000
vt 0.966797 0.500000
vt 0.935547 0.500000
vt 0.935547 0.500000
vt 0.966797 0.500000
vt 0.935547 0.500000
vt 0.966797 0.500000
vt 0.935547 0.500000
vt 0.935547 0.500000
vt 0.978516 0.500000
vt 0.935547 0.500000
vt 0.904297 0.500000
vt 0.978516 0.500000
vt 0.935547 0.500000
vt 0.966797 0.500000
vt 0.935547 0.500000
vt 0.966797 0.500000
vt 0.978516 0.500000
vt 0.935547 0.500000
vt 0.904297 0.500000
vt 0.904297 0.500000
vt 0.966797 0.500000
vt 0.978516 0.500000
vt 0.978516 0.500000
vt 0.978516 0.500000
vt 0.978516 0.500000
vt 0.978516 0.500000
vt 0.904297 0.500000
vt 0.966797 0.500000
vt 0.978516 0.500000
vt 0.935547 0.500000
vt 0.978516 0.500000
vt 0.966797 0.500000
vt 0.978516 0.500000
vt 0.966797 0.500000
vt 0.978516 0.500000
vt 0.966797 0.500000
vt 0.904297 0.500000
vt 0.904297 0.500000
vt 0.935547 0.500000
vt 0.966797 0.500000
vt 0.904297 0.500000
vt 0.935547 0.500000
vt 0.978516 0.500000
vt 0.966797 0.500000
vt 0.978516 0.500000
vt 0.935547 0.500000
vt 0.966797 0.500000
vt 0.935547 0.500000
vt 0.904297 0.500000
vt 0.966797 0.500000
vt 0.966797 0.500000
vt 0.978516 0.500000
vt 0.978516 0.500000
vt 0.966797 0.500000
vt 0.966797 0.500000
vt 0.966797 0.500000
vt 0.935547 0.500000
vt 0.978516 0.500000
vt 0.978516 0.500000
vt 0.966797 0.500000
vt 0.935547 0.500000
vt 0.978516 0.500000
vt 0.966797 0.500000
vt 0.935547 0.500000
vt 0.978516 0.500000
vt 0.966797 0.500000
vt 0.978516 0.500000
vt 0.966797 0.500000
vt 0.935547 0.500000
vt 0.966797 0.500000
vt 0.935547 0.500000
vt 0.978516 0.500000
vt 0.978516 0.500000
vt 0.978516 0.500000
vt 0.978516 0.500000
vt 0.935547 0.500000
vt 0.935547 0.500000
vt 0.966797 0.500000
vt 0.904297 0.500000
vt 0.935547 0.500000
vt 0.904297 0.500000
vt 0.978516 0.500000
vt 0.978516 0.500000
vt 0.904297 0.500000
vt 0.966797 0.500000
vt 0.978516 0.500000
vt 0.904297 0.500000
vt 0.935547 0.500000
vt 0.966797 0.500000
vt 0.935547 0.500000
vt 0.966797 0.500000
vt 0.935547 0.500000
vt 0.978516 0.500000
vt 0.978516 0.500000
vt 0.978516 0.500000
vt 0.978516 0.500000
vt 0.978516 0.500000
vt 0.978516 0.500000
vt 0.978516 0.500000
vt 0.978516 0.500000
vt 0.978516 0.500000
vt 0.978516 0.500000
vt 0.904297 0.500000
vt 0.966797 0.500000
vt 0.978516 0.500000
vt 0.966797 0.500000
vt 0.978516 0.500000
vt 0.978516 0.500000
vt 0.966797 0.500000
vt 0.978516 0.500000
vt 0.966797 0.500000
vt 0.935547 0.500000
vt 0.935547 0.500000
vt 0.966797 0.500000
vt 0.935547 0.500000
vt 0.966797 0.500000
vt 0.904297 0.500000
vt 0.904297 0.500000
vt 0.978516 0.500000
vt 0.978516 0.500000
vt 0.978516 0.500000
vt 0.978516 0.500000
vt 0.904297 0.500000
vt 0.935547 0.500000
vt 0.904297 0.500000
vt 0.935547 0.500000
vt 0.904297 0.500000
vt 0.904297 0.500000
vt 0.935547 0.500000
vt 0.966797 0.500000
vt 0.904297 0.500000
vt 0.978516 0.500000
vt 0.904297 0.500000
vt 0.904297 0.500000
vt 0.978516 0.500000
vt 0.904297 0.500000
vt 0.978516 0.500000
vt 0.978516 0.500000
vt 0.978516 0.500000
vt 0.935547 0.500000
vt 0.978516 0.500000
vt 0.966797 0.500000
vt 0.978516 0.500000
vt 0.966797 0.500000
vt 0.978516 0.500000
vt 0.966797 0.500000
vt 0.966797 0.500000
vt 0.935547 0.500000
vt 0.935547 0.500000
vt 0.935547 0.500000
vt 0.978516 0.500000
vt 0.935547 0.500000
vt 0.966797 0.500000
vt 0.935547 0.500000
vt 0.966797 0.500000
vt 0.904297 0.500000
vt 0.978516 0.500000
vt 0.935547 0.500000
vt 0.966797 0.500000
vt 0.935547 0.500000
vt 0.966797 0.500000
vt 0.966797 0.500000
vt 0.935547 0.500000
vt 0.935547 0.500000
vt 0.904297 0.500000
vt 0.935547 0.500000
vt 0.904297 0.500000
vt 0.935547 0.500000
vt 0.966797 0.500000
vt 0.935547 0.500000
vt 0.904297 0.500000
vt 0.978516 0.500000
vt 0.935547 0.500000
vt 0.904297 0.500000
vt 0.904297 0.500000
vt 0.904297 0.500000
vt 0.904297 0.500000
vt 0.904297 0.500000
vt 0.966797 0.500000
vt 0.966797 0.500000
s 0
usemtl palette.003
f 1/1/1 101/155/1 139/209/1
f 164/243/1 101/155/1 1/1/1
f 3/3/1 2/2/1 164/242/1
f 114/178/1 2/2/1 3/3/1
f 5/6/1 4/4/1 76/120/1
f 6/8/1 102/156/1 4/5/1
f 6/7/1 4/4/1 5/6/1
f 103/157/1 102/156/1 6/8/1
f 105/161/1 104/160/1 163/241/1
f 7/11/1 147/220/1 115/181/1
f 117/183/1 147/220/1 7/11/1
f 8/12/1 105/161/1 163/241/1
f 106/164/1 105/161/1 8/12/1
f 11/22/1 154/228/1 106/166/1
f 178/265/1 154/228/1 11/22/1
f 12/23/1 10/18/1 9/16/1
f 13/25/1 11/21/1 10/20/1
f 13/24/1 10/18/1 12/23/1
f 14/26/1 11/21/1 13/25/1
f 140/210/1 15/27/1 134/203/1
f 16/28/1 15/27/1 140/210/1
f 18/30/1 17/29/1 129/198/1
f 19/31/1 17/29/1 18/30/1
f 110/174/1 20/32/1 19/31/1
f 118/184/1 20/32/1 110/174/1
f 22/34/1 136/205/1 21/33/1
f 97/151/1 136/205/1 22/34/1
f 24/38/1 155/229/1 23/36/1
f 181/269/1 155/229/1 24/38/1
f 91/140/1 157/233/1 90/139/1
f 120/186/1 157/233/1 91/140/1
f 128/197/1 25/39/1 80/125/1
f 160/237/1 128/197/1 127/196/1
f 130/199/1 25/39/1 128/197/1
f 130/199/1 128/197/1 160/237/1
f 131/200/1 25/39/1 130/199/1
f 133/202/1 160/237/1 127/196/1
f 71/111/1 133/202/1 132/201/1
f 161/239/1 160/237/1 133/202/1
f 161/239/1 133/202/1 71/111/1
f 28/42/1 160/237/1 161/239/1
f 141/212/1 27/41/1 26/40/1
f 29/43/1 27/41/1 141/212/1
f 30/45/1 71/112/1 69/109/1
f 31/47/1 71/112/1 30/45/1
f 166/246/1 141/211/1 85/130/1
f 87/133/1 29/43/1 141/212/1
f 87/134/1 141/211/1 166/246/1
f 167/248/1 142/213/1 29/44/1
f 167/247/1 29/43/1 87/133/1
f 121/187/1 142/213/1 167/248/1
f 33/53/1 32/49/1 31/46/1
f 34/55/1 98/152/1 32/50/1
f 34/54/1 32/49/1 33/53/1
f 174/259/1 167/247/1 87/133/1
f 148/221/1 167/247/1 174/259/1
f 35/57/1 34/56/1 33/52/1
f 175/261/1 98/152/1 34/55/1
f 175/260/1 34/56/1 35/57/1
f 99/153/1 98/152/1 175/261/1
f 36/58/1 150/223/1 148/221/1
f 122/188/1 150/223/1 36/58/1
f 37/63/1 36/59/1 156/232/1
f 92/142/1 36/59/1 37/63/1
f 183/273/1 159/236/1 122/189/1
f 185/277/1 159/236/1 183/273/1
f 93/144/1 183/272/1 92/141/1
f 123/190/1 183/272/1 93/144/1
f 170/252/1 53/87/1 143/214/1
f 171/254/1 53/87/1 170/252/1
f 38/64/2 165/245/2 107/167/2
f 165/244/2 146/218/2 107/168/2
f 146/219/2 39/65/2 40/67/2
f 107/168/2 146/218/2 40/66/2
f 40/67/2 39/65/2 173/258/2
f 38/64/2 107/167/2 41/68/2
f 41/68/2 107/167/2 108/169/2
f 77/121/2 41/69/2 78/122/2
f 108/171/2 42/71/2 109/173/2
f 109/173/2 42/71/2 116/182/2
f 77/121/2 78/122/2 187/279/2
f 78/123/2 109/172/2 188/281/2
f 187/279/2 78/122/2 188/280/2
f 188/281/2 109/172/2 189/282/2
f 79/124/2 110/174/2 43/72/2
f 43/72/2 110/174/2 111/175/2
f 44/73/2 23/35/2 45/74/2
f 45/74/2 23/35/2 24/37/2
f 112/176/2 26/40/2 113/177/2
f 113/177/2 26/40/2 85/131/2
f 85/131/2 26/40/2 141/212/2
f 153/227/2 46/76/2 84/129/2
f 84/129/2 46/76/2 179/267/2
f 81/126/2 126/195/2 82/127/2
f 47/77/2 82/127/2 100/154/2
f 82/127/2 126/195/2 48/78/2
f 100/154/2 82/127/2 48/78/2
f 47/77/2 100/154/2 75/119/2
f 49/79/2 75/119/2 72/114/2
f 75/119/2 100/154/2 137/207/2
f 72/114/2 75/119/2 137/207/2
f 137/207/2 100/154/2 50/80/2
f 48/78/2 126/195/2 83/128/2
f 83/128/2 126/195/2 162/240/2
f 135/204/2 119/185/2 88/135/2
f 88/135/2 119/185/2 52/82/2
f 70/110/2 72/115/2 143/214/2
f 143/214/2 72/115/2 53/87/2
f 51/81/2 88/136/2 56/91/2
f 56/91/2 88/136/2 89/138/2
f 54/89/2 55/90/2 58/96/2
f 89/137/2 57/92/2 59/97/2
f 59/97/2 57/92/2 149/222/2
f 171/254/2 58/95/2 73/117/2
f 58/96/2 55/90/2 176/263/2
f 73/117/2 58/95/2 176/262/2
f 176/263/2 55/90/2 177/264/2
f 149/222/2 151/224/2 94/145/2
f 94/145/2 151/224/2 158/234/2
f 86/132/2 60/98/2 180/268/2
f 60/99/2 94/146/2 182/271/2
f 180/268/2 60/98/2 182/270/2
f 94/145/2 158/234/2 95/147/2
f 182/271/2 94/146/2 95/149/2
f 158/235/2 61/100/2 184/276/2
f 95/147/2 158/234/2 184/274/2
f 184/276/2 61/100/2 186/278/2
f 95/148/2 184/275/2 96/150/2
f 96/150/2 184/275/2 62/101/2
f 74/118/2 138/208/2 145/216/2
f 63/102/2 64/103/2 66/106/2
f 64/104/2 65/105/2 168/250/2
f 66/106/2 64/103/2 168/249/2
f 168/250/2 65/105/2 169/251/2
f 144/215/2 145/217/2 67/107/2
f 145/216/2 138/208/2 172/257/2
f 67/107/2 145/217/2 172/256/2
f 172/257/2 138/208/2 68/108/2
f 70/110/3 30/45/3 69/109/3
f 143/214/3 30/45/3 70/110/3
f 144/215/3 170/252/3 143/214/3
f 67/107/3 170/252/3 144/215/3
f 71/113/3 22/34/3 21/33/3
f 31/48/3 22/34/3 71/113/3
f 49/79/3 71/111/3 132/201/3
f 72/114/3 71/111/3 49/79/3
f 53/85/3 33/53/3 31/46/3
f 171/254/3 35/57/3 33/52/3
f 171/253/3 33/53/3 53/85/3
f 73/117/3 35/57/3 171/254/3
f 74/118/3 53/86/3 72/116/3
f 145/216/3 53/86/3 74/118/3
f 47/77/3 133/202/3 127/196/3
f 75/119/3 133/202/3 47/77/3
f 152/226/3 5/6/3 76/120/3
f 9/17/3 5/6/3 152/226/3
f 77/121/3 9/16/3 152/225/3
f 77/121/3 12/23/3 9/16/3
f 187/279/3 12/23/3 77/121/3
f 163/241/3 1/1/3 139/209/3
f 140/210/3 163/241/3 139/209/3
f 140/210/3 8/12/3 163/241/3
f 38/64/3 8/12/3 140/210/3
f 41/68/3 8/12/3 38/64/3
f 18/30/3 140/210/3 134/203/3
f 18/30/3 38/64/3 140/210/3
f 79/124/3 38/64/3 18/30/3
f 43/72/3 38/64/3 79/124/3
f 44/73/3 78/123/3 41/70/3
f 45/74/3 78/123/3 44/73/3
f 130/199/3 18/30/3 129/198/3
f 130/199/3 79/124/3 18/30/3
f 81/126/3 128/197/3 80/125/3
f 82/127/3 128/197/3 81/126/3
f 48/78/3 79/124/3 130/199/3
f 83/128/3 79/124/3 48/78/3
f 104/159/3 3/3/3 164/242/3
f 105/163/3 3/3/3 104/159/3
f 153/227/3 24/38/3 23/36/3
f 84/129/3 24/38/3 153/227/3
f 51/81/3 166/246/3 85/130/3
f 56/91/3 166/246/3 51/81/3
f 86/132/3 179/266/3 46/75/3
f 180/268/3 179/266/3 86/132/3
f 135/204/3 141/212/3 26/40/3
f 88/135/3 141/212/3 135/204/3
f 89/137/3 174/259/3 87/133/3
f 59/97/3 174/259/3 89/137/3
f 63/102/3 89/138/3 88/136/3
f 66/106/3 89/138/3 63/102/3
f 36/60/3 91/140/3 90/139/3
f 92/143/3 91/140/3 36/60/3
f 149/222/3 36/58/3 148/221/3
f 94/145/3 36/58/3 149/222/3
f 95/148/3 93/144/3 92/141/3
f 96/150/3 93/144/3 95/148/3
f 136/205/4 97/151/4 161/238/4
f 161/238/4 97/151/4 32/51/4
f 161/239/4 32/49/4 137/207/4
f 137/207/4 32/49/4 54/88/4
f 137/206/4 54/89/4 138/208/4
f 54/89/4 58/96/4 138/208/4
f 138/208/4 58/96/4 68/108/4
f 160/237/4 28/42/4 100/154/4
f 100/154/4 28/42/4 50/80/4
f 98/152/4 99/153/4 55/90/4
f 55/90/4 99/153/4 177/264/4
f 101/155/4 164/243/4 104/160/4
f 102/156/4 103/157/4 106/165/4
f 106/165/4 103/157/4 11/21/4
f 101/155/4 104/160/4 16/28/4
f 16/28/4 104/160/4 165/245/4
f 105/161/4 106/164/4 107/167/4
f 107/167/4 106/164/4 108/169/4
f 11/21/4 14/26/4 109/172/4
f 109/172/4 14/26/4 189/282/4
f 16/28/4 165/245/4 19/31/4
f 15/27/4 16/28/4 19/31/4
f 19/31/4 165/245/4 110/174/4
f 110/174/4 165/245/4 111/175/4
f 108/170/4 109/172/4 23/35/4
f 23/35/4 109/172/4 24/37/4
f 17/29/4 19/31/4 131/200/4
f 131/200/4 19/31/4 112/176/4
f 25/39/4 131/200/4 126/195/4
f 112/176/4 113/177/4 126/195/4
f 131/200/4 112/176/4 126/195/4
f 126/195/4 113/177/4 162/240/4
f 2/2/4 114/178/4 115/179/4
f 115/179/4 114/178/4 7/9/4
f 154/228/4 178/265/4 42/71/4
f 42/71/4 178/265/4 116/182/4
f 147/220/4 117/183/4 39/65/4
f 39/65/4 117/183/4 173/258/4
f 20/32/4 118/184/4 26/40/4
f 26/40/4 118/184/4 141/212/4
f 155/229/4 181/269/4 156/230/4
f 156/230/4 181/269/4 37/61/4
f 27/41/4 29/43/4 119/185/4
f 119/185/4 29/43/4 52/82/4
f 167/247/4 148/221/4 57/92/4
f 57/92/4 148/221/4 149/222/4
f 157/233/4 120/186/4 122/189/4
f 122/189/4 120/186/4 183/273/4
f 142/213/4 121/187/4 124/191/4
f 124/191/4 121/187/4 125/193/4
f 150/223/4 122/188/4 151/224/4
f 151/224/4 122/188/4 158/234/4
f 183/272/4 123/190/4 184/275/4
f 184/275/4 123/190/4 62/101/4
f 124/192/4 125/194/4 65/105/4
f 65/105/4 125/194/4 169/251/4
f 159/236/4 185/277/4 61/100/4
f 61/100/4 185/277/4 186/278/4
f 25/39/5 81/126/5 80/125/5
f 126/195/5 81/126/5 25/39/5
f 128/197/5 47/77/5 127/196/5
f 82/127/5 47/77/5 128/197/5
f 17/29/5 130/199/5 129/198/5
f 131/200/5 130/199/5 17/29/5
f 133/202/5 49/79/5 132/201/5
f 75/119/5 49/79/5 133/202/5
f 15/27/5 18/30/5 134/203/5
f 19/31/5 18/30/5 15/27/5
f 20/32/5 112/176/5 19/31/5
f 26/40/5 112/176/5 20/32/5
f 27/41/5 135/204/5 26/40/5
f 119/185/5 135/204/5 27/41/5
f 71/112/5 70/110/5 69/109/5
f 72/115/5 70/110/5 71/112/5
f 136/205/5 71/113/5 21/33/5
f 161/238/5 71/113/5 136/205/5
f 137/206/5 74/118/5 72/116/5
f 138/208/5 74/118/5 137/206/5
f 101/155/5 140/210/5 139/209/5
f 16/28/5 140/210/5 101/155/5
f 141/211/5 51/81/5 85/130/5
f 88/136/5 51/81/5 141/211/5
f 52/84/5 63/102/5 88/136/5
f 64/103/5 63/102/5 52/84/5
f 142/213/5 52/84/5 29/44/5
f 124/192/5 64/104/5 52/83/5
f 124/191/5 52/84/5 142/213/5
f 65/105/5 64/104/5 124/192/5
f 53/87/5 144/215/5 143/214/5
f 145/217/5 144/215/5 53/87/5
f 98/152/5 54/89/5 32/50/5
f 55/90/5 54/89/5 98/152/5
f 2/2/5 104/159/5 164/242/5
f 115/180/5 165/244/5 104/158/5
f 115/179/5 104/159/5 2/2/5
f 146/218/5 165/244/5 115/180/5
f 147/220/5 146/219/5 115/181/5
f 39/65/5 146/219/5 147/220/5
f 150/223/5 149/222/5 148/221/5
f 151/224/5 149/222/5 150/223/5
f 4/4/5 152/226/5 76/120/5
f 8/14/5 77/121/5 152/225/5
f 8/13/5 152/226/5 4/4/5
f 41/69/5 77/121/5 8/14/5
f 102/156/5 8/15/5 4/5/5
f 106/165/5 8/15/5 102/156/5
f 108/170/5 44/73/5 41/70/5
f 23/35/5 44/73/5 108/170/5
f 154/228/5 108/171/5 106/166/5
f 42/71/5 108/171/5 154/228/5
f 46/76/5 153/227/5 23/36/5
f 155/229/5 46/76/5 23/36/5
f 156/231/5 86/132/5 46/75/5
f 156/230/5 46/76/5 155/229/5
f 60/98/5 86/132/5 156/231/5
f 36/59/5 60/99/5 156/232/5
f 94/146/5 60/99/5 36/59/5
f 157/233/5 36/60/5 90/139/5
f 122/189/5 36/60/5 157/233/5
f 159/236/5 158/235/5 122/189/5
f 61/100/5 158/235/5 159/236/5
f 160/237/6 100/154/6 130/199/6
f 130/199/6 100/154/6 48/78/6
f 161/239/6 137/207/6 28/42/6
f 28/42/6 137/207/6 50/80/6
f 79/124/6 83/128/6 110/174/6
f 110/174/6 83/128/6 113/177/6
f 113/177/6 83/128/6 162/240/6
f 110/174/6 113/177/6 85/131/6
f 110/174/6 85/131/6 118/184/6
f 118/184/6 85/131/6 141/212/6
f 30/45/6 143/214/6 31/47/6
f 31/47/6 143/214/6 53/87/6
f 22/34/6 31/48/6 97/151/6
f 97/151/6 31/48/6 32/51/6
f 1/1/6 163/241/6 164/243/6
f 164/243/6 163/241/6 104/160/6
f 38/64/6 43/72/6 165/245/6
f 165/245/6 43/72/6 111/175/6
f 166/246/6 56/91/6 87/134/6
f 87/134/6 56/91/6 89/138/6
f 89/138/6 66/106/6 57/94/6
f 57/94/6 66/106/6 168/249/6
f 167/248/6 57/94/6 121/187/6
f 57/93/6 168/250/6 125/194/6
f 121/187/6 57/94/6 125/193/6
f 125/194/6 168/250/6 169/251/6
f 170/252/6 67/107/6 171/254/6
f 171/254/6 67/107/6 172/256/6
f 171/255/6 172/257/6 58/96/6
f 58/96/6 172/257/6 68/108/6
f 3/3/6 105/163/6 114/178/6
f 105/162/6 107/168/6 7/10/6
f 114/178/6 105/163/6 7/9/6
f 7/10/6 107/168/6 40/66/6
f 7/11/6 40/67/6 117/183/6
f 117/183/6 40/67/6 173/258/6
f 174/259/6 59/97/6 148/221/6
f 148/221/6 59/97/6 149/222/6
f 35/57/6 73/117/6 175/260/6
f 175/260/6 73/117/6 176/262/6
f 175/261/6 176/263/6 99/153/6
f 99/153/6 176/263/6 177/264/6
f 5/6/6 9/17/6 6/7/6
f 6/7/6 9/17/6 10/19/6
f 6/8/6 10/20/6 103/157/6
f 103/157/6 10/20/6 11/21/6
f 78/123/6 45/74/6 109/172/6
f 109/172/6 45/74/6 24/37/6
f 11/22/6 109/173/6 178/265/6
f 178/265/6 109/173/6 116/182/6
f 24/38/6 84/129/6 179/267/6
f 24/38/6 179/267/6 181/269/6
f 179/266/6 180/268/6 37/62/6
f 181/269/6 179/267/6 37/61/6
f 37/62/6 180/268/6 182/270/6
f 37/63/6 182/271/6 92/142/6
f 92/142/6 182/271/6 95/149/6
f 91/140/6 92/143/6 120/186/6
f 120/186/6 92/143/6 183/273/6
f 183/273/6 184/276/6 185/277/6
f 185/277/6 184/276/6 186/278/6
f 12/23/6 187/279/6 13/24/6
f 13/24/6 187/279/6 188/280/6
f 13/25/6 188/281/6 14/26/6
f 14/26/6 188/281/6 189/282/6
f 93/144/6 96/150/6 123/190/6
f 123/190/6 96/150/6 62/101/6
