# MagicaVoxel @ Ephtracy

# group
o 

# material
mtllib start_end-5.mtl
usemtl palette

# normals
vn -1 0 0
vn 1 0 0
vn 0 0 1
vn 0 0 -1
vn 0 -1 0
vn 0 1 0

# texcoords
vt 0.857422 0.5
vt 0.947266 0.5
vt 0.974609 0.5
vt 0.978516 0.5

# verts
v 5.3 0.5 -10
v 5.3 0.5 -10.1
v 5.3 0.6 -10
v 5.3 0.6 -10.1
v 5.5 0.4 -10
v 5.5 0.4 -10.1
v 5.5 0.5 -10
v 5.5 0.5 -10.1
v 5.5 0.7 -10
v 5.5 0.7 -10.1
v 5.5 0.8 -10
v 5.5 0.8 -10.1
v 5.6 0.3 -10
v 5.6 0.3 -10.1
v 5.6 0.4 -9.9
v 5.6 0.4 -10
v 5.6 0.4 -10.1
v 5.6 0.4 -10.2
v 5.6 0.5 -9.8
v 5.6 0.5 -9.9
v 5.6 0.5 -10
v 5.6 0.5 -10.1
v 5.6 0.5 -10.2
v 5.6 0.6 -9.8
v 5.6 0.6 -9.9
v 5.6 0.7 -9.9
v 5.6 0.7 -10
v 5.6 0.7 -10.1
v 5.6 0.7 -10.2
v 5.6 0.8 -9.9
v 5.6 0.8 -10
v 5.6 0.8 -10.1
v 5.6 0.8 -10.2
v 5.5 0.5 -10
v 5.5 0.5 -10.1
v 5.5 0.6 -10
v 5.5 0.6 -10.1
v 5.7 0.3 -10
v 5.7 0.3 -10.1
v 5.7 0.4 -9.9
v 5.7 0.4 -10
v 5.7 0.4 -10.1
v 5.7 0.4 -10.2
v 5.7 0.5 -9.8
v 5.7 0.5 -9.9
v 5.7 0.5 -10
v 5.7 0.5 -10.1
v 5.7 0.5 -10.2
v 5.7 0.6 -9.8
v 5.7 0.6 -9.9
v 5.7 0.7 -9.9
v 5.7 0.7 -10
v 5.7 0.7 -10.1
v 5.7 0.7 -10.2
v 5.7 0.8 -9.9
v 5.7 0.8 -10
v 5.7 0.8 -10.1
v 5.7 0.8 -10.2
v 5.8 0.7 -10
v 5.8 0.7 -10.1
v 5.8 0.8 -10
v 5.8 0.8 -10.1
v 5.6 0.5 -9.8
v 5.6 0.6 -9.8
v 5.7 0.5 -9.8
v 5.7 0.6 -9.8
v 5.6 0.4 -9.9
v 5.6 0.5 -9.9
v 5.6 0.7 -9.9
v 5.6 0.8 -9.9
v 5.7 0.4 -9.9
v 5.7 0.5 -9.9
v 5.7 0.7 -9.9
v 5.7 0.8 -9.9
v 5.3 0.5 -10
v 5.3 0.6 -10
v 5.5 0.4 -10
v 5.5 0.5 -10
v 5.5 0.6 -10
v 5.5 0.7 -10
v 5.5 0.8 -10
v 5.6 0.3 -10
v 5.6 0.4 -10
v 5.6 0.5 -10
v 5.6 0.7 -10
v 5.6 0.8 -10
v 5.7 0.3 -10
v 5.7 0.4 -10
v 5.7 0.5 -10
v 5.7 0.7 -10
v 5.7 0.8 -10
v 5.8 0.7 -10
v 5.8 0.8 -10
v 5.6 0.5 -9.9
v 5.6 0.6 -9.9
v 5.7 0.5 -9.9
v 5.7 0.6 -9.9
v 5.3 0.5 -10.1
v 5.3 0.6 -10.1
v 5.5 0.4 -10.1
v 5.5 0.5 -10.1
v 5.5 0.6 -10.1
v 5.5 0.7 -10.1
v 5.5 0.8 -10.1
v 5.6 0.3 -10.1
v 5.6 0.4 -10.1
v 5.6 0.5 -10.1
v 5.6 0.7 -10.1
v 5.6 0.8 -10.1
v 5.7 0.3 -10.1
v 5.7 0.4 -10.1
v 5.7 0.5 -10.1
v 5.7 0.7 -10.1
v 5.7 0.8 -10.1
v 5.8 0.7 -10.1
v 5.8 0.8 -10.1
v 5.6 0.4 -10.2
v 5.6 0.5 -10.2
v 5.6 0.7 -10.2
v 5.6 0.8 -10.2
v 5.7 0.4 -10.2
v 5.7 0.5 -10.2
v 5.7 0.7 -10.2
v 5.7 0.8 -10.2
v 5.6 0.3 -10
v 5.7 0.3 -10
v 5.6 0.3 -10.1
v 5.7 0.3 -10.1
v 5.6 0.4 -9.9
v 5.7 0.4 -9.9
v 5.5 0.4 -10
v 5.6 0.4 -10
v 5.7 0.4 -10
v 5.5 0.4 -10.1
v 5.6 0.4 -10.1
v 5.7 0.4 -10.1
v 5.6 0.4 -10.2
v 5.7 0.4 -10.2
v 5.6 0.5 -9.8
v 5.7 0.5 -9.8
v 5.6 0.5 -9.9
v 5.7 0.5 -9.9
v 5.3 0.5 -10
v 5.5 0.5 -10
v 5.3 0.5 -10.1
v 5.5 0.5 -10.1
v 5.6 0.7 -9.9
v 5.7 0.7 -9.9
v 5.5 0.7 -10
v 5.6 0.7 -10
v 5.7 0.7 -10
v 5.8 0.7 -10
v 5.5 0.7 -10.1
v 5.6 0.7 -10.1
v 5.7 0.7 -10.1
v 5.8 0.7 -10.1
v 5.6 0.7 -10.2
v 5.7 0.7 -10.2
v 5.6 0.5 -9.9
v 5.7 0.5 -9.9
v 5.5 0.5 -10
v 5.6 0.5 -10
v 5.7 0.5 -10
v 5.5 0.5 -10.1
v 5.6 0.5 -10.1
v 5.7 0.5 -10.1
v 5.6 0.5 -10.2
v 5.7 0.5 -10.2
v 5.6 0.6 -9.8
v 5.7 0.6 -9.8
v 5.6 0.6 -9.9
v 5.7 0.6 -9.9
v 5.3 0.6 -10
v 5.5 0.6 -10
v 5.3 0.6 -10.1
v 5.5 0.6 -10.1
v 5.6 0.8 -9.9
v 5.7 0.8 -9.9
v 5.5 0.8 -10
v 5.6 0.8 -10
v 5.7 0.8 -10
v 5.8 0.8 -10
v 5.5 0.8 -10.1
v 5.6 0.8 -10.1
v 5.7 0.8 -10.1
v 5.8 0.8 -10.1
v 5.6 0.8 -10.2
v 5.7 0.8 -10.2

# faces
f 3/1/1 2/1/1 1/1/1
f 4/1/1 2/1/1 3/1/1
f 7/1/1 6/1/1 5/1/1
f 8/1/1 6/1/1 7/1/1
f 11/2/1 10/2/1 9/2/1
f 12/2/1 10/2/1 11/2/1
f 16/1/1 14/1/1 13/1/1
f 17/1/1 14/1/1 16/1/1
f 20/3/1 16/3/1 15/3/1
f 21/3/1 16/3/1 20/3/1
f 22/3/1 18/3/1 17/3/1
f 23/3/1 18/3/1 22/3/1
f 24/3/1 20/3/1 19/3/1
f 25/3/1 20/3/1 24/3/1
f 27/3/1 22/3/1 21/3/1
f 28/3/1 22/3/1 27/3/1
f 30/2/1 27/2/1 26/2/1
f 31/2/1 27/2/1 30/2/1
f 32/2/1 29/2/1 28/2/1
f 33/2/1 29/2/1 32/2/1
f 34/1/2 35/1/2 36/1/2
f 36/1/2 35/1/2 37/1/2
f 38/1/2 39/1/2 41/1/2
f 41/1/2 39/1/2 42/1/2
f 40/3/2 41/3/2 45/3/2
f 42/3/2 43/3/2 45/3/2
f 41/3/2 42/3/2 45/3/2
f 45/3/2 43/3/2 46/3/2
f 46/3/2 43/3/2 47/3/2
f 47/3/2 43/3/2 48/3/2
f 44/3/2 45/3/2 49/3/2
f 49/3/2 45/3/2 50/3/2
f 46/3/2 47/3/2 52/3/2
f 52/3/2 47/3/2 53/3/2
f 51/2/2 52/2/2 55/2/2
f 55/2/2 52/2/2 56/2/2
f 53/2/2 54/2/2 57/2/2
f 57/2/2 54/2/2 58/2/2
f 59/2/2 60/2/2 61/2/2
f 61/2/2 60/2/2 62/2/2
f 65/3/3 64/3/3 63/3/3
f 66/3/3 64/3/3 65/3/3
f 71/3/3 68/3/3 67/3/3
f 72/3/3 68/3/3 71/3/3
f 73/2/3 70/2/3 69/2/3
f 74/2/3 70/2/3 73/2/3
f 78/1/3 76/1/3 75/1/3
f 79/1/3 76/1/3 78/1/3
f 83/1/3 78/1/3 77/1/3
f 84/1/3 78/1/3 83/1/3
f 85/2/3 81/2/3 80/2/3
f 86/2/3 81/2/3 85/2/3
f 87/1/3 83/1/3 82/1/3
f 88/1/3 83/1/3 87/1/3
f 89/3/3 85/3/3 84/3/3
f 90/3/3 85/3/3 89/3/3
f 92/2/3 91/2/3 90/2/3
f 93/2/3 91/2/3 92/2/3
f 94/3/4 95/3/4 96/3/4
f 96/3/4 95/3/4 97/3/4
f 98/1/4 99/1/4 101/1/4
f 101/1/4 99/1/4 102/1/4
f 100/1/4 101/1/4 106/1/4
f 106/1/4 101/1/4 107/1/4
f 103/2/4 104/2/4 108/2/4
f 108/2/4 104/2/4 109/2/4
f 105/1/4 106/1/4 110/1/4
f 110/1/4 106/1/4 111/1/4
f 107/3/4 108/3/4 112/3/4
f 112/3/4 108/3/4 113/3/4
f 113/2/4 114/2/4 115/2/4
f 115/2/4 114/2/4 116/2/4
f 117/3/4 118/3/4 121/3/4
f 121/3/4 118/3/4 122/3/4
f 119/2/4 120/2/4 123/2/4
f 123/2/4 120/2/4 124/2/4
f 127/1/5 126/1/5 125/1/5
f 128/1/5 126/1/5 127/1/5
f 132/3/5 130/3/5 129/3/5
f 133/3/5 130/3/5 132/3/5
f 134/1/5 132/1/5 131/1/5
f 135/1/5 132/1/5 134/1/5
f 137/3/5 136/3/5 135/3/5
f 138/3/5 136/3/5 137/3/5
f 141/3/5 140/3/5 139/3/5
f 142/3/5 140/3/5 141/3/5
f 145/1/5 144/1/5 143/1/5
f 146/1/5 144/1/5 145/1/5
f 150/2/5 148/2/5 147/2/5
f 151/2/5 148/2/5 150/2/5
f 153/2/5 150/2/5 149/2/5
f 154/2/5 150/2/5 153/2/5
f 155/2/5 152/2/5 151/2/5
f 156/2/5 152/2/5 155/2/5
f 157/2/5 155/2/5 154/2/5
f 158/2/5 155/2/5 157/2/5
f 159/3/6 160/3/6 162/3/6
f 162/3/6 160/3/6 163/3/6
f 161/1/6 162/1/6 164/1/6
f 164/1/6 162/1/6 165/1/6
f 165/3/6 166/3/6 167/3/6
f 167/3/6 166/3/6 168/3/6
f 169/3/6 170/3/6 171/3/6
f 171/3/6 170/3/6 172/3/6
f 173/1/6 174/1/6 175/1/6
f 175/1/6 174/1/6 176/1/6
f 177/2/6 178/2/6 180/2/6
f 180/2/6 178/2/6 181/2/6
f 179/2/6 180/2/6 183/2/6
f 180/4/6 181/4/6 184/4/6
f 183/2/6 180/2/6 184/2/6
f 181/2/6 182/2/6 185/2/6
f 184/4/6 181/4/6 185/4/6
f 185/2/6 182/2/6 186/2/6
f 184/2/6 185/2/6 187/2/6
f 187/2/6 185/2/6 188/2/6
