# MagicaVoxel @ Ephtracy

# group
o 

# material
mtllib start_end-16.mtl
usemtl palette

# normals
vn -1 0 0
vn 1 0 0
vn 0 0 1
vn 0 0 -1
vn 0 -1 0
vn 0 1 0

# texcoords
vt 0.970703 0.5
vt 0.982422 0.5
vt 0.990234 0.5

# verts
v -2.3 0.5 -18.6
v -2.3 0.5 -18.7
v -2.3 0.6 -18.6
v -2.3 0.6 -18.7
v -2.2 0.4 -18.6
v -2.2 0.4 -18.7
v -2.2 0.5 -18.6
v -2.2 0.5 -18.7
v -2.2 0.7 -18.6
v -2.2 0.7 -18.7
v -2.2 0.8 -18.6
v -2.2 0.8 -18.7
v -2.1 0.3 -18.6
v -2.1 0.3 -18.7
v -2.1 0.4 -18.6
v -2.1 0.4 -18.7
v -2.1 0.5 -18.6
v -2.1 0.5 -18.7
v -2.1 0.7 -18.5
v -2.1 0.7 -18.6
v -2.1 0.7 -18.7
v -2.1 0.7 -18.8
v -2.1 0.8 -18.5
v -2.1 0.8 -18.6
v -2.1 0.8 -18.7
v -2.1 0.8 -18.8
v -2.2 0.5 -18.6
v -2.2 0.5 -18.7
v -2.2 0.6 -18.6
v -2.2 0.6 -18.7
v -2 0.3 -18.6
v -2 0.3 -18.7
v -2 0.4 -18.6
v -2 0.4 -18.7
v -2 0.5 -18.6
v -2 0.5 -18.7
v -2 0.7 -18.5
v -2 0.7 -18.6
v -2 0.7 -18.7
v -2 0.7 -18.8
v -2 0.8 -18.5
v -2 0.8 -18.6
v -2 0.8 -18.7
v -2 0.8 -18.8
v -1.9 0.4 -18.6
v -1.9 0.4 -18.7
v -1.9 0.5 -18.6
v -1.9 0.5 -18.7
v -1.9 0.7 -18.6
v -1.9 0.7 -18.7
v -1.9 0.8 -18.6
v -1.9 0.8 -18.7
v -2.1 0.7 -18.5
v -2.1 0.8 -18.5
v -2 0.7 -18.5
v -2 0.8 -18.5
v -2.3 0.5 -18.6
v -2.3 0.6 -18.6
v -2.2 0.4 -18.6
v -2.2 0.5 -18.6
v -2.2 0.6 -18.6
v -2.2 0.7 -18.6
v -2.2 0.8 -18.6
v -2.1 0.3 -18.6
v -2.1 0.4 -18.6
v -2.1 0.5 -18.6
v -2.1 0.7 -18.6
v -2.1 0.8 -18.6
v -2 0.3 -18.6
v -2 0.4 -18.6
v -2 0.5 -18.6
v -2 0.7 -18.6
v -2 0.8 -18.6
v -1.9 0.4 -18.6
v -1.9 0.5 -18.6
v -1.9 0.7 -18.6
v -1.9 0.8 -18.6
v -2.3 0.5 -18.7
v -2.3 0.6 -18.7
v -2.2 0.4 -18.7
v -2.2 0.5 -18.7
v -2.2 0.6 -18.7
v -2.2 0.7 -18.7
v -2.2 0.8 -18.7
v -2.1 0.3 -18.7
v -2.1 0.4 -18.7
v -2.1 0.5 -18.7
v -2.1 0.7 -18.7
v -2.1 0.8 -18.7
v -2 0.3 -18.7
v -2 0.4 -18.7
v -2 0.5 -18.7
v -2 0.7 -18.7
v -2 0.8 -18.7
v -1.9 0.4 -18.7
v -1.9 0.5 -18.7
v -1.9 0.7 -18.7
v -1.9 0.8 -18.7
v -2.1 0.7 -18.8
v -2.1 0.8 -18.8
v -2 0.7 -18.8
v -2 0.8 -18.8
v -2.1 0.3 -18.6
v -2 0.3 -18.6
v -2.1 0.3 -18.7
v -2 0.3 -18.7
v -2.2 0.4 -18.6
v -2.1 0.4 -18.6
v -2 0.4 -18.6
v -1.9 0.4 -18.6
v -2.2 0.4 -18.7
v -2.1 0.4 -18.7
v -2 0.4 -18.7
v -1.9 0.4 -18.7
v -2.3 0.5 -18.6
v -2.2 0.5 -18.6
v -2.3 0.5 -18.7
v -2.2 0.5 -18.7
v -2.1 0.7 -18.5
v -2 0.7 -18.5
v -2.2 0.7 -18.6
v -2.1 0.7 -18.6
v -2 0.7 -18.6
v -1.9 0.7 -18.6
v -2.2 0.7 -18.7
v -2.1 0.7 -18.7
v -2 0.7 -18.7
v -1.9 0.7 -18.7
v -2.1 0.7 -18.8
v -2 0.7 -18.8
v -2.2 0.5 -18.6
v -2.1 0.5 -18.6
v -2 0.5 -18.6
v -1.9 0.5 -18.6
v -2.2 0.5 -18.7
v -2.1 0.5 -18.7
v -2 0.5 -18.7
v -1.9 0.5 -18.7
v -2.3 0.6 -18.6
v -2.2 0.6 -18.6
v -2.3 0.6 -18.7
v -2.2 0.6 -18.7
v -2.1 0.8 -18.5
v -2 0.8 -18.5
v -2.2 0.8 -18.6
v -2.1 0.8 -18.6
v -2 0.8 -18.6
v -1.9 0.8 -18.6
v -2.2 0.8 -18.7
v -2.1 0.8 -18.7
v -2 0.8 -18.7
v -1.9 0.8 -18.7
v -2.1 0.8 -18.8
v -2 0.8 -18.8

# faces
f 3/1/1 2/1/1 1/1/1
f 4/1/1 2/1/1 3/1/1
f 7/1/1 6/1/1 5/1/1
f 8/1/1 6/1/1 7/1/1
f 11/3/1 10/3/1 9/3/1
f 12/3/1 10/3/1 11/3/1
f 15/1/1 14/1/1 13/1/1
f 16/1/1 14/1/1 15/1/1
f 20/1/1 18/1/1 17/1/1
f 21/1/1 18/1/1 20/1/1
f 23/3/1 20/3/1 19/3/1
f 24/3/1 20/3/1 23/3/1
f 25/3/1 22/3/1 21/3/1
f 26/3/1 22/3/1 25/3/1
f 27/1/2 28/1/2 29/1/2
f 29/1/2 28/1/2 30/1/2
f 31/1/2 32/1/2 33/1/2
f 33/1/2 32/1/2 34/1/2
f 35/1/2 36/1/2 38/1/2
f 38/1/2 36/1/2 39/1/2
f 37/3/2 38/3/2 41/3/2
f 41/3/2 38/3/2 42/3/2
f 39/3/2 40/3/2 43/3/2
f 43/3/2 40/3/2 44/3/2
f 45/1/2 46/1/2 47/1/2
f 47/1/2 46/1/2 48/1/2
f 49/3/2 50/3/2 51/3/2
f 51/3/2 50/3/2 52/3/2
f 55/3/3 54/3/3 53/3/3
f 56/3/3 54/3/3 55/3/3
f 60/1/3 58/1/3 57/1/3
f 61/1/3 58/1/3 60/1/3
f 65/1/3 60/1/3 59/1/3
f 66/1/3 60/1/3 65/1/3
f 67/3/3 63/3/3 62/3/3
f 68/3/3 63/3/3 67/3/3
f 69/1/3 66/1/3 65/1/3
f 69/1/3 65/1/3 64/1/3
f 69/1/3 67/1/3 66/1/3
f 70/1/3 67/1/3 69/1/3
f 71/1/3 67/1/3 70/1/3
f 72/1/3 67/1/3 71/1/3
f 74/1/3 71/1/3 70/1/3
f 75/1/3 71/1/3 74/1/3
f 76/3/3 73/3/3 72/3/3
f 77/3/3 73/3/3 76/3/3
f 78/1/4 79/1/4 81/1/4
f 81/1/4 79/1/4 82/1/4
f 80/1/4 81/1/4 86/1/4
f 86/1/4 81/1/4 87/1/4
f 83/3/4 84/3/4 88/3/4
f 88/3/4 84/3/4 89/3/4
f 86/1/4 87/1/4 90/1/4
f 85/1/4 86/1/4 90/1/4
f 87/1/4 88/1/4 90/1/4
f 90/1/4 88/1/4 91/1/4
f 91/1/4 88/1/4 92/1/4
f 92/1/4 88/1/4 93/1/4
f 91/1/4 92/1/4 95/1/4
f 95/1/4 92/1/4 96/1/4
f 93/3/4 94/3/4 97/3/4
f 97/3/4 94/3/4 98/3/4
f 99/3/4 100/3/4 101/3/4
f 101/3/4 100/3/4 102/3/4
f 105/1/5 104/1/5 103/1/5
f 106/1/5 104/1/5 105/1/5
f 111/1/5 108/1/5 107/1/5
f 112/1/5 108/1/5 111/1/5
f 113/1/5 110/1/5 109/1/5
f 114/1/5 110/1/5 113/1/5
f 117/1/5 116/1/5 115/1/5
f 118/1/5 116/1/5 117/1/5
f 122/3/5 120/3/5 119/3/5
f 123/3/5 120/3/5 122/3/5
f 125/3/5 122/3/5 121/3/5
f 126/3/5 122/3/5 125/3/5
f 127/3/5 124/3/5 123/3/5
f 128/3/5 124/3/5 127/3/5
f 129/3/5 127/3/5 126/3/5
f 130/3/5 127/3/5 129/3/5
f 131/1/6 132/1/6 135/1/6
f 135/1/6 132/1/6 136/1/6
f 133/1/6 134/1/6 137/1/6
f 137/1/6 134/1/6 138/1/6
f 139/1/6 140/1/6 141/1/6
f 141/1/6 140/1/6 142/1/6
f 143/3/6 144/3/6 146/3/6
f 146/3/6 144/3/6 147/3/6
f 145/3/6 146/3/6 149/3/6
f 146/2/6 147/2/6 150/2/6
f 149/3/6 146/3/6 150/3/6
f 147/3/6 148/3/6 151/3/6
f 150/2/6 147/2/6 151/2/6
f 151/3/6 148/3/6 152/3/6
f 150/3/6 151/3/6 153/3/6
f 153/3/6 151/3/6 154/3/6
