# MagicaVoxel @ Ephtracy

# group
o 

# material
mtllib start_end-12.mtl
usemtl palette

# normals
vn 0 0 1
vn 0 0 -1
vn 1 0 0
vn -1 0 0
vn 0 -1 0
vn 0 1 0

# texcoords
vt 0.970703 0.5
vt 0.974609 0.5
vt 0.986328 0.5
vt 0.990234 0.5

# verts
v 5.2 1.1 -14.5
v 5.1 1.1 -14.5
v 5.2 1.2 -14.5
v 5.1 1.2 -14.5
v 5.2 0.7 -14.6
v 5.1 0.7 -14.6
v 5.2 0.8 -14.6
v 5.1 0.8 -14.6
v 5.2 1 -14.6
v 5.1 1 -14.6
v 5.2 1.1 -14.6
v 5.1 1.1 -14.6
v 5.2 0.6 -14.7
v 5.1 0.6 -14.7
v 5.2 0.7 -14.7
v 5.1 0.7 -14.7
v 5 0.7 -14.7
v 5.2 0.8 -14.7
v 5.1 0.8 -14.7
v 5 0.8 -14.7
v 4.9 0.8 -14.7
v 5 0.9 -14.7
v 4.9 0.9 -14.7
v 5.3 1 -14.7
v 5.2 1 -14.7
v 5.1 1 -14.7
v 5 1 -14.7
v 5.4 1.1 -14.7
v 5.3 1.1 -14.7
v 5.2 1.1 -14.7
v 5.1 1.1 -14.7
v 5 1.1 -14.7
v 4.9 1.1 -14.7
v 5.4 1.2 -14.7
v 5.3 1.2 -14.7
v 5 1.2 -14.7
v 4.9 1.2 -14.7
v 5.2 0.8 -14.9
v 5.1 0.8 -14.9
v 5.2 0.9 -14.9
v 5.1 0.9 -14.9
v 5.2 1.1 -14.9
v 5.1 1.1 -14.9
v 5.2 1.2 -14.9
v 5.1 1.2 -14.9
v 5.2 1.1 -14.6
v 5.1 1.1 -14.6
v 5.2 1.2 -14.6
v 5.1 1.2 -14.6
v 5.2 0.6 -14.8
v 5.1 0.6 -14.8
v 5.2 0.7 -14.8
v 5.1 0.7 -14.8
v 5 0.7 -14.8
v 5.2 0.8 -14.8
v 5.1 0.8 -14.8
v 5 0.8 -14.8
v 4.9 0.8 -14.8
v 5 0.9 -14.8
v 4.9 0.9 -14.8
v 5.3 1 -14.8
v 5.2 1 -14.8
v 5.1 1 -14.8
v 5 1 -14.8
v 5.4 1.1 -14.8
v 5.3 1.1 -14.8
v 5.2 1.1 -14.8
v 5.1 1.1 -14.8
v 5 1.1 -14.8
v 4.9 1.1 -14.8
v 5.4 1.2 -14.8
v 5.3 1.2 -14.8
v 5 1.2 -14.8
v 4.9 1.2 -14.8
v 5.2 0.7 -14.9
v 5.1 0.7 -14.9
v 5.2 0.8 -14.9
v 5.1 0.8 -14.9
v 5.2 1 -14.9
v 5.1 1 -14.9
v 5.2 1.1 -14.9
v 5.1 1.1 -14.9
v 5.2 0.8 -15
v 5.1 0.8 -15
v 5.2 0.9 -15
v 5.1 0.9 -15
v 5.2 1.1 -15
v 5.1 1.1 -15
v 5.2 1.2 -15
v 5.1 1.2 -15
v 5.4 1.1 -14.7
v 5.4 1.2 -14.7
v 5.4 1.1 -14.8
v 5.4 1.2 -14.8
v 5.3 1 -14.7
v 5.3 1.1 -14.7
v 5.3 1 -14.8
v 5.3 1.1 -14.8
v 5.2 1.1 -14.5
v 5.2 1.2 -14.5
v 5.2 0.7 -14.6
v 5.2 0.8 -14.6
v 5.2 1 -14.6
v 5.2 1.1 -14.6
v 5.2 1.2 -14.6
v 5.2 0.6 -14.7
v 5.2 0.7 -14.7
v 5.2 0.8 -14.7
v 5.2 1 -14.7
v 5.2 1.1 -14.7
v 5.2 0.6 -14.8
v 5.2 0.7 -14.8
v 5.2 0.8 -14.8
v 5.2 1 -14.8
v 5.2 1.1 -14.8
v 5.2 0.7 -14.9
v 5.2 0.8 -14.9
v 5.2 0.9 -14.9
v 5.2 1 -14.9
v 5.2 1.1 -14.9
v 5.2 1.2 -14.9
v 5.2 0.8 -15
v 5.2 0.9 -15
v 5.2 1.1 -15
v 5.2 1.2 -15
v 5 0.8 -14.7
v 5 0.9 -14.7
v 5 1.1 -14.7
v 5 1.2 -14.7
v 5 0.8 -14.8
v 5 0.9 -14.8
v 5 1.1 -14.8
v 5 1.2 -14.8
v 5.3 1.1 -14.7
v 5.3 1.2 -14.7
v 5.3 1.1 -14.8
v 5.3 1.2 -14.8
v 5.1 1.1 -14.5
v 5.1 1.2 -14.5
v 5.1 0.7 -14.6
v 5.1 0.8 -14.6
v 5.1 1 -14.6
v 5.1 1.1 -14.6
v 5.1 1.2 -14.6
v 5.1 0.6 -14.7
v 5.1 0.7 -14.7
v 5.1 0.8 -14.7
v 5.1 1 -14.7
v 5.1 1.1 -14.7
v 5.1 0.6 -14.8
v 5.1 0.7 -14.8
v 5.1 0.8 -14.8
v 5.1 1 -14.8
v 5.1 1.1 -14.8
v 5.1 0.7 -14.9
v 5.1 0.8 -14.9
v 5.1 0.9 -14.9
v 5.1 1 -14.9
v 5.1 1.1 -14.9
v 5.1 1.2 -14.9
v 5.1 0.8 -15
v 5.1 0.9 -15
v 5.1 1.1 -15
v 5.1 1.2 -15
v 5 0.7 -14.7
v 5 0.8 -14.7
v 5 1 -14.7
v 5 1.1 -14.7
v 5 0.7 -14.8
v 5 0.8 -14.8
v 5 1 -14.8
v 5 1.1 -14.8
v 4.9 0.8 -14.7
v 4.9 0.9 -14.7
v 4.9 1.1 -14.7
v 4.9 1.2 -14.7
v 4.9 0.8 -14.8
v 4.9 0.9 -14.8
v 4.9 1.1 -14.8
v 4.9 1.2 -14.8
v 5.2 0.6 -14.7
v 5.2 0.6 -14.8
v 5.1 0.6 -14.7
v 5.1 0.6 -14.8
v 5.2 0.7 -14.6
v 5.2 0.7 -14.7
v 5.2 0.7 -14.8
v 5.2 0.7 -14.9
v 5.1 0.7 -14.6
v 5.1 0.7 -14.7
v 5.1 0.7 -14.8
v 5.1 0.7 -14.9
v 5 0.7 -14.7
v 5 0.7 -14.8
v 5.2 0.8 -14.9
v 5.2 0.8 -15
v 5.1 0.8 -14.9
v 5.1 0.8 -15
v 5 0.8 -14.7
v 5 0.8 -14.8
v 4.9 0.8 -14.7
v 4.9 0.8 -14.8
v 5.3 1 -14.7
v 5.3 1 -14.8
v 5.2 1 -14.6
v 5.2 1 -14.7
v 5.2 1 -14.8
v 5.2 1 -14.9
v 5.1 1 -14.6
v 5.1 1 -14.7
v 5.1 1 -14.8
v 5.1 1 -14.9
v 5 1 -14.7
v 5 1 -14.8
v 5.4 1.1 -14.7
v 5.4 1.1 -14.8
v 5.3 1.1 -14.7
v 5.3 1.1 -14.8
v 5.2 1.1 -14.5
v 5.2 1.1 -14.6
v 5.2 1.1 -14.9
v 5.2 1.1 -15
v 5.1 1.1 -14.5
v 5.1 1.1 -14.6
v 5.1 1.1 -14.9
v 5.1 1.1 -15
v 5 1.1 -14.7
v 5 1.1 -14.8
v 4.9 1.1 -14.7
v 4.9 1.1 -14.8
v 5.2 0.8 -14.6
v 5.2 0.8 -14.7
v 5.2 0.8 -14.8
v 5.2 0.8 -14.9
v 5.1 0.8 -14.6
v 5.1 0.8 -14.7
v 5.1 0.8 -14.8
v 5.1 0.8 -14.9
v 5 0.8 -14.7
v 5 0.8 -14.8
v 5.2 0.9 -14.9
v 5.2 0.9 -15
v 5.1 0.9 -14.9
v 5.1 0.9 -15
v 5 0.9 -14.7
v 5 0.9 -14.8
v 4.9 0.9 -14.7
v 4.9 0.9 -14.8
v 5.3 1.1 -14.7
v 5.3 1.1 -14.8
v 5.2 1.1 -14.6
v 5.2 1.1 -14.7
v 5.2 1.1 -14.8
v 5.2 1.1 -14.9
v 5.1 1.1 -14.6
v 5.1 1.1 -14.7
v 5.1 1.1 -14.8
v 5.1 1.1 -14.9
v 5 1.1 -14.7
v 5 1.1 -14.8
v 5.4 1.2 -14.7
v 5.4 1.2 -14.8
v 5.3 1.2 -14.7
v 5.3 1.2 -14.8
v 5.2 1.2 -14.5
v 5.2 1.2 -14.6
v 5.2 1.2 -14.9
v 5.2 1.2 -15
v 5.1 1.2 -14.5
v 5.1 1.2 -14.6
v 5.1 1.2 -14.9
v 5.1 1.2 -15
v 5 1.2 -14.7
v 5 1.2 -14.8
v 4.9 1.2 -14.7
v 4.9 1.2 -14.8

# faces
f 3/4/1 2/4/1 1/4/1
f 4/4/1 2/4/1 3/4/1
f 7/2/1 6/2/1 5/2/1
f 8/2/1 6/2/1 7/2/1
f 11/4/1 10/4/1 9/4/1
f 12/4/1 10/4/1 11/4/1
f 15/2/1 14/2/1 13/2/1
f 16/2/1 14/2/1 15/2/1
f 19/1/1 17/1/1 16/1/1
f 20/1/1 17/1/1 19/1/1
f 22/1/1 21/1/1 20/1/1
f 23/1/1 21/1/1 22/1/1
f 25/2/1 19/2/1 18/2/1
f 26/2/1 19/2/1 25/2/1
f 29/4/1 25/4/1 24/4/1
f 30/4/1 25/4/1 29/4/1
f 31/4/1 27/4/1 26/4/1
f 32/4/1 27/4/1 31/4/1
f 34/4/1 29/4/1 28/4/1
f 35/4/1 29/4/1 34/4/1
f 36/4/1 33/4/1 32/4/1
f 37/4/1 33/4/1 36/4/1
f 40/2/1 39/2/1 38/2/1
f 41/2/1 39/2/1 40/2/1
f 44/4/1 43/4/1 42/4/1
f 45/4/1 43/4/1 44/4/1
f 46/4/2 47/4/2 48/4/2
f 48/4/2 47/4/2 49/4/2
f 50/2/2 51/2/2 52/2/2
f 52/2/2 51/2/2 53/2/2
f 53/1/2 54/1/2 56/1/2
f 56/1/2 54/1/2 57/1/2
f 57/1/2 58/1/2 59/1/2
f 59/1/2 58/1/2 60/1/2
f 55/2/2 56/2/2 62/2/2
f 62/2/2 56/2/2 63/2/2
f 61/4/2 62/4/2 66/4/2
f 66/4/2 62/4/2 67/4/2
f 63/4/2 64/4/2 68/4/2
f 68/4/2 64/4/2 69/4/2
f 65/4/2 66/4/2 71/4/2
f 71/4/2 66/4/2 72/4/2
f 69/4/2 70/4/2 73/4/2
f 73/4/2 70/4/2 74/4/2
f 75/2/2 76/2/2 77/2/2
f 77/2/2 76/2/2 78/2/2
f 79/4/2 80/4/2 81/4/2
f 81/4/2 80/4/2 82/4/2
f 83/2/2 84/2/2 85/2/2
f 85/2/2 84/2/2 86/2/2
f 87/4/2 88/4/2 89/4/2
f 89/4/2 88/4/2 90/4/2
f 93/4/3 92/4/3 91/4/3
f 94/4/3 92/4/3 93/4/3
f 97/4/3 96/4/3 95/4/3
f 98/4/3 96/4/3 97/4/3
f 104/4/3 100/4/3 99/4/3
f 105/4/3 100/4/3 104/4/3
f 107/2/3 102/2/3 101/2/3
f 108/2/3 102/2/3 107/2/3
f 109/4/3 104/4/3 103/4/3
f 110/4/3 104/4/3 109/4/3
f 111/2/3 108/2/3 107/2/3
f 111/2/3 107/2/3 106/2/3
f 111/2/3 109/2/3 108/2/3
f 112/2/3 109/2/3 111/2/3
f 113/2/3 109/2/3 112/2/3
f 114/2/3 109/2/3 113/2/3
f 116/2/3 113/2/3 112/2/3
f 117/2/3 113/2/3 116/2/3
f 119/4/3 115/4/3 114/4/3
f 120/4/3 115/4/3 119/4/3
f 122/2/3 118/2/3 117/2/3
f 123/2/3 118/2/3 122/2/3
f 124/4/3 121/4/3 120/4/3
f 125/4/3 121/4/3 124/4/3
f 130/1/3 127/1/3 126/1/3
f 131/1/3 127/1/3 130/1/3
f 132/4/3 129/4/3 128/4/3
f 133/4/3 129/4/3 132/4/3
f 134/4/4 135/4/4 136/4/4
f 136/4/4 135/4/4 137/4/4
f 138/4/4 139/4/4 143/4/4
f 143/4/4 139/4/4 144/4/4
f 140/2/4 141/2/4 146/2/4
f 146/2/4 141/2/4 147/2/4
f 142/4/4 143/4/4 148/4/4
f 148/4/4 143/4/4 149/4/4
f 145/2/4 146/2/4 150/2/4
f 150/2/4 146/2/4 151/2/4
f 147/2/4 148/2/4 152/2/4
f 152/2/4 148/2/4 153/2/4
f 151/2/4 152/2/4 155/2/4
f 155/2/4 152/2/4 156/2/4
f 153/4/4 154/4/4 158/4/4
f 158/4/4 154/4/4 159/4/4
f 156/2/4 157/2/4 161/2/4
f 161/2/4 157/2/4 162/2/4
f 159/4/4 160/4/4 163/4/4
f 163/4/4 160/4/4 164/4/4
f 165/1/4 166/1/4 169/1/4
f 169/1/4 166/1/4 170/1/4
f 167/4/4 168/4/4 171/4/4
f 171/4/4 168/4/4 172/4/4
f 173/1/4 174/1/4 177/1/4
f 177/1/4 174/1/4 178/1/4
f 175/4/4 176/4/4 179/4/4
f 179/4/4 176/4/4 180/4/4
f 183/2/5 182/2/5 181/2/5
f 184/2/5 182/2/5 183/2/5
f 189/2/5 186/2/5 185/2/5
f 190/2/5 186/2/5 189/2/5
f 191/2/5 188/2/5 187/2/5
f 192/2/5 188/2/5 191/2/5
f 193/1/5 191/1/5 190/1/5
f 194/1/5 191/1/5 193/1/5
f 197/2/5 196/2/5 195/2/5
f 198/2/5 196/2/5 197/2/5
f 201/1/5 200/1/5 199/1/5
f 202/1/5 200/1/5 201/1/5
f 206/4/5 204/4/5 203/4/5
f 207/4/5 204/4/5 206/4/5
f 209/4/5 206/4/5 205/4/5
f 210/4/5 206/4/5 209/4/5
f 211/4/5 208/4/5 207/4/5
f 212/4/5 208/4/5 211/4/5
f 213/4/5 211/4/5 210/4/5
f 214/4/5 211/4/5 213/4/5
f 217/4/5 216/4/5 215/4/5
f 218/4/5 216/4/5 217/4/5
f 223/4/5 220/4/5 219/4/5
f 224/4/5 220/4/5 223/4/5
f 225/4/5 222/4/5 221/4/5
f 226/4/5 222/4/5 225/4/5
f 229/4/5 228/4/5 227/4/5
f 230/4/5 228/4/5 229/4/5
f 231/2/6 232/2/6 235/2/6
f 235/2/6 232/2/6 236/2/6
f 233/2/6 234/2/6 237/2/6
f 237/2/6 234/2/6 238/2/6
f 236/1/6 237/1/6 239/1/6
f 239/1/6 237/1/6 240/1/6
f 241/2/6 242/2/6 243/2/6
f 243/2/6 242/2/6 244/2/6
f 245/1/6 246/1/6 247/1/6
f 247/1/6 246/1/6 248/1/6
f 249/4/6 250/4/6 252/4/6
f 252/4/6 250/4/6 253/4/6
f 251/4/6 252/4/6 255/4/6
f 252/3/6 253/3/6 256/3/6
f 255/4/6 252/4/6 256/4/6
f 253/4/6 254/4/6 257/4/6
f 256/3/6 253/3/6 257/3/6
f 257/4/6 254/4/6 258/4/6
f 256/4/6 257/4/6 259/4/6
f 259/4/6 257/4/6 260/4/6
f 261/4/6 262/4/6 263/4/6
f 263/4/6 262/4/6 264/4/6
f 265/4/6 266/4/6 269/4/6
f 269/4/6 266/4/6 270/4/6
f 267/4/6 268/4/6 271/4/6
f 271/4/6 268/4/6 272/4/6
f 273/4/6 274/4/6 275/4/6
f 275/4/6 274/4/6 276/4/6
