# MagicaVoxel @ Ephtracy

# group
o 

# material
mtllib start_end-27.mtl
usemtl palette

# normals
vn -1 0 0
vn 1 0 0
vn 0 0 1
vn 0 0 -1
vn 0 -1 0
vn 0 1 0

# texcoords
vt 0.970703 0.5
vt 0.974609 0.5

# verts
v -0.8 0.5 -8.3
v -0.8 0.5 -8.4
v -0.8 0.6 -8.3
v -0.8 0.6 -8.4
v -0.7 0.4 -8.3
v -0.7 0.4 -8.4
v -0.7 0.5 -8.3
v -0.7 0.5 -8.4
v -0.6 0.3 -8.3
v -0.6 0.3 -8.5
v -0.6 0.4 -8.3
v -0.6 0.4 -8.4
v -0.6 0.4 -8.5
v -0.4 0.5 -8.8
v -0.4 0.5 -8.9
v -0.4 0.6 -8.8
v -0.4 0.6 -8.9
v -0.3 0.6 -8.8
v -0.3 0.6 -8.9
v -0.3 0.7 -8.8
v -0.3 0.7 -8.9
v -0.2 0.5 -8.8
v -0.2 0.5 -8.9
v -0.2 0.6 -8.8
v -0.2 0.6 -8.9
v -0.1 0.4 -8.8
v -0.1 0.4 -8.9
v -0.1 0.5 -8.8
v -0.1 0.5 -8.9
v 0 0.3 -8.8
v 0 0.3 -8.9
v 0 0.3 -9
v 0 0.4 -8.8
v 0 0.4 -8.9
v 0 0.4 -9
v 0 0.5 -8.9
v 0 0.5 -9
v 0 0.5 -9.1
v 0 0.5 -9.2
v 0 0.5 -9.3
v 0 0.6 -9
v 0 0.6 -9.1
v 0 0.6 -9.2
v 0 0.6 -9.3
v 0 0.7 -9.1
v 0 0.7 -9.2
v 0.2 0.3 -8.4
v 0.2 0.3 -8.5
v 0.2 0.4 -8.3
v 0.2 0.4 -8.4
v 0.2 0.4 -8.5
v 0.2 0.5 -8.2
v 0.2 0.5 -8.3
v 0.2 0.5 -8.4
v 0.2 0.5 -8.9
v 0.2 0.5 -9
v 0.2 0.6 -8.2
v 0.2 0.6 -8.3
v 0.2 0.6 -8.9
v 0.2 0.6 -9
v 0.3 0.4 -8.4
v 0.3 0.4 -8.5
v 0.3 0.4 -8.9
v 0.3 0.4 -9
v 0.3 0.5 -8.4
v 0.3 0.5 -8.9
v 0.3 0.5 -9
v 0.3 0.6 -8.4
v 0.3 0.6 -8.5
v 0.4 0.6 -8.4
v 0.4 0.6 -8.5
v 0.4 0.7 -8.4
v 0.4 0.7 -8.5
v 0.5 0.5 -8.3
v 0.5 0.5 -8.4
v 0.5 0.6 -8.3
v 0.5 0.6 -8.4
v -0.7 0.5 -8.3
v -0.7 0.5 -8.4
v -0.7 0.6 -8.3
v -0.7 0.6 -8.4
v -0.6 0.4 -8.3
v -0.6 0.4 -8.4
v -0.6 0.5 -8.3
v -0.6 0.5 -8.4
v -0.5 0.3 -8.3
v -0.5 0.3 -8.5
v -0.5 0.4 -8.3
v -0.5 0.4 -8.5
v -0.3 0.5 -8.8
v -0.3 0.5 -8.9
v -0.3 0.6 -8.8
v -0.3 0.6 -8.9
v -0.2 0.6 -8.8
v -0.2 0.6 -8.9
v -0.2 0.7 -8.8
v -0.2 0.7 -8.9
v -0.1 0.5 -8.8
v -0.1 0.5 -8.9
v -0.1 0.6 -8.8
v -0.1 0.6 -8.9
v 0 0.4 -8.8
v 0 0.4 -8.9
v 0 0.5 -8.8
v 0 0.5 -8.9
v 0.1 0.3 -8.8
v 0.1 0.3 -8.9
v 0.1 0.3 -9
v 0.1 0.4 -8.8
v 0.1 0.4 -8.9
v 0.1 0.4 -9
v 0.1 0.5 -9
v 0.1 0.5 -9.1
v 0.1 0.5 -9.2
v 0.1 0.5 -9.3
v 0.1 0.6 -9
v 0.1 0.6 -9.1
v 0.1 0.6 -9.2
v 0.1 0.6 -9.3
v 0.1 0.7 -9.1
v 0.1 0.7 -9.2
v 0.2 0.4 -8.9
v 0.2 0.4 -9
v 0.2 0.5 -8.9
v 0.2 0.5 -9
v 0.3 0.3 -8.4
v 0.3 0.3 -8.5
v 0.3 0.4 -8.3
v 0.3 0.4 -8.4
v 0.3 0.4 -8.5
v 0.3 0.5 -8.2
v 0.3 0.5 -8.3
v 0.3 0.5 -8.4
v 0.3 0.5 -8.9
v 0.3 0.5 -9
v 0.3 0.6 -8.2
v 0.3 0.6 -8.3
v 0.3 0.6 -8.9
v 0.3 0.6 -9
v 0.4 0.4 -8.4
v 0.4 0.4 -8.5
v 0.4 0.4 -8.9
v 0.4 0.4 -9
v 0.4 0.5 -8.9
v 0.4 0.5 -9
v 0.4 0.6 -8.4
v 0.4 0.6 -8.5
v 0.5 0.6 -8.4
v 0.5 0.6 -8.5
v 0.5 0.7 -8.4
v 0.5 0.7 -8.5
v 0.6 0.5 -8.3
v 0.6 0.5 -8.4
v 0.6 0.6 -8.3
v 0.6 0.6 -8.4
v 0.2 0.5 -8.2
v 0.2 0.6 -8.2
v 0.3 0.5 -8.2
v 0.3 0.6 -8.2
v -0.8 0.5 -8.3
v -0.8 0.6 -8.3
v -0.7 0.4 -8.3
v -0.7 0.5 -8.3
v -0.7 0.6 -8.3
v -0.6 0.3 -8.3
v -0.6 0.4 -8.3
v -0.6 0.5 -8.3
v -0.5 0.3 -8.3
v -0.5 0.4 -8.3
v 0.2 0.4 -8.3
v 0.2 0.5 -8.3
v 0.3 0.4 -8.3
v 0.3 0.5 -8.3
v 0.5 0.5 -8.3
v 0.5 0.6 -8.3
v 0.6 0.5 -8.3
v 0.6 0.6 -8.3
v 0.2 0.3 -8.4
v 0.2 0.4 -8.4
v 0.3 0.3 -8.4
v 0.3 0.4 -8.4
v 0.3 0.5 -8.4
v 0.3 0.6 -8.4
v 0.4 0.4 -8.4
v 0.4 0.6 -8.4
v 0.4 0.7 -8.4
v 0.5 0.6 -8.4
v 0.5 0.7 -8.4
v -0.4 0.5 -8.8
v -0.4 0.6 -8.8
v -0.3 0.5 -8.8
v -0.3 0.6 -8.8
v -0.3 0.7 -8.8
v -0.2 0.5 -8.8
v -0.2 0.6 -8.8
v -0.2 0.7 -8.8
v -0.1 0.4 -8.8
v -0.1 0.5 -8.8
v -0.1 0.6 -8.8
v 0 0.3 -8.8
v 0 0.4 -8.8
v 0 0.5 -8.8
v 0.1 0.3 -8.8
v 0.1 0.4 -8.8
v 0 0.4 -8.9
v 0 0.5 -8.9
v 0.1 0.4 -8.9
v 0.2 0.4 -8.9
v 0.2 0.5 -8.9
v 0.2 0.6 -8.9
v 0.3 0.4 -8.9
v 0.3 0.5 -8.9
v 0.3 0.6 -8.9
v 0.4 0.4 -8.9
v 0.4 0.5 -8.9
v 0 0.5 -9
v 0 0.6 -9
v 0.1 0.5 -9
v 0.1 0.6 -9
v 0 0.6 -9.1
v 0 0.7 -9.1
v 0.1 0.6 -9.1
v 0.1 0.7 -9.1
v 0 0.5 -9.2
v 0 0.6 -9.2
v 0.1 0.5 -9.2
v 0.1 0.6 -9.2
v 0.2 0.5 -8.3
v 0.2 0.6 -8.3
v 0.3 0.5 -8.3
v 0.3 0.6 -8.3
v -0.8 0.5 -8.4
v -0.8 0.6 -8.4
v -0.7 0.4 -8.4
v -0.7 0.5 -8.4
v -0.7 0.6 -8.4
v -0.6 0.4 -8.4
v -0.6 0.5 -8.4
v 0.2 0.4 -8.4
v 0.2 0.5 -8.4
v 0.3 0.4 -8.4
v 0.3 0.5 -8.4
v 0.5 0.5 -8.4
v 0.5 0.6 -8.4
v 0.6 0.5 -8.4
v 0.6 0.6 -8.4
v -0.6 0.3 -8.5
v -0.6 0.4 -8.5
v -0.5 0.3 -8.5
v -0.5 0.4 -8.5
v 0.2 0.3 -8.5
v 0.2 0.4 -8.5
v 0.3 0.3 -8.5
v 0.3 0.4 -8.5
v 0.3 0.6 -8.5
v 0.4 0.4 -8.5
v 0.4 0.6 -8.5
v 0.4 0.7 -8.5
v 0.5 0.6 -8.5
v 0.5 0.7 -8.5
v -0.4 0.5 -8.9
v -0.4 0.6 -8.9
v -0.3 0.5 -8.9
v -0.3 0.6 -8.9
v -0.3 0.7 -8.9
v -0.2 0.5 -8.9
v -0.2 0.6 -8.9
v -0.2 0.7 -8.9
v -0.1 0.4 -8.9
v -0.1 0.5 -8.9
v -0.1 0.6 -8.9
v 0 0.4 -8.9
v 0 0.5 -8.9
v 0 0.3 -9
v 0 0.4 -9
v 0 0.5 -9
v 0.1 0.3 -9
v 0.1 0.4 -9
v 0.1 0.5 -9
v 0.2 0.4 -9
v 0.2 0.5 -9
v 0.2 0.6 -9
v 0.3 0.4 -9
v 0.3 0.5 -9
v 0.3 0.6 -9
v 0.4 0.4 -9
v 0.4 0.5 -9
v 0 0.5 -9.1
v 0 0.6 -9.1
v 0.1 0.5 -9.1
v 0.1 0.6 -9.1
v 0 0.6 -9.2
v 0 0.7 -9.2
v 0.1 0.6 -9.2
v 0.1 0.7 -9.2
v 0 0.5 -9.3
v 0 0.6 -9.3
v 0.1 0.5 -9.3
v 0.1 0.6 -9.3
v -0.6 0.3 -8.3
v -0.5 0.3 -8.3
v 0.2 0.3 -8.4
v 0.3 0.3 -8.4
v -0.6 0.3 -8.5
v -0.5 0.3 -8.5
v 0.2 0.3 -8.5
v 0.3 0.3 -8.5
v 0 0.3 -8.8
v 0.1 0.3 -8.8
v 0 0.3 -8.9
v 0.1 0.3 -8.9
v 0 0.3 -9
v 0.1 0.3 -9
v -0.7 0.4 -8.3
v -0.6 0.4 -8.3
v 0.2 0.4 -8.3
v 0.3 0.4 -8.3
v -0.7 0.4 -8.4
v -0.6 0.4 -8.4
v 0.2 0.4 -8.4
v 0.3 0.4 -8.4
v 0.4 0.4 -8.4
v 0.3 0.4 -8.5
v 0.4 0.4 -8.5
v -0.1 0.4 -8.8
v 0 0.4 -8.8
v -0.1 0.4 -8.9
v 0 0.4 -8.9
v 0.1 0.4 -8.9
v 0.2 0.4 -8.9
v 0.3 0.4 -8.9
v 0.4 0.4 -8.9
v 0.1 0.4 -9
v 0.2 0.4 -9
v 0.3 0.4 -9
v 0.4 0.4 -9
v 0.2 0.5 -8.2
v 0.3 0.5 -8.2
v -0.8 0.5 -8.3
v -0.7 0.5 -8.3
v 0.2 0.5 -8.3
v 0.3 0.5 -8.3
v 0.5 0.5 -8.3
v 0.6 0.5 -8.3
v -0.8 0.5 -8.4
v -0.7 0.5 -8.4
v 0.5 0.5 -8.4
v 0.6 0.5 -8.4
v -0.4 0.5 -8.8
v -0.3 0.5 -8.8
v -0.2 0.5 -8.8
v -0.1 0.5 -8.8
v -0.4 0.5 -8.9
v -0.3 0.5 -8.9
v -0.2 0.5 -8.9
v -0.1 0.5 -8.9
v 0.2 0.5 -8.9
v 0.3 0.5 -8.9
v 0 0.5 -9
v 0.1 0.5 -9
v 0.2 0.5 -9
v 0.3 0.5 -9
v 0 0.5 -9.1
v 0.1 0.5 -9.1
v 0 0.5 -9.2
v 0.1 0.5 -9.2
v 0 0.5 -9.3
v 0.1 0.5 -9.3
v 0.4 0.6 -8.4
v 0.5 0.6 -8.4
v 0.4 0.6 -8.5
v 0.5 0.6 -8.5
v -0.3 0.6 -8.8
v -0.2 0.6 -8.8
v -0.3 0.6 -8.9
v -0.2 0.6 -8.9
v 0 0.6 -9.1
v 0.1 0.6 -9.1
v 0 0.6 -9.2
v 0.1 0.6 -9.2
v -0.6 0.4 -8.3
v -0.5 0.4 -8.3
v -0.6 0.4 -8.4
v 0.2 0.4 -8.4
v 0.3 0.4 -8.4
v -0.6 0.4 -8.5
v -0.5 0.4 -8.5
v 0.2 0.4 -8.5
v 0.3 0.4 -8.5
v 0 0.4 -8.8
v 0.1 0.4 -8.8
v 0 0.4 -8.9
v 0.1 0.4 -8.9
v -0.7 0.5 -8.3
v -0.6 0.5 -8.3
v 0.2 0.5 -8.3
v 0.3 0.5 -8.3
v -0.7 0.5 -8.4
v -0.6 0.5 -8.4
v 0.2 0.5 -8.4
v 0.3 0.5 -8.4
v -0.1 0.5 -8.8
v 0 0.5 -8.8
v -0.1 0.5 -8.9
v 0 0.5 -8.9
v 0.2 0.5 -8.9
v 0.3 0.5 -8.9
v 0.4 0.5 -8.9
v 0 0.5 -9
v 0.1 0.5 -9
v 0.2 0.5 -9
v 0.3 0.5 -9
v 0.4 0.5 -9
v 0.2 0.6 -8.2
v 0.3 0.6 -8.2
v -0.8 0.6 -8.3
v -0.7 0.6 -8.3
v 0.2 0.6 -8.3
v 0.3 0.6 -8.3
v 0.5 0.6 -8.3
v 0.6 0.6 -8.3
v -0.8 0.6 -8.4
v -0.7 0.6 -8.4
v 0.3 0.6 -8.4
v 0.4 0.6 -8.4
v 0.5 0.6 -8.4
v 0.6 0.6 -8.4
v 0.3 0.6 -8.5
v 0.4 0.6 -8.5
v -0.4 0.6 -8.8
v -0.3 0.6 -8.8
v -0.2 0.6 -8.8
v -0.1 0.6 -8.8
v -0.4 0.6 -8.9
v -0.3 0.6 -8.9
v -0.2 0.6 -8.9
v -0.1 0.6 -8.9
v 0.2 0.6 -8.9
v 0.3 0.6 -8.9
v 0 0.6 -9
v 0.1 0.6 -9
v 0.2 0.6 -9
v 0.3 0.6 -9
v 0 0.6 -9.1
v 0.1 0.6 -9.1
v 0 0.6 -9.2
v 0.1 0.6 -9.2
v 0 0.6 -9.3
v 0.1 0.6 -9.3
v 0.4 0.7 -8.4
v 0.5 0.7 -8.4
v 0.4 0.7 -8.5
v 0.5 0.7 -8.5
v -0.3 0.7 -8.8
v -0.2 0.7 -8.8
v -0.3 0.7 -8.9
v -0.2 0.7 -8.9
v 0 0.7 -9.1
v 0.1 0.7 -9.1
v 0 0.7 -9.2
v 0.1 0.7 -9.2

# faces
f 3/2/1 2/2/1 1/2/1
f 4/2/1 2/2/1 3/2/1
f 7/2/1 6/2/1 5/2/1
f 8/2/1 6/2/1 7/2/1
f 11/1/1 10/1/1 9/1/1
f 12/1/1 10/1/1 11/1/1
f 13/1/1 10/1/1 12/1/1
f 16/1/1 15/1/1 14/1/1
f 17/1/1 15/1/1 16/1/1
f 20/2/1 19/2/1 18/2/1
f 21/2/1 19/2/1 20/2/1
f 24/2/1 23/2/1 22/2/1
f 25/2/1 23/2/1 24/2/1
f 28/1/1 27/1/1 26/1/1
f 29/1/1 27/1/1 28/1/1
f 33/1/1 31/1/1 30/1/1
f 34/2/1 32/2/1 31/2/1
f 34/1/1 31/1/1 33/1/1
f 35/2/1 32/2/1 34/2/1
f 36/1/1 35/1/1 34/1/1
f 37/1/1 35/1/1 36/1/1
f 41/2/1 38/2/1 37/2/1
f 42/2/1 38/2/1 41/2/1
f 43/2/1 40/2/1 39/2/1
f 44/2/1 40/2/1 43/2/1
f 45/2/1 43/2/1 42/2/1
f 46/2/1 43/2/1 45/2/1
f 50/1/1 48/1/1 47/1/1
f 51/1/1 48/1/1 50/1/1
f 53/1/1 50/1/1 49/1/1
f 54/1/1 50/1/1 53/1/1
f 57/1/1 53/1/1 52/1/1
f 58/1/1 53/1/1 57/1/1
f 59/2/1 56/2/1 55/2/1
f 60/2/1 56/2/1 59/2/1
f 65/2/1 62/2/1 61/2/1
f 66/1/1 64/1/1 63/1/1
f 67/1/1 64/1/1 66/1/1
f 68/2/1 62/2/1 65/2/1
f 69/2/1 62/2/1 68/2/1
f 72/2/1 71/2/1 70/2/1
f 73/2/1 71/2/1 72/2/1
f 76/2/1 75/2/1 74/2/1
f 77/2/1 75/2/1 76/2/1
f 78/2/2 79/2/2 80/2/2
f 80/2/2 79/2/2 81/2/2
f 82/2/2 83/2/2 84/2/2
f 84/2/2 83/2/2 85/2/2
f 86/1/2 87/1/2 88/1/2
f 88/1/2 87/1/2 89/1/2
f 90/1/2 91/1/2 92/1/2
f 92/1/2 91/1/2 93/1/2
f 94/2/2 95/2/2 96/2/2
f 96/2/2 95/2/2 97/2/2
f 98/2/2 99/2/2 100/2/2
f 100/2/2 99/2/2 101/2/2
f 102/1/2 103/1/2 104/1/2
f 104/1/2 103/1/2 105/1/2
f 106/1/2 107/1/2 109/1/2
f 107/2/2 108/2/2 110/2/2
f 109/1/2 107/1/2 110/1/2
f 110/2/2 108/2/2 111/2/2
f 112/2/2 113/2/2 116/2/2
f 116/2/2 113/2/2 117/2/2
f 114/2/2 115/2/2 118/2/2
f 118/2/2 115/2/2 119/2/2
f 117/2/2 118/2/2 120/2/2
f 120/2/2 118/2/2 121/2/2
f 122/1/2 123/1/2 124/1/2
f 124/1/2 123/1/2 125/1/2
f 126/1/2 127/1/2 129/1/2
f 129/1/2 127/1/2 130/1/2
f 128/1/2 129/1/2 132/1/2
f 132/1/2 129/1/2 133/1/2
f 131/1/2 132/1/2 136/1/2
f 136/1/2 132/1/2 137/1/2
f 134/2/2 135/2/2 138/2/2
f 138/2/2 135/2/2 139/2/2
f 142/1/2 143/1/2 144/1/2
f 144/1/2 143/1/2 145/1/2
f 140/2/2 141/2/2 146/2/2
f 146/2/2 141/2/2 147/2/2
f 148/2/2 149/2/2 150/2/2
f 150/2/2 149/2/2 151/2/2
f 152/2/2 153/2/2 154/2/2
f 154/2/2 153/2/2 155/2/2
f 158/1/3 157/1/3 156/1/3
f 159/1/3 157/1/3 158/1/3
f 163/2/3 161/2/3 160/2/3
f 164/2/3 161/2/3 163/2/3
f 166/2/3 163/2/3 162/2/3
f 167/2/3 163/2/3 166/2/3
f 168/1/3 166/1/3 165/1/3
f 169/1/3 166/1/3 168/1/3
f 172/1/3 171/1/3 170/1/3
f 173/1/3 171/1/3 172/1/3
f 176/2/3 175/2/3 174/2/3
f 177/2/3 175/2/3 176/2/3
f 180/1/3 179/1/3 178/1/3
f 181/1/3 179/1/3 180/1/3
f 184/2/3 183/2/3 182/2/3
f 184/2/3 182/2/3 181/2/3
f 185/2/3 183/2/3 184/2/3
f 187/2/3 186/2/3 185/2/3
f 188/2/3 186/2/3 187/2/3
f 191/1/3 190/1/3 189/1/3
f 192/1/3 190/1/3 191/1/3
f 195/2/3 193/2/3 192/2/3
f 196/2/3 193/2/3 195/2/3
f 198/2/3 195/2/3 194/2/3
f 199/2/3 195/2/3 198/2/3
f 201/1/3 198/1/3 197/1/3
f 202/1/3 198/1/3 201/1/3
f 203/1/3 201/1/3 200/1/3
f 204/1/3 201/1/3 203/1/3
f 207/1/3 206/1/3 205/1/3
f 208/1/3 206/1/3 207/1/3
f 209/1/3 206/1/3 208/1/3
f 212/2/3 210/2/3 209/2/3
f 213/2/3 210/2/3 212/2/3
f 214/1/3 212/1/3 211/1/3
f 215/1/3 212/1/3 214/1/3
f 218/2/3 217/2/3 216/2/3
f 219/2/3 217/2/3 218/2/3
f 222/2/3 221/2/3 220/2/3
f 223/2/3 221/2/3 222/2/3
f 226/2/3 225/2/3 224/2/3
f 227/2/3 225/2/3 226/2/3
f 228/1/4 229/1/4 230/1/4
f 230/1/4 229/1/4 231/1/4
f 232/2/4 233/2/4 235/2/4
f 235/2/4 233/2/4 236/2/4
f 234/2/4 235/2/4 237/2/4
f 237/2/4 235/2/4 238/2/4
f 239/1/4 240/1/4 241/1/4
f 241/1/4 240/1/4 242/1/4
f 243/2/4 244/2/4 245/2/4
f 245/2/4 244/2/4 246/2/4
f 247/1/4 248/1/4 249/1/4
f 249/1/4 248/1/4 250/1/4
f 251/1/4 252/1/4 253/1/4
f 253/1/4 252/1/4 254/1/4
f 254/2/4 255/2/4 256/2/4
f 256/2/4 255/2/4 257/2/4
f 257/2/4 258/2/4 259/2/4
f 259/2/4 258/2/4 260/2/4
f 261/1/4 262/1/4 263/1/4
f 263/1/4 262/1/4 264/1/4
f 264/2/4 265/2/4 267/2/4
f 267/2/4 265/2/4 268/2/4
f 266/2/4 267/2/4 270/2/4
f 270/2/4 267/2/4 271/2/4
f 269/1/4 270/1/4 272/1/4
f 272/1/4 270/1/4 273/1/4
f 274/2/4 275/2/4 277/2/4
f 275/1/4 276/1/4 278/1/4
f 277/2/4 275/2/4 278/2/4
f 278/1/4 276/1/4 279/1/4
f 278/1/4 279/1/4 280/1/4
f 280/1/4 279/1/4 281/1/4
f 281/2/4 282/2/4 284/2/4
f 284/2/4 282/2/4 285/2/4
f 283/1/4 284/1/4 286/1/4
f 286/1/4 284/1/4 287/1/4
f 288/2/4 289/2/4 290/2/4
f 290/2/4 289/2/4 291/2/4
f 292/2/4 293/2/4 294/2/4
f 294/2/4 293/2/4 295/2/4
f 296/2/4 297/2/4 298/2/4
f 298/2/4 297/2/4 299/2/4
f 304/1/5 301/1/5 300/1/5
f 305/1/5 301/1/5 304/1/5
f 306/1/5 303/1/5 302/1/5
f 307/1/5 303/1/5 306/1/5
f 310/1/5 309/1/5 308/1/5
f 311/1/5 309/1/5 310/1/5
f 312/2/5 311/2/5 310/2/5
f 313/2/5 311/2/5 312/2/5
f 318/2/5 315/2/5 314/2/5
f 319/2/5 315/2/5 318/2/5
f 320/1/5 317/1/5 316/1/5
f 321/1/5 317/1/5 320/1/5
f 323/2/5 322/2/5 321/2/5
f 324/2/5 322/2/5 323/2/5
f 327/1/5 326/1/5 325/1/5
f 328/1/5 326/1/5 327/1/5
f 333/1/5 330/1/5 329/1/5
f 334/1/5 330/1/5 333/1/5
f 335/1/5 332/1/5 331/1/5
f 336/1/5 332/1/5 335/1/5
f 341/1/5 338/1/5 337/1/5
f 342/1/5 338/1/5 341/1/5
f 345/2/5 340/2/5 339/2/5
f 346/2/5 340/2/5 345/2/5
f 347/2/5 344/2/5 343/2/5
f 348/2/5 344/2/5 347/2/5
f 353/1/5 350/1/5 349/1/5
f 354/1/5 350/1/5 353/1/5
f 355/2/5 352/2/5 351/2/5
f 356/2/5 352/2/5 355/2/5
f 361/2/5 358/2/5 357/2/5
f 362/2/5 358/2/5 361/2/5
f 363/2/5 360/2/5 359/2/5
f 364/2/5 360/2/5 363/2/5
f 367/2/5 366/2/5 365/2/5
f 368/2/5 366/2/5 367/2/5
f 371/2/5 370/2/5 369/2/5
f 372/2/5 370/2/5 371/2/5
f 375/2/5 374/2/5 373/2/5
f 376/2/5 374/2/5 375/2/5
f 379/2/5 378/2/5 377/2/5
f 380/2/5 378/2/5 379/2/5
f 381/1/6 382/1/6 383/1/6
f 383/1/6 382/1/6 386/1/6
f 386/1/6 382/1/6 387/1/6
f 384/1/6 385/1/6 388/1/6
f 388/1/6 385/1/6 389/1/6
f 390/1/6 391/1/6 392/1/6
f 392/1/6 391/1/6 393/1/6
f 394/2/6 395/2/6 398/2/6
f 398/2/6 395/2/6 399/2/6
f 396/1/6 397/1/6 400/1/6
f 400/1/6 397/1/6 401/1/6
f 402/1/6 403/1/6 404/1/6
f 404/1/6 403/1/6 405/1/6
f 405/1/6 406/1/6 409/1/6
f 409/1/6 406/1/6 410/1/6
f 410/1/6 406/1/6 411/1/6
f 407/1/6 408/1/6 412/1/6
f 412/1/6 408/1/6 413/1/6
f 414/1/6 415/1/6 418/1/6
f 418/1/6 415/1/6 419/1/6
f 416/2/6 417/2/6 422/2/6
f 422/2/6 417/2/6 423/2/6
f 420/2/6 421/2/6 426/2/6
f 426/2/6 421/2/6 427/2/6
f 424/2/6 425/2/6 428/2/6
f 428/2/6 425/2/6 429/2/6
f 430/1/6 431/1/6 434/1/6
f 434/1/6 431/1/6 435/1/6
f 432/2/6 433/2/6 436/2/6
f 436/2/6 433/2/6 437/2/6
f 438/2/6 439/2/6 442/2/6
f 442/2/6 439/2/6 443/2/6
f 440/2/6 441/2/6 444/2/6
f 444/2/6 441/2/6 445/2/6
f 446/2/6 447/2/6 448/2/6
f 448/2/6 447/2/6 449/2/6
f 450/2/6 451/2/6 452/2/6
f 452/2/6 451/2/6 453/2/6
f 454/2/6 455/2/6 456/2/6
f 456/2/6 455/2/6 457/2/6
f 458/2/6 459/2/6 460/2/6
f 460/2/6 459/2/6 461/2/6
