# MagicaVoxel @ Ephtracy

# group
o 

# material
mtllib start_end-11.mtl
usemtl palette

# normals
vn -1 0 0
vn 1 0 0
vn 0 0 1
vn 0 0 -1
vn 0 -1 0
vn 0 1 0

# texcoords
vt 0.626953 0.5
vt 0.845703 0.5
vt 0.849609 0.5
vt 0.876953 0.5

# verts
v 4.8 0.8 -11.5
v 4.8 0.8 -11.6
v 4.8 0.8 -11.7
v 4.8 0.8 -11.8
v 4.8 0.8 -12
v 4.8 0.9 -11.5
v 4.8 0.9 -11.6
v 4.8 0.9 -11.9
v 4.8 0.9 -12
v 4.8 1 -11.5
v 4.8 1 -11.7
v 4.8 1 -11.8
v 4.8 1 -11.9
v 4.8 1 -12
v 4.9 0.8 -11.4
v 4.9 0.8 -11.5
v 4.9 0.8 -11.7
v 4.9 0.8 -11.8
v 4.9 0.8 -12
v 4.9 0.8 -12.1
v 4.9 0.9 -11.5
v 4.9 0.9 -12
v 4.9 0.9 -12.1
v 4.9 1 -11.4
v 4.9 1 -11.5
v 4.9 1 -11.6
v 4.9 1 -11.7
v 4.9 1 -11.8
v 4.9 1 -11.9
v 4.9 1 -12
v 4.9 1 -12.1
v 4.9 1.1 -11.6
v 4.9 1.1 -11.7
v 4.9 1.2 -11.6
v 4.9 1.2 -11.8
v 4.9 1.2 -11.9
v 5 1 -11.5
v 5 1 -11.6
v 5 1 -11.9
v 5 1 -12
v 5 1.1 -11.6
v 5 1.2 -11.5
v 5 1.2 -11.6
v 5 1.2 -11.8
v 5 1.2 -11.9
v 5 1.2 -12
v 5 1.3 -11.6
v 5 1.3 -11.7
v 5 1.3 -11.8
v 5 1.3 -11.9
v 5 1.4 -11.7
v 5 1.4 -11.8
v 5.1 0.5 -11.7
v 5.1 0.5 -11.8
v 5.1 0.8 -11.7
v 5.1 0.8 -11.8
v 5.1 1.3 -11.6
v 5.1 1.3 -11.7
v 5.1 1.3 -11.8
v 5.1 1.3 -11.9
v 5.1 1.4 -11.6
v 5.1 1.4 -11.7
v 5.1 1.4 -11.8
v 5.1 1.4 -11.9
v 5.1 1.5 -11.7
v 5.1 1.5 -11.8
v 5.2 0.8 -11.4
v 5.2 0.8 -11.5
v 5.2 0.8 -12
v 5.2 0.8 -12.1
v 5.2 0.9 -11.4
v 5.2 0.9 -11.5
v 5.2 1 -11.4
v 5.2 1 -11.5
v 5.2 1 -12
v 5.2 1 -12.1
v 5.1 0.8 -11.4
v 5.1 0.8 -11.5
v 5.1 0.8 -12
v 5.1 0.8 -12.1
v 5.1 0.9 -11.4
v 5.1 0.9 -11.5
v 5.1 1 -11.4
v 5.1 1 -11.5
v 5.1 1 -12
v 5.1 1 -12.1
v 5.2 0.5 -11.7
v 5.2 0.5 -11.8
v 5.2 0.8 -11.7
v 5.2 0.8 -11.8
v 5.2 1.3 -11.6
v 5.2 1.3 -11.7
v 5.2 1.3 -11.8
v 5.2 1.3 -11.9
v 5.2 1.4 -11.6
v 5.2 1.4 -11.7
v 5.2 1.4 -11.8
v 5.2 1.4 -11.9
v 5.2 1.5 -11.7
v 5.2 1.5 -11.8
v 5.3 1 -11.5
v 5.3 1 -11.6
v 5.3 1 -11.9
v 5.3 1 -12
v 5.3 1.1 -11.6
v 5.3 1.2 -11.5
v 5.3 1.2 -11.6
v 5.3 1.2 -11.8
v 5.3 1.2 -11.9
v 5.3 1.2 -12
v 5.3 1.3 -11.6
v 5.3 1.3 -11.7
v 5.3 1.3 -11.8
v 5.3 1.3 -11.9
v 5.3 1.4 -11.7
v 5.3 1.4 -11.8
v 5.4 0.8 -11.4
v 5.4 0.8 -11.5
v 5.4 0.8 -11.7
v 5.4 0.8 -11.8
v 5.4 0.8 -12
v 5.4 0.8 -12.1
v 5.4 0.9 -11.5
v 5.4 0.9 -12
v 5.4 0.9 -12.1
v 5.4 1 -11.4
v 5.4 1 -11.5
v 5.4 1 -11.6
v 5.4 1 -11.7
v 5.4 1 -11.8
v 5.4 1 -11.9
v 5.4 1 -12
v 5.4 1 -12.1
v 5.4 1.1 -11.6
v 5.4 1.1 -11.7
v 5.4 1.2 -11.6
v 5.4 1.2 -11.8
v 5.4 1.2 -11.9
v 5.5 0.8 -11.5
v 5.5 0.8 -11.6
v 5.5 0.8 -11.7
v 5.5 0.8 -11.8
v 5.5 0.8 -12
v 5.5 0.9 -11.5
v 5.5 0.9 -11.6
v 5.5 0.9 -11.9
v 5.5 0.9 -12
v 5.5 1 -11.5
v 5.5 1 -11.7
v 5.5 1 -11.8
v 5.5 1 -11.9
v 5.5 1 -12
v 4.9 0.8 -11.4
v 4.9 1 -11.4
v 5 0.8 -11.4
v 5 0.9 -11.4
v 5.1 0.8 -11.4
v 5.1 0.9 -11.4
v 5.1 1 -11.4
v 5.2 0.8 -11.4
v 5.2 0.9 -11.4
v 5.2 1 -11.4
v 5.3 0.8 -11.4
v 5.3 0.9 -11.4
v 5.4 0.8 -11.4
v 5.4 1 -11.4
v 4.8 0.8 -11.5
v 4.8 0.9 -11.5
v 4.8 1 -11.5
v 4.9 0.8 -11.5
v 4.9 0.9 -11.5
v 4.9 1 -11.5
v 5 1 -11.5
v 5 1.2 -11.5
v 5.1 0.8 -11.5
v 5.1 0.9 -11.5
v 5.1 1 -11.5
v 5.1 1.2 -11.5
v 5.2 0.8 -11.5
v 5.2 0.9 -11.5
v 5.2 1 -11.5
v 5.2 1.2 -11.5
v 5.3 1 -11.5
v 5.3 1.2 -11.5
v 5.4 0.8 -11.5
v 5.4 0.9 -11.5
v 5.4 1 -11.5
v 5.5 0.8 -11.5
v 5.5 0.9 -11.5
v 5.5 1 -11.5
v 4.9 1 -11.6
v 4.9 1.1 -11.6
v 4.9 1.2 -11.6
v 5 1 -11.6
v 5 1.1 -11.6
v 5 1.2 -11.6
v 5 1.3 -11.6
v 5.1 1.2 -11.6
v 5.1 1.3 -11.6
v 5.1 1.4 -11.6
v 5.2 1.2 -11.6
v 5.2 1.3 -11.6
v 5.2 1.4 -11.6
v 5.3 1 -11.6
v 5.3 1.1 -11.6
v 5.3 1.2 -11.6
v 5.3 1.3 -11.6
v 5.4 1 -11.6
v 5.4 1.1 -11.6
v 5.4 1.2 -11.6
v 5 1.3 -11.7
v 5 1.4 -11.7
v 5.1 0.5 -11.7
v 5.1 0.8 -11.7
v 5.1 1.3 -11.7
v 5.1 1.4 -11.7
v 5.1 1.5 -11.7
v 5.2 0.5 -11.7
v 5.2 0.8 -11.7
v 5.2 1.3 -11.7
v 5.2 1.4 -11.7
v 5.2 1.5 -11.7
v 5.3 1.3 -11.7
v 5.3 1.4 -11.7
v 4.8 0.8 -11.8
v 4.8 1 -11.8
v 4.9 0.8 -11.8
v 4.9 1 -11.8
v 5.4 0.8 -11.8
v 5.4 1 -11.8
v 5.5 0.8 -11.8
v 5.5 1 -11.8
v 4.8 0.8 -11.7
v 4.8 1 -11.7
v 4.9 0.8 -11.7
v 4.9 1 -11.7
v 5.4 0.8 -11.7
v 5.4 1 -11.7
v 5.5 0.8 -11.7
v 5.5 1 -11.7
v 5 1.3 -11.8
v 5 1.4 -11.8
v 5.1 0.5 -11.8
v 5.1 0.8 -11.8
v 5.1 1.3 -11.8
v 5.1 1.4 -11.8
v 5.1 1.5 -11.8
v 5.2 0.5 -11.8
v 5.2 0.8 -11.8
v 5.2 1.3 -11.8
v 5.2 1.4 -11.8
v 5.2 1.5 -11.8
v 5.3 1.3 -11.8
v 5.3 1.4 -11.8
v 4.9 1 -11.9
v 4.9 1.2 -11.9
v 5 1 -11.9
v 5 1.2 -11.9
v 5 1.3 -11.9
v 5.1 1.2 -11.9
v 5.1 1.3 -11.9
v 5.1 1.4 -11.9
v 5.2 1.2 -11.9
v 5.2 1.3 -11.9
v 5.2 1.4 -11.9
v 5.3 1 -11.9
v 5.3 1.2 -11.9
v 5.3 1.3 -11.9
v 5.4 1 -11.9
v 5.4 1.2 -11.9
v 4.8 0.8 -12
v 4.8 0.9 -12
v 4.8 1 -12
v 4.9 0.8 -12
v 4.9 0.9 -12
v 4.9 1 -12
v 5 1 -12
v 5 1.2 -12
v 5.1 0.8 -12
v 5.1 1 -12
v 5.1 1.2 -12
v 5.2 0.8 -12
v 5.2 1 -12
v 5.2 1.2 -12
v 5.3 1 -12
v 5.3 1.2 -12
v 5.4 0.8 -12
v 5.4 0.9 -12
v 5.4 1 -12
v 5.5 0.8 -12
v 5.5 0.9 -12
v 5.5 1 -12
v 4.9 0.8 -12.1
v 4.9 0.9 -12.1
v 4.9 1 -12.1
v 5 0.9 -12.1
v 5 1 -12.1
v 5.1 0.8 -12.1
v 5.1 1 -12.1
v 5.2 0.8 -12.1
v 5.2 1 -12.1
v 5.3 0.9 -12.1
v 5.3 1 -12.1
v 5.4 0.8 -12.1
v 5.4 0.9 -12.1
v 5.4 1 -12.1
v 5.1 0.5 -11.7
v 5.2 0.5 -11.7
v 5.1 0.5 -11.8
v 5.2 0.5 -11.8
v 4.9 0.8 -11.4
v 5 0.8 -11.4
v 5.1 0.8 -11.4
v 5.2 0.8 -11.4
v 5.3 0.8 -11.4
v 5.4 0.8 -11.4
v 4.8 0.8 -11.5
v 4.9 0.8 -11.5
v 5 0.8 -11.5
v 5.1 0.8 -11.5
v 5.2 0.8 -11.5
v 5.3 0.8 -11.5
v 5.4 0.8 -11.5
v 5.5 0.8 -11.5
v 4.8 0.8 -11.6
v 4.9 0.8 -11.6
v 5.4 0.8 -11.6
v 5.5 0.8 -11.6
v 4.8 0.8 -11.7
v 4.9 0.8 -11.7
v 5 0.8 -11.7
v 5.1 0.8 -11.7
v 5.2 0.8 -11.7
v 5.3 0.8 -11.7
v 5.4 0.8 -11.7
v 5.5 0.8 -11.7
v 4.8 0.8 -11.8
v 4.9 0.8 -11.8
v 5 0.8 -11.8
v 5.1 0.8 -11.8
v 5.2 0.8 -11.8
v 5.3 0.8 -11.8
v 5.4 0.8 -11.8
v 5.5 0.8 -11.8
v 5.1 0.8 -11.9
v 5.2 0.8 -11.9
v 4.8 0.8 -12
v 4.9 0.8 -12
v 5.1 0.8 -12
v 5.2 0.8 -12
v 5.4 0.8 -12
v 5.5 0.8 -12
v 4.9 0.8 -12.1
v 5.1 0.8 -12.1
v 5.2 0.8 -12.1
v 5.4 0.8 -12.1
v 4.9 1 -11.4
v 5.1 1 -11.4
v 5.2 1 -11.4
v 5.4 1 -11.4
v 4.8 1 -11.5
v 4.9 1 -11.5
v 5 1 -11.5
v 5.1 1 -11.5
v 5.2 1 -11.5
v 5.3 1 -11.5
v 5.4 1 -11.5
v 5.5 1 -11.5
v 4.9 1 -11.6
v 5 1 -11.6
v 5.3 1 -11.6
v 5.4 1 -11.6
v 4.8 1 -11.7
v 4.9 1 -11.7
v 5.4 1 -11.7
v 5.5 1 -11.7
v 4.8 1 -11.8
v 4.9 1 -11.8
v 5.4 1 -11.8
v 5.5 1 -11.8
v 4.8 1 -11.9
v 4.9 1 -11.9
v 5 1 -11.9
v 5.3 1 -11.9
v 5.4 1 -11.9
v 5.5 1 -11.9
v 4.8 1 -12
v 4.9 1 -12
v 5 1 -12
v 5.1 1 -12
v 5.2 1 -12
v 5.3 1 -12
v 5.4 1 -12
v 5.5 1 -12
v 4.9 1 -12.1
v 5 1 -12.1
v 5.1 1 -12.1
v 5.2 1 -12.1
v 5.3 1 -12.1
v 5.4 1 -12.1
v 5 1.2 -11.5
v 5.1 1.2 -11.5
v 5.2 1.2 -11.5
v 5.3 1.2 -11.5
v 4.9 1.2 -11.6
v 5 1.2 -11.6
v 5.1 1.2 -11.6
v 5.2 1.2 -11.6
v 5.3 1.2 -11.6
v 5.4 1.2 -11.6
v 4.9 1.2 -11.8
v 5 1.2 -11.8
v 5.3 1.2 -11.8
v 5.4 1.2 -11.8
v 4.9 1.2 -11.9
v 5 1.2 -11.9
v 5.1 1.2 -11.9
v 5.2 1.2 -11.9
v 5.3 1.2 -11.9
v 5.4 1.2 -11.9
v 5 1.2 -12
v 5.1 1.2 -12
v 5.2 1.2 -12
v 5.3 1.2 -12
v 5 1.3 -11.6
v 5.1 1.3 -11.6
v 5.2 1.3 -11.6
v 5.3 1.3 -11.6
v 5 1.3 -11.7
v 5.1 1.3 -11.7
v 5.2 1.3 -11.7
v 5.3 1.3 -11.7
v 5 1.3 -11.8
v 5.1 1.3 -11.8
v 5.2 1.3 -11.8
v 5.3 1.3 -11.8
v 5 1.3 -11.9
v 5.1 1.3 -11.9
v 5.2 1.3 -11.9
v 5.3 1.3 -11.9
v 5.1 1.4 -11.6
v 5.2 1.4 -11.6
v 5 1.4 -11.7
v 5.1 1.4 -11.7
v 5.2 1.4 -11.7
v 5.3 1.4 -11.7
v 5 1.4 -11.8
v 5.1 1.4 -11.8
v 5.2 1.4 -11.8
v 5.3 1.4 -11.8
v 5.1 1.4 -11.9
v 5.2 1.4 -11.9
v 5.1 1.5 -11.7
v 5.2 1.5 -11.7
v 5.1 1.5 -11.8
v 5.2 1.5 -11.8

# faces
f 6/2/1 2/2/1 1/2/1
f 7/1/1 3/1/1 2/1/1
f 7/2/1 2/2/1 6/2/1
f 8/1/1 5/1/1 4/1/1
f 9/1/1 5/1/1 8/1/1
f 10/1/1 7/1/1 6/1/1
f 11/1/1 3/1/1 7/1/1
f 11/1/1 7/1/1 10/1/1
f 12/1/1 8/1/1 4/1/1
f 13/2/1 9/2/1 8/2/1
f 13/1/1 8/1/1 12/1/1
f 14/2/1 9/2/1 13/2/1
f 21/1/1 16/1/1 15/1/1
f 22/1/1 20/1/1 19/1/1
f 23/1/1 20/1/1 22/1/1
f 24/1/1 21/1/1 15/1/1
f 25/1/1 21/1/1 24/1/1
f 27/1/1 18/1/1 17/1/1
f 28/1/1 18/1/1 27/1/1
f 30/2/1 23/2/1 22/2/1
f 31/2/1 23/2/1 30/2/1
f 32/2/1 27/2/1 26/2/1
f 33/1/1 28/1/1 27/1/1
f 33/2/1 27/2/1 32/2/1
f 34/1/1 33/1/1 32/1/1
f 35/2/1 29/2/1 28/2/1
f 35/1/1 33/1/1 34/1/1
f 35/1/1 28/1/1 33/1/1
f 36/2/1 29/2/1 35/2/1
f 41/2/1 38/2/1 37/2/1
f 42/2/1 41/2/1 37/2/1
f 43/2/1 41/2/1 42/2/1
f 45/1/1 40/1/1 39/1/1
f 46/1/1 40/1/1 45/1/1
f 47/2/1 44/2/1 43/2/1
f 48/2/1 44/2/1 47/2/1
f 49/1/1 45/1/1 44/1/1
f 49/2/1 44/2/1 48/2/1
f 50/1/1 45/1/1 49/1/1
f 51/2/1 49/2/1 48/2/1
f 52/2/1 49/2/1 51/2/1
f 55/4/1 54/4/1 53/4/1
f 56/4/1 54/4/1 55/4/1
f 61/1/1 58/1/1 57/1/1
f 62/1/1 58/1/1 61/1/1
f 63/1/1 60/1/1 59/1/1
f 64/1/1 60/1/1 63/1/1
f 65/2/1 63/2/1 62/2/1
f 66/2/1 63/2/1 65/2/1
f 71/2/1 68/2/1 67/2/1
f 72/2/1 68/2/1 71/2/1
f 73/1/1 72/1/1 71/1/1
f 74/1/1 72/1/1 73/1/1
f 75/1/1 70/1/1 69/1/1
f 76/1/1 70/1/1 75/1/1
f 77/2/2 78/2/2 81/2/2
f 81/2/2 78/2/2 82/2/2
f 81/1/2 82/1/2 83/1/2
f 83/1/2 82/1/2 84/1/2
f 79/1/2 80/1/2 85/1/2
f 85/1/2 80/1/2 86/1/2
f 87/4/2 88/4/2 89/4/2
f 89/4/2 88/4/2 90/4/2
f 91/1/2 92/1/2 95/1/2
f 95/1/2 92/1/2 96/1/2
f 93/1/2 94/1/2 97/1/2
f 97/1/2 94/1/2 98/1/2
f 96/2/2 97/2/2 99/2/2
f 99/2/2 97/2/2 100/2/2
f 101/2/2 102/2/2 105/2/2
f 101/2/2 105/2/2 106/2/2
f 106/2/2 105/2/2 107/2/2
f 103/1/2 104/1/2 109/1/2
f 109/1/2 104/1/2 110/1/2
f 107/2/2 108/2/2 111/2/2
f 111/2/2 108/2/2 112/2/2
f 108/1/2 109/1/2 113/1/2
f 112/2/2 108/2/2 113/2/2
f 113/1/2 109/1/2 114/1/2
f 112/2/2 113/2/2 115/2/2
f 115/2/2 113/2/2 116/2/2
f 117/1/2 118/1/2 123/1/2
f 121/1/2 122/1/2 124/1/2
f 124/1/2 122/1/2 125/1/2
f 117/1/2 123/1/2 126/1/2
f 126/1/2 123/1/2 127/1/2
f 119/1/2 120/1/2 129/1/2
f 129/1/2 120/1/2 130/1/2
f 124/2/2 125/2/2 132/2/2
f 132/2/2 125/2/2 133/2/2
f 128/2/2 129/2/2 134/2/2
f 129/1/2 130/1/2 135/1/2
f 134/2/2 129/2/2 135/2/2
f 134/1/2 135/1/2 136/1/2
f 130/2/2 131/2/2 137/2/2
f 136/1/2 135/1/2 137/1/2
f 135/1/2 130/1/2 137/1/2
f 137/2/2 131/2/2 138/2/2
f 139/2/2 140/2/2 144/2/2
f 140/1/2 141/1/2 145/1/2
f 144/2/2 140/2/2 145/2/2
f 142/1/2 143/1/2 146/1/2
f 146/1/2 143/1/2 147/1/2
f 144/1/2 145/1/2 148/1/2
f 145/1/2 141/1/2 149/1/2
f 148/1/2 145/1/2 149/1/2
f 142/1/2 146/1/2 150/1/2
f 146/2/2 147/2/2 151/2/2
f 150/1/2 146/1/2 151/1/2
f 151/2/2 147/2/2 152/2/2
f 155/1/3 154/1/3 153/1/3
f 156/1/3 154/1/3 155/1/3
f 157/2/3 156/2/3 155/2/3
f 158/1/3 154/1/3 156/1/3
f 158/2/3 156/2/3 157/2/3
f 159/1/3 154/1/3 158/1/3
f 163/2/3 161/2/3 160/2/3
f 164/1/3 162/1/3 161/1/3
f 164/2/3 161/2/3 163/2/3
f 165/1/3 164/1/3 163/1/3
f 166/1/3 162/1/3 164/1/3
f 166/1/3 164/1/3 165/1/3
f 170/2/3 168/2/3 167/2/3
f 171/1/3 169/1/3 168/1/3
f 171/2/3 168/2/3 170/2/3
f 172/1/3 169/1/3 171/1/3
f 177/2/3 174/2/3 173/2/3
f 178/2/3 174/2/3 177/2/3
f 179/3/3 176/3/3 175/3/3
f 180/1/3 177/1/3 176/1/3
f 180/3/3 176/3/3 179/3/3
f 180/1/3 178/1/3 177/1/3
f 181/1/3 178/1/3 180/1/3
f 182/1/3 178/1/3 181/1/3
f 183/2/3 182/2/3 181/2/3
f 184/2/3 182/2/3 183/2/3
f 188/2/3 186/2/3 185/2/3
f 189/1/3 187/1/3 186/1/3
f 189/2/3 186/2/3 188/2/3
f 190/1/3 187/1/3 189/1/3
f 194/2/3 192/2/3 191/2/3
f 195/1/3 193/1/3 192/1/3
f 195/2/3 192/2/3 194/2/3
f 196/1/3 193/1/3 195/1/3
f 198/2/3 197/2/3 196/2/3
f 199/2/3 197/2/3 198/2/3
f 201/1/3 199/1/3 198/1/3
f 201/1/3 200/1/3 199/1/3
f 202/1/3 200/1/3 201/1/3
f 203/1/3 200/1/3 202/1/3
f 206/2/3 202/2/3 201/2/3
f 207/2/3 202/2/3 206/2/3
f 208/2/3 205/2/3 204/2/3
f 209/1/3 206/1/3 205/1/3
f 209/2/3 205/2/3 208/2/3
f 210/1/3 206/1/3 209/1/3
f 215/2/3 212/2/3 211/2/3
f 216/2/3 212/2/3 215/2/3
f 218/4/3 214/4/3 213/4/3
f 219/4/3 214/4/3 218/4/3
f 221/2/3 217/2/3 216/2/3
f 222/2/3 217/2/3 221/2/3
f 223/2/3 221/2/3 220/2/3
f 224/2/3 221/2/3 223/2/3
f 227/1/3 226/1/3 225/1/3
f 228/1/3 226/1/3 227/1/3
f 231/1/3 230/1/3 229/1/3
f 232/1/3 230/1/3 231/1/3
f 233/1/4 234/1/4 235/1/4
f 235/1/4 234/1/4 236/1/4
f 237/1/4 238/1/4 239/1/4
f 239/1/4 238/1/4 240/1/4
f 241/2/4 242/2/4 245/2/4
f 245/2/4 242/2/4 246/2/4
f 243/4/4 244/4/4 248/4/4
f 248/4/4 244/4/4 249/4/4
f 246/2/4 247/2/4 251/2/4
f 251/2/4 247/2/4 252/2/4
f 250/2/4 251/2/4 253/2/4
f 253/2/4 251/2/4 254/2/4
f 255/2/4 256/2/4 257/2/4
f 257/2/4 256/2/4 258/2/4
f 258/1/4 259/1/4 260/1/4
f 260/1/4 259/1/4 261/1/4
f 260/1/4 261/1/4 263/1/4
f 261/1/4 262/1/4 263/1/4
f 263/1/4 262/1/4 264/1/4
f 264/1/4 262/1/4 265/1/4
f 263/1/4 264/1/4 267/1/4
f 267/1/4 264/1/4 268/1/4
f 266/2/4 267/2/4 269/2/4
f 269/2/4 267/2/4 270/2/4
f 271/1/4 272/1/4 274/1/4
f 272/2/4 273/2/4 275/2/4
f 274/1/4 272/1/4 275/1/4
f 275/2/4 273/2/4 276/2/4
f 277/1/4 278/1/4 280/1/4
f 280/1/4 278/1/4 281/1/4
f 279/1/4 280/1/4 282/1/4
f 280/2/4 281/2/4 283/2/4
f 282/1/4 280/1/4 283/1/4
f 283/2/4 281/2/4 284/2/4
f 283/1/4 284/1/4 285/1/4
f 285/1/4 284/1/4 286/1/4
f 287/1/4 288/1/4 290/1/4
f 288/2/4 289/2/4 291/2/4
f 290/1/4 288/1/4 291/1/4
f 291/2/4 289/2/4 292/2/4
f 293/1/4 294/1/4 296/1/4
f 294/2/4 295/2/4 296/2/4
f 296/2/4 295/2/4 297/2/4
f 293/1/4 296/1/4 298/1/4
f 296/1/4 297/1/4 298/1/4
f 298/1/4 297/1/4 299/1/4
f 300/1/4 301/1/4 302/1/4
f 302/1/4 301/1/4 303/1/4
f 300/1/4 302/1/4 304/1/4
f 302/2/4 303/2/4 305/2/4
f 304/1/4 302/1/4 305/1/4
f 305/2/4 303/2/4 306/2/4
f 309/4/5 308/4/5 307/4/5
f 310/4/5 308/4/5 309/4/5
f 318/1/5 312/1/5 311/1/5
f 319/2/5 313/2/5 312/2/5
f 319/1/5 312/1/5 318/1/5
f 320/2/5 313/2/5 319/2/5
f 321/2/5 315/2/5 314/2/5
f 322/1/5 316/1/5 315/1/5
f 322/2/5 315/2/5 321/2/5
f 323/1/5 316/1/5 322/1/5
f 325/2/5 318/2/5 317/2/5
f 326/3/5 321/3/5 320/3/5
f 326/2/5 318/2/5 325/2/5
f 326/3/5 320/3/5 319/3/5
f 326/3/5 323/3/5 322/3/5
f 326/3/5 322/3/5 321/3/5
f 326/3/5 319/3/5 318/3/5
f 327/2/5 324/2/5 323/2/5
f 327/3/5 323/3/5 326/3/5
f 328/2/5 324/2/5 327/2/5
f 329/1/5 326/1/5 325/1/5
f 330/3/5 327/3/5 326/3/5
f 330/1/5 326/1/5 329/1/5
f 331/3/5 327/3/5 330/3/5
f 332/3/5 327/3/5 331/3/5
f 333/3/5 327/3/5 332/3/5
f 334/3/5 327/3/5 333/3/5
f 335/1/5 328/1/5 327/1/5
f 335/3/5 327/3/5 334/3/5
f 336/1/5 328/1/5 335/1/5
f 338/1/5 331/1/5 330/1/5
f 339/3/5 332/3/5 331/3/5
f 339/1/5 331/1/5 338/1/5
f 340/3/5 332/3/5 339/3/5
f 341/3/5 334/3/5 333/3/5
f 342/1/5 335/1/5 334/1/5
f 342/3/5 334/3/5 341/3/5
f 343/1/5 335/1/5 342/1/5
f 345/3/5 340/3/5 339/3/5
f 345/3/5 341/3/5 340/3/5
f 345/3/5 343/3/5 342/3/5
f 345/3/5 342/3/5 341/3/5
f 345/3/5 339/3/5 338/3/5
f 346/3/5 343/3/5 345/3/5
f 347/1/5 338/1/5 337/1/5
f 348/3/5 345/3/5 338/3/5
f 348/1/5 338/1/5 347/1/5
f 349/1/5 346/1/5 345/1/5
f 349/3/5 345/3/5 348/3/5
f 350/3/5 343/3/5 346/3/5
f 350/1/5 346/1/5 349/1/5
f 351/1/5 344/1/5 343/1/5
f 351/3/5 343/3/5 350/3/5
f 352/1/5 344/1/5 351/1/5
f 353/1/5 349/1/5 348/1/5
f 354/1/5 349/1/5 353/1/5
f 355/1/5 351/1/5 350/1/5
f 356/1/5 351/1/5 355/1/5
f 357/1/6 358/1/6 362/1/6
f 362/1/6 358/1/6 363/1/6
f 363/1/6 358/1/6 364/1/6
f 359/1/6 360/1/6 365/1/6
f 365/1/6 360/1/6 366/1/6
f 366/1/6 360/1/6 367/1/6
f 361/1/6 362/1/6 369/1/6
f 362/1/6 363/1/6 369/1/6
f 369/1/6 363/1/6 370/1/6
f 367/1/6 368/1/6 371/1/6
f 366/1/6 367/1/6 371/1/6
f 371/1/6 368/1/6 372/1/6
f 361/1/6 369/1/6 373/1/6
f 373/1/6 369/1/6 374/1/6
f 372/1/6 368/1/6 375/1/6
f 375/1/6 368/1/6 376/1/6
f 377/1/6 378/1/6 381/1/6
f 381/1/6 378/1/6 382/1/6
f 379/1/6 380/1/6 385/1/6
f 385/1/6 380/1/6 386/1/6
f 381/2/6 382/2/6 387/2/6
f 382/1/6 383/1/6 388/1/6
f 387/2/6 382/2/6 388/2/6
f 388/1/6 383/1/6 389/1/6
f 384/1/6 385/1/6 392/1/6
f 385/2/6 386/2/6 393/2/6
f 392/1/6 385/1/6 393/1/6
f 393/2/6 386/2/6 394/2/6
f 388/2/6 389/2/6 395/2/6
f 389/1/6 390/1/6 396/1/6
f 395/2/6 389/2/6 396/2/6
f 396/1/6 390/1/6 397/1/6
f 391/1/6 392/1/6 398/1/6
f 392/2/6 393/2/6 399/2/6
f 398/1/6 392/1/6 399/1/6
f 399/2/6 393/2/6 400/2/6
f 401/2/6 402/2/6 406/2/6
f 402/1/6 403/1/6 407/1/6
f 406/2/6 402/2/6 407/2/6
f 403/2/6 404/2/6 408/2/6
f 407/1/6 403/1/6 408/1/6
f 408/2/6 404/2/6 409/2/6
f 405/1/6 406/1/6 411/1/6
f 411/1/6 406/1/6 412/1/6
f 409/1/6 410/1/6 413/1/6
f 413/1/6 410/1/6 414/1/6
f 411/2/6 412/2/6 415/2/6
f 415/2/6 412/2/6 416/2/6
f 413/2/6 414/2/6 419/2/6
f 419/2/6 414/2/6 420/2/6
f 416/1/6 417/1/6 421/1/6
f 417/2/6 418/2/6 422/2/6
f 421/1/6 417/1/6 422/1/6
f 418/1/6 419/1/6 423/1/6
f 422/2/6 418/2/6 423/2/6
f 423/1/6 419/1/6 424/1/6
f 425/2/6 426/2/6 429/2/6
f 429/2/6 426/2/6 430/2/6
f 427/2/6 428/2/6 431/2/6
f 431/2/6 428/2/6 432/2/6
f 433/1/6 434/1/6 437/1/6
f 437/1/6 434/1/6 438/1/6
f 435/1/6 436/1/6 439/1/6
f 439/1/6 436/1/6 440/1/6
f 441/1/6 442/1/6 444/1/6
f 444/1/6 442/1/6 445/1/6
f 443/2/6 444/2/6 447/2/6
f 447/2/6 444/2/6 448/2/6
f 445/2/6 446/2/6 449/2/6
f 449/2/6 446/2/6 450/2/6
f 448/1/6 449/1/6 451/1/6
f 451/1/6 449/1/6 452/1/6
f 453/2/6 454/2/6 455/2/6
f 455/2/6 454/2/6 456/2/6
