# MagicaVoxel @ Ephtracy

# group
o 

# material
mtllib start_end-4.mtl
usemtl palette

# normals
vn 0 0 1
vn 0 0 -1
vn 1 0 0
vn -1 0 0
vn 0 -1 0
vn 0 1 0

# texcoords
vt 0.939453 0.5
vt 0.970703 0.5
vt 0.974609 0.5
vt 0.986328 0.5

# verts
v -5.8 0.8 -9.9
v -5.9 0.8 -9.9
v -5.8 0.9 -9.9
v -5.9 0.9 -9.9
v -5.8 0.4 -10
v -5.9 0.4 -10
v -5.8 0.5 -10
v -5.9 0.5 -10
v -5.8 0.7 -10
v -5.9 0.7 -10
v -5.8 0.8 -10
v -5.9 0.8 -10
v -5.8 0.3 -10.1
v -5.9 0.3 -10.1
v -5.7 0.4 -10.1
v -5.8 0.4 -10.1
v -5.9 0.4 -10.1
v -6 0.4 -10.1
v -5.5 0.5 -10.1
v -5.7 0.5 -10.1
v -5.8 0.5 -10.1
v -5.9 0.5 -10.1
v -6 0.5 -10.1
v -6.1 0.5 -10.1
v -5.5 0.6 -10.1
v -5.7 0.6 -10.1
v -6 0.6 -10.1
v -6.1 0.6 -10.1
v -5.7 0.7 -10.1
v -5.8 0.7 -10.1
v -5.9 0.7 -10.1
v -6 0.7 -10.1
v -5.6 0.8 -10.1
v -5.7 0.8 -10.1
v -5.8 0.8 -10.1
v -5.9 0.8 -10.1
v -6 0.8 -10.1
v -6.1 0.8 -10.1
v -5.6 0.9 -10.1
v -5.7 0.9 -10.1
v -6 0.9 -10.1
v -6.1 0.9 -10.1
v -5.8 0.5 -10.3
v -5.9 0.5 -10.3
v -5.8 0.6 -10.3
v -5.9 0.6 -10.3
v -5.8 0.8 -10.3
v -5.9 0.8 -10.3
v -5.8 0.9 -10.3
v -5.9 0.9 -10.3
v -5.8 0.8 -10
v -5.9 0.8 -10
v -5.8 0.9 -10
v -5.9 0.9 -10
v -5.8 0.3 -10.2
v -5.9 0.3 -10.2
v -5.7 0.4 -10.2
v -5.8 0.4 -10.2
v -5.9 0.4 -10.2
v -6 0.4 -10.2
v -5.5 0.5 -10.2
v -5.7 0.5 -10.2
v -5.8 0.5 -10.2
v -5.9 0.5 -10.2
v -6 0.5 -10.2
v -6.1 0.5 -10.2
v -5.5 0.6 -10.2
v -5.7 0.6 -10.2
v -6 0.6 -10.2
v -6.1 0.6 -10.2
v -5.7 0.7 -10.2
v -5.8 0.7 -10.2
v -5.9 0.7 -10.2
v -6 0.7 -10.2
v -5.6 0.8 -10.2
v -5.7 0.8 -10.2
v -5.8 0.8 -10.2
v -5.9 0.8 -10.2
v -6 0.8 -10.2
v -6.1 0.8 -10.2
v -5.6 0.9 -10.2
v -5.7 0.9 -10.2
v -6 0.9 -10.2
v -6.1 0.9 -10.2
v -5.8 0.4 -10.3
v -5.9 0.4 -10.3
v -5.8 0.5 -10.3
v -5.9 0.5 -10.3
v -5.8 0.7 -10.3
v -5.9 0.7 -10.3
v -5.8 0.8 -10.3
v -5.9 0.8 -10.3
v -5.8 0.5 -10.4
v -5.9 0.5 -10.4
v -5.8 0.6 -10.4
v -5.9 0.6 -10.4
v -5.8 0.8 -10.4
v -5.9 0.8 -10.4
v -5.8 0.9 -10.4
v -5.9 0.9 -10.4
v -5.5 0.5 -10.1
v -5.5 0.6 -10.1
v -5.5 0.5 -10.2
v -5.5 0.6 -10.2
v -5.6 0.8 -10.1
v -5.6 0.9 -10.1
v -5.6 0.8 -10.2
v -5.6 0.9 -10.2
v -5.7 0.4 -10.1
v -5.7 0.5 -10.1
v -5.7 0.7 -10.1
v -5.7 0.8 -10.1
v -5.7 0.4 -10.2
v -5.7 0.5 -10.2
v -5.7 0.7 -10.2
v -5.7 0.8 -10.2
v -5.8 0.8 -9.9
v -5.8 0.9 -9.9
v -5.8 0.4 -10
v -5.8 0.5 -10
v -5.8 0.7 -10
v -5.8 0.8 -10
v -5.8 0.9 -10
v -5.8 0.3 -10.1
v -5.8 0.4 -10.1
v -5.8 0.5 -10.1
v -5.8 0.7 -10.1
v -5.8 0.8 -10.1
v -5.8 0.3 -10.2
v -5.8 0.4 -10.2
v -5.8 0.5 -10.2
v -5.8 0.7 -10.2
v -5.8 0.8 -10.2
v -5.8 0.4 -10.3
v -5.8 0.5 -10.3
v -5.8 0.6 -10.3
v -5.8 0.7 -10.3
v -5.8 0.8 -10.3
v -5.8 0.9 -10.3
v -5.8 0.5 -10.4
v -5.8 0.6 -10.4
v -5.8 0.8 -10.4
v -5.8 0.9 -10.4
v -6 0.5 -10.1
v -6 0.6 -10.1
v -6 0.8 -10.1
v -6 0.9 -10.1
v -6 0.5 -10.2
v -6 0.6 -10.2
v -6 0.8 -10.2
v -6 0.9 -10.2
v -5.7 0.5 -10.1
v -5.7 0.6 -10.1
v -5.7 0.8 -10.1
v -5.7 0.9 -10.1
v -5.7 0.5 -10.2
v -5.7 0.6 -10.2
v -5.7 0.8 -10.2
v -5.7 0.9 -10.2
v -5.9 0.8 -9.9
v -5.9 0.9 -9.9
v -5.9 0.4 -10
v -5.9 0.5 -10
v -5.9 0.7 -10
v -5.9 0.8 -10
v -5.9 0.9 -10
v -5.9 0.3 -10.1
v -5.9 0.4 -10.1
v -5.9 0.5 -10.1
v -5.9 0.7 -10.1
v -5.9 0.8 -10.1
v -5.9 0.3 -10.2
v -5.9 0.4 -10.2
v -5.9 0.5 -10.2
v -5.9 0.7 -10.2
v -5.9 0.8 -10.2
v -5.9 0.4 -10.3
v -5.9 0.5 -10.3
v -5.9 0.6 -10.3
v -5.9 0.7 -10.3
v -5.9 0.8 -10.3
v -5.9 0.9 -10.3
v -5.9 0.5 -10.4
v -5.9 0.6 -10.4
v -5.9 0.8 -10.4
v -5.9 0.9 -10.4
v -6 0.4 -10.1
v -6 0.5 -10.1
v -6 0.7 -10.1
v -6 0.8 -10.1
v -6 0.4 -10.2
v -6 0.5 -10.2
v -6 0.7 -10.2
v -6 0.8 -10.2
v -6.1 0.5 -10.1
v -6.1 0.6 -10.1
v -6.1 0.8 -10.1
v -6.1 0.9 -10.1
v -6.1 0.5 -10.2
v -6.1 0.6 -10.2
v -6.1 0.8 -10.2
v -6.1 0.9 -10.2
v -5.8 0.3 -10.1
v -5.8 0.3 -10.2
v -5.9 0.3 -10.1
v -5.9 0.3 -10.2
v -5.7 0.4 -10.1
v -5.7 0.4 -10.2
v -5.8 0.4 -10
v -5.8 0.4 -10.1
v -5.8 0.4 -10.2
v -5.8 0.4 -10.3
v -5.9 0.4 -10
v -5.9 0.4 -10.1
v -5.9 0.4 -10.2
v -5.9 0.4 -10.3
v -6 0.4 -10.1
v -6 0.4 -10.2
v -5.5 0.5 -10.1
v -5.5 0.5 -10.2
v -5.7 0.5 -10.1
v -5.7 0.5 -10.2
v -5.8 0.5 -10.3
v -5.8 0.5 -10.4
v -5.9 0.5 -10.3
v -5.9 0.5 -10.4
v -6 0.5 -10.1
v -6 0.5 -10.2
v -6.1 0.5 -10.1
v -6.1 0.5 -10.2
v -5.7 0.7 -10.1
v -5.7 0.7 -10.2
v -5.8 0.7 -10
v -5.8 0.7 -10.1
v -5.8 0.7 -10.2
v -5.8 0.7 -10.3
v -5.9 0.7 -10
v -5.9 0.7 -10.1
v -5.9 0.7 -10.2
v -5.9 0.7 -10.3
v -6 0.7 -10.1
v -6 0.7 -10.2
v -5.6 0.8 -10.1
v -5.6 0.8 -10.2
v -5.7 0.8 -10.1
v -5.7 0.8 -10.2
v -5.8 0.8 -9.9
v -5.8 0.8 -10
v -5.8 0.8 -10.3
v -5.8 0.8 -10.4
v -5.9 0.8 -9.9
v -5.9 0.8 -10
v -5.9 0.8 -10.3
v -5.9 0.8 -10.4
v -6 0.8 -10.1
v -6 0.8 -10.2
v -6.1 0.8 -10.1
v -6.1 0.8 -10.2
v -5.7 0.5 -10.1
v -5.7 0.5 -10.2
v -5.8 0.5 -10
v -5.8 0.5 -10.1
v -5.8 0.5 -10.2
v -5.8 0.5 -10.3
v -5.9 0.5 -10
v -5.9 0.5 -10.1
v -5.9 0.5 -10.2
v -5.9 0.5 -10.3
v -6 0.5 -10.1
v -6 0.5 -10.2
v -5.5 0.6 -10.1
v -5.5 0.6 -10.2
v -5.7 0.6 -10.1
v -5.7 0.6 -10.2
v -5.8 0.6 -10.3
v -5.8 0.6 -10.4
v -5.9 0.6 -10.3
v -5.9 0.6 -10.4
v -6 0.6 -10.1
v -6 0.6 -10.2
v -6.1 0.6 -10.1
v -6.1 0.6 -10.2
v -5.7 0.8 -10.1
v -5.7 0.8 -10.2
v -5.8 0.8 -10
v -5.8 0.8 -10.1
v -5.8 0.8 -10.2
v -5.8 0.8 -10.3
v -5.9 0.8 -10
v -5.9 0.8 -10.1
v -5.9 0.8 -10.2
v -5.9 0.8 -10.3
v -6 0.8 -10.1
v -6 0.8 -10.2
v -5.6 0.9 -10.1
v -5.6 0.9 -10.2
v -5.7 0.9 -10.1
v -5.7 0.9 -10.2
v -5.8 0.9 -9.9
v -5.8 0.9 -10
v -5.8 0.9 -10.3
v -5.8 0.9 -10.4
v -5.9 0.9 -9.9
v -5.9 0.9 -10
v -5.9 0.9 -10.3
v -5.9 0.9 -10.4
v -6 0.9 -10.1
v -6 0.9 -10.2
v -6.1 0.9 -10.1
v -6.1 0.9 -10.2

# faces
f 3/1/1 2/1/1 1/1/1
f 4/1/1 2/1/1 3/1/1
f 7/3/1 6/3/1 5/3/1
f 8/3/1 6/3/1 7/3/1
f 11/1/1 10/1/1 9/1/1
f 12/1/1 10/1/1 11/1/1
f 16/3/1 14/3/1 13/3/1
f 17/3/1 14/3/1 16/3/1
f 20/3/1 16/3/1 15/3/1
f 21/3/1 16/3/1 20/3/1
f 22/2/1 18/2/1 17/2/1
f 23/2/1 18/2/1 22/2/1
f 25/2/1 20/2/1 19/2/1
f 26/2/1 20/2/1 25/2/1
f 27/2/1 24/2/1 23/2/1
f 28/2/1 24/2/1 27/2/1
f 30/3/1 22/3/1 21/3/1
f 31/3/1 22/3/1 30/3/1
f 34/1/1 30/1/1 29/1/1
f 35/1/1 30/1/1 34/1/1
f 36/1/1 32/1/1 31/1/1
f 37/1/1 32/1/1 36/1/1
f 39/1/1 34/1/1 33/1/1
f 40/1/1 34/1/1 39/1/1
f 41/1/1 38/1/1 37/1/1
f 42/1/1 38/1/1 41/1/1
f 45/3/1 44/3/1 43/3/1
f 46/3/1 44/3/1 45/3/1
f 49/1/1 48/1/1 47/1/1
f 50/1/1 48/1/1 49/1/1
f 51/1/2 52/1/2 53/1/2
f 53/1/2 52/1/2 54/1/2
f 55/3/2 56/3/2 58/3/2
f 58/3/2 56/3/2 59/3/2
f 57/3/2 58/3/2 62/3/2
f 62/3/2 58/3/2 63/3/2
f 59/2/2 60/2/2 64/2/2
f 64/2/2 60/2/2 65/2/2
f 61/2/2 62/2/2 67/2/2
f 67/2/2 62/2/2 68/2/2
f 65/2/2 66/2/2 69/2/2
f 69/2/2 66/2/2 70/2/2
f 63/3/2 64/3/2 72/3/2
f 72/3/2 64/3/2 73/3/2
f 71/1/2 72/1/2 76/1/2
f 76/1/2 72/1/2 77/1/2
f 73/1/2 74/1/2 78/1/2
f 78/1/2 74/1/2 79/1/2
f 75/1/2 76/1/2 81/1/2
f 81/1/2 76/1/2 82/1/2
f 79/1/2 80/1/2 83/1/2
f 83/1/2 80/1/2 84/1/2
f 85/3/2 86/3/2 87/3/2
f 87/3/2 86/3/2 88/3/2
f 89/1/2 90/1/2 91/1/2
f 91/1/2 90/1/2 92/1/2
f 93/3/2 94/3/2 95/3/2
f 95/3/2 94/3/2 96/3/2
f 97/1/2 98/1/2 99/1/2
f 99/1/2 98/1/2 100/1/2
f 103/2/3 102/2/3 101/2/3
f 104/2/3 102/2/3 103/2/3
f 107/1/3 106/1/3 105/1/3
f 108/1/3 106/1/3 107/1/3
f 113/3/3 110/3/3 109/3/3
f 114/3/3 110/3/3 113/3/3
f 115/1/3 112/1/3 111/1/3
f 116/1/3 112/1/3 115/1/3
f 122/1/3 118/1/3 117/1/3
f 123/1/3 118/1/3 122/1/3
f 125/3/3 120/3/3 119/3/3
f 126/3/3 120/3/3 125/3/3
f 127/1/3 122/1/3 121/1/3
f 128/1/3 122/1/3 127/1/3
f 129/3/3 125/3/3 124/3/3
f 130/3/3 125/3/3 129/3/3
f 131/3/3 127/3/3 126/3/3
f 132/3/3 127/3/3 131/3/3
f 134/3/3 131/3/3 130/3/3
f 135/3/3 131/3/3 134/3/3
f 137/1/3 133/1/3 132/1/3
f 138/1/3 133/1/3 137/1/3
f 140/3/3 136/3/3 135/3/3
f 141/3/3 136/3/3 140/3/3
f 142/1/3 139/1/3 138/1/3
f 143/1/3 139/1/3 142/1/3
f 148/2/3 145/2/3 144/2/3
f 149/2/3 145/2/3 148/2/3
f 150/1/3 147/1/3 146/1/3
f 151/1/3 147/1/3 150/1/3
f 152/2/4 153/2/4 156/2/4
f 156/2/4 153/2/4 157/2/4
f 154/1/4 155/1/4 158/1/4
f 158/1/4 155/1/4 159/1/4
f 160/1/4 161/1/4 165/1/4
f 165/1/4 161/1/4 166/1/4
f 162/3/4 163/3/4 168/3/4
f 168/3/4 163/3/4 169/3/4
f 164/1/4 165/1/4 170/1/4
f 170/1/4 165/1/4 171/1/4
f 167/3/4 168/3/4 172/3/4
f 172/3/4 168/3/4 173/3/4
f 169/3/4 170/3/4 174/3/4
f 174/3/4 170/3/4 175/3/4
f 173/3/4 174/3/4 177/3/4
f 177/3/4 174/3/4 178/3/4
f 175/1/4 176/1/4 180/1/4
f 180/1/4 176/1/4 181/1/4
f 178/3/4 179/3/4 183/3/4
f 183/3/4 179/3/4 184/3/4
f 181/1/4 182/1/4 185/1/4
f 185/1/4 182/1/4 186/1/4
f 187/2/4 188/2/4 191/2/4
f 191/2/4 188/2/4 192/2/4
f 189/1/4 190/1/4 193/1/4
f 193/1/4 190/1/4 194/1/4
f 195/2/4 196/2/4 199/2/4
f 199/2/4 196/2/4 200/2/4
f 197/1/4 198/1/4 201/1/4
f 201/1/4 198/1/4 202/1/4
f 205/3/5 204/3/5 203/3/5
f 206/3/5 204/3/5 205/3/5
f 210/3/5 208/3/5 207/3/5
f 211/3/5 208/3/5 210/3/5
f 213/3/5 210/3/5 209/3/5
f 214/3/5 210/3/5 213/3/5
f 215/3/5 212/3/5 211/3/5
f 216/3/5 212/3/5 215/3/5
f 217/2/5 215/2/5 214/2/5
f 218/2/5 215/2/5 217/2/5
f 221/2/5 220/2/5 219/2/5
f 222/2/5 220/2/5 221/2/5
f 225/3/5 224/3/5 223/3/5
f 226/3/5 224/3/5 225/3/5
f 229/2/5 228/2/5 227/2/5
f 230/2/5 228/2/5 229/2/5
f 234/1/5 232/1/5 231/1/5
f 235/1/5 232/1/5 234/1/5
f 237/1/5 234/1/5 233/1/5
f 238/1/5 234/1/5 237/1/5
f 239/1/5 236/1/5 235/1/5
f 240/1/5 236/1/5 239/1/5
f 241/1/5 239/1/5 238/1/5
f 242/1/5 239/1/5 241/1/5
f 245/1/5 244/1/5 243/1/5
f 246/1/5 244/1/5 245/1/5
f 251/1/5 248/1/5 247/1/5
f 252/1/5 248/1/5 251/1/5
f 253/1/5 250/1/5 249/1/5
f 254/1/5 250/1/5 253/1/5
f 257/1/5 256/1/5 255/1/5
f 258/1/5 256/1/5 257/1/5
f 259/3/6 260/3/6 262/3/6
f 262/3/6 260/3/6 263/3/6
f 261/3/6 262/3/6 265/3/6
f 265/3/6 262/3/6 266/3/6
f 263/3/6 264/3/6 267/3/6
f 267/3/6 264/3/6 268/3/6
f 266/2/6 267/2/6 269/2/6
f 269/2/6 267/2/6 270/2/6
f 271/2/6 272/2/6 273/2/6
f 273/2/6 272/2/6 274/2/6
f 275/3/6 276/3/6 277/3/6
f 277/3/6 276/3/6 278/3/6
f 279/2/6 280/2/6 281/2/6
f 281/2/6 280/2/6 282/2/6
f 283/1/6 284/1/6 286/1/6
f 286/1/6 284/1/6 287/1/6
f 285/1/6 286/1/6 289/1/6
f 286/4/6 287/4/6 290/4/6
f 289/1/6 286/1/6 290/1/6
f 287/1/6 288/1/6 291/1/6
f 290/4/6 287/4/6 291/4/6
f 291/1/6 288/1/6 292/1/6
f 290/1/6 291/1/6 293/1/6
f 293/1/6 291/1/6 294/1/6
f 295/1/6 296/1/6 297/1/6
f 297/1/6 296/1/6 298/1/6
f 299/1/6 300/1/6 303/1/6
f 303/1/6 300/1/6 304/1/6
f 301/1/6 302/1/6 305/1/6
f 305/1/6 302/1/6 306/1/6
f 307/1/6 308/1/6 309/1/6
f 309/1/6 308/1/6 310/1/6
