# MagicaVoxel @ Ephtracy

# group
o 

# material
mtllib lvl1-32.mtl
usemtl palette

# normals
vn -1 0 0
vn 1 0 0
vn 0 0 1
vn 0 0 -1
vn 0 -1 0
vn 0 1 0

# texcoords
vt 0.0253906 0.5
vt 0.126953 0.5
vt 0.314453 0.5

# verts
v 1.6 0.1 3.6
v 1.6 0.1 3.5
v 1.6 0.2 3.6
v 1.6 0.2 3.5
v 1.8 0.1 3.7
v 1.8 0.1 3.6
v 1.8 0.2 3.7
v 1.8 0.2 3.6
v 2.2 0.1 3.8
v 2.2 0.1 3.7
v 2.2 0.1 3.6
v 2.2 0.1 3.5
v 2.2 0.2 3.8
v 2.2 0.2 3.7
v 2.2 0.2 3.6
v 2.2 0.2 3.5
v 2.2 0.3 3.7
v 2.2 0.3 3.6
v 2.3 0.2 3.8
v 2.3 0.2 3.7
v 2.3 0.2 3.6
v 2.3 0.2 3.5
v 2.3 0.3 3.8
v 2.3 0.3 3.7
v 2.3 0.3 3.6
v 2.3 0.3 3.5
v 1.9 0.1 3.6
v 1.9 0.1 3.5
v 1.9 0.2 3.6
v 1.9 0.2 3.5
v 2.7 0.1 3.8
v 2.7 0.1 3.7
v 2.7 0.1 3.6
v 2.7 0.1 3.5
v 2.7 0.2 3.8
v 2.7 0.2 3.7
v 2.7 0.2 3.6
v 2.7 0.2 3.5
v 2.7 0.3 3.8
v 2.7 0.3 3.7
v 2.7 0.3 3.6
v 2.7 0.3 3.5
v 2.8 0.1 3.7
v 2.8 0.1 3.6
v 2.8 0.3 3.7
v 2.8 0.3 3.6
v 2.2 0.1 3.8
v 2.2 0.2 3.8
v 2.3 0.2 3.8
v 2.3 0.3 3.8
v 2.6 0.2 3.8
v 2.6 0.3 3.8
v 2.7 0.1 3.8
v 2.7 0.2 3.8
v 2.7 0.3 3.8
v 1.8 0.1 3.7
v 1.8 0.2 3.7
v 2.2 0.1 3.7
v 2.2 0.2 3.7
v 2.2 0.3 3.7
v 2.3 0.2 3.7
v 2.3 0.3 3.7
v 2.7 0.1 3.7
v 2.7 0.2 3.7
v 2.7 0.3 3.7
v 2.8 0.1 3.7
v 2.8 0.3 3.7
v 1.6 0.1 3.6
v 1.6 0.2 3.6
v 1.8 0.1 3.6
v 1.8 0.2 3.6
v 1.9 0.1 3.6
v 1.9 0.2 3.6
v 2.2 0.1 3.6
v 2.2 0.2 3.6
v 2.2 0.3 3.6
v 2.3 0.2 3.6
v 2.3 0.3 3.6
v 2.7 0.1 3.6
v 2.7 0.2 3.6
v 2.7 0.3 3.6
v 2.8 0.1 3.6
v 2.8 0.3 3.6
v 1.6 0.1 3.5
v 1.6 0.2 3.5
v 1.9 0.1 3.5
v 1.9 0.2 3.5
v 2.2 0.1 3.5
v 2.2 0.2 3.5
v 2.3 0.2 3.5
v 2.3 0.3 3.5
v 2.6 0.2 3.5
v 2.6 0.3 3.5
v 2.7 0.1 3.5
v 2.7 0.2 3.5
v 2.7 0.3 3.5
v 2.2 0.1 3.8
v 2.7 0.1 3.8
v 1.8 0.1 3.7
v 2.2 0.1 3.7
v 2.7 0.1 3.7
v 2.8 0.1 3.7
v 1.6 0.1 3.6
v 1.8 0.1 3.6
v 1.9 0.1 3.6
v 2.2 0.1 3.6
v 2.7 0.1 3.6
v 2.8 0.1 3.6
v 1.6 0.1 3.5
v 1.9 0.1 3.5
v 2.2 0.1 3.5
v 2.7 0.1 3.5
v 2.2 0.2 3.8
v 2.3 0.2 3.8
v 1.8 0.2 3.7
v 2.2 0.2 3.7
v 2.3 0.2 3.7
v 1.6 0.2 3.6
v 1.8 0.2 3.6
v 1.9 0.2 3.6
v 2.2 0.2 3.6
v 2.3 0.2 3.6
v 1.6 0.2 3.5
v 1.9 0.2 3.5
v 2.2 0.2 3.5
v 2.3 0.2 3.5
v 2.3 0.3 3.8
v 2.6 0.3 3.8
v 2.7 0.3 3.8
v 2.2 0.3 3.7
v 2.3 0.3 3.7
v 2.6 0.3 3.7
v 2.7 0.3 3.7
v 2.8 0.3 3.7
v 2.2 0.3 3.6
v 2.3 0.3 3.6
v 2.6 0.3 3.6
v 2.7 0.3 3.6
v 2.8 0.3 3.6
v 2.3 0.3 3.5
v 2.6 0.3 3.5
v 2.7 0.3 3.5

# faces
f 3/2/1 2/2/1 1/2/1
f 4/2/1 2/2/1 3/2/1
f 7/2/1 6/2/1 5/2/1
f 8/2/1 6/2/1 7/2/1
f 13/3/1 10/3/1 9/3/1
f 14/3/1 10/3/1 13/3/1
f 15/3/1 12/3/1 11/3/1
f 16/3/1 12/3/1 15/3/1
f 17/3/1 15/3/1 14/3/1
f 18/3/1 15/3/1 17/3/1
f 23/3/1 20/3/1 19/3/1
f 24/3/1 20/3/1 23/3/1
f 25/3/1 22/3/1 21/3/1
f 26/3/1 22/3/1 25/3/1
f 27/2/2 28/2/2 29/2/2
f 29/2/2 28/2/2 30/2/2
f 31/3/2 32/3/2 35/3/2
f 35/3/2 32/3/2 36/3/2
f 33/3/2 34/3/2 37/3/2
f 37/3/2 34/3/2 38/3/2
f 35/1/2 36/1/2 39/1/2
f 39/1/2 36/1/2 40/1/2
f 37/1/2 38/1/2 41/1/2
f 41/1/2 38/1/2 42/1/2
f 43/3/2 44/3/2 45/3/2
f 45/3/2 44/3/2 46/3/2
f 49/3/3 48/3/3 47/3/3
f 51/3/3 49/3/3 47/3/3
f 51/3/3 50/3/3 49/3/3
f 52/3/3 50/3/3 51/3/3
f 53/3/3 51/3/3 47/3/3
f 54/1/3 52/1/3 51/1/3
f 54/3/3 51/3/3 53/3/3
f 55/1/3 52/1/3 54/1/3
f 58/2/3 57/2/3 56/2/3
f 59/2/3 57/2/3 58/2/3
f 61/3/3 60/3/3 59/3/3
f 62/3/3 60/3/3 61/3/3
f 66/3/3 64/3/3 63/3/3
f 66/3/3 65/3/3 64/3/3
f 67/3/3 65/3/3 66/3/3
f 70/2/3 69/2/3 68/2/3
f 71/2/3 69/2/3 70/2/3
f 72/2/4 73/2/4 74/2/4
f 74/2/4 73/2/4 75/2/4
f 75/3/4 76/3/4 77/3/4
f 77/3/4 76/3/4 78/3/4
f 79/3/4 80/3/4 82/3/4
f 80/3/4 81/3/4 82/3/4
f 82/3/4 81/3/4 83/3/4
f 84/2/4 85/2/4 86/2/4
f 86/2/4 85/2/4 87/2/4
f 88/3/4 89/3/4 90/3/4
f 88/3/4 90/3/4 92/3/4
f 90/3/4 91/3/4 92/3/4
f 92/3/4 91/3/4 93/3/4
f 88/3/4 92/3/4 94/3/4
f 92/1/4 93/1/4 95/1/4
f 94/3/4 92/3/4 95/3/4
f 95/1/4 93/1/4 96/1/4
f 100/3/5 98/3/5 97/3/5
f 101/3/5 98/3/5 100/3/5
f 104/2/5 100/2/5 99/2/5
f 105/2/5 100/2/5 104/2/5
f 106/3/5 102/3/5 101/3/5
f 106/2/5 100/2/5 105/2/5
f 106/3/5 101/3/5 100/3/5
f 107/3/5 102/3/5 106/3/5
f 108/3/5 102/3/5 107/3/5
f 109/2/5 105/2/5 104/2/5
f 109/2/5 104/2/5 103/2/5
f 110/2/5 105/2/5 109/2/5
f 111/3/5 107/3/5 106/3/5
f 112/3/5 107/3/5 111/3/5
f 113/3/6 114/3/6 116/3/6
f 116/3/6 114/3/6 117/3/6
f 115/2/6 116/2/6 119/2/6
f 119/2/6 116/2/6 120/2/6
f 120/2/6 116/2/6 121/2/6
f 118/2/6 119/2/6 123/2/6
f 119/2/6 120/2/6 123/2/6
f 123/2/6 120/2/6 124/2/6
f 121/3/6 122/3/6 125/3/6
f 125/3/6 122/3/6 126/3/6
f 127/3/6 128/3/6 131/3/6
f 128/1/6 129/1/6 132/1/6
f 131/3/6 128/3/6 132/3/6
f 132/1/6 129/1/6 133/1/6
f 130/3/6 131/3/6 135/3/6
f 133/3/6 134/3/6 135/3/6
f 132/3/6 133/3/6 135/3/6
f 131/3/6 132/3/6 135/3/6
f 135/3/6 134/3/6 136/3/6
f 136/3/6 134/3/6 137/3/6
f 137/3/6 134/3/6 138/3/6
f 138/3/6 134/3/6 139/3/6
f 136/3/6 137/3/6 140/3/6
f 137/1/6 138/1/6 141/1/6
f 140/3/6 137/3/6 141/3/6
f 141/1/6 138/1/6 142/1/6
