# MagicaVoxel @ Ephtracy

# group
o 

# material
mtllib lvl1-8.mtl
usemtl palette

# normals
vn -1 0 0
vn 1 0 0
vn 0 0 1
vn 0 0 -1
vn 0 -1 0
vn 0 1 0

# texcoords
vt 0.376953 0.5
vt 0.626953 0.5
vt 0.728516 0.5
vt 0.787109 0.5

# verts
v 5.8 0.1 2.6
v 5.8 0.1 2.5
v 5.8 0.1 2.4
v 5.8 0.4 2.6
v 5.8 0.4 2.5
v 5.8 0.4 2.4
v 5.8 0.5 2.5
v 5.8 0.5 2.4
v 5.8 0.6 2.6
v 5.8 0.6 2.5
v 5.8 0.6 2.4
v 5.8 1.2 2.6
v 5.8 1.2 2.4
v 5.9 0.1 2.7
v 5.9 0.1 2.6
v 5.9 0.1 2.4
v 5.9 0.1 2.3
v 5.9 0.4 2.6
v 5.9 0.4 2.5
v 5.9 0.4 2.4
v 5.9 0.5 2.7
v 5.9 0.5 2.6
v 5.9 0.5 2.5
v 5.9 0.5 2.4
v 5.9 0.6 2.6
v 5.9 0.6 2.5
v 5.9 0.6 2.4
v 5.9 0.7 2.7
v 5.9 0.7 2.6
v 5.9 1.2 2.7
v 5.9 1.2 2.6
v 5.9 1.2 2.4
v 5.9 1.2 2.3
v 6 0.1 2.8
v 6 0.1 2.7
v 6 0.1 2.3
v 6 0.1 2.2
v 6 0.4 2.8
v 6 0.4 2.7
v 6 0.5 2.7
v 6 0.5 2.6
v 6 0.6 2.6
v 6 0.7 2.7
v 6 0.7 2.6
v 6 0.8 2.8
v 6 0.8 2.7
v 6 1.2 2.8
v 6 1.2 2.7
v 6 1.2 2.3
v 6 1.2 2.2
v 6.1 0.4 2.8
v 6.1 0.4 2.7
v 6.1 0.5 2.8
v 6.1 0.5 2.7
v 6.2 0.1 2.8
v 6.2 0.1 2.7
v 6.2 0.1 2.3
v 6.2 0.1 2.2
v 6.2 0.5 2.8
v 6.2 0.5 2.7
v 6.2 0.8 2.8
v 6.2 0.8 2.7
v 6.2 1.2 2.8
v 6.2 1.2 2.7
v 6.2 1.2 2.3
v 6.2 1.2 2.2
v 6.3 0.1 2.7
v 6.3 0.1 2.6
v 6.3 0.1 2.4
v 6.3 0.1 2.3
v 6.3 1.2 2.7
v 6.3 1.2 2.6
v 6.3 1.2 2.4
v 6.3 1.2 2.3
v 6.4 0.1 2.6
v 6.4 0.1 2.4
v 6.4 1.2 2.6
v 6.4 1.2 2.4
v 6 0.1 2.8
v 6 0.4 2.8
v 6 0.8 2.8
v 6 1.2 2.8
v 6.1 0.1 2.8
v 6.1 0.4 2.8
v 6.1 0.5 2.8
v 6.2 0.1 2.8
v 6.2 0.5 2.8
v 6.2 0.8 2.8
v 6.2 1.2 2.8
v 5.9 0.1 2.7
v 5.9 0.5 2.7
v 5.9 0.7 2.7
v 5.9 1.2 2.7
v 6 0.1 2.7
v 6 0.4 2.7
v 6 0.5 2.7
v 6 0.7 2.7
v 6 0.8 2.7
v 6 1.2 2.7
v 6.1 0.4 2.7
v 6.1 0.5 2.7
v 6.1 0.6 2.7
v 6.1 0.7 2.7
v 6.1 0.8 2.7
v 6.2 0.1 2.7
v 6.2 0.5 2.7
v 6.2 0.6 2.7
v 6.2 0.7 2.7
v 6.2 0.8 2.7
v 6.2 1.2 2.7
v 6.3 0.1 2.7
v 6.3 1.2 2.7
v 5.8 0.1 2.6
v 5.8 0.4 2.6
v 5.8 0.6 2.6
v 5.8 1.2 2.6
v 5.9 0.1 2.6
v 5.9 0.4 2.6
v 5.9 0.5 2.6
v 5.9 0.6 2.6
v 5.9 0.7 2.6
v 5.9 1.2 2.6
v 6 0.5 2.6
v 6 0.6 2.6
v 6 0.7 2.6
v 6.3 0.1 2.6
v 6.3 1.2 2.6
v 6.4 0.1 2.6
v 6.4 1.2 2.6
v 5.8 0.4 2.5
v 5.8 0.5 2.5
v 5.8 0.6 2.5
v 5.9 0.4 2.5
v 5.9 0.5 2.5
v 5.9 0.6 2.5
v 5.8 0.1 2.4
v 5.8 0.4 2.4
v 5.8 0.5 2.4
v 5.8 0.6 2.4
v 5.8 1.2 2.4
v 5.9 0.1 2.4
v 5.9 0.4 2.4
v 5.9 0.5 2.4
v 5.9 0.6 2.4
v 5.9 1.2 2.4
v 6.3 0.1 2.4
v 6.3 1.2 2.4
v 6.4 0.1 2.4
v 6.4 1.2 2.4
v 5.9 0.1 2.3
v 5.9 1.2 2.3
v 6 0.1 2.3
v 6 1.2 2.3
v 6.2 0.1 2.3
v 6.2 1.2 2.3
v 6.3 0.1 2.3
v 6.3 1.2 2.3
v 6 0.1 2.2
v 6 1.2 2.2
v 6.2 0.1 2.2
v 6.2 1.2 2.2
v 6 0.1 2.8
v 6.1 0.1 2.8
v 6.2 0.1 2.8
v 5.9 0.1 2.7
v 6 0.1 2.7
v 6.1 0.1 2.7
v 6.2 0.1 2.7
v 6.3 0.1 2.7
v 5.8 0.1 2.6
v 5.9 0.1 2.6
v 6 0.1 2.6
v 6.3 0.1 2.6
v 6.4 0.1 2.6
v 5.8 0.1 2.5
v 5.9 0.1 2.5
v 5.8 0.1 2.4
v 5.9 0.1 2.4
v 6.3 0.1 2.4
v 6.4 0.1 2.4
v 5.9 0.1 2.3
v 6 0.1 2.3
v 6.2 0.1 2.3
v 6.3 0.1 2.3
v 6 0.1 2.2
v 6.2 0.1 2.2
v 5.8 0.6 2.6
v 5.9 0.6 2.6
v 5.8 0.6 2.5
v 5.9 0.6 2.5
v 5.9 0.7 2.7
v 6 0.7 2.7
v 5.9 0.7 2.6
v 6 0.7 2.6
v 6 0.8 2.8
v 6.2 0.8 2.8
v 6 0.8 2.7
v 6.1 0.8 2.7
v 6.2 0.8 2.7
v 6 0.4 2.8
v 6.1 0.4 2.8
v 6 0.4 2.7
v 6.1 0.4 2.7
v 5.8 0.4 2.6
v 5.9 0.4 2.6
v 5.8 0.4 2.5
v 5.9 0.4 2.5
v 6.1 0.5 2.8
v 6.2 0.5 2.8
v 5.9 0.5 2.7
v 6 0.5 2.7
v 6.1 0.5 2.7
v 6.2 0.5 2.7
v 5.9 0.5 2.6
v 6 0.5 2.6
v 6 1.2 2.8
v 6.2 1.2 2.8
v 5.9 1.2 2.7
v 6 1.2 2.7
v 6.2 1.2 2.7
v 6.3 1.2 2.7
v 5.8 1.2 2.6
v 5.9 1.2 2.6
v 6.3 1.2 2.6
v 6.4 1.2 2.6
v 5.8 1.2 2.4
v 5.9 1.2 2.4
v 6.3 1.2 2.4
v 6.4 1.2 2.4
v 5.9 1.2 2.3
v 6 1.2 2.3
v 6.2 1.2 2.3
v 6.3 1.2 2.3
v 6 1.2 2.2
v 6.2 1.2 2.2

# faces
f 4/2/1 2/2/1 1/2/1
f 5/1/1 3/1/1 2/1/1
f 5/2/1 2/2/1 4/2/1
f 6/1/1 3/1/1 5/1/1
f 7/2/1 6/2/1 5/2/1
f 8/2/1 6/2/1 7/2/1
f 10/3/1 8/3/1 7/3/1
f 11/3/1 8/3/1 10/3/1
f 12/1/1 10/1/1 9/1/1
f 12/1/1 11/1/1 10/1/1
f 13/1/1 11/1/1 12/1/1
f 18/2/1 15/2/1 14/2/1
f 20/1/1 17/1/1 16/1/1
f 21/2/1 19/2/1 18/2/1
f 21/2/1 18/2/1 14/2/1
f 22/2/1 19/2/1 21/2/1
f 23/2/1 19/2/1 22/2/1
f 24/1/1 17/1/1 20/1/1
f 25/2/1 23/2/1 22/2/1
f 26/2/1 23/2/1 25/2/1
f 27/1/1 17/1/1 24/1/1
f 30/1/1 29/1/1 28/1/1
f 31/1/1 29/1/1 30/1/1
f 32/1/1 17/1/1 27/1/1
f 33/1/1 17/1/1 32/1/1
f 38/2/1 35/2/1 34/2/1
f 39/2/1 35/2/1 38/2/1
f 42/3/1 41/3/1 40/3/1
f 43/3/1 42/3/1 40/3/1
f 44/3/1 42/3/1 43/3/1
f 47/1/1 46/1/1 45/1/1
f 48/1/1 46/1/1 47/1/1
f 49/1/1 37/1/1 36/1/1
f 50/1/1 37/1/1 49/1/1
f 53/1/1 52/1/1 51/1/1
f 54/1/1 52/1/1 53/1/1
f 55/1/2 56/1/2 59/1/2
f 59/1/2 56/1/2 60/1/2
f 61/1/2 62/1/2 63/1/2
f 63/1/2 62/1/2 64/1/2
f 57/1/2 58/1/2 65/1/2
f 65/1/2 58/1/2 66/1/2
f 67/1/2 68/1/2 71/1/2
f 71/1/2 68/1/2 72/1/2
f 69/1/2 70/1/2 73/1/2
f 73/1/2 70/1/2 74/1/2
f 75/1/2 76/1/2 77/1/2
f 77/1/2 76/1/2 78/1/2
f 83/2/3 80/2/3 79/2/3
f 84/2/3 80/2/3 83/2/3
f 86/1/3 84/1/3 83/1/3
f 86/1/3 85/1/3 84/1/3
f 87/1/3 85/1/3 86/1/3
f 88/1/3 82/1/3 81/1/3
f 89/1/3 82/1/3 88/1/3
f 94/2/3 91/2/3 90/2/3
f 95/2/3 91/2/3 94/2/3
f 96/2/3 91/2/3 95/2/3
f 97/1/3 93/1/3 92/1/3
f 98/1/3 93/1/3 97/1/3
f 99/1/3 93/1/3 98/1/3
f 100/4/3 96/4/3 95/4/3
f 101/3/3 98/3/3 97/3/3
f 101/4/3 96/4/3 100/4/3
f 101/3/3 97/3/3 96/3/3
f 102/3/3 98/3/3 101/3/3
f 103/3/3 98/3/3 102/3/3
f 104/3/3 98/3/3 103/3/3
f 106/4/3 102/4/3 101/4/3
f 107/3/3 103/3/3 102/3/3
f 107/4/3 102/4/3 106/4/3
f 108/4/3 104/4/3 103/4/3
f 108/3/3 103/3/3 107/3/3
f 109/4/3 104/4/3 108/4/3
f 111/1/3 109/1/3 108/1/3
f 111/1/3 110/1/3 109/1/3
f 111/1/3 108/1/3 107/1/3
f 111/1/3 107/1/3 106/1/3
f 111/1/3 106/1/3 105/1/3
f 112/1/3 110/1/3 111/1/3
f 117/2/3 114/2/3 113/2/3
f 118/2/3 114/2/3 117/2/3
f 120/1/3 116/1/3 115/1/3
f 121/1/3 116/1/3 120/1/3
f 122/1/3 116/1/3 121/1/3
f 123/2/3 120/2/3 119/2/3
f 124/4/3 121/4/3 120/4/3
f 124/2/3 120/2/3 123/2/3
f 125/4/3 121/4/3 124/4/3
f 128/1/3 127/1/3 126/1/3
f 129/1/3 127/1/3 128/1/3
f 133/2/3 131/2/3 130/2/3
f 134/3/3 132/3/3 131/3/3
f 134/2/3 131/2/3 133/2/3
f 135/3/3 132/3/3 134/3/3
f 136/1/4 137/1/4 141/1/4
f 137/2/4 138/2/4 142/2/4
f 141/1/4 137/1/4 142/1/4
f 138/3/4 139/3/4 143/3/4
f 142/2/4 138/2/4 143/2/4
f 139/1/4 140/1/4 144/1/4
f 143/3/4 139/3/4 144/3/4
f 144/1/4 140/1/4 145/1/4
f 146/1/4 147/1/4 148/1/4
f 148/1/4 147/1/4 149/1/4
f 150/1/4 151/1/4 152/1/4
f 152/1/4 151/1/4 153/1/4
f 154/1/4 155/1/4 156/1/4
f 156/1/4 155/1/4 157/1/4
f 158/1/4 159/1/4 160/1/4
f 160/1/4 159/1/4 161/1/4
f 166/2/5 163/2/5 162/2/5
f 167/1/5 164/1/5 163/1/5
f 167/2/5 163/2/5 166/2/5
f 168/1/5 164/1/5 167/1/5
f 171/2/5 166/2/5 165/2/5
f 172/1/5 169/1/5 168/1/5
f 172/1/5 167/1/5 166/1/5
f 172/2/5 166/2/5 171/2/5
f 172/1/5 168/1/5 167/1/5
f 173/1/5 169/1/5 172/1/5
f 175/2/5 171/2/5 170/2/5
f 176/1/5 174/1/5 173/1/5
f 176/2/5 171/2/5 175/2/5
f 176/1/5 172/1/5 171/1/5
f 176/1/5 173/1/5 172/1/5
f 177/1/5 176/1/5 175/1/5
f 178/1/5 174/1/5 176/1/5
f 178/1/5 176/1/5 177/1/5
f 179/1/5 174/1/5 178/1/5
f 180/1/5 174/1/5 179/1/5
f 181/1/5 179/1/5 178/1/5
f 182/1/5 179/1/5 181/1/5
f 183/1/5 179/1/5 182/1/5
f 184/1/5 179/1/5 183/1/5
f 185/1/5 183/1/5 182/1/5
f 186/1/5 183/1/5 185/1/5
f 189/1/5 188/1/5 187/1/5
f 190/1/5 188/1/5 189/1/5
f 193/1/5 192/1/5 191/1/5
f 194/1/5 192/1/5 193/1/5
f 197/1/5 196/1/5 195/1/5
f 198/1/5 196/1/5 197/1/5
f 199/1/5 196/1/5 198/1/5
f 200/2/6 201/2/6 202/2/6
f 202/2/6 201/2/6 203/2/6
f 204/2/6 205/2/6 206/2/6
f 206/2/6 205/2/6 207/2/6
f 208/1/6 209/1/6 212/1/6
f 212/1/6 209/1/6 213/1/6
f 210/2/6 211/2/6 214/2/6
f 214/2/6 211/2/6 215/2/6
f 216/1/6 217/1/6 219/1/6
f 219/1/6 217/1/6 220/1/6
f 218/1/6 219/1/6 223/1/6
f 220/1/6 221/1/6 223/1/6
f 219/1/6 220/1/6 223/1/6
f 223/1/6 221/1/6 224/1/6
f 222/1/6 223/1/6 226/1/6
f 224/1/6 225/1/6 226/1/6
f 223/1/6 224/1/6 226/1/6
f 226/1/6 225/1/6 227/1/6
f 227/1/6 225/1/6 228/1/6
f 228/1/6 225/1/6 229/1/6
f 227/1/6 228/1/6 230/1/6
f 230/1/6 228/1/6 231/1/6
f 231/1/6 228/1/6 232/1/6
f 232/1/6 228/1/6 233/1/6
f 231/1/6 232/1/6 234/1/6
f 234/1/6 232/1/6 235/1/6
