# MagicaVoxel @ Ephtracy

# group
o 

# material
mtllib lvl1-22.mtl
usemtl palette

# normals
vn -1 0 0
vn 1 0 0
vn 0 0 1
vn 0 0 -1
vn 0 -1 0
vn 0 1 0

# texcoords
vt 0.0253906 0.5
vt 0.0292969 0.5
vt 0.251953 0.5
vt 0.283203 0.5
vt 0.314453 0.5

# verts
v -2.3 3.3 -2.8
v -2.3 3.3 -3.3
v -2.3 3.4 -2.8
v -2.3 3.4 -3.3
v -2.2 3.2 -2.7
v -2.2 3.2 -3.4
v -2.2 3.3 -2.8
v -2.2 3.3 -3.3
v -2.2 3.4 -2.7
v -2.2 3.4 -2.8
v -2.2 3.4 -3.3
v -2.2 3.4 -3.4
v -2.2 3.5 -2.8
v -2.2 3.5 -3.3
v -2.1 2.9 -2.8
v -2.1 2.9 -3
v -2.1 2.9 -3.1
v -2.1 2.9 -3.3
v -2.1 3 -2.7
v -2.1 3 -2.8
v -2.1 3 -3
v -2.1 3 -3.1
v -2.1 3 -3.3
v -2.1 3 -3.4
v -2.1 3.1 -2.8
v -2.1 3.1 -2.9
v -2.1 3.1 -3
v -2.1 3.1 -3.1
v -2.1 3.1 -3.2
v -2.1 3.1 -3.3
v -2.1 3.2 -2.6
v -2.1 3.2 -2.7
v -2.1 3.2 -2.8
v -2.1 3.2 -2.9
v -2.1 3.2 -3
v -2.1 3.2 -3.1
v -2.1 3.2 -3.2
v -2.1 3.2 -3.3
v -2.1 3.2 -3.4
v -2.1 3.2 -3.5
v -2.1 3.3 -2.6
v -2.1 3.3 -2.7
v -2.1 3.3 -2.8
v -2.1 3.3 -3.3
v -2.1 3.3 -3.4
v -2.1 3.3 -3.5
v -2.1 3.4 -2.8
v -2.1 3.4 -3.3
v -2 1.5 -2.7
v -2 1.5 -2.9
v -2 1.5 -3.2
v -2 1.5 -3.4
v -2 1.6 -2.7
v -2 1.6 -2.9
v -2 1.6 -3.2
v -2 1.6 -3.4
v -2 2 -2.7
v -2 2 -3.4
v -2 2.2 -2.9
v -2 2.2 -3.2
v -2 2.7 -2.9
v -2 2.7 -3
v -2 2.7 -3.1
v -2 2.7 -3.2
v -2 2.8 -2.7
v -2 2.8 -3
v -2 2.8 -3.1
v -2 2.8 -3.4
v -1.9 1.6 -2.7
v -1.9 1.6 -2.9
v -1.9 1.6 -3.2
v -1.9 1.6 -3.4
v -1.9 1.7 -2.7
v -1.9 1.7 -2.9
v -1.9 1.7 -3.2
v -1.9 1.7 -3.4
v -1.9 1.8 -2.7
v -1.9 1.8 -2.9
v -1.9 1.8 -3.2
v -1.9 1.8 -3.4
v -1.9 2 -2.7
v -1.9 2 -2.9
v -1.9 2 -3.2
v -1.9 2 -3.4
v -1.9 2.8 -2.9
v -1.9 2.8 -3
v -1.9 2.8 -3.1
v -1.9 2.8 -3.2
v -1.9 2.9 -2.9
v -1.9 2.9 -3.2
v -1.8 1.7 -2.7
v -1.8 1.7 -2.9
v -1.8 1.7 -3.2
v -1.8 1.7 -3.4
v -1.8 1.8 -2.7
v -1.8 1.8 -2.9
v -1.8 1.8 -3.2
v -1.8 1.8 -3.4
v -1.8 2.1 -2.4
v -1.8 2.1 -2.5
v -1.8 2.1 -2.6
v -1.8 2.1 -2.7
v -1.8 2.1 -3.4
v -1.8 2.1 -3.5
v -1.8 2.1 -3.6
v -1.8 2.1 -3.7
v -1.8 2.2 -2.5
v -1.8 2.2 -2.6
v -1.8 2.2 -3.5
v -1.8 2.2 -3.6
v -1.8 2.3 -2.4
v -1.8 2.3 -2.5
v -1.8 2.3 -2.7
v -1.8 2.3 -3.4
v -1.8 2.3 -3.6
v -1.8 2.3 -3.7
v -1.8 2.7 -2.5
v -1.8 2.7 -2.7
v -1.8 2.7 -3.4
v -1.8 2.7 -3.6
v -2.2 3.3 -2.8
v -2.2 3.3 -3.3
v -2.2 3.4 -2.8
v -2.2 3.4 -3.3
v -1.7 1.7 -2.7
v -1.7 1.7 -2.9
v -1.7 1.7 -3.2
v -1.7 1.7 -3.4
v -1.7 1.8 -2.7
v -1.7 1.8 -2.9
v -1.7 1.8 -3.2
v -1.7 1.8 -3.4
v -1.6 1.5 -2.7
v -1.6 1.5 -2.9
v -1.6 1.5 -3.2
v -1.6 1.5 -3.4
v -1.6 1.6 -2.7
v -1.6 1.6 -2.9
v -1.6 1.6 -3.2
v -1.6 1.6 -3.4
v -1.6 1.7 -2.7
v -1.6 1.7 -2.9
v -1.6 1.7 -3.2
v -1.6 1.7 -3.4
v -1.6 1.8 -2.7
v -1.6 1.8 -2.9
v -1.6 1.8 -3.2
v -1.6 1.8 -3.4
v -1.6 2 -2.7
v -1.6 2 -2.9
v -1.6 2 -3.2
v -1.6 2 -3.4
v -1.6 2.1 -2.4
v -1.6 2.1 -2.5
v -1.6 2.1 -2.6
v -1.6 2.1 -2.7
v -1.6 2.1 -3.4
v -1.6 2.1 -3.5
v -1.6 2.1 -3.6
v -1.6 2.1 -3.7
v -1.6 2.2 -2.5
v -1.6 2.2 -2.6
v -1.6 2.2 -3.5
v -1.6 2.2 -3.6
v -1.6 2.3 -2.4
v -1.6 2.3 -2.5
v -1.6 2.3 -2.7
v -1.6 2.3 -3.4
v -1.6 2.3 -3.6
v -1.6 2.3 -3.7
v -1.6 2.7 -2.5
v -1.6 2.7 -2.7
v -1.6 2.7 -3.4
v -1.6 2.7 -3.6
v -1.5 2.8 -2.9
v -1.5 2.8 -3.2
v -1.5 2.9 -2.9
v -1.5 2.9 -3.2
v -1.4 2 -2.7
v -1.4 2 -3.4
v -1.4 2.8 -2.7
v -1.4 2.8 -3.4
v -1.4 2.9 -2.8
v -1.4 2.9 -3.3
v -1.4 3 -2.7
v -1.4 3 -2.8
v -1.4 3 -3.3
v -1.4 3 -3.4
v -1.4 3.2 -2.6
v -1.4 3.2 -2.7
v -1.4 3.2 -3.4
v -1.4 3.2 -3.5
v -1.4 3.3 -2.6
v -1.4 3.3 -2.7
v -1.4 3.3 -2.8
v -1.4 3.3 -3.3
v -1.4 3.3 -3.4
v -1.4 3.3 -3.5
v -1.4 3.4 -2.7
v -1.4 3.4 -2.8
v -1.4 3.4 -3.3
v -1.4 3.4 -3.4
v -1.4 3.5 -2.8
v -1.4 3.5 -3.3
v -1.3 3.2 -2.7
v -1.3 3.2 -3.4
v -1.3 3.3 -2.7
v -1.3 3.3 -2.8
v -1.3 3.3 -3.3
v -1.3 3.3 -3.4
v -1.3 3.4 -2.8
v -1.3 3.4 -3.3
v -1.8 2.1 -2.4
v -1.8 2.3 -2.4
v -1.6 2.1 -2.4
v -1.6 2.3 -2.4
v -1.8 2.3 -2.5
v -1.8 2.7 -2.5
v -1.6 2.3 -2.5
v -1.6 2.7 -2.5
v -2.1 3.2 -2.6
v -2.1 3.3 -2.6
v -1.8 2.1 -2.6
v -1.8 2.2 -2.6
v -1.6 2.1 -2.6
v -1.6 2.2 -2.6
v -1.4 3.2 -2.6
v -1.4 3.3 -2.6
v -2.2 3.2 -2.7
v -2.2 3.4 -2.7
v -2.1 3 -2.7
v -2.1 3.2 -2.7
v -2.1 3.3 -2.7
v -2 1.5 -2.7
v -2 1.6 -2.7
v -2 2 -2.7
v -2 2.8 -2.7
v -1.9 1.6 -2.7
v -1.9 1.7 -2.7
v -1.9 1.8 -2.7
v -1.9 2 -2.7
v -1.8 1.7 -2.7
v -1.8 1.8 -2.7
v -1.8 2.1 -2.7
v -1.8 2.3 -2.7
v -1.8 2.7 -2.7
v -1.7 1.7 -2.7
v -1.7 1.8 -2.7
v -1.6 1.5 -2.7
v -1.6 1.6 -2.7
v -1.6 1.7 -2.7
v -1.6 1.8 -2.7
v -1.6 2 -2.7
v -1.6 2.1 -2.7
v -1.6 2.3 -2.7
v -1.6 2.7 -2.7
v -1.4 2 -2.7
v -1.4 2.8 -2.7
v -1.4 3 -2.7
v -1.4 3.2 -2.7
v -1.4 3.3 -2.7
v -1.4 3.4 -2.7
v -1.3 3.2 -2.7
v -1.3 3.3 -2.7
v -2.3 3.3 -2.8
v -2.3 3.4 -2.8
v -2.2 3.3 -2.8
v -2.2 3.4 -2.8
v -2.2 3.5 -2.8
v -2.1 2.9 -2.8
v -2.1 3 -2.8
v -1.4 2.9 -2.8
v -1.4 3 -2.8
v -1.4 3.3 -2.8
v -1.4 3.4 -2.8
v -1.4 3.5 -2.8
v -1.3 3.3 -2.8
v -1.3 3.4 -2.8
v -1.9 2.8 -2.9
v -1.9 2.9 -2.9
v -1.5 2.8 -2.9
v -1.5 2.9 -2.9
v -2 1.5 -3.2
v -2 1.6 -3.2
v -1.9 1.6 -3.2
v -1.9 1.7 -3.2
v -1.9 1.8 -3.2
v -1.9 2 -3.2
v -1.8 1.7 -3.2
v -1.8 1.8 -3.2
v -1.7 1.7 -3.2
v -1.7 1.8 -3.2
v -1.6 1.5 -3.2
v -1.6 1.6 -3.2
v -1.6 1.7 -3.2
v -1.6 1.8 -3.2
v -1.6 2 -3.2
v -2.2 3.3 -3.3
v -2.2 3.4 -3.3
v -2.1 3.3 -3.3
v -2.1 3.4 -3.3
v -1.8 2.1 -3.6
v -1.8 2.2 -3.6
v -1.6 2.1 -3.6
v -1.6 2.2 -3.6
v -1.8 2.1 -2.5
v -1.8 2.2 -2.5
v -1.6 2.1 -2.5
v -1.6 2.2 -2.5
v -2.2 3.3 -2.8
v -2.2 3.4 -2.8
v -2.1 3.3 -2.8
v -2.1 3.4 -2.8
v -2 1.5 -2.9
v -2 1.6 -2.9
v -1.9 1.6 -2.9
v -1.9 1.7 -2.9
v -1.9 1.8 -2.9
v -1.9 2 -2.9
v -1.8 1.7 -2.9
v -1.8 1.8 -2.9
v -1.7 1.7 -2.9
v -1.7 1.8 -2.9
v -1.6 1.5 -2.9
v -1.6 1.6 -2.9
v -1.6 1.7 -2.9
v -1.6 1.8 -2.9
v -1.6 2 -2.9
v -1.9 2.8 -3.2
v -1.9 2.9 -3.2
v -1.5 2.8 -3.2
v -1.5 2.9 -3.2
v -2.3 3.3 -3.3
v -2.3 3.4 -3.3
v -2.2 3.3 -3.3
v -2.2 3.4 -3.3
v -2.2 3.5 -3.3
v -2.1 2.9 -3.3
v -2.1 3 -3.3
v -1.4 2.9 -3.3
v -1.4 3 -3.3
v -1.4 3.3 -3.3
v -1.4 3.4 -3.3
v -1.4 3.5 -3.3
v -1.3 3.3 -3.3
v -1.3 3.4 -3.3
v -2.2 3.2 -3.4
v -2.2 3.4 -3.4
v -2.1 3 -3.4
v -2.1 3.2 -3.4
v -2.1 3.3 -3.4
v -2 1.5 -3.4
v -2 1.6 -3.4
v -2 2 -3.4
v -2 2.8 -3.4
v -1.9 1.6 -3.4
v -1.9 1.7 -3.4
v -1.9 1.8 -3.4
v -1.9 2 -3.4
v -1.8 1.7 -3.4
v -1.8 1.8 -3.4
v -1.8 2.1 -3.4
v -1.8 2.3 -3.4
v -1.8 2.7 -3.4
v -1.7 1.7 -3.4
v -1.7 1.8 -3.4
v -1.6 1.5 -3.4
v -1.6 1.6 -3.4
v -1.6 1.7 -3.4
v -1.6 1.8 -3.4
v -1.6 2 -3.4
v -1.6 2.1 -3.4
v -1.6 2.3 -3.4
v -1.6 2.7 -3.4
v -1.4 2 -3.4
v -1.4 2.8 -3.4
v -1.4 3 -3.4
v -1.4 3.2 -3.4
v -1.4 3.3 -3.4
v -1.4 3.4 -3.4
v -1.3 3.2 -3.4
v -1.3 3.3 -3.4
v -2.1 3.2 -3.5
v -2.1 3.3 -3.5
v -1.8 2.1 -3.5
v -1.8 2.2 -3.5
v -1.6 2.1 -3.5
v -1.6 2.2 -3.5
v -1.4 3.2 -3.5
v -1.4 3.3 -3.5
v -1.8 2.3 -3.6
v -1.8 2.7 -3.6
v -1.6 2.3 -3.6
v -1.6 2.7 -3.6
v -1.8 2.1 -3.7
v -1.8 2.3 -3.7
v -1.6 2.1 -3.7
v -1.6 2.3 -3.7
v -2 1.5 -2.7
v -1.6 1.5 -2.7
v -2 1.5 -2.9
v -1.6 1.5 -2.9
v -2 1.5 -3.2
v -1.6 1.5 -3.2
v -2 1.5 -3.4
v -1.6 1.5 -3.4
v -1.9 1.8 -2.7
v -1.8 1.8 -2.7
v -1.7 1.8 -2.7
v -1.6 1.8 -2.7
v -1.9 1.8 -2.9
v -1.8 1.8 -2.9
v -1.7 1.8 -2.9
v -1.6 1.8 -2.9
v -1.9 1.8 -3.2
v -1.8 1.8 -3.2
v -1.7 1.8 -3.2
v -1.6 1.8 -3.2
v -1.9 1.8 -3.4
v -1.8 1.8 -3.4
v -1.7 1.8 -3.4
v -1.6 1.8 -3.4
v -2 2 -2.7
v -1.9 2 -2.7
v -1.6 2 -2.7
v -1.4 2 -2.7
v -1.9 2 -2.9
v -1.6 2 -2.9
v -1.9 2 -3.2
v -1.6 2 -3.2
v -2 2 -3.4
v -1.9 2 -3.4
v -1.6 2 -3.4
v -1.4 2 -3.4
v -1.8 2.1 -2.4
v -1.6 2.1 -2.4
v -1.8 2.1 -2.5
v -1.6 2.1 -2.5
v -1.8 2.1 -2.6
v -1.6 2.1 -2.6
v -1.8 2.1 -2.7
v -1.6 2.1 -2.7
v -1.8 2.1 -3.4
v -1.6 2.1 -3.4
v -1.8 2.1 -3.5
v -1.6 2.1 -3.5
v -1.8 2.1 -3.6
v -1.6 2.1 -3.6
v -1.8 2.1 -3.7
v -1.6 2.1 -3.7
v -1.8 2.2 -2.5
v -1.6 2.2 -2.5
v -1.8 2.2 -2.6
v -1.6 2.2 -2.6
v -1.8 2.2 -3.5
v -1.6 2.2 -3.5
v -1.8 2.2 -3.6
v -1.6 2.2 -3.6
v -2.1 2.9 -2.8
v -1.4 2.9 -2.8
v -1.9 2.9 -2.9
v -1.5 2.9 -2.9
v -2.1 2.9 -3
v -2 2.9 -3
v -2.1 2.9 -3.1
v -2 2.9 -3.1
v -1.9 2.9 -3.2
v -1.5 2.9 -3.2
v -2.1 2.9 -3.3
v -1.4 2.9 -3.3
v -2.1 3 -2.7
v -1.4 3 -2.7
v -2.1 3 -2.8
v -1.4 3 -2.8
v -2.1 3 -3.3
v -1.4 3 -3.3
v -2.1 3 -3.4
v -1.4 3 -3.4
v -2.1 3.2 -2.6
v -1.4 3.2 -2.6
v -2.2 3.2 -2.7
v -2.1 3.2 -2.7
v -1.4 3.2 -2.7
v -1.3 3.2 -2.7
v -2.1 3.2 -2.8
v -2.1 3.2 -2.9
v -2.1 3.2 -3
v -2.1 3.2 -3.1
v -2.1 3.2 -3.2
v -2.1 3.2 -3.3
v -2.2 3.2 -3.4
v -2.1 3.2 -3.4
v -1.4 3.2 -3.4
v -1.3 3.2 -3.4
v -2.1 3.2 -3.5
v -1.4 3.2 -3.5
v -2.3 3.3 -2.8
v -2.2 3.3 -2.8
v -2.3 3.3 -3.3
v -2.2 3.3 -3.3
v -2.2 3.4 -2.8
v -2.1 3.4 -2.8
v -2.2 3.4 -3.3
v -2.1 3.4 -3.3
v -2 1.6 -2.7
v -1.9 1.6 -2.7
v -2 1.6 -2.9
v -1.9 1.6 -2.9
v -2 1.6 -3.2
v -1.9 1.6 -3.2
v -2 1.6 -3.4
v -1.9 1.6 -3.4
v -1.9 1.7 -2.7
v -1.8 1.7 -2.7
v -1.7 1.7 -2.7
v -1.6 1.7 -2.7
v -1.9 1.7 -2.9
v -1.8 1.7 -2.9
v -1.7 1.7 -2.9
v -1.6 1.7 -2.9
v -1.9 1.7 -3.2
v -1.8 1.7 -3.2
v -1.7 1.7 -3.2
v -1.6 1.7 -3.2
v -1.9 1.7 -3.4
v -1.8 1.7 -3.4
v -1.7 1.7 -3.4
v -1.6 1.7 -3.4
v -1.8 2.3 -2.4
v -1.6 2.3 -2.4
v -1.8 2.3 -2.5
v -1.6 2.3 -2.5
v -1.8 2.3 -3.6
v -1.6 2.3 -3.6
v -1.8 2.3 -3.7
v -1.6 2.3 -3.7
v -1.8 2.7 -2.5
v -1.6 2.7 -2.5
v -1.8 2.7 -2.7
v -1.6 2.7 -2.7
v -1.8 2.7 -3.4
v -1.6 2.7 -3.4
v -1.8 2.7 -3.6
v -1.6 2.7 -3.6
v -2 2.8 -2.7
v -1.4 2.8 -2.7
v -1.9 2.8 -2.9
v -1.5 2.8 -2.9
v -2 2.8 -3
v -1.9 2.8 -3
v -2 2.8 -3.1
v -1.9 2.8 -3.1
v -1.9 2.8 -3.2
v -1.5 2.8 -3.2
v -2 2.8 -3.4
v -1.4 2.8 -3.4
v -2.1 3.3 -2.6
v -1.4 3.3 -2.6
v -2.1 3.3 -2.7
v -1.4 3.3 -2.7
v -1.3 3.3 -2.7
v -2.2 3.3 -2.8
v -2.1 3.3 -2.8
v -1.4 3.3 -2.8
v -1.3 3.3 -2.8
v -2.2 3.3 -3.3
v -2.1 3.3 -3.3
v -1.4 3.3 -3.3
v -1.3 3.3 -3.3
v -2.1 3.3 -3.4
v -1.4 3.3 -3.4
v -1.3 3.3 -3.4
v -2.1 3.3 -3.5
v -1.4 3.3 -3.5
v -2.2 3.4 -2.7
v -1.4 3.4 -2.7
v -2.3 3.4 -2.8
v -2.2 3.4 -2.8
v -1.4 3.4 -2.8
v -1.3 3.4 -2.8
v -2.3 3.4 -3.3
v -2.2 3.4 -3.3
v -1.4 3.4 -3.3
v -1.3 3.4 -3.3
v -2.2 3.4 -3.4
v -1.4 3.4 -3.4
v -2.2 3.5 -2.8
v -1.4 3.5 -2.8
v -2.2 3.5 -3.3
v -1.4 3.5 -3.3

# faces
f 3/5/1 2/5/1 1/5/1
f 4/5/1 2/5/1 3/5/1
f 7/5/1 6/5/1 5/5/1
f 8/5/1 6/5/1 7/5/1
f 9/5/1 7/5/1 5/5/1
f 10/5/1 7/5/1 9/5/1
f 11/5/1 6/5/1 8/5/1
f 12/5/1 6/5/1 11/5/1
f 13/5/1 11/5/1 10/5/1
f 14/5/1 11/5/1 13/5/1
f 20/4/1 16/4/1 15/4/1
f 21/2/1 17/2/1 16/2/1
f 21/4/1 16/4/1 20/4/1
f 22/4/1 18/4/1 17/4/1
f 22/2/1 17/2/1 21/2/1
f 23/4/1 18/4/1 22/4/1
f 25/4/1 21/4/1 20/4/1
f 25/4/1 24/4/1 23/4/1
f 25/4/1 23/4/1 22/4/1
f 25/4/1 22/4/1 21/4/1
f 25/4/1 20/4/1 19/4/1
f 26/4/1 24/4/1 25/4/1
f 27/4/1 24/4/1 26/4/1
f 28/4/1 24/4/1 27/4/1
f 29/4/1 24/4/1 28/4/1
f 30/4/1 24/4/1 29/4/1
f 32/4/1 25/4/1 19/4/1
f 33/1/1 26/1/1 25/1/1
f 33/4/1 25/4/1 32/4/1
f 34/3/1 27/3/1 26/3/1
f 34/1/1 26/1/1 33/1/1
f 35/4/1 28/4/1 27/4/1
f 35/3/1 27/3/1 34/3/1
f 36/3/1 29/3/1 28/3/1
f 36/4/1 28/4/1 35/4/1
f 37/1/1 30/1/1 29/1/1
f 37/3/1 29/3/1 36/3/1
f 38/4/1 24/4/1 30/4/1
f 38/1/1 30/1/1 37/1/1
f 39/4/1 24/4/1 38/4/1
f 41/5/1 32/5/1 31/5/1
f 42/5/1 32/5/1 41/5/1
f 45/5/1 40/5/1 39/5/1
f 46/5/1 40/5/1 45/5/1
f 47/4/1 44/4/1 43/4/1
f 48/4/1 44/4/1 47/4/1
f 53/4/1 50/4/1 49/4/1
f 54/4/1 50/4/1 53/4/1
f 55/4/1 52/4/1 51/4/1
f 56/4/1 52/4/1 55/4/1
f 59/5/1 58/5/1 57/5/1
f 60/5/1 58/5/1 59/5/1
f 61/5/1 59/5/1 57/5/1
f 61/1/1 60/1/1 59/1/1
f 62/1/1 60/1/1 61/1/1
f 63/1/1 60/1/1 62/1/1
f 64/5/1 58/5/1 60/5/1
f 64/1/1 60/1/1 63/1/1
f 65/5/1 61/5/1 57/5/1
f 65/5/1 62/5/1 61/5/1
f 66/1/1 63/1/1 62/1/1
f 66/5/1 62/5/1 65/5/1
f 67/5/1 64/5/1 63/5/1
f 67/1/1 63/1/1 66/1/1
f 68/5/1 58/5/1 64/5/1
f 68/5/1 64/5/1 67/5/1
f 73/5/1 70/5/1 69/5/1
f 74/5/1 70/5/1 73/5/1
f 75/5/1 72/5/1 71/5/1
f 76/5/1 72/5/1 75/5/1
f 81/5/1 78/5/1 77/5/1
f 82/5/1 78/5/1 81/5/1
f 83/5/1 80/5/1 79/5/1
f 84/5/1 80/5/1 83/5/1
f 89/4/1 86/4/1 85/4/1
f 89/4/1 88/4/1 87/4/1
f 89/4/1 87/4/1 86/4/1
f 90/4/1 88/4/1 89/4/1
f 95/5/1 92/5/1 91/5/1
f 96/5/1 92/5/1 95/5/1
f 97/5/1 94/5/1 93/5/1
f 98/5/1 94/5/1 97/5/1
f 107/4/1 100/4/1 99/4/1
f 108/4/1 102/4/1 101/4/1
f 109/4/1 104/4/1 103/4/1
f 110/4/1 106/4/1 105/4/1
f 111/4/1 107/4/1 99/4/1
f 111/4/1 108/4/1 107/4/1
f 112/4/1 108/4/1 111/4/1
f 113/4/1 102/4/1 108/4/1
f 113/4/1 108/4/1 112/4/1
f 114/4/1 110/4/1 109/4/1
f 114/4/1 109/4/1 103/4/1
f 115/4/1 106/4/1 110/4/1
f 115/4/1 110/4/1 114/4/1
f 116/4/1 106/4/1 115/4/1
f 117/5/1 113/5/1 112/5/1
f 118/5/1 113/5/1 117/5/1
f 119/5/1 115/5/1 114/5/1
f 120/5/1 115/5/1 119/5/1
f 121/5/2 122/5/2 123/5/2
f 123/5/2 122/5/2 124/5/2
f 125/5/2 126/5/2 129/5/2
f 129/5/2 126/5/2 130/5/2
f 127/5/2 128/5/2 131/5/2
f 131/5/2 128/5/2 132/5/2
f 133/4/2 134/4/2 137/4/2
f 137/4/2 134/4/2 138/4/2
f 135/4/2 136/4/2 139/4/2
f 139/4/2 136/4/2 140/4/2
f 137/5/2 138/5/2 141/5/2
f 141/5/2 138/5/2 142/5/2
f 139/5/2 140/5/2 143/5/2
f 143/5/2 140/5/2 144/5/2
f 145/5/2 146/5/2 149/5/2
f 149/5/2 146/5/2 150/5/2
f 147/5/2 148/5/2 151/5/2
f 151/5/2 148/5/2 152/5/2
f 153/4/2 154/4/2 161/4/2
f 155/4/2 156/4/2 162/4/2
f 157/4/2 158/4/2 163/4/2
f 159/4/2 160/4/2 164/4/2
f 153/4/2 161/4/2 165/4/2
f 161/4/2 162/4/2 165/4/2
f 165/4/2 162/4/2 166/4/2
f 162/4/2 156/4/2 167/4/2
f 166/4/2 162/4/2 167/4/2
f 163/4/2 164/4/2 168/4/2
f 157/4/2 163/4/2 168/4/2
f 164/4/2 160/4/2 169/4/2
f 168/4/2 164/4/2 169/4/2
f 169/4/2 160/4/2 170/4/2
f 166/5/2 167/5/2 171/5/2
f 171/5/2 167/5/2 172/5/2
f 168/5/2 169/5/2 173/5/2
f 173/5/2 169/5/2 174/5/2
f 175/4/2 176/4/2 177/4/2
f 177/4/2 176/4/2 178/4/2
f 179/5/2 180/5/2 181/5/2
f 181/5/2 180/5/2 182/5/2
f 183/4/2 184/4/2 186/4/2
f 186/4/2 184/4/2 187/4/2
f 185/4/2 186/4/2 190/4/2
f 187/4/2 188/4/2 190/4/2
f 186/4/2 187/4/2 190/4/2
f 190/4/2 188/4/2 191/4/2
f 189/5/2 190/5/2 193/5/2
f 193/5/2 190/5/2 194/5/2
f 191/5/2 192/5/2 197/5/2
f 197/5/2 192/5/2 198/5/2
f 194/5/2 195/5/2 199/5/2
f 199/5/2 195/5/2 200/5/2
f 196/5/2 197/5/2 201/5/2
f 201/5/2 197/5/2 202/5/2
f 200/5/2 201/5/2 203/5/2
f 203/5/2 201/5/2 204/5/2
f 205/5/2 206/5/2 207/5/2
f 207/5/2 206/5/2 208/5/2
f 208/5/2 206/5/2 209/5/2
f 209/5/2 206/5/2 210/5/2
f 208/5/2 209/5/2 211/5/2
f 211/5/2 209/5/2 212/5/2
f 215/4/3 214/4/3 213/4/3
f 216/4/3 214/4/3 215/4/3
f 219/5/3 218/5/3 217/5/3
f 220/5/3 218/5/3 219/5/3
f 225/4/3 224/4/3 223/4/3
f 226/4/3 224/4/3 225/4/3
f 227/5/3 222/5/3 221/5/3
f 228/5/3 222/5/3 227/5/3
f 232/5/3 230/5/3 229/5/3
f 233/5/3 230/5/3 232/5/3
f 238/4/3 235/4/3 234/4/3
f 241/5/3 237/5/3 236/5/3
f 242/5/3 239/5/3 238/5/3
f 243/5/3 241/5/3 240/5/3
f 244/5/3 237/5/3 241/5/3
f 244/5/3 241/5/3 243/5/3
f 245/5/3 237/5/3 244/5/3
f 246/5/3 237/5/3 245/5/3
f 247/5/3 242/5/3 238/5/3
f 247/5/3 243/5/3 242/5/3
f 247/5/3 244/5/3 243/5/3
f 248/5/3 244/5/3 247/5/3
f 249/4/3 238/4/3 234/4/3
f 250/5/3 247/5/3 238/5/3
f 250/4/3 238/4/3 249/4/3
f 251/5/3 247/5/3 250/5/3
f 252/5/3 244/5/3 248/5/3
f 253/5/3 244/5/3 252/5/3
f 254/5/3 244/5/3 253/5/3
f 256/5/3 237/5/3 246/5/3
f 257/5/3 255/5/3 254/5/3
f 257/5/3 256/5/3 255/5/3
f 257/5/3 254/5/3 253/5/3
f 258/5/3 237/5/3 256/5/3
f 258/5/3 256/5/3 257/5/3
f 259/4/3 232/4/3 231/4/3
f 260/4/3 232/4/3 259/4/3
f 261/5/3 230/5/3 233/5/3
f 262/5/3 230/5/3 261/5/3
f 263/5/3 261/5/3 260/5/3
f 264/5/3 261/5/3 263/5/3
f 267/5/3 266/5/3 265/5/3
f 268/5/3 266/5/3 267/5/3
f 272/4/3 271/4/3 270/4/3
f 273/4/3 271/4/3 272/4/3
f 275/5/3 269/5/3 268/5/3
f 276/5/3 269/5/3 275/5/3
f 277/5/3 275/5/3 274/5/3
f 278/5/3 275/5/3 277/5/3
f 281/4/3 280/4/3 279/4/3
f 282/4/3 280/4/3 281/4/3
f 285/4/3 284/4/3 283/4/3
f 289/5/3 286/5/3 285/5/3
f 290/5/3 288/5/3 287/5/3
f 291/5/3 289/5/3 285/5/3
f 291/5/3 290/5/3 289/5/3
f 292/5/3 288/5/3 290/5/3
f 292/5/3 290/5/3 291/5/3
f 293/4/3 285/4/3 283/4/3
f 294/5/3 291/5/3 285/5/3
f 294/4/3 285/4/3 293/4/3
f 295/5/3 291/5/3 294/5/3
f 296/5/3 288/5/3 292/5/3
f 297/5/3 288/5/3 296/5/3
f 300/5/3 299/5/3 298/5/3
f 301/5/3 299/5/3 300/5/3
f 304/4/3 303/4/3 302/4/3
f 305/4/3 303/4/3 304/4/3
f 306/4/4 307/4/4 308/4/4
f 308/4/4 307/4/4 309/4/4
f 310/5/4 311/5/4 312/5/4
f 312/5/4 311/5/4 313/5/4
f 314/4/4 315/4/4 316/4/4
f 316/5/4 317/5/4 320/5/4
f 318/5/4 319/5/4 321/5/4
f 316/5/4 320/5/4 322/5/4
f 320/5/4 321/5/4 322/5/4
f 321/5/4 319/5/4 323/5/4
f 322/5/4 321/5/4 323/5/4
f 314/4/4 316/4/4 324/4/4
f 316/5/4 322/5/4 325/5/4
f 324/4/4 316/4/4 325/4/4
f 325/5/4 322/5/4 326/5/4
f 323/5/4 319/5/4 327/5/4
f 327/5/4 319/5/4 328/5/4
f 329/4/4 330/4/4 331/4/4
f 331/4/4 330/4/4 332/4/4
f 333/5/4 334/5/4 335/5/4
f 335/5/4 334/5/4 336/5/4
f 338/4/4 339/4/4 340/4/4
f 340/4/4 339/4/4 341/4/4
f 336/5/4 337/5/4 343/5/4
f 343/5/4 337/5/4 344/5/4
f 342/5/4 343/5/4 345/5/4
f 345/5/4 343/5/4 346/5/4
f 347/5/4 348/5/4 350/5/4
f 350/5/4 348/5/4 351/5/4
f 352/4/4 353/4/4 356/4/4
f 354/5/4 355/5/4 359/5/4
f 356/5/4 357/5/4 360/5/4
f 358/5/4 359/5/4 361/5/4
f 359/5/4 355/5/4 362/5/4
f 361/5/4 359/5/4 362/5/4
f 362/5/4 355/5/4 363/5/4
f 363/5/4 355/5/4 364/5/4
f 356/5/4 360/5/4 365/5/4
f 360/5/4 361/5/4 365/5/4
f 361/5/4 362/5/4 365/5/4
f 365/5/4 362/5/4 366/5/4
f 352/4/4 356/4/4 367/4/4
f 356/5/4 365/5/4 368/5/4
f 367/4/4 356/4/4 368/4/4
f 368/5/4 365/5/4 369/5/4
f 366/5/4 362/5/4 370/5/4
f 370/5/4 362/5/4 371/5/4
f 371/5/4 362/5/4 372/5/4
f 364/5/4 355/5/4 374/5/4
f 372/5/4 373/5/4 375/5/4
f 373/5/4 374/5/4 375/5/4
f 371/5/4 372/5/4 375/5/4
f 374/5/4 355/5/4 376/5/4
f 375/5/4 374/5/4 376/5/4
f 349/4/4 350/4/4 377/4/4
f 377/4/4 350/4/4 378/4/4
f 351/5/4 348/5/4 379/5/4
f 379/5/4 348/5/4 380/5/4
f 378/5/4 379/5/4 381/5/4
f 381/5/4 379/5/4 382/5/4
f 385/4/4 386/4/4 387/4/4
f 387/4/4 386/4/4 388/4/4
f 383/5/4 384/5/4 389/5/4
f 389/5/4 384/5/4 390/5/4
f 391/5/4 392/5/4 393/5/4
f 393/5/4 392/5/4 394/5/4
f 395/4/4 396/4/4 397/4/4
f 397/4/4 396/4/4 398/4/4
f 401/4/5 400/4/5 399/4/5
f 402/4/5 400/4/5 401/4/5
f 405/4/5 404/4/5 403/4/5
f 406/4/5 404/4/5 405/4/5
f 411/5/5 408/5/5 407/5/5
f 412/5/5 408/5/5 411/5/5
f 413/5/5 410/5/5 409/5/5
f 414/5/5 410/5/5 413/5/5
f 419/5/5 416/5/5 415/5/5
f 420/5/5 416/5/5 419/5/5
f 421/5/5 418/5/5 417/5/5
f 422/5/5 418/5/5 421/5/5
f 427/5/5 424/5/5 423/5/5
f 428/5/5 426/5/5 425/5/5
f 429/5/5 427/5/5 423/5/5
f 429/5/5 428/5/5 427/5/5
f 430/5/5 426/5/5 428/5/5
f 430/5/5 428/5/5 429/5/5
f 431/5/5 429/5/5 423/5/5
f 432/5/5 429/5/5 431/5/5
f 433/5/5 426/5/5 430/5/5
f 434/5/5 426/5/5 433/5/5
f 437/4/5 436/4/5 435/4/5
f 438/4/5 436/4/5 437/4/5
f 441/4/5 440/4/5 439/4/5
f 442/4/5 440/4/5 441/4/5
f 445/4/5 444/4/5 443/4/5
f 446/4/5 444/4/5 445/4/5
f 449/4/5 448/4/5 447/4/5
f 450/4/5 448/4/5 449/4/5
f 453/4/5 452/4/5 451/4/5
f 454/4/5 452/4/5 453/4/5
f 457/4/5 456/4/5 455/4/5
f 458/4/5 456/4/5 457/4/5
f 461/4/5 460/4/5 459/4/5
f 462/4/5 460/4/5 461/4/5
f 463/4/5 461/4/5 459/4/5
f 464/4/5 461/4/5 463/4/5
f 465/2/5 464/2/5 463/2/5
f 466/4/5 461/4/5 464/4/5
f 466/2/5 464/2/5 465/2/5
f 467/4/5 466/4/5 465/4/5
f 467/4/5 461/4/5 466/4/5
f 468/4/5 460/4/5 462/4/5
f 469/4/5 467/4/5 465/4/5
f 469/4/5 468/4/5 467/4/5
f 470/4/5 460/4/5 468/4/5
f 470/4/5 468/4/5 469/4/5
f 473/4/5 472/4/5 471/4/5
f 474/4/5 472/4/5 473/4/5
f 477/4/5 476/4/5 475/4/5
f 478/4/5 476/4/5 477/4/5
f 482/5/5 480/5/5 479/5/5
f 483/5/5 480/5/5 482/5/5
f 485/5/5 482/5/5 481/5/5
f 486/5/5 485/5/5 481/5/5
f 487/5/5 486/5/5 481/5/5
f 488/5/5 487/5/5 481/5/5
f 489/5/5 488/5/5 481/5/5
f 490/5/5 489/5/5 481/5/5
f 491/5/5 490/5/5 481/5/5
f 492/5/5 490/5/5 491/5/5
f 493/5/5 484/5/5 483/5/5
f 494/5/5 484/5/5 493/5/5
f 495/5/5 493/5/5 492/5/5
f 496/5/5 493/5/5 495/5/5
f 499/5/5 498/5/5 497/5/5
f 500/5/5 498/5/5 499/5/5
f 503/5/5 502/5/5 501/5/5
f 504/5/5 502/5/5 503/5/5
f 505/4/6 506/4/6 507/4/6
f 507/4/6 506/4/6 508/4/6
f 509/4/6 510/4/6 511/4/6
f 511/4/6 510/4/6 512/4/6
f 513/5/6 514/5/6 517/5/6
f 517/5/6 514/5/6 518/5/6
f 515/5/6 516/5/6 519/5/6
f 519/5/6 516/5/6 520/5/6
f 521/5/6 522/5/6 525/5/6
f 525/5/6 522/5/6 526/5/6
f 523/5/6 524/5/6 527/5/6
f 527/5/6 524/5/6 528/5/6
f 529/4/6 530/4/6 531/4/6
f 531/4/6 530/4/6 532/4/6
f 533/4/6 534/4/6 535/4/6
f 535/4/6 534/4/6 536/4/6
f 537/5/6 538/5/6 539/5/6
f 539/5/6 538/5/6 540/5/6
f 541/5/6 542/5/6 543/5/6
f 543/5/6 542/5/6 544/5/6
f 545/5/6 546/5/6 547/5/6
f 547/5/6 546/5/6 548/5/6
f 545/5/6 547/5/6 549/5/6
f 549/5/6 547/5/6 550/5/6
f 549/1/6 550/1/6 551/1/6
f 551/1/6 550/1/6 552/1/6
f 551/5/6 552/5/6 553/5/6
f 548/5/6 546/5/6 554/5/6
f 551/5/6 553/5/6 555/5/6
f 553/5/6 554/5/6 555/5/6
f 554/5/6 546/5/6 556/5/6
f 555/5/6 554/5/6 556/5/6
f 557/5/6 558/5/6 559/5/6
f 559/5/6 558/5/6 560/5/6
f 560/5/6 561/5/6 564/5/6
f 564/5/6 561/5/6 565/5/6
f 562/5/6 563/5/6 566/5/6
f 566/5/6 563/5/6 567/5/6
f 568/5/6 569/5/6 571/5/6
f 571/5/6 569/5/6 572/5/6
f 570/5/6 571/5/6 573/5/6
f 573/5/6 571/5/6 574/5/6
f 575/5/6 576/5/6 578/5/6
f 578/5/6 576/5/6 579/5/6
f 577/5/6 578/5/6 581/5/6
f 581/5/6 578/5/6 582/5/6
f 579/5/6 580/5/6 583/5/6
f 583/5/6 580/5/6 584/5/6
f 582/5/6 583/5/6 585/5/6
f 585/5/6 583/5/6 586/5/6
f 587/5/6 588/5/6 589/5/6
f 589/5/6 588/5/6 590/5/6
