# MagicaVoxel @ Ephtracy

# group
o 

# material
mtllib lvl1-0.mtl
usemtl palette

# normals
vn -1 0 0
vn 1 0 0
vn 0 0 1
vn 0 0 -1
vn 0 -1 0
vn 0 1 0

# texcoords
vt 0.0253906 0.5
vt 0.126953 0.5
vt 0.349609 0.5

# verts
v -6.2 5.4 -5.3
v -6.2 5.4 -5.4
v -6.2 5.5 -5.3
v -6.2 5.5 -5.4
v -6.1 5.4 -5.1
v -6.1 5.4 -5.3
v -6.1 5.5 -5.1
v -6.1 5.5 -5.3
v -6 5.4 -5
v -6 5.4 -5.1
v -6 5.5 -5
v -6 5.5 -5.1
v -5.9 5.4 -4.8
v -5.9 5.4 -4.9
v -5.9 5.4 -5
v -5.9 5.5 -4.8
v -5.9 5.5 -4.9
v -5.9 5.5 -5
v -5.8 5.4 -4.7
v -5.8 5.4 -4.8
v -5.8 5.5 -4.8
v -5.8 5.5 -4.9
v -5.8 5.5 -5
v -5.8 5.6 -4.7
v -5.8 5.6 -5
v -5.7 5.4 -4.6
v -5.7 5.4 -4.7
v -5.7 5.6 -4.6
v -5.7 5.6 -4.7
v -5.6 5.4 -4.5
v -5.6 5.4 -4.6
v -5.6 5.5 -4.5
v -5.6 5.5 -4.6
v -5.6 5.6 -4.5
v -5.6 5.6 -4.6
v -6 5.4 -5.2
v -6 5.4 -5.4
v -6 5.5 -5.2
v -6 5.5 -5.4
v -5.9 5.4 -5.1
v -5.9 5.4 -5.2
v -5.9 5.5 -5.1
v -5.9 5.5 -5.2
v -5.8 5.4 -5
v -5.8 5.4 -5.1
v -5.8 5.5 -5
v -5.8 5.5 -5.1
v -5.6 5.4 -4.9
v -5.6 5.4 -5
v -5.6 5.6 -4.9
v -5.6 5.6 -5
v -5.5 5.4 -4.5
v -5.5 5.4 -4.6
v -5.5 5.5 -4.5
v -5.5 5.5 -4.6
v -5.5 5.6 -4.5
v -5.5 5.6 -4.6
v -5.4 5.4 -4.6
v -5.4 5.4 -4.7
v -5.4 5.4 -4.8
v -5.4 5.4 -4.9
v -5.4 5.5 -4.7
v -5.4 5.5 -4.8
v -5.4 5.6 -4.6
v -5.4 5.6 -4.7
v -5.4 5.6 -4.8
v -5.4 5.6 -4.9
v -5.3 5.4 -4.7
v -5.3 5.4 -4.8
v -5.3 5.5 -4.7
v -5.3 5.5 -4.8
v -5.3 5.6 -4.7
v -5.3 5.6 -4.8
v -5.6 5.4 -4.5
v -5.6 5.5 -4.5
v -5.6 5.6 -4.5
v -5.5 5.4 -4.5
v -5.5 5.5 -4.5
v -5.5 5.6 -4.5
v -5.7 5.4 -4.6
v -5.7 5.6 -4.6
v -5.6 5.4 -4.6
v -5.6 5.5 -4.6
v -5.6 5.6 -4.6
v -5.5 5.4 -4.6
v -5.5 5.5 -4.6
v -5.5 5.6 -4.6
v -5.4 5.4 -4.6
v -5.4 5.6 -4.6
v -5.8 5.4 -4.7
v -5.8 5.6 -4.7
v -5.7 5.4 -4.7
v -5.7 5.6 -4.7
v -5.4 5.4 -4.7
v -5.4 5.5 -4.7
v -5.4 5.6 -4.7
v -5.3 5.4 -4.7
v -5.3 5.5 -4.7
v -5.3 5.6 -4.7
v -5.9 5.4 -4.8
v -5.9 5.5 -4.8
v -5.8 5.4 -4.8
v -5.8 5.5 -4.8
v -6 5.4 -5
v -6 5.5 -5
v -5.9 5.4 -5
v -5.9 5.5 -5
v -6.1 5.4 -5.1
v -6.1 5.5 -5.1
v -6 5.4 -5.1
v -6 5.5 -5.1
v -6.2 5.4 -5.3
v -6.2 5.5 -5.3
v -6.1 5.4 -5.3
v -6.1 5.5 -5.3
v -5.4 5.4 -4.8
v -5.4 5.5 -4.8
v -5.4 5.6 -4.8
v -5.3 5.4 -4.8
v -5.3 5.5 -4.8
v -5.3 5.6 -4.8
v -5.6 5.4 -4.9
v -5.6 5.6 -4.9
v -5.4 5.4 -4.9
v -5.4 5.6 -4.9
v -5.8 5.4 -5
v -5.8 5.5 -5
v -5.8 5.6 -5
v -5.6 5.4 -5
v -5.6 5.6 -5
v -5.9 5.4 -5.1
v -5.9 5.5 -5.1
v -5.8 5.4 -5.1
v -5.8 5.5 -5.1
v -6 5.4 -5.2
v -6 5.5 -5.2
v -5.9 5.4 -5.2
v -5.9 5.5 -5.2
v -6.2 5.4 -5.4
v -6.2 5.5 -5.4
v -6 5.4 -5.4
v -6 5.5 -5.4
v -5.6 5.4 -4.5
v -5.5 5.4 -4.5
v -5.7 5.4 -4.6
v -5.6 5.4 -4.6
v -5.5 5.4 -4.6
v -5.4 5.4 -4.6
v -5.8 5.4 -4.7
v -5.7 5.4 -4.7
v -5.4 5.4 -4.7
v -5.3 5.4 -4.7
v -5.9 5.4 -4.8
v -5.8 5.4 -4.8
v -5.4 5.4 -4.8
v -5.3 5.4 -4.8
v -5.9 5.4 -4.9
v -5.8 5.4 -4.9
v -5.6 5.4 -4.9
v -5.4 5.4 -4.9
v -6 5.4 -5
v -5.9 5.4 -5
v -5.8 5.4 -5
v -5.6 5.4 -5
v -6.1 5.4 -5.1
v -6 5.4 -5.1
v -5.9 5.4 -5.1
v -5.8 5.4 -5.1
v -6 5.4 -5.2
v -5.9 5.4 -5.2
v -6.2 5.4 -5.3
v -6.1 5.4 -5.3
v -6.2 5.4 -5.4
v -6 5.4 -5.4
v -5.9 5.5 -4.8
v -5.8 5.5 -4.8
v -5.9 5.5 -4.9
v -5.8 5.5 -4.9
v -6 5.5 -5
v -5.9 5.5 -5
v -5.8 5.5 -5
v -6.1 5.5 -5.1
v -6 5.5 -5.1
v -5.9 5.5 -5.1
v -5.8 5.5 -5.1
v -6 5.5 -5.2
v -5.9 5.5 -5.2
v -6.2 5.5 -5.3
v -6.1 5.5 -5.3
v -6.2 5.5 -5.4
v -6 5.5 -5.4
v -5.6 5.6 -4.5
v -5.5 5.6 -4.5
v -5.7 5.6 -4.6
v -5.6 5.6 -4.6
v -5.5 5.6 -4.6
v -5.4 5.6 -4.6
v -5.8 5.6 -4.7
v -5.7 5.6 -4.7
v -5.4 5.6 -4.7
v -5.3 5.6 -4.7
v -5.4 5.6 -4.8
v -5.3 5.6 -4.8
v -5.6 5.6 -4.9
v -5.4 5.6 -4.9
v -5.8 5.6 -5
v -5.6 5.6 -5

# faces
f 3/2/1 2/2/1 1/2/1
f 4/2/1 2/2/1 3/2/1
f 7/2/1 6/2/1 5/2/1
f 8/2/1 6/2/1 7/2/1
f 11/2/1 10/2/1 9/2/1
f 12/2/1 10/2/1 11/2/1
f 16/3/1 14/3/1 13/3/1
f 17/2/1 15/2/1 14/2/1
f 17/3/1 14/3/1 16/3/1
f 18/2/1 15/2/1 17/2/1
f 21/3/1 20/3/1 19/3/1
f 24/3/1 21/3/1 19/3/1
f 24/3/1 23/3/1 22/3/1
f 24/3/1 22/3/1 21/3/1
f 25/3/1 23/3/1 24/3/1
f 28/3/1 27/3/1 26/3/1
f 29/3/1 27/3/1 28/3/1
f 32/3/1 31/3/1 30/3/1
f 33/3/1 31/3/1 32/3/1
f 34/1/1 33/1/1 32/1/1
f 35/1/1 33/1/1 34/1/1
f 36/2/2 37/2/2 38/2/2
f 38/2/2 37/2/2 39/2/2
f 40/2/2 41/2/2 42/2/2
f 42/2/2 41/2/2 43/2/2
f 44/2/2 45/2/2 46/2/2
f 46/2/2 45/2/2 47/2/2
f 48/3/2 49/3/2 50/3/2
f 50/3/2 49/3/2 51/3/2
f 52/3/2 53/3/2 54/3/2
f 54/3/2 53/3/2 55/3/2
f 54/1/2 55/1/2 56/1/2
f 56/1/2 55/1/2 57/1/2
f 58/3/2 59/3/2 62/3/2
f 60/3/2 61/3/2 63/3/2
f 58/3/2 62/3/2 64/3/2
f 64/3/2 62/3/2 65/3/2
f 63/3/2 61/3/2 66/3/2
f 66/3/2 61/3/2 67/3/2
f 68/3/2 69/3/2 70/3/2
f 70/3/2 69/3/2 71/3/2
f 70/1/2 71/1/2 72/1/2
f 72/1/2 71/1/2 73/1/2
f 77/3/3 75/3/3 74/3/3
f 78/1/3 76/1/3 75/1/3
f 78/3/3 75/3/3 77/3/3
f 79/1/3 76/1/3 78/1/3
f 82/3/3 81/3/3 80/3/3
f 83/3/3 81/3/3 82/3/3
f 84/3/3 81/3/3 83/3/3
f 88/3/3 86/3/3 85/3/3
f 88/3/3 87/3/3 86/3/3
f 89/3/3 87/3/3 88/3/3
f 92/3/3 91/3/3 90/3/3
f 93/3/3 91/3/3 92/3/3
f 97/3/3 95/3/3 94/3/3
f 98/1/3 96/1/3 95/1/3
f 98/3/3 95/3/3 97/3/3
f 99/1/3 96/1/3 98/1/3
f 102/3/3 101/3/3 100/3/3
f 103/3/3 101/3/3 102/3/3
f 106/2/3 105/2/3 104/2/3
f 107/2/3 105/2/3 106/2/3
f 110/2/3 109/2/3 108/2/3
f 111/2/3 109/2/3 110/2/3
f 114/2/3 113/2/3 112/2/3
f 115/2/3 113/2/3 114/2/3
f 116/3/4 117/3/4 119/3/4
f 117/1/4 118/1/4 120/1/4
f 119/3/4 117/3/4 120/3/4
f 120/1/4 118/1/4 121/1/4
f 122/3/4 123/3/4 124/3/4
f 124/3/4 123/3/4 125/3/4
f 126/3/4 127/3/4 129/3/4
f 127/3/4 128/3/4 129/3/4
f 129/3/4 128/3/4 130/3/4
f 131/2/4 132/2/4 133/2/4
f 133/2/4 132/2/4 134/2/4
f 135/2/4 136/2/4 137/2/4
f 137/2/4 136/2/4 138/2/4
f 139/2/4 140/2/4 141/2/4
f 141/2/4 140/2/4 142/2/4
f 146/3/5 144/3/5 143/3/5
f 147/3/5 144/3/5 146/3/5
f 150/3/5 146/3/5 145/3/5
f 150/3/5 148/3/5 147/3/5
f 150/3/5 147/3/5 146/3/5
f 151/3/5 148/3/5 150/3/5
f 154/3/5 150/3/5 149/3/5
f 154/3/5 152/3/5 151/3/5
f 154/3/5 151/3/5 150/3/5
f 155/3/5 152/3/5 154/3/5
f 156/3/5 152/3/5 155/3/5
f 157/3/5 154/3/5 153/3/5
f 157/3/5 155/3/5 154/3/5
f 158/3/5 155/3/5 157/3/5
f 159/3/5 155/3/5 158/3/5
f 160/3/5 155/3/5 159/3/5
f 162/2/5 158/2/5 157/2/5
f 163/3/5 159/3/5 158/3/5
f 163/2/5 158/2/5 162/2/5
f 164/3/5 159/3/5 163/3/5
f 166/2/5 162/2/5 161/2/5
f 166/2/5 163/2/5 162/2/5
f 167/2/5 163/2/5 166/2/5
f 168/2/5 163/2/5 167/2/5
f 169/2/5 166/2/5 165/2/5
f 169/2/5 167/2/5 166/2/5
f 170/2/5 167/2/5 169/2/5
f 172/2/5 169/2/5 165/2/5
f 173/2/5 172/2/5 171/2/5
f 174/2/5 169/2/5 172/2/5
f 174/2/5 172/2/5 173/2/5
f 175/3/6 176/3/6 177/3/6
f 177/3/6 176/3/6 178/3/6
f 177/2/6 178/2/6 180/2/6
f 180/2/6 178/2/6 181/2/6
f 179/2/6 180/2/6 183/2/6
f 180/2/6 181/2/6 183/2/6
f 183/2/6 181/2/6 184/2/6
f 184/2/6 181/2/6 185/2/6
f 182/2/6 183/2/6 186/2/6
f 183/2/6 184/2/6 186/2/6
f 186/2/6 184/2/6 187/2/6
f 182/2/6 186/2/6 189/2/6
f 188/2/6 189/2/6 190/2/6
f 189/2/6 186/2/6 191/2/6
f 190/2/6 189/2/6 191/2/6
f 192/1/6 193/1/6 195/1/6
f 195/1/6 193/1/6 196/1/6
f 194/3/6 195/3/6 199/3/6
f 196/3/6 197/3/6 199/3/6
f 195/3/6 196/3/6 199/3/6
f 199/3/6 197/3/6 200/3/6
f 198/3/6 199/3/6 202/3/6
f 200/1/6 201/1/6 202/1/6
f 199/3/6 200/3/6 202/3/6
f 202/1/6 201/1/6 203/1/6
f 198/3/6 202/3/6 204/3/6
f 204/3/6 202/3/6 205/3/6
f 198/3/6 204/3/6 206/3/6
f 206/3/6 204/3/6 207/3/6
